G75*
%MOIN*%
%OFA0B0*%
%FSLAX25Y25*%
%IPPOS*%
%LPD*%
%AMOC8*
5,1,8,0,0,1.08239X$1,22.5*
%
%ADD10C,0.00000*%
%ADD11C,0.15811*%
%ADD12C,0.07677*%
%ADD13R,0.07000X0.07000*%
%ADD14C,0.07000*%
%ADD15C,0.17717*%
%ADD16OC8,0.05200*%
%ADD17C,0.00600*%
D10*
X0063342Y0020985D02*
X0063342Y0204056D01*
X0063344Y0204246D01*
X0063351Y0204436D01*
X0063363Y0204626D01*
X0063379Y0204816D01*
X0063399Y0205005D01*
X0063425Y0205194D01*
X0063454Y0205382D01*
X0063489Y0205569D01*
X0063528Y0205755D01*
X0063571Y0205940D01*
X0063619Y0206125D01*
X0063671Y0206308D01*
X0063727Y0206489D01*
X0063788Y0206669D01*
X0063854Y0206848D01*
X0063923Y0207025D01*
X0063997Y0207201D01*
X0064075Y0207374D01*
X0064158Y0207546D01*
X0064244Y0207715D01*
X0064334Y0207883D01*
X0064429Y0208048D01*
X0064527Y0208211D01*
X0064630Y0208371D01*
X0064736Y0208529D01*
X0064846Y0208684D01*
X0064959Y0208837D01*
X0065077Y0208987D01*
X0065198Y0209133D01*
X0065322Y0209277D01*
X0065450Y0209418D01*
X0065581Y0209556D01*
X0065716Y0209691D01*
X0065854Y0209822D01*
X0065995Y0209950D01*
X0066139Y0210074D01*
X0066285Y0210195D01*
X0066435Y0210313D01*
X0066588Y0210426D01*
X0066743Y0210536D01*
X0066901Y0210642D01*
X0067061Y0210745D01*
X0067224Y0210843D01*
X0067389Y0210938D01*
X0067557Y0211028D01*
X0067726Y0211114D01*
X0067898Y0211197D01*
X0068071Y0211275D01*
X0068247Y0211349D01*
X0068424Y0211418D01*
X0068603Y0211484D01*
X0068783Y0211545D01*
X0068964Y0211601D01*
X0069147Y0211653D01*
X0069332Y0211701D01*
X0069517Y0211744D01*
X0069703Y0211783D01*
X0069890Y0211818D01*
X0070078Y0211847D01*
X0070267Y0211873D01*
X0070456Y0211893D01*
X0070646Y0211909D01*
X0070836Y0211921D01*
X0071026Y0211928D01*
X0071216Y0211930D01*
X0083027Y0211930D01*
X0083217Y0211932D01*
X0083407Y0211939D01*
X0083597Y0211951D01*
X0083787Y0211967D01*
X0083976Y0211987D01*
X0084165Y0212013D01*
X0084353Y0212042D01*
X0084540Y0212077D01*
X0084726Y0212116D01*
X0084911Y0212159D01*
X0085096Y0212207D01*
X0085279Y0212259D01*
X0085460Y0212315D01*
X0085640Y0212376D01*
X0085819Y0212442D01*
X0085996Y0212511D01*
X0086172Y0212585D01*
X0086345Y0212663D01*
X0086517Y0212746D01*
X0086686Y0212832D01*
X0086854Y0212922D01*
X0087019Y0213017D01*
X0087182Y0213115D01*
X0087342Y0213218D01*
X0087500Y0213324D01*
X0087655Y0213434D01*
X0087808Y0213547D01*
X0087958Y0213665D01*
X0088104Y0213786D01*
X0088248Y0213910D01*
X0088389Y0214038D01*
X0088527Y0214169D01*
X0088662Y0214304D01*
X0088793Y0214442D01*
X0088921Y0214583D01*
X0089045Y0214727D01*
X0089166Y0214873D01*
X0089284Y0215023D01*
X0089397Y0215176D01*
X0089507Y0215331D01*
X0089613Y0215489D01*
X0089716Y0215649D01*
X0089814Y0215812D01*
X0089909Y0215977D01*
X0089999Y0216145D01*
X0090085Y0216314D01*
X0090168Y0216486D01*
X0090246Y0216659D01*
X0090320Y0216835D01*
X0090389Y0217012D01*
X0090455Y0217191D01*
X0090516Y0217371D01*
X0090572Y0217552D01*
X0090624Y0217735D01*
X0090672Y0217920D01*
X0090715Y0218105D01*
X0090754Y0218291D01*
X0090789Y0218478D01*
X0090818Y0218666D01*
X0090844Y0218855D01*
X0090864Y0219044D01*
X0090880Y0219234D01*
X0090892Y0219424D01*
X0090899Y0219614D01*
X0090901Y0219804D01*
X0090901Y0259174D01*
X0090899Y0259364D01*
X0090892Y0259554D01*
X0090880Y0259744D01*
X0090864Y0259934D01*
X0090844Y0260123D01*
X0090818Y0260312D01*
X0090789Y0260500D01*
X0090754Y0260687D01*
X0090715Y0260873D01*
X0090672Y0261058D01*
X0090624Y0261243D01*
X0090572Y0261426D01*
X0090516Y0261607D01*
X0090455Y0261787D01*
X0090389Y0261966D01*
X0090320Y0262143D01*
X0090246Y0262319D01*
X0090168Y0262492D01*
X0090085Y0262664D01*
X0089999Y0262833D01*
X0089909Y0263001D01*
X0089814Y0263166D01*
X0089716Y0263329D01*
X0089613Y0263489D01*
X0089507Y0263647D01*
X0089397Y0263802D01*
X0089284Y0263955D01*
X0089166Y0264105D01*
X0089045Y0264251D01*
X0088921Y0264395D01*
X0088793Y0264536D01*
X0088662Y0264674D01*
X0088527Y0264809D01*
X0088389Y0264940D01*
X0088248Y0265068D01*
X0088104Y0265192D01*
X0087958Y0265313D01*
X0087808Y0265431D01*
X0087655Y0265544D01*
X0087500Y0265654D01*
X0087342Y0265760D01*
X0087182Y0265863D01*
X0087019Y0265961D01*
X0086854Y0266056D01*
X0086686Y0266146D01*
X0086517Y0266232D01*
X0086345Y0266315D01*
X0086172Y0266393D01*
X0085996Y0266467D01*
X0085819Y0266536D01*
X0085640Y0266602D01*
X0085460Y0266663D01*
X0085279Y0266719D01*
X0085096Y0266771D01*
X0084911Y0266819D01*
X0084726Y0266862D01*
X0084540Y0266901D01*
X0084353Y0266936D01*
X0084165Y0266965D01*
X0083976Y0266991D01*
X0083787Y0267011D01*
X0083597Y0267027D01*
X0083407Y0267039D01*
X0083217Y0267046D01*
X0083027Y0267048D01*
X0071216Y0267048D01*
X0071026Y0267050D01*
X0070836Y0267057D01*
X0070646Y0267069D01*
X0070456Y0267085D01*
X0070267Y0267105D01*
X0070078Y0267131D01*
X0069890Y0267160D01*
X0069703Y0267195D01*
X0069517Y0267234D01*
X0069332Y0267277D01*
X0069147Y0267325D01*
X0068964Y0267377D01*
X0068783Y0267433D01*
X0068603Y0267494D01*
X0068424Y0267560D01*
X0068247Y0267629D01*
X0068071Y0267703D01*
X0067898Y0267781D01*
X0067726Y0267864D01*
X0067557Y0267950D01*
X0067389Y0268040D01*
X0067224Y0268135D01*
X0067061Y0268233D01*
X0066901Y0268336D01*
X0066743Y0268442D01*
X0066588Y0268552D01*
X0066435Y0268665D01*
X0066285Y0268783D01*
X0066139Y0268904D01*
X0065995Y0269028D01*
X0065854Y0269156D01*
X0065716Y0269287D01*
X0065581Y0269422D01*
X0065450Y0269560D01*
X0065322Y0269701D01*
X0065198Y0269845D01*
X0065077Y0269991D01*
X0064959Y0270141D01*
X0064846Y0270294D01*
X0064736Y0270449D01*
X0064630Y0270607D01*
X0064527Y0270767D01*
X0064429Y0270930D01*
X0064334Y0271095D01*
X0064244Y0271263D01*
X0064158Y0271432D01*
X0064075Y0271604D01*
X0063997Y0271777D01*
X0063923Y0271953D01*
X0063854Y0272130D01*
X0063788Y0272309D01*
X0063727Y0272489D01*
X0063671Y0272670D01*
X0063619Y0272853D01*
X0063571Y0273038D01*
X0063528Y0273223D01*
X0063489Y0273409D01*
X0063454Y0273596D01*
X0063425Y0273784D01*
X0063399Y0273973D01*
X0063379Y0274162D01*
X0063363Y0274352D01*
X0063351Y0274542D01*
X0063344Y0274732D01*
X0063342Y0274922D01*
X0063342Y0301300D01*
X0063348Y0301783D01*
X0063365Y0302266D01*
X0063395Y0302749D01*
X0063435Y0303230D01*
X0063488Y0303711D01*
X0063552Y0304190D01*
X0063627Y0304667D01*
X0063715Y0305143D01*
X0063813Y0305616D01*
X0063923Y0306086D01*
X0064044Y0306554D01*
X0064177Y0307019D01*
X0064321Y0307480D01*
X0064476Y0307938D01*
X0064642Y0308392D01*
X0064819Y0308842D01*
X0065006Y0309287D01*
X0065205Y0309728D01*
X0065413Y0310164D01*
X0065633Y0310594D01*
X0065863Y0311020D01*
X0066103Y0311439D01*
X0066353Y0311853D01*
X0066613Y0312260D01*
X0066882Y0312661D01*
X0067162Y0313056D01*
X0067450Y0313443D01*
X0067749Y0313824D01*
X0068056Y0314197D01*
X0068372Y0314562D01*
X0068697Y0314920D01*
X0069030Y0315270D01*
X0069372Y0315612D01*
X0069722Y0315945D01*
X0070080Y0316270D01*
X0070445Y0316586D01*
X0070818Y0316893D01*
X0071199Y0317192D01*
X0071586Y0317480D01*
X0071981Y0317760D01*
X0072382Y0318029D01*
X0072789Y0318289D01*
X0073203Y0318539D01*
X0073622Y0318779D01*
X0074048Y0319009D01*
X0074478Y0319229D01*
X0074914Y0319437D01*
X0075355Y0319636D01*
X0075800Y0319823D01*
X0076250Y0320000D01*
X0076704Y0320166D01*
X0077162Y0320321D01*
X0077623Y0320465D01*
X0078088Y0320598D01*
X0078556Y0320719D01*
X0079026Y0320829D01*
X0079499Y0320927D01*
X0079975Y0321015D01*
X0080452Y0321090D01*
X0080931Y0321154D01*
X0081412Y0321207D01*
X0081893Y0321247D01*
X0082376Y0321277D01*
X0082859Y0321294D01*
X0083342Y0321300D01*
X0433342Y0321300D01*
X0433825Y0321294D01*
X0434308Y0321277D01*
X0434791Y0321247D01*
X0435272Y0321207D01*
X0435753Y0321154D01*
X0436232Y0321090D01*
X0436709Y0321015D01*
X0437185Y0320927D01*
X0437658Y0320829D01*
X0438128Y0320719D01*
X0438596Y0320598D01*
X0439061Y0320465D01*
X0439522Y0320321D01*
X0439980Y0320166D01*
X0440434Y0320000D01*
X0440884Y0319823D01*
X0441329Y0319636D01*
X0441770Y0319437D01*
X0442206Y0319229D01*
X0442636Y0319009D01*
X0443062Y0318779D01*
X0443481Y0318539D01*
X0443895Y0318289D01*
X0444302Y0318029D01*
X0444703Y0317760D01*
X0445098Y0317480D01*
X0445485Y0317192D01*
X0445866Y0316893D01*
X0446239Y0316586D01*
X0446604Y0316270D01*
X0446962Y0315945D01*
X0447312Y0315612D01*
X0447654Y0315270D01*
X0447987Y0314920D01*
X0448312Y0314562D01*
X0448628Y0314197D01*
X0448935Y0313824D01*
X0449234Y0313443D01*
X0449522Y0313056D01*
X0449802Y0312661D01*
X0450071Y0312260D01*
X0450331Y0311853D01*
X0450581Y0311439D01*
X0450821Y0311020D01*
X0451051Y0310594D01*
X0451271Y0310164D01*
X0451479Y0309728D01*
X0451678Y0309287D01*
X0451865Y0308842D01*
X0452042Y0308392D01*
X0452208Y0307938D01*
X0452363Y0307480D01*
X0452507Y0307019D01*
X0452640Y0306554D01*
X0452761Y0306086D01*
X0452871Y0305616D01*
X0452969Y0305143D01*
X0453057Y0304667D01*
X0453132Y0304190D01*
X0453196Y0303711D01*
X0453249Y0303230D01*
X0453289Y0302749D01*
X0453319Y0302266D01*
X0453336Y0301783D01*
X0453342Y0301300D01*
X0453342Y0021300D01*
X0453336Y0020817D01*
X0453319Y0020334D01*
X0453289Y0019851D01*
X0453249Y0019370D01*
X0453196Y0018889D01*
X0453132Y0018410D01*
X0453057Y0017933D01*
X0452969Y0017457D01*
X0452871Y0016984D01*
X0452761Y0016514D01*
X0452640Y0016046D01*
X0452507Y0015581D01*
X0452363Y0015120D01*
X0452208Y0014662D01*
X0452042Y0014208D01*
X0451865Y0013758D01*
X0451678Y0013313D01*
X0451479Y0012872D01*
X0451271Y0012436D01*
X0451051Y0012006D01*
X0450821Y0011580D01*
X0450581Y0011161D01*
X0450331Y0010747D01*
X0450071Y0010340D01*
X0449802Y0009939D01*
X0449522Y0009544D01*
X0449234Y0009157D01*
X0448935Y0008776D01*
X0448628Y0008403D01*
X0448312Y0008038D01*
X0447987Y0007680D01*
X0447654Y0007330D01*
X0447312Y0006988D01*
X0446962Y0006655D01*
X0446604Y0006330D01*
X0446239Y0006014D01*
X0445866Y0005707D01*
X0445485Y0005408D01*
X0445098Y0005120D01*
X0444703Y0004840D01*
X0444302Y0004571D01*
X0443895Y0004311D01*
X0443481Y0004061D01*
X0443062Y0003821D01*
X0442636Y0003591D01*
X0442206Y0003371D01*
X0441770Y0003163D01*
X0441329Y0002964D01*
X0440884Y0002777D01*
X0440434Y0002600D01*
X0439980Y0002434D01*
X0439522Y0002279D01*
X0439061Y0002135D01*
X0438596Y0002002D01*
X0438128Y0001881D01*
X0437658Y0001771D01*
X0437185Y0001673D01*
X0436709Y0001585D01*
X0436232Y0001510D01*
X0435753Y0001446D01*
X0435272Y0001393D01*
X0434791Y0001353D01*
X0434308Y0001323D01*
X0433825Y0001306D01*
X0433342Y0001300D01*
X0083342Y0001300D01*
X0082859Y0001306D01*
X0082376Y0001323D01*
X0081893Y0001353D01*
X0081412Y0001393D01*
X0080931Y0001446D01*
X0080452Y0001510D01*
X0079975Y0001585D01*
X0079499Y0001673D01*
X0079026Y0001771D01*
X0078556Y0001881D01*
X0078088Y0002002D01*
X0077623Y0002135D01*
X0077162Y0002279D01*
X0076704Y0002434D01*
X0076250Y0002600D01*
X0075800Y0002777D01*
X0075355Y0002964D01*
X0074914Y0003163D01*
X0074478Y0003371D01*
X0074048Y0003591D01*
X0073622Y0003821D01*
X0073203Y0004061D01*
X0072789Y0004311D01*
X0072382Y0004571D01*
X0071981Y0004840D01*
X0071586Y0005120D01*
X0071199Y0005408D01*
X0070818Y0005707D01*
X0070445Y0006014D01*
X0070080Y0006330D01*
X0069722Y0006655D01*
X0069372Y0006988D01*
X0069030Y0007330D01*
X0068697Y0007680D01*
X0068372Y0008038D01*
X0068056Y0008403D01*
X0067749Y0008776D01*
X0067450Y0009157D01*
X0067162Y0009544D01*
X0066882Y0009939D01*
X0066613Y0010340D01*
X0066353Y0010747D01*
X0066103Y0011161D01*
X0065863Y0011580D01*
X0065633Y0012006D01*
X0065413Y0012436D01*
X0065205Y0012872D01*
X0065006Y0013313D01*
X0064819Y0013758D01*
X0064642Y0014208D01*
X0064476Y0014662D01*
X0064321Y0015120D01*
X0064177Y0015581D01*
X0064044Y0016046D01*
X0063923Y0016514D01*
X0063813Y0016984D01*
X0063715Y0017457D01*
X0063627Y0017933D01*
X0063552Y0018410D01*
X0063488Y0018889D01*
X0063435Y0019370D01*
X0063395Y0019851D01*
X0063365Y0020334D01*
X0063348Y0020817D01*
X0063342Y0021300D01*
X0155980Y0244233D02*
X0155985Y0244619D01*
X0155999Y0245006D01*
X0156023Y0245391D01*
X0156056Y0245777D01*
X0156098Y0246161D01*
X0156150Y0246544D01*
X0156212Y0246925D01*
X0156283Y0247305D01*
X0156363Y0247683D01*
X0156452Y0248059D01*
X0156550Y0248433D01*
X0156658Y0248804D01*
X0156775Y0249173D01*
X0156901Y0249538D01*
X0157035Y0249901D01*
X0157179Y0250259D01*
X0157331Y0250615D01*
X0157492Y0250966D01*
X0157662Y0251313D01*
X0157840Y0251657D01*
X0158026Y0251995D01*
X0158220Y0252329D01*
X0158423Y0252658D01*
X0158634Y0252982D01*
X0158853Y0253301D01*
X0159079Y0253614D01*
X0159313Y0253922D01*
X0159555Y0254223D01*
X0159803Y0254519D01*
X0160060Y0254809D01*
X0160323Y0255092D01*
X0160592Y0255369D01*
X0160869Y0255638D01*
X0161152Y0255901D01*
X0161442Y0256158D01*
X0161738Y0256406D01*
X0162039Y0256648D01*
X0162347Y0256882D01*
X0162660Y0257108D01*
X0162979Y0257327D01*
X0163303Y0257538D01*
X0163632Y0257741D01*
X0163966Y0257935D01*
X0164304Y0258121D01*
X0164648Y0258299D01*
X0164995Y0258469D01*
X0165346Y0258630D01*
X0165702Y0258782D01*
X0166060Y0258926D01*
X0166423Y0259060D01*
X0166788Y0259186D01*
X0167157Y0259303D01*
X0167528Y0259411D01*
X0167902Y0259509D01*
X0168278Y0259598D01*
X0168656Y0259678D01*
X0169036Y0259749D01*
X0169417Y0259811D01*
X0169800Y0259863D01*
X0170184Y0259905D01*
X0170570Y0259938D01*
X0170955Y0259962D01*
X0171342Y0259976D01*
X0171728Y0259981D01*
X0172114Y0259976D01*
X0172501Y0259962D01*
X0172886Y0259938D01*
X0173272Y0259905D01*
X0173656Y0259863D01*
X0174039Y0259811D01*
X0174420Y0259749D01*
X0174800Y0259678D01*
X0175178Y0259598D01*
X0175554Y0259509D01*
X0175928Y0259411D01*
X0176299Y0259303D01*
X0176668Y0259186D01*
X0177033Y0259060D01*
X0177396Y0258926D01*
X0177754Y0258782D01*
X0178110Y0258630D01*
X0178461Y0258469D01*
X0178808Y0258299D01*
X0179152Y0258121D01*
X0179490Y0257935D01*
X0179824Y0257741D01*
X0180153Y0257538D01*
X0180477Y0257327D01*
X0180796Y0257108D01*
X0181109Y0256882D01*
X0181417Y0256648D01*
X0181718Y0256406D01*
X0182014Y0256158D01*
X0182304Y0255901D01*
X0182587Y0255638D01*
X0182864Y0255369D01*
X0183133Y0255092D01*
X0183396Y0254809D01*
X0183653Y0254519D01*
X0183901Y0254223D01*
X0184143Y0253922D01*
X0184377Y0253614D01*
X0184603Y0253301D01*
X0184822Y0252982D01*
X0185033Y0252658D01*
X0185236Y0252329D01*
X0185430Y0251995D01*
X0185616Y0251657D01*
X0185794Y0251313D01*
X0185964Y0250966D01*
X0186125Y0250615D01*
X0186277Y0250259D01*
X0186421Y0249901D01*
X0186555Y0249538D01*
X0186681Y0249173D01*
X0186798Y0248804D01*
X0186906Y0248433D01*
X0187004Y0248059D01*
X0187093Y0247683D01*
X0187173Y0247305D01*
X0187244Y0246925D01*
X0187306Y0246544D01*
X0187358Y0246161D01*
X0187400Y0245777D01*
X0187433Y0245391D01*
X0187457Y0245006D01*
X0187471Y0244619D01*
X0187476Y0244233D01*
X0187471Y0243847D01*
X0187457Y0243460D01*
X0187433Y0243075D01*
X0187400Y0242689D01*
X0187358Y0242305D01*
X0187306Y0241922D01*
X0187244Y0241541D01*
X0187173Y0241161D01*
X0187093Y0240783D01*
X0187004Y0240407D01*
X0186906Y0240033D01*
X0186798Y0239662D01*
X0186681Y0239293D01*
X0186555Y0238928D01*
X0186421Y0238565D01*
X0186277Y0238207D01*
X0186125Y0237851D01*
X0185964Y0237500D01*
X0185794Y0237153D01*
X0185616Y0236809D01*
X0185430Y0236471D01*
X0185236Y0236137D01*
X0185033Y0235808D01*
X0184822Y0235484D01*
X0184603Y0235165D01*
X0184377Y0234852D01*
X0184143Y0234544D01*
X0183901Y0234243D01*
X0183653Y0233947D01*
X0183396Y0233657D01*
X0183133Y0233374D01*
X0182864Y0233097D01*
X0182587Y0232828D01*
X0182304Y0232565D01*
X0182014Y0232308D01*
X0181718Y0232060D01*
X0181417Y0231818D01*
X0181109Y0231584D01*
X0180796Y0231358D01*
X0180477Y0231139D01*
X0180153Y0230928D01*
X0179824Y0230725D01*
X0179490Y0230531D01*
X0179152Y0230345D01*
X0178808Y0230167D01*
X0178461Y0229997D01*
X0178110Y0229836D01*
X0177754Y0229684D01*
X0177396Y0229540D01*
X0177033Y0229406D01*
X0176668Y0229280D01*
X0176299Y0229163D01*
X0175928Y0229055D01*
X0175554Y0228957D01*
X0175178Y0228868D01*
X0174800Y0228788D01*
X0174420Y0228717D01*
X0174039Y0228655D01*
X0173656Y0228603D01*
X0173272Y0228561D01*
X0172886Y0228528D01*
X0172501Y0228504D01*
X0172114Y0228490D01*
X0171728Y0228485D01*
X0171342Y0228490D01*
X0170955Y0228504D01*
X0170570Y0228528D01*
X0170184Y0228561D01*
X0169800Y0228603D01*
X0169417Y0228655D01*
X0169036Y0228717D01*
X0168656Y0228788D01*
X0168278Y0228868D01*
X0167902Y0228957D01*
X0167528Y0229055D01*
X0167157Y0229163D01*
X0166788Y0229280D01*
X0166423Y0229406D01*
X0166060Y0229540D01*
X0165702Y0229684D01*
X0165346Y0229836D01*
X0164995Y0229997D01*
X0164648Y0230167D01*
X0164304Y0230345D01*
X0163966Y0230531D01*
X0163632Y0230725D01*
X0163303Y0230928D01*
X0162979Y0231139D01*
X0162660Y0231358D01*
X0162347Y0231584D01*
X0162039Y0231818D01*
X0161738Y0232060D01*
X0161442Y0232308D01*
X0161152Y0232565D01*
X0160869Y0232828D01*
X0160592Y0233097D01*
X0160323Y0233374D01*
X0160060Y0233657D01*
X0159803Y0233947D01*
X0159555Y0234243D01*
X0159313Y0234544D01*
X0159079Y0234852D01*
X0158853Y0235165D01*
X0158634Y0235484D01*
X0158423Y0235808D01*
X0158220Y0236137D01*
X0158026Y0236471D01*
X0157840Y0236809D01*
X0157662Y0237153D01*
X0157492Y0237500D01*
X0157331Y0237851D01*
X0157179Y0238207D01*
X0157035Y0238565D01*
X0156901Y0238928D01*
X0156775Y0239293D01*
X0156658Y0239662D01*
X0156550Y0240033D01*
X0156452Y0240407D01*
X0156363Y0240783D01*
X0156283Y0241161D01*
X0156212Y0241541D01*
X0156150Y0241922D01*
X0156098Y0242305D01*
X0156056Y0242689D01*
X0156023Y0243075D01*
X0155999Y0243460D01*
X0155985Y0243847D01*
X0155980Y0244233D01*
D11*
X0110704Y0271792D03*
X0110704Y0149745D03*
X0405980Y0149745D03*
X0405980Y0271792D03*
D12*
X0312948Y0111143D03*
X0312948Y0091457D03*
X0323736Y0081143D03*
X0323736Y0061457D03*
X0312948Y0051143D03*
X0312948Y0031457D03*
X0263736Y0031457D03*
X0263736Y0051143D03*
X0252948Y0061457D03*
X0252948Y0081143D03*
X0263736Y0091457D03*
X0263736Y0111143D03*
X0203736Y0081143D03*
X0192948Y0081143D03*
X0192948Y0061457D03*
X0203736Y0061457D03*
X0143736Y0061457D03*
X0132948Y0061457D03*
X0132948Y0081143D03*
X0143736Y0081143D03*
X0083736Y0081143D03*
X0083736Y0061457D03*
X0372948Y0061457D03*
X0383736Y0061457D03*
X0383736Y0081143D03*
X0372948Y0081143D03*
X0432948Y0081143D03*
X0432948Y0061457D03*
D13*
X0213342Y0301300D03*
X0113342Y0301300D03*
D14*
X0123342Y0301300D03*
X0133342Y0301300D03*
X0143342Y0301300D03*
X0153342Y0301300D03*
X0163342Y0301300D03*
X0173342Y0301300D03*
X0183342Y0301300D03*
X0223342Y0301300D03*
X0233342Y0301300D03*
X0243342Y0301300D03*
D15*
X0083342Y0301300D03*
X0083342Y0021300D03*
X0433342Y0021300D03*
X0433342Y0301300D03*
D16*
X0387161Y0181143D03*
X0373066Y0181143D03*
X0358972Y0181143D03*
X0358972Y0151143D03*
X0373066Y0151143D03*
X0387161Y0151143D03*
X0383342Y0113800D03*
X0373342Y0113800D03*
X0353342Y0113800D03*
X0343342Y0113800D03*
X0403342Y0113800D03*
X0413342Y0113800D03*
D17*
X0413642Y0113820D02*
X0452042Y0113820D01*
X0452042Y0113222D02*
X0417242Y0113222D01*
X0417242Y0113500D02*
X0413642Y0113500D01*
X0413642Y0114100D01*
X0417242Y0114100D01*
X0417242Y0115415D01*
X0414957Y0117700D01*
X0413642Y0117700D01*
X0413642Y0114100D01*
X0413042Y0114100D01*
X0413042Y0117700D01*
X0411726Y0117700D01*
X0409442Y0115415D01*
X0409442Y0114100D01*
X0413042Y0114100D01*
X0413042Y0113500D01*
X0413642Y0113500D01*
X0413642Y0109900D01*
X0414957Y0109900D01*
X0417242Y0112185D01*
X0417242Y0113500D01*
X0417242Y0112623D02*
X0452042Y0112623D01*
X0452042Y0112025D02*
X0417082Y0112025D01*
X0416483Y0111426D02*
X0452042Y0111426D01*
X0452042Y0110828D02*
X0415885Y0110828D01*
X0415286Y0110229D02*
X0452042Y0110229D01*
X0452042Y0109631D02*
X0317860Y0109631D01*
X0317960Y0109939D02*
X0318087Y0110738D01*
X0318087Y0110843D01*
X0313248Y0110843D01*
X0313248Y0111442D01*
X0318087Y0111442D01*
X0318087Y0111547D01*
X0317960Y0112346D01*
X0317710Y0113115D01*
X0317343Y0113836D01*
X0316868Y0114490D01*
X0316296Y0115062D01*
X0315641Y0115537D01*
X0314921Y0115905D01*
X0314151Y0116155D01*
X0313353Y0116281D01*
X0313248Y0116281D01*
X0313248Y0111443D01*
X0312648Y0111443D01*
X0312648Y0116281D01*
X0312544Y0116281D01*
X0311745Y0116155D01*
X0310976Y0115905D01*
X0310255Y0115537D01*
X0309601Y0115062D01*
X0309029Y0114490D01*
X0308553Y0113836D01*
X0308186Y0113115D01*
X0307936Y0112346D01*
X0307810Y0111547D01*
X0307810Y0111442D01*
X0312648Y0111442D01*
X0312648Y0110843D01*
X0307810Y0110843D01*
X0307810Y0110738D01*
X0307936Y0109939D01*
X0308186Y0109170D01*
X0308553Y0108449D01*
X0309029Y0107795D01*
X0309601Y0107223D01*
X0310255Y0106748D01*
X0310976Y0106380D01*
X0311745Y0106130D01*
X0312544Y0106004D01*
X0312648Y0106004D01*
X0312648Y0110842D01*
X0313248Y0110842D01*
X0313248Y0106004D01*
X0313353Y0106004D01*
X0314151Y0106130D01*
X0314921Y0106380D01*
X0315641Y0106748D01*
X0316296Y0107223D01*
X0316868Y0107795D01*
X0317343Y0108449D01*
X0317710Y0109170D01*
X0317960Y0109939D01*
X0318006Y0110229D02*
X0351397Y0110229D01*
X0351726Y0109900D02*
X0353042Y0109900D01*
X0353042Y0113500D01*
X0353642Y0113500D01*
X0353642Y0114100D01*
X0357242Y0114100D01*
X0357242Y0115415D01*
X0354957Y0117700D01*
X0353642Y0117700D01*
X0353642Y0114100D01*
X0353042Y0114100D01*
X0353042Y0117700D01*
X0351726Y0117700D01*
X0349442Y0115415D01*
X0349442Y0114100D01*
X0353042Y0114100D01*
X0353042Y0113500D01*
X0349442Y0113500D01*
X0349442Y0112185D01*
X0351726Y0109900D01*
X0350799Y0110828D02*
X0345319Y0110828D01*
X0344792Y0110300D02*
X0346842Y0112350D01*
X0346842Y0115250D01*
X0344792Y0117300D01*
X0341892Y0117300D01*
X0339842Y0115250D01*
X0339842Y0112350D01*
X0341892Y0110300D01*
X0344792Y0110300D01*
X0345918Y0111426D02*
X0350200Y0111426D01*
X0349602Y0112025D02*
X0346516Y0112025D01*
X0346842Y0112623D02*
X0349442Y0112623D01*
X0349442Y0113222D02*
X0346842Y0113222D01*
X0346842Y0113820D02*
X0353042Y0113820D01*
X0353042Y0113222D02*
X0353642Y0113222D01*
X0353642Y0113500D02*
X0353642Y0109900D01*
X0354957Y0109900D01*
X0357242Y0112185D01*
X0357242Y0113500D01*
X0353642Y0113500D01*
X0353642Y0113820D02*
X0369842Y0113820D01*
X0369842Y0113222D02*
X0357242Y0113222D01*
X0357242Y0112623D02*
X0369842Y0112623D01*
X0369842Y0112350D02*
X0369842Y0115250D01*
X0371892Y0117300D01*
X0374792Y0117300D01*
X0376842Y0115250D01*
X0376842Y0112350D01*
X0374792Y0110300D01*
X0371892Y0110300D01*
X0369842Y0112350D01*
X0370167Y0112025D02*
X0357082Y0112025D01*
X0356483Y0111426D02*
X0370766Y0111426D01*
X0371364Y0110828D02*
X0355885Y0110828D01*
X0355286Y0110229D02*
X0381397Y0110229D01*
X0381726Y0109900D02*
X0383042Y0109900D01*
X0383042Y0113500D01*
X0383642Y0113500D01*
X0383642Y0114100D01*
X0387242Y0114100D01*
X0387242Y0115415D01*
X0384957Y0117700D01*
X0383642Y0117700D01*
X0383642Y0114100D01*
X0383042Y0114100D01*
X0383042Y0117700D01*
X0381726Y0117700D01*
X0379442Y0115415D01*
X0379442Y0114100D01*
X0383042Y0114100D01*
X0383042Y0113500D01*
X0379442Y0113500D01*
X0379442Y0112185D01*
X0381726Y0109900D01*
X0380799Y0110828D02*
X0375319Y0110828D01*
X0375918Y0111426D02*
X0380200Y0111426D01*
X0379602Y0112025D02*
X0376516Y0112025D01*
X0376842Y0112623D02*
X0379442Y0112623D01*
X0379442Y0113222D02*
X0376842Y0113222D01*
X0376842Y0113820D02*
X0383042Y0113820D01*
X0383042Y0113222D02*
X0383642Y0113222D01*
X0383642Y0113500D02*
X0383642Y0109900D01*
X0384957Y0109900D01*
X0387242Y0112185D01*
X0387242Y0113500D01*
X0383642Y0113500D01*
X0383642Y0113820D02*
X0399842Y0113820D01*
X0399842Y0113222D02*
X0387242Y0113222D01*
X0387242Y0112623D02*
X0399842Y0112623D01*
X0399842Y0112350D02*
X0399842Y0115250D01*
X0401892Y0117300D01*
X0404792Y0117300D01*
X0406842Y0115250D01*
X0406842Y0112350D01*
X0404792Y0110300D01*
X0401892Y0110300D01*
X0399842Y0112350D01*
X0400167Y0112025D02*
X0387082Y0112025D01*
X0386483Y0111426D02*
X0400766Y0111426D01*
X0401364Y0110828D02*
X0385885Y0110828D01*
X0385286Y0110229D02*
X0411397Y0110229D01*
X0411726Y0109900D02*
X0413042Y0109900D01*
X0413042Y0113500D01*
X0409442Y0113500D01*
X0409442Y0112185D01*
X0411726Y0109900D01*
X0410799Y0110828D02*
X0405319Y0110828D01*
X0405918Y0111426D02*
X0410200Y0111426D01*
X0409602Y0112025D02*
X0406516Y0112025D01*
X0406842Y0112623D02*
X0409442Y0112623D01*
X0409442Y0113222D02*
X0406842Y0113222D01*
X0406842Y0113820D02*
X0413042Y0113820D01*
X0413042Y0113222D02*
X0413642Y0113222D01*
X0413642Y0112623D02*
X0413042Y0112623D01*
X0413042Y0112025D02*
X0413642Y0112025D01*
X0413642Y0111426D02*
X0413042Y0111426D01*
X0413042Y0110828D02*
X0413642Y0110828D01*
X0413642Y0110229D02*
X0413042Y0110229D01*
X0413042Y0114419D02*
X0413642Y0114419D01*
X0413642Y0115017D02*
X0413042Y0115017D01*
X0413042Y0115616D02*
X0413642Y0115616D01*
X0413642Y0116214D02*
X0413042Y0116214D01*
X0413042Y0116813D02*
X0413642Y0116813D01*
X0413642Y0117411D02*
X0413042Y0117411D01*
X0411438Y0117411D02*
X0385246Y0117411D01*
X0385845Y0116813D02*
X0401405Y0116813D01*
X0400806Y0116214D02*
X0386443Y0116214D01*
X0387042Y0115616D02*
X0400208Y0115616D01*
X0399842Y0115017D02*
X0387242Y0115017D01*
X0387242Y0114419D02*
X0399842Y0114419D01*
X0405279Y0116813D02*
X0410839Y0116813D01*
X0410241Y0116214D02*
X0405877Y0116214D01*
X0406476Y0115616D02*
X0409642Y0115616D01*
X0409442Y0115017D02*
X0406842Y0115017D01*
X0406842Y0114419D02*
X0409442Y0114419D01*
X0415246Y0117411D02*
X0452042Y0117411D01*
X0452042Y0116813D02*
X0415845Y0116813D01*
X0416443Y0116214D02*
X0452042Y0116214D01*
X0452042Y0115616D02*
X0417042Y0115616D01*
X0417242Y0115017D02*
X0452042Y0115017D01*
X0452042Y0114419D02*
X0417242Y0114419D01*
X0407731Y0140939D02*
X0404228Y0140939D01*
X0400992Y0142280D01*
X0398515Y0144757D01*
X0397174Y0147993D01*
X0397174Y0151496D01*
X0398515Y0154733D01*
X0400992Y0157210D01*
X0404228Y0158550D01*
X0407731Y0158550D01*
X0410968Y0157210D01*
X0413445Y0154733D01*
X0414785Y0151496D01*
X0414785Y0147993D01*
X0413445Y0144757D01*
X0410968Y0142280D01*
X0407731Y0140939D01*
X0408726Y0141352D02*
X0452042Y0141352D01*
X0452042Y0141950D02*
X0410171Y0141950D01*
X0411236Y0142549D02*
X0452042Y0142549D01*
X0452042Y0143147D02*
X0411835Y0143147D01*
X0412433Y0143746D02*
X0452042Y0143746D01*
X0452042Y0144344D02*
X0413032Y0144344D01*
X0413521Y0144943D02*
X0452042Y0144943D01*
X0452042Y0145541D02*
X0413769Y0145541D01*
X0414017Y0146140D02*
X0452042Y0146140D01*
X0452042Y0146738D02*
X0414265Y0146738D01*
X0414513Y0147337D02*
X0452042Y0147337D01*
X0452042Y0147935D02*
X0414761Y0147935D01*
X0414785Y0148534D02*
X0452042Y0148534D01*
X0452042Y0149132D02*
X0414785Y0149132D01*
X0414785Y0149731D02*
X0452042Y0149731D01*
X0452042Y0150329D02*
X0414785Y0150329D01*
X0414785Y0150928D02*
X0452042Y0150928D01*
X0452042Y0151526D02*
X0414773Y0151526D01*
X0414525Y0152125D02*
X0452042Y0152125D01*
X0452042Y0152723D02*
X0414277Y0152723D01*
X0414029Y0153322D02*
X0452042Y0153322D01*
X0452042Y0153920D02*
X0413781Y0153920D01*
X0413533Y0154519D02*
X0452042Y0154519D01*
X0452042Y0155117D02*
X0413060Y0155117D01*
X0412461Y0155716D02*
X0452042Y0155716D01*
X0452042Y0156314D02*
X0411863Y0156314D01*
X0411264Y0156913D02*
X0452042Y0156913D01*
X0452042Y0157511D02*
X0410239Y0157511D01*
X0408794Y0158110D02*
X0452042Y0158110D01*
X0452042Y0158708D02*
X0064642Y0158708D01*
X0064642Y0158110D02*
X0107889Y0158110D01*
X0108952Y0158550D02*
X0105716Y0157210D01*
X0103239Y0154733D01*
X0101898Y0151496D01*
X0101898Y0147993D01*
X0103239Y0144757D01*
X0105716Y0142280D01*
X0108952Y0140939D01*
X0112456Y0140939D01*
X0115692Y0142280D01*
X0118169Y0144757D01*
X0119510Y0147993D01*
X0119510Y0151496D01*
X0118169Y0154733D01*
X0115692Y0157210D01*
X0112456Y0158550D01*
X0108952Y0158550D01*
X0106444Y0157511D02*
X0064642Y0157511D01*
X0064642Y0156913D02*
X0105419Y0156913D01*
X0104821Y0156314D02*
X0064642Y0156314D01*
X0064642Y0155716D02*
X0104222Y0155716D01*
X0103624Y0155117D02*
X0064642Y0155117D01*
X0064642Y0154519D02*
X0103150Y0154519D01*
X0102903Y0153920D02*
X0064642Y0153920D01*
X0064642Y0153322D02*
X0102655Y0153322D01*
X0102407Y0152723D02*
X0064642Y0152723D01*
X0064642Y0152125D02*
X0102159Y0152125D01*
X0101911Y0151526D02*
X0064642Y0151526D01*
X0064642Y0150928D02*
X0101898Y0150928D01*
X0101898Y0150329D02*
X0064642Y0150329D01*
X0064642Y0149731D02*
X0101898Y0149731D01*
X0101898Y0149132D02*
X0064642Y0149132D01*
X0064642Y0148534D02*
X0101898Y0148534D01*
X0101923Y0147935D02*
X0064642Y0147935D01*
X0064642Y0147337D02*
X0102170Y0147337D01*
X0102418Y0146738D02*
X0064642Y0146738D01*
X0064642Y0146140D02*
X0102666Y0146140D01*
X0102914Y0145541D02*
X0064642Y0145541D01*
X0064642Y0144943D02*
X0103162Y0144943D01*
X0103652Y0144344D02*
X0064642Y0144344D01*
X0064642Y0143746D02*
X0104250Y0143746D01*
X0104849Y0143147D02*
X0064642Y0143147D01*
X0064642Y0142549D02*
X0105447Y0142549D01*
X0106512Y0141950D02*
X0064642Y0141950D01*
X0064642Y0141352D02*
X0107957Y0141352D01*
X0113451Y0141352D02*
X0403233Y0141352D01*
X0401788Y0141950D02*
X0114896Y0141950D01*
X0115961Y0142549D02*
X0400723Y0142549D01*
X0400124Y0143147D02*
X0116559Y0143147D01*
X0117158Y0143746D02*
X0399526Y0143746D01*
X0398927Y0144344D02*
X0117756Y0144344D01*
X0118246Y0144943D02*
X0398438Y0144943D01*
X0398190Y0145541D02*
X0118494Y0145541D01*
X0118742Y0146140D02*
X0397942Y0146140D01*
X0397694Y0146738D02*
X0118990Y0146738D01*
X0119238Y0147337D02*
X0397446Y0147337D01*
X0397198Y0147935D02*
X0388903Y0147935D01*
X0388610Y0147643D02*
X0390661Y0149693D01*
X0390661Y0152592D01*
X0388610Y0154643D01*
X0385711Y0154643D01*
X0383661Y0152592D01*
X0383661Y0149693D01*
X0385711Y0147643D01*
X0388610Y0147643D01*
X0389502Y0148534D02*
X0397174Y0148534D01*
X0397174Y0149132D02*
X0390100Y0149132D01*
X0390661Y0149731D02*
X0397174Y0149731D01*
X0397174Y0150329D02*
X0390661Y0150329D01*
X0390661Y0150928D02*
X0397174Y0150928D01*
X0397186Y0151526D02*
X0390661Y0151526D01*
X0390661Y0152125D02*
X0397434Y0152125D01*
X0397682Y0152723D02*
X0390530Y0152723D01*
X0389931Y0153322D02*
X0397930Y0153322D01*
X0398178Y0153920D02*
X0389333Y0153920D01*
X0388734Y0154519D02*
X0398426Y0154519D01*
X0398899Y0155117D02*
X0117784Y0155117D01*
X0118258Y0154519D02*
X0357398Y0154519D01*
X0357522Y0154643D02*
X0355472Y0152592D01*
X0355472Y0149693D01*
X0357522Y0147643D01*
X0360421Y0147643D01*
X0362472Y0149693D01*
X0362472Y0152592D01*
X0360421Y0154643D01*
X0357522Y0154643D01*
X0356800Y0153920D02*
X0118505Y0153920D01*
X0118753Y0153322D02*
X0356201Y0153322D01*
X0355603Y0152723D02*
X0119001Y0152723D01*
X0119249Y0152125D02*
X0355472Y0152125D01*
X0355472Y0151526D02*
X0119497Y0151526D01*
X0119510Y0150928D02*
X0355472Y0150928D01*
X0355472Y0150329D02*
X0119510Y0150329D01*
X0119510Y0149731D02*
X0355472Y0149731D01*
X0356032Y0149132D02*
X0119510Y0149132D01*
X0119510Y0148534D02*
X0356631Y0148534D01*
X0357229Y0147935D02*
X0119485Y0147935D01*
X0117186Y0155716D02*
X0399498Y0155716D01*
X0400096Y0156314D02*
X0116587Y0156314D01*
X0115989Y0156913D02*
X0400695Y0156913D01*
X0401720Y0157511D02*
X0114964Y0157511D01*
X0113519Y0158110D02*
X0403165Y0158110D01*
X0385587Y0154519D02*
X0374640Y0154519D01*
X0374516Y0154643D02*
X0371616Y0154643D01*
X0369566Y0152592D01*
X0369566Y0149693D01*
X0371616Y0147643D01*
X0374516Y0147643D01*
X0376566Y0149693D01*
X0376566Y0152592D01*
X0374516Y0154643D01*
X0375238Y0153920D02*
X0384989Y0153920D01*
X0384390Y0153322D02*
X0375837Y0153322D01*
X0376435Y0152723D02*
X0383792Y0152723D01*
X0383661Y0152125D02*
X0376566Y0152125D01*
X0376566Y0151526D02*
X0383661Y0151526D01*
X0383661Y0150928D02*
X0376566Y0150928D01*
X0376566Y0150329D02*
X0383661Y0150329D01*
X0383661Y0149731D02*
X0376566Y0149731D01*
X0376006Y0149132D02*
X0384221Y0149132D01*
X0384820Y0148534D02*
X0375407Y0148534D01*
X0374809Y0147935D02*
X0385418Y0147935D01*
X0371324Y0147935D02*
X0360714Y0147935D01*
X0361313Y0148534D02*
X0370725Y0148534D01*
X0370127Y0149132D02*
X0361911Y0149132D01*
X0362472Y0149731D02*
X0369566Y0149731D01*
X0369566Y0150329D02*
X0362472Y0150329D01*
X0362472Y0150928D02*
X0369566Y0150928D01*
X0369566Y0151526D02*
X0362472Y0151526D01*
X0362472Y0152125D02*
X0369566Y0152125D01*
X0369697Y0152723D02*
X0362341Y0152723D01*
X0361742Y0153322D02*
X0370296Y0153322D01*
X0370894Y0153920D02*
X0361144Y0153920D01*
X0360545Y0154519D02*
X0371493Y0154519D01*
X0371616Y0177643D02*
X0374516Y0177643D01*
X0376566Y0179693D01*
X0376566Y0182592D01*
X0374516Y0184643D01*
X0371616Y0184643D01*
X0369566Y0182592D01*
X0369566Y0179693D01*
X0371616Y0177643D01*
X0371398Y0177861D02*
X0360640Y0177861D01*
X0360421Y0177643D02*
X0362472Y0179693D01*
X0362472Y0182592D01*
X0360421Y0184643D01*
X0357522Y0184643D01*
X0355472Y0182592D01*
X0355472Y0179693D01*
X0357522Y0177643D01*
X0360421Y0177643D01*
X0361238Y0178459D02*
X0370800Y0178459D01*
X0370201Y0179058D02*
X0361837Y0179058D01*
X0362435Y0179656D02*
X0369603Y0179656D01*
X0369566Y0180255D02*
X0362472Y0180255D01*
X0362472Y0180853D02*
X0369566Y0180853D01*
X0369566Y0181452D02*
X0362472Y0181452D01*
X0362472Y0182050D02*
X0369566Y0182050D01*
X0369623Y0182649D02*
X0362415Y0182649D01*
X0361817Y0183247D02*
X0370221Y0183247D01*
X0370820Y0183846D02*
X0361218Y0183846D01*
X0360620Y0184444D02*
X0371418Y0184444D01*
X0374714Y0184444D02*
X0385513Y0184444D01*
X0385711Y0184643D02*
X0383661Y0182592D01*
X0383661Y0179693D01*
X0385711Y0177643D01*
X0388610Y0177643D01*
X0390661Y0179693D01*
X0390661Y0182592D01*
X0388610Y0184643D01*
X0385711Y0184643D01*
X0384914Y0183846D02*
X0375313Y0183846D01*
X0375911Y0183247D02*
X0384316Y0183247D01*
X0383717Y0182649D02*
X0376510Y0182649D01*
X0376566Y0182050D02*
X0383661Y0182050D01*
X0383661Y0181452D02*
X0376566Y0181452D01*
X0376566Y0180853D02*
X0383661Y0180853D01*
X0383661Y0180255D02*
X0376566Y0180255D01*
X0376530Y0179656D02*
X0383697Y0179656D01*
X0384296Y0179058D02*
X0375931Y0179058D01*
X0375333Y0178459D02*
X0384894Y0178459D01*
X0385493Y0177861D02*
X0374734Y0177861D01*
X0388829Y0177861D02*
X0452042Y0177861D01*
X0452042Y0178459D02*
X0389427Y0178459D01*
X0390026Y0179058D02*
X0452042Y0179058D01*
X0452042Y0179656D02*
X0390624Y0179656D01*
X0390661Y0180255D02*
X0452042Y0180255D01*
X0452042Y0180853D02*
X0390661Y0180853D01*
X0390661Y0181452D02*
X0452042Y0181452D01*
X0452042Y0182050D02*
X0390661Y0182050D01*
X0390604Y0182649D02*
X0452042Y0182649D01*
X0452042Y0183247D02*
X0390006Y0183247D01*
X0389407Y0183846D02*
X0452042Y0183846D01*
X0452042Y0184444D02*
X0388808Y0184444D01*
X0357324Y0184444D02*
X0064642Y0184444D01*
X0064642Y0183846D02*
X0356725Y0183846D01*
X0356127Y0183247D02*
X0064642Y0183247D01*
X0064642Y0182649D02*
X0355528Y0182649D01*
X0355472Y0182050D02*
X0064642Y0182050D01*
X0064642Y0181452D02*
X0355472Y0181452D01*
X0355472Y0180853D02*
X0064642Y0180853D01*
X0064642Y0180255D02*
X0355472Y0180255D01*
X0355508Y0179656D02*
X0064642Y0179656D01*
X0064642Y0179058D02*
X0356107Y0179058D01*
X0356705Y0178459D02*
X0064642Y0178459D01*
X0064642Y0177861D02*
X0357304Y0177861D01*
X0355246Y0117411D02*
X0381438Y0117411D01*
X0380839Y0116813D02*
X0375279Y0116813D01*
X0375877Y0116214D02*
X0380241Y0116214D01*
X0379642Y0115616D02*
X0376476Y0115616D01*
X0376842Y0115017D02*
X0379442Y0115017D01*
X0379442Y0114419D02*
X0376842Y0114419D01*
X0383042Y0114419D02*
X0383642Y0114419D01*
X0383642Y0115017D02*
X0383042Y0115017D01*
X0383042Y0115616D02*
X0383642Y0115616D01*
X0383642Y0116214D02*
X0383042Y0116214D01*
X0383042Y0116813D02*
X0383642Y0116813D01*
X0383642Y0117411D02*
X0383042Y0117411D01*
X0383042Y0112623D02*
X0383642Y0112623D01*
X0383642Y0112025D02*
X0383042Y0112025D01*
X0383042Y0111426D02*
X0383642Y0111426D01*
X0383642Y0110828D02*
X0383042Y0110828D01*
X0383042Y0110229D02*
X0383642Y0110229D01*
X0371405Y0116813D02*
X0355845Y0116813D01*
X0356443Y0116214D02*
X0370806Y0116214D01*
X0370208Y0115616D02*
X0357042Y0115616D01*
X0357242Y0115017D02*
X0369842Y0115017D01*
X0369842Y0114419D02*
X0357242Y0114419D01*
X0353642Y0114419D02*
X0353042Y0114419D01*
X0353042Y0115017D02*
X0353642Y0115017D01*
X0353642Y0115616D02*
X0353042Y0115616D01*
X0353042Y0116214D02*
X0353642Y0116214D01*
X0353642Y0116813D02*
X0353042Y0116813D01*
X0353042Y0117411D02*
X0353642Y0117411D01*
X0351438Y0117411D02*
X0064642Y0117411D01*
X0064642Y0116813D02*
X0341405Y0116813D01*
X0340806Y0116214D02*
X0313775Y0116214D01*
X0313248Y0116214D02*
X0312648Y0116214D01*
X0312121Y0116214D02*
X0264562Y0116214D01*
X0264939Y0116155D02*
X0264140Y0116281D01*
X0264035Y0116281D01*
X0264035Y0111443D01*
X0263436Y0111443D01*
X0263436Y0116281D01*
X0263331Y0116281D01*
X0262532Y0116155D01*
X0261763Y0115905D01*
X0261042Y0115537D01*
X0260388Y0115062D01*
X0259816Y0114490D01*
X0259341Y0113836D01*
X0258973Y0113115D01*
X0258723Y0112346D01*
X0258597Y0111547D01*
X0258597Y0111442D01*
X0263435Y0111442D01*
X0263435Y0110843D01*
X0258597Y0110843D01*
X0258597Y0110738D01*
X0258723Y0109939D01*
X0258973Y0109170D01*
X0259341Y0108449D01*
X0259816Y0107795D01*
X0260388Y0107223D01*
X0261042Y0106748D01*
X0261763Y0106380D01*
X0262532Y0106130D01*
X0263331Y0106004D01*
X0263436Y0106004D01*
X0263436Y0110842D01*
X0264035Y0110842D01*
X0264035Y0106004D01*
X0264140Y0106004D01*
X0264939Y0106130D01*
X0265708Y0106380D01*
X0266429Y0106748D01*
X0267083Y0107223D01*
X0267655Y0107795D01*
X0268130Y0108449D01*
X0268498Y0109170D01*
X0268748Y0109939D01*
X0268874Y0110738D01*
X0268874Y0110843D01*
X0264036Y0110843D01*
X0264036Y0111442D01*
X0268874Y0111442D01*
X0268874Y0111547D01*
X0268748Y0112346D01*
X0268498Y0113115D01*
X0268130Y0113836D01*
X0267655Y0114490D01*
X0267083Y0115062D01*
X0266429Y0115537D01*
X0265708Y0115905D01*
X0264939Y0116155D01*
X0264035Y0116214D02*
X0263436Y0116214D01*
X0262909Y0116214D02*
X0064642Y0116214D01*
X0064642Y0115616D02*
X0261196Y0115616D01*
X0260343Y0115017D02*
X0064642Y0115017D01*
X0064642Y0114419D02*
X0259764Y0114419D01*
X0259333Y0113820D02*
X0064642Y0113820D01*
X0064642Y0113222D02*
X0259028Y0113222D01*
X0258814Y0112623D02*
X0064642Y0112623D01*
X0064642Y0112025D02*
X0258673Y0112025D01*
X0258597Y0110828D02*
X0064642Y0110828D01*
X0064642Y0111426D02*
X0263435Y0111426D01*
X0263436Y0110828D02*
X0264035Y0110828D01*
X0264036Y0111426D02*
X0312648Y0111426D01*
X0312648Y0110828D02*
X0313248Y0110828D01*
X0313248Y0111426D02*
X0340766Y0111426D01*
X0341364Y0110828D02*
X0318087Y0110828D01*
X0318011Y0112025D02*
X0340167Y0112025D01*
X0339842Y0112623D02*
X0317870Y0112623D01*
X0317656Y0113222D02*
X0339842Y0113222D01*
X0339842Y0113820D02*
X0317351Y0113820D01*
X0316919Y0114419D02*
X0339842Y0114419D01*
X0339842Y0115017D02*
X0316341Y0115017D01*
X0315488Y0115616D02*
X0340208Y0115616D01*
X0345279Y0116813D02*
X0350839Y0116813D01*
X0350241Y0116214D02*
X0345877Y0116214D01*
X0346476Y0115616D02*
X0349642Y0115616D01*
X0349442Y0115017D02*
X0346842Y0115017D01*
X0346842Y0114419D02*
X0349442Y0114419D01*
X0353042Y0112623D02*
X0353642Y0112623D01*
X0353642Y0112025D02*
X0353042Y0112025D01*
X0353042Y0111426D02*
X0353642Y0111426D01*
X0353642Y0110828D02*
X0353042Y0110828D01*
X0353042Y0110229D02*
X0353642Y0110229D01*
X0371745Y0086155D02*
X0372544Y0086281D01*
X0372648Y0086281D01*
X0372648Y0081443D01*
X0373248Y0081443D01*
X0373248Y0086281D01*
X0373353Y0086281D01*
X0374151Y0086155D01*
X0374921Y0085905D01*
X0375641Y0085537D01*
X0376296Y0085062D01*
X0376868Y0084490D01*
X0377343Y0083836D01*
X0377710Y0083115D01*
X0377960Y0082346D01*
X0378087Y0081547D01*
X0378087Y0081442D01*
X0373248Y0081442D01*
X0373248Y0080843D01*
X0378087Y0080843D01*
X0378087Y0080738D01*
X0377960Y0079939D01*
X0377710Y0079170D01*
X0377343Y0078449D01*
X0376868Y0077795D01*
X0376296Y0077223D01*
X0375641Y0076748D01*
X0374921Y0076380D01*
X0374151Y0076130D01*
X0373353Y0076004D01*
X0373248Y0076004D01*
X0373248Y0080842D01*
X0372648Y0080842D01*
X0372648Y0076004D01*
X0372544Y0076004D01*
X0371745Y0076130D01*
X0370976Y0076380D01*
X0370255Y0076748D01*
X0369601Y0077223D01*
X0369029Y0077795D01*
X0368553Y0078449D01*
X0368186Y0079170D01*
X0367936Y0079939D01*
X0367810Y0080738D01*
X0367810Y0080843D01*
X0372648Y0080843D01*
X0372648Y0081442D01*
X0367810Y0081442D01*
X0367810Y0081547D01*
X0367936Y0082346D01*
X0368186Y0083115D01*
X0368553Y0083836D01*
X0369029Y0084490D01*
X0369601Y0085062D01*
X0370255Y0085537D01*
X0370976Y0085905D01*
X0371745Y0086155D01*
X0372648Y0085690D02*
X0373248Y0085690D01*
X0373248Y0085092D02*
X0372648Y0085092D01*
X0372648Y0084493D02*
X0373248Y0084493D01*
X0373248Y0083895D02*
X0372648Y0083895D01*
X0372648Y0083296D02*
X0373248Y0083296D01*
X0373248Y0082698D02*
X0372648Y0082698D01*
X0372648Y0082099D02*
X0373248Y0082099D01*
X0373248Y0081501D02*
X0372648Y0081501D01*
X0372648Y0080902D02*
X0324036Y0080902D01*
X0324036Y0080843D02*
X0324036Y0081442D01*
X0328874Y0081442D01*
X0328874Y0081547D01*
X0328748Y0082346D01*
X0328498Y0083115D01*
X0328130Y0083836D01*
X0327655Y0084490D01*
X0327083Y0085062D01*
X0326429Y0085537D01*
X0325708Y0085905D01*
X0324939Y0086155D01*
X0324140Y0086281D01*
X0324035Y0086281D01*
X0324035Y0081443D01*
X0323436Y0081443D01*
X0323436Y0086281D01*
X0323331Y0086281D01*
X0322532Y0086155D01*
X0321763Y0085905D01*
X0321042Y0085537D01*
X0320388Y0085062D01*
X0319816Y0084490D01*
X0319341Y0083836D01*
X0318973Y0083115D01*
X0318723Y0082346D01*
X0318597Y0081547D01*
X0318597Y0081442D01*
X0323435Y0081442D01*
X0323435Y0080843D01*
X0318597Y0080843D01*
X0318597Y0080738D01*
X0318723Y0079939D01*
X0318973Y0079170D01*
X0319341Y0078449D01*
X0319816Y0077795D01*
X0320388Y0077223D01*
X0321042Y0076748D01*
X0321763Y0076380D01*
X0322532Y0076130D01*
X0323331Y0076004D01*
X0323436Y0076004D01*
X0323436Y0080842D01*
X0324035Y0080842D01*
X0324035Y0076004D01*
X0324140Y0076004D01*
X0324939Y0076130D01*
X0325708Y0076380D01*
X0326429Y0076748D01*
X0327083Y0077223D01*
X0327655Y0077795D01*
X0328130Y0078449D01*
X0328498Y0079170D01*
X0328748Y0079939D01*
X0328874Y0080738D01*
X0328874Y0080843D01*
X0324036Y0080843D01*
X0324035Y0080303D02*
X0323436Y0080303D01*
X0323436Y0079705D02*
X0324035Y0079705D01*
X0324035Y0079106D02*
X0323436Y0079106D01*
X0323436Y0078508D02*
X0324035Y0078508D01*
X0324035Y0077909D02*
X0323436Y0077909D01*
X0323436Y0077311D02*
X0324035Y0077311D01*
X0324035Y0076712D02*
X0323436Y0076712D01*
X0323436Y0076114D02*
X0324035Y0076114D01*
X0324834Y0076114D02*
X0371849Y0076114D01*
X0372648Y0076114D02*
X0373248Y0076114D01*
X0373248Y0076712D02*
X0372648Y0076712D01*
X0372648Y0077311D02*
X0373248Y0077311D01*
X0373248Y0077909D02*
X0372648Y0077909D01*
X0372648Y0078508D02*
X0373248Y0078508D01*
X0373248Y0079106D02*
X0372648Y0079106D01*
X0372648Y0079705D02*
X0373248Y0079705D01*
X0373248Y0080303D02*
X0372648Y0080303D01*
X0373248Y0080902D02*
X0383435Y0080902D01*
X0383435Y0080843D02*
X0378597Y0080843D01*
X0378597Y0080738D01*
X0378723Y0079939D01*
X0378973Y0079170D01*
X0379341Y0078449D01*
X0379816Y0077795D01*
X0380388Y0077223D01*
X0381042Y0076748D01*
X0381763Y0076380D01*
X0382532Y0076130D01*
X0383331Y0076004D01*
X0383436Y0076004D01*
X0383436Y0080842D01*
X0384035Y0080842D01*
X0384035Y0076004D01*
X0384140Y0076004D01*
X0384939Y0076130D01*
X0385708Y0076380D01*
X0386429Y0076748D01*
X0387083Y0077223D01*
X0387655Y0077795D01*
X0388130Y0078449D01*
X0388498Y0079170D01*
X0388748Y0079939D01*
X0388874Y0080738D01*
X0388874Y0080843D01*
X0384036Y0080843D01*
X0384036Y0081442D01*
X0388874Y0081442D01*
X0388874Y0081547D01*
X0388748Y0082346D01*
X0388498Y0083115D01*
X0388130Y0083836D01*
X0387655Y0084490D01*
X0387083Y0085062D01*
X0386429Y0085537D01*
X0385708Y0085905D01*
X0384939Y0086155D01*
X0384140Y0086281D01*
X0384035Y0086281D01*
X0384035Y0081443D01*
X0383436Y0081443D01*
X0383436Y0086281D01*
X0383331Y0086281D01*
X0382532Y0086155D01*
X0381763Y0085905D01*
X0381042Y0085537D01*
X0380388Y0085062D01*
X0379816Y0084490D01*
X0379341Y0083836D01*
X0378973Y0083115D01*
X0378723Y0082346D01*
X0378597Y0081547D01*
X0378597Y0081442D01*
X0383435Y0081442D01*
X0383435Y0080843D01*
X0383436Y0080303D02*
X0384035Y0080303D01*
X0384035Y0079705D02*
X0383436Y0079705D01*
X0383436Y0079106D02*
X0384035Y0079106D01*
X0384035Y0078508D02*
X0383436Y0078508D01*
X0383436Y0077909D02*
X0384035Y0077909D01*
X0384035Y0077311D02*
X0383436Y0077311D01*
X0383436Y0076712D02*
X0384035Y0076712D01*
X0384035Y0076114D02*
X0383436Y0076114D01*
X0382637Y0076114D02*
X0374047Y0076114D01*
X0375572Y0076712D02*
X0381111Y0076712D01*
X0380300Y0077311D02*
X0376384Y0077311D01*
X0376951Y0077909D02*
X0379733Y0077909D01*
X0379311Y0078508D02*
X0377373Y0078508D01*
X0377678Y0079106D02*
X0379006Y0079106D01*
X0378800Y0079705D02*
X0377884Y0079705D01*
X0378018Y0080303D02*
X0378666Y0080303D01*
X0378597Y0081501D02*
X0378087Y0081501D01*
X0377999Y0082099D02*
X0378684Y0082099D01*
X0378838Y0082698D02*
X0377846Y0082698D01*
X0377618Y0083296D02*
X0379066Y0083296D01*
X0379383Y0083895D02*
X0377300Y0083895D01*
X0376865Y0084493D02*
X0379819Y0084493D01*
X0380429Y0085092D02*
X0376255Y0085092D01*
X0375342Y0085690D02*
X0381342Y0085690D01*
X0383436Y0085690D02*
X0384035Y0085690D01*
X0384035Y0085092D02*
X0383436Y0085092D01*
X0383436Y0084493D02*
X0384035Y0084493D01*
X0384035Y0083895D02*
X0383436Y0083895D01*
X0383436Y0083296D02*
X0384035Y0083296D01*
X0384035Y0082698D02*
X0383436Y0082698D01*
X0383436Y0082099D02*
X0384035Y0082099D01*
X0384035Y0081501D02*
X0383436Y0081501D01*
X0384036Y0080902D02*
X0432648Y0080902D01*
X0432648Y0080843D02*
X0427810Y0080843D01*
X0427810Y0080738D01*
X0427936Y0079939D01*
X0428186Y0079170D01*
X0428553Y0078449D01*
X0429029Y0077795D01*
X0429601Y0077223D01*
X0430255Y0076748D01*
X0430976Y0076380D01*
X0431745Y0076130D01*
X0432544Y0076004D01*
X0432648Y0076004D01*
X0432648Y0080842D01*
X0433248Y0080842D01*
X0433248Y0076004D01*
X0433353Y0076004D01*
X0434151Y0076130D01*
X0434921Y0076380D01*
X0435641Y0076748D01*
X0436296Y0077223D01*
X0436868Y0077795D01*
X0437343Y0078449D01*
X0437710Y0079170D01*
X0437960Y0079939D01*
X0438087Y0080738D01*
X0438087Y0080843D01*
X0433248Y0080843D01*
X0433248Y0081442D01*
X0438087Y0081442D01*
X0438087Y0081547D01*
X0437960Y0082346D01*
X0437710Y0083115D01*
X0437343Y0083836D01*
X0436868Y0084490D01*
X0436296Y0085062D01*
X0435641Y0085537D01*
X0434921Y0085905D01*
X0434151Y0086155D01*
X0433353Y0086281D01*
X0433248Y0086281D01*
X0433248Y0081443D01*
X0432648Y0081443D01*
X0432648Y0086281D01*
X0432544Y0086281D01*
X0431745Y0086155D01*
X0430976Y0085905D01*
X0430255Y0085537D01*
X0429601Y0085062D01*
X0429029Y0084490D01*
X0428553Y0083836D01*
X0428186Y0083115D01*
X0427936Y0082346D01*
X0427810Y0081547D01*
X0427810Y0081442D01*
X0432648Y0081442D01*
X0432648Y0080843D01*
X0432648Y0080303D02*
X0433248Y0080303D01*
X0433248Y0079705D02*
X0432648Y0079705D01*
X0432648Y0079106D02*
X0433248Y0079106D01*
X0433248Y0078508D02*
X0432648Y0078508D01*
X0432648Y0077909D02*
X0433248Y0077909D01*
X0433248Y0077311D02*
X0432648Y0077311D01*
X0432648Y0076712D02*
X0433248Y0076712D01*
X0433248Y0076114D02*
X0432648Y0076114D01*
X0431849Y0076114D02*
X0384834Y0076114D01*
X0386360Y0076712D02*
X0430324Y0076712D01*
X0429513Y0077311D02*
X0387171Y0077311D01*
X0387738Y0077909D02*
X0428945Y0077909D01*
X0428523Y0078508D02*
X0388160Y0078508D01*
X0388465Y0079106D02*
X0428218Y0079106D01*
X0428012Y0079705D02*
X0388671Y0079705D01*
X0388805Y0080303D02*
X0427878Y0080303D01*
X0427810Y0081501D02*
X0388874Y0081501D01*
X0388787Y0082099D02*
X0427897Y0082099D01*
X0428050Y0082698D02*
X0388633Y0082698D01*
X0388405Y0083296D02*
X0428278Y0083296D01*
X0428596Y0083895D02*
X0388088Y0083895D01*
X0387652Y0084493D02*
X0429032Y0084493D01*
X0429641Y0085092D02*
X0387042Y0085092D01*
X0386129Y0085690D02*
X0430555Y0085690D01*
X0432648Y0085690D02*
X0433248Y0085690D01*
X0433248Y0085092D02*
X0432648Y0085092D01*
X0432648Y0084493D02*
X0433248Y0084493D01*
X0433248Y0083895D02*
X0432648Y0083895D01*
X0432648Y0083296D02*
X0433248Y0083296D01*
X0433248Y0082698D02*
X0432648Y0082698D01*
X0432648Y0082099D02*
X0433248Y0082099D01*
X0433248Y0081501D02*
X0432648Y0081501D01*
X0433248Y0080902D02*
X0452042Y0080902D01*
X0452042Y0081501D02*
X0438087Y0081501D01*
X0437999Y0082099D02*
X0452042Y0082099D01*
X0452042Y0082698D02*
X0437846Y0082698D01*
X0437618Y0083296D02*
X0452042Y0083296D01*
X0452042Y0083895D02*
X0437300Y0083895D01*
X0436865Y0084493D02*
X0452042Y0084493D01*
X0452042Y0085092D02*
X0436255Y0085092D01*
X0435342Y0085690D02*
X0452042Y0085690D01*
X0452042Y0086289D02*
X0064642Y0086289D01*
X0064642Y0086887D02*
X0262387Y0086887D01*
X0262793Y0086719D02*
X0264678Y0086719D01*
X0266420Y0087440D01*
X0267753Y0088773D01*
X0268474Y0090515D01*
X0268474Y0092400D01*
X0267753Y0094142D01*
X0266420Y0095475D01*
X0264678Y0096196D01*
X0262793Y0096196D01*
X0261051Y0095475D01*
X0259718Y0094142D01*
X0258997Y0092400D01*
X0258997Y0090515D01*
X0259718Y0088773D01*
X0261051Y0087440D01*
X0262793Y0086719D01*
X0261006Y0087486D02*
X0064642Y0087486D01*
X0064642Y0088084D02*
X0260407Y0088084D01*
X0259809Y0088683D02*
X0064642Y0088683D01*
X0064642Y0089281D02*
X0259508Y0089281D01*
X0259260Y0089880D02*
X0064642Y0089880D01*
X0064642Y0090478D02*
X0259012Y0090478D01*
X0258997Y0091077D02*
X0064642Y0091077D01*
X0064642Y0091675D02*
X0258997Y0091675D01*
X0258997Y0092274D02*
X0064642Y0092274D01*
X0064642Y0092872D02*
X0259193Y0092872D01*
X0259440Y0093471D02*
X0064642Y0093471D01*
X0064642Y0094069D02*
X0259688Y0094069D01*
X0260244Y0094668D02*
X0064642Y0094668D01*
X0064642Y0095266D02*
X0260843Y0095266D01*
X0261993Y0095865D02*
X0064642Y0095865D01*
X0064642Y0096463D02*
X0452042Y0096463D01*
X0452042Y0095865D02*
X0314690Y0095865D01*
X0313891Y0096196D02*
X0312006Y0096196D01*
X0310264Y0095475D01*
X0308931Y0094142D01*
X0308210Y0092400D01*
X0308210Y0090515D01*
X0308931Y0088773D01*
X0310264Y0087440D01*
X0312006Y0086719D01*
X0313891Y0086719D01*
X0315632Y0087440D01*
X0316965Y0088773D01*
X0317687Y0090515D01*
X0317687Y0092400D01*
X0316965Y0094142D01*
X0315632Y0095475D01*
X0313891Y0096196D01*
X0315841Y0095266D02*
X0452042Y0095266D01*
X0452042Y0094668D02*
X0316439Y0094668D01*
X0316995Y0094069D02*
X0452042Y0094069D01*
X0452042Y0093471D02*
X0317243Y0093471D01*
X0317491Y0092872D02*
X0452042Y0092872D01*
X0452042Y0092274D02*
X0317687Y0092274D01*
X0317687Y0091675D02*
X0452042Y0091675D01*
X0452042Y0091077D02*
X0317687Y0091077D01*
X0317671Y0090478D02*
X0452042Y0090478D01*
X0452042Y0089880D02*
X0317424Y0089880D01*
X0317176Y0089281D02*
X0452042Y0089281D01*
X0452042Y0088683D02*
X0316875Y0088683D01*
X0316276Y0088084D02*
X0452042Y0088084D01*
X0452042Y0087486D02*
X0315678Y0087486D01*
X0314297Y0086887D02*
X0452042Y0086887D01*
X0452042Y0080303D02*
X0438018Y0080303D01*
X0437884Y0079705D02*
X0452042Y0079705D01*
X0452042Y0079106D02*
X0437678Y0079106D01*
X0437373Y0078508D02*
X0452042Y0078508D01*
X0452042Y0077909D02*
X0436951Y0077909D01*
X0436384Y0077311D02*
X0452042Y0077311D01*
X0452042Y0076712D02*
X0435572Y0076712D01*
X0434047Y0076114D02*
X0452042Y0076114D01*
X0452042Y0075515D02*
X0064642Y0075515D01*
X0064642Y0074917D02*
X0452042Y0074917D01*
X0452042Y0074318D02*
X0064642Y0074318D01*
X0064642Y0073720D02*
X0452042Y0073720D01*
X0452042Y0073121D02*
X0064642Y0073121D01*
X0064642Y0072523D02*
X0452042Y0072523D01*
X0452042Y0071924D02*
X0064642Y0071924D01*
X0064642Y0071326D02*
X0452042Y0071326D01*
X0452042Y0070727D02*
X0064642Y0070727D01*
X0064642Y0070129D02*
X0452042Y0070129D01*
X0452042Y0069530D02*
X0064642Y0069530D01*
X0064642Y0068932D02*
X0452042Y0068932D01*
X0452042Y0068333D02*
X0064642Y0068333D01*
X0064642Y0067735D02*
X0452042Y0067735D01*
X0452042Y0067136D02*
X0064642Y0067136D01*
X0064642Y0066538D02*
X0452042Y0066538D01*
X0452042Y0065939D02*
X0434511Y0065939D01*
X0433891Y0066196D02*
X0432006Y0066196D01*
X0430264Y0065475D01*
X0428931Y0064142D01*
X0428210Y0062400D01*
X0428210Y0060515D01*
X0428931Y0058773D01*
X0430264Y0057440D01*
X0432006Y0056719D01*
X0433891Y0056719D01*
X0435632Y0057440D01*
X0436965Y0058773D01*
X0437687Y0060515D01*
X0437687Y0062400D01*
X0436965Y0064142D01*
X0435632Y0065475D01*
X0433891Y0066196D01*
X0435766Y0065341D02*
X0452042Y0065341D01*
X0452042Y0064742D02*
X0436365Y0064742D01*
X0436963Y0064144D02*
X0452042Y0064144D01*
X0452042Y0063545D02*
X0437212Y0063545D01*
X0437460Y0062947D02*
X0452042Y0062947D01*
X0452042Y0062348D02*
X0437687Y0062348D01*
X0437687Y0061750D02*
X0452042Y0061750D01*
X0452042Y0061151D02*
X0437687Y0061151D01*
X0437687Y0060553D02*
X0452042Y0060553D01*
X0452042Y0059954D02*
X0437454Y0059954D01*
X0437206Y0059356D02*
X0452042Y0059356D01*
X0452042Y0058757D02*
X0436949Y0058757D01*
X0436351Y0058159D02*
X0452042Y0058159D01*
X0452042Y0057560D02*
X0435752Y0057560D01*
X0434476Y0056962D02*
X0452042Y0056962D01*
X0452042Y0056363D02*
X0064642Y0056363D01*
X0064642Y0055765D02*
X0261488Y0055765D01*
X0261763Y0055905D02*
X0261042Y0055537D01*
X0260388Y0055062D01*
X0259816Y0054490D01*
X0259341Y0053836D01*
X0258973Y0053115D01*
X0258723Y0052346D01*
X0258597Y0051547D01*
X0258597Y0051442D01*
X0263435Y0051442D01*
X0263435Y0050843D01*
X0258597Y0050843D01*
X0258597Y0050738D01*
X0258723Y0049939D01*
X0258973Y0049170D01*
X0259341Y0048449D01*
X0259816Y0047795D01*
X0260388Y0047223D01*
X0261042Y0046748D01*
X0261763Y0046380D01*
X0262532Y0046130D01*
X0263331Y0046004D01*
X0263436Y0046004D01*
X0263436Y0050842D01*
X0264035Y0050842D01*
X0264035Y0046004D01*
X0264140Y0046004D01*
X0264939Y0046130D01*
X0265708Y0046380D01*
X0266429Y0046748D01*
X0267083Y0047223D01*
X0267655Y0047795D01*
X0268130Y0048449D01*
X0268498Y0049170D01*
X0268748Y0049939D01*
X0268874Y0050738D01*
X0268874Y0050843D01*
X0264036Y0050843D01*
X0264036Y0051442D01*
X0268874Y0051442D01*
X0268874Y0051547D01*
X0268748Y0052346D01*
X0268498Y0053115D01*
X0268130Y0053836D01*
X0267655Y0054490D01*
X0267083Y0055062D01*
X0266429Y0055537D01*
X0265708Y0055905D01*
X0264939Y0056155D01*
X0264140Y0056281D01*
X0264035Y0056281D01*
X0264035Y0051443D01*
X0263436Y0051443D01*
X0263436Y0056281D01*
X0263331Y0056281D01*
X0262532Y0056155D01*
X0261763Y0055905D01*
X0260531Y0055166D02*
X0064642Y0055166D01*
X0064642Y0054568D02*
X0259893Y0054568D01*
X0259437Y0053969D02*
X0064642Y0053969D01*
X0064642Y0053370D02*
X0259104Y0053370D01*
X0258862Y0052772D02*
X0064642Y0052772D01*
X0064642Y0052173D02*
X0258696Y0052173D01*
X0258601Y0051575D02*
X0064642Y0051575D01*
X0064642Y0050976D02*
X0263435Y0050976D01*
X0263436Y0050378D02*
X0264035Y0050378D01*
X0264036Y0050976D02*
X0312648Y0050976D01*
X0312648Y0050843D02*
X0307810Y0050843D01*
X0307810Y0050738D01*
X0307936Y0049939D01*
X0308186Y0049170D01*
X0308553Y0048449D01*
X0309029Y0047795D01*
X0309601Y0047223D01*
X0310255Y0046748D01*
X0310976Y0046380D01*
X0311745Y0046130D01*
X0312544Y0046004D01*
X0312648Y0046004D01*
X0312648Y0050842D01*
X0313248Y0050842D01*
X0313248Y0046004D01*
X0313353Y0046004D01*
X0314151Y0046130D01*
X0314921Y0046380D01*
X0315641Y0046748D01*
X0316296Y0047223D01*
X0316868Y0047795D01*
X0317343Y0048449D01*
X0317710Y0049170D01*
X0317960Y0049939D01*
X0318087Y0050738D01*
X0318087Y0050843D01*
X0313248Y0050843D01*
X0313248Y0051442D01*
X0318087Y0051442D01*
X0318087Y0051547D01*
X0317960Y0052346D01*
X0317710Y0053115D01*
X0317343Y0053836D01*
X0316868Y0054490D01*
X0316296Y0055062D01*
X0315641Y0055537D01*
X0314921Y0055905D01*
X0314151Y0056155D01*
X0313353Y0056281D01*
X0313248Y0056281D01*
X0313248Y0051443D01*
X0312648Y0051443D01*
X0312648Y0056281D01*
X0312544Y0056281D01*
X0311745Y0056155D01*
X0310976Y0055905D01*
X0310255Y0055537D01*
X0309601Y0055062D01*
X0309029Y0054490D01*
X0308553Y0053836D01*
X0308186Y0053115D01*
X0307936Y0052346D01*
X0307810Y0051547D01*
X0307810Y0051442D01*
X0312648Y0051442D01*
X0312648Y0050843D01*
X0312648Y0050378D02*
X0313248Y0050378D01*
X0313248Y0050976D02*
X0452042Y0050976D01*
X0452042Y0050378D02*
X0318030Y0050378D01*
X0317908Y0049779D02*
X0452042Y0049779D01*
X0452042Y0049181D02*
X0317714Y0049181D01*
X0317411Y0048582D02*
X0452042Y0048582D01*
X0452042Y0047984D02*
X0317005Y0047984D01*
X0316458Y0047385D02*
X0452042Y0047385D01*
X0452042Y0046787D02*
X0315695Y0046787D01*
X0314330Y0046188D02*
X0452042Y0046188D01*
X0452042Y0045590D02*
X0064642Y0045590D01*
X0064642Y0046188D02*
X0262354Y0046188D01*
X0263436Y0046188D02*
X0264035Y0046188D01*
X0264035Y0046787D02*
X0263436Y0046787D01*
X0263436Y0047385D02*
X0264035Y0047385D01*
X0264035Y0047984D02*
X0263436Y0047984D01*
X0263436Y0048582D02*
X0264035Y0048582D01*
X0264035Y0049181D02*
X0263436Y0049181D01*
X0263436Y0049779D02*
X0264035Y0049779D01*
X0264035Y0051575D02*
X0263436Y0051575D01*
X0263436Y0052173D02*
X0264035Y0052173D01*
X0264035Y0052772D02*
X0263436Y0052772D01*
X0263436Y0053370D02*
X0264035Y0053370D01*
X0264035Y0053969D02*
X0263436Y0053969D01*
X0263436Y0054568D02*
X0264035Y0054568D01*
X0264035Y0055166D02*
X0263436Y0055166D01*
X0263436Y0055765D02*
X0264035Y0055765D01*
X0265983Y0055765D02*
X0310701Y0055765D01*
X0309744Y0055166D02*
X0266940Y0055166D01*
X0267578Y0054568D02*
X0309106Y0054568D01*
X0308650Y0053969D02*
X0268034Y0053969D01*
X0268367Y0053370D02*
X0308316Y0053370D01*
X0308075Y0052772D02*
X0268609Y0052772D01*
X0268775Y0052173D02*
X0307909Y0052173D01*
X0307814Y0051575D02*
X0268870Y0051575D01*
X0268817Y0050378D02*
X0307867Y0050378D01*
X0307988Y0049779D02*
X0268696Y0049779D01*
X0268501Y0049181D02*
X0308182Y0049181D01*
X0308485Y0048582D02*
X0268198Y0048582D01*
X0267792Y0047984D02*
X0308891Y0047984D01*
X0309438Y0047385D02*
X0267245Y0047385D01*
X0266483Y0046787D02*
X0310201Y0046787D01*
X0311567Y0046188D02*
X0265117Y0046188D01*
X0260988Y0046787D02*
X0064642Y0046787D01*
X0064642Y0047385D02*
X0260226Y0047385D01*
X0259679Y0047984D02*
X0064642Y0047984D01*
X0064642Y0048582D02*
X0259273Y0048582D01*
X0258970Y0049181D02*
X0064642Y0049181D01*
X0064642Y0049779D02*
X0258775Y0049779D01*
X0258654Y0050378D02*
X0064642Y0050378D01*
X0064642Y0044991D02*
X0452042Y0044991D01*
X0452042Y0044393D02*
X0064642Y0044393D01*
X0064642Y0043794D02*
X0452042Y0043794D01*
X0452042Y0043196D02*
X0064642Y0043196D01*
X0064642Y0042597D02*
X0452042Y0042597D01*
X0452042Y0041999D02*
X0064642Y0041999D01*
X0064642Y0041400D02*
X0452042Y0041400D01*
X0452042Y0040802D02*
X0064642Y0040802D01*
X0064642Y0040203D02*
X0452042Y0040203D01*
X0452042Y0039605D02*
X0064642Y0039605D01*
X0064642Y0039006D02*
X0452042Y0039006D01*
X0452042Y0038408D02*
X0064642Y0038408D01*
X0064642Y0037809D02*
X0452042Y0037809D01*
X0452042Y0037211D02*
X0064642Y0037211D01*
X0064642Y0036612D02*
X0452042Y0036612D01*
X0452042Y0036014D02*
X0314331Y0036014D01*
X0313891Y0036196D02*
X0312006Y0036196D01*
X0310264Y0035475D01*
X0308931Y0034142D01*
X0308210Y0032400D01*
X0308210Y0030515D01*
X0308931Y0028773D01*
X0310264Y0027440D01*
X0312006Y0026719D01*
X0313891Y0026719D01*
X0315632Y0027440D01*
X0316965Y0028773D01*
X0317687Y0030515D01*
X0317687Y0032400D01*
X0316965Y0034142D01*
X0315632Y0035475D01*
X0313891Y0036196D01*
X0315692Y0035415D02*
X0452042Y0035415D01*
X0452042Y0034817D02*
X0316290Y0034817D01*
X0316889Y0034218D02*
X0452042Y0034218D01*
X0452042Y0033620D02*
X0317182Y0033620D01*
X0317429Y0033021D02*
X0452042Y0033021D01*
X0452042Y0032423D02*
X0317677Y0032423D01*
X0317687Y0031824D02*
X0452042Y0031824D01*
X0452042Y0031226D02*
X0435506Y0031226D01*
X0435046Y0031331D02*
X0433912Y0031458D01*
X0433642Y0031458D01*
X0433642Y0021600D01*
X0443500Y0021600D01*
X0443500Y0021870D01*
X0443372Y0023004D01*
X0443118Y0024117D01*
X0442742Y0025194D01*
X0442247Y0026221D01*
X0441640Y0027188D01*
X0440928Y0028080D01*
X0440121Y0028886D01*
X0439229Y0029598D01*
X0438263Y0030205D01*
X0437235Y0030700D01*
X0436158Y0031077D01*
X0435046Y0031331D01*
X0433642Y0031226D02*
X0433042Y0031226D01*
X0433042Y0031458D02*
X0432771Y0031458D01*
X0431638Y0031331D01*
X0430525Y0031077D01*
X0429448Y0030700D01*
X0428420Y0030205D01*
X0427454Y0029598D01*
X0426562Y0028886D01*
X0425755Y0028080D01*
X0425044Y0027188D01*
X0424437Y0026221D01*
X0423942Y0025194D01*
X0423565Y0024117D01*
X0423311Y0023004D01*
X0423184Y0021870D01*
X0423184Y0021600D01*
X0433042Y0021600D01*
X0433042Y0031458D01*
X0433042Y0030627D02*
X0433642Y0030627D01*
X0433642Y0030029D02*
X0433042Y0030029D01*
X0433042Y0029430D02*
X0433642Y0029430D01*
X0433642Y0028832D02*
X0433042Y0028832D01*
X0433042Y0028233D02*
X0433642Y0028233D01*
X0433642Y0027634D02*
X0433042Y0027634D01*
X0433042Y0027036D02*
X0433642Y0027036D01*
X0433642Y0026437D02*
X0433042Y0026437D01*
X0433042Y0025839D02*
X0433642Y0025839D01*
X0433642Y0025240D02*
X0433042Y0025240D01*
X0433042Y0024642D02*
X0433642Y0024642D01*
X0433642Y0024043D02*
X0433042Y0024043D01*
X0433042Y0023445D02*
X0433642Y0023445D01*
X0433642Y0022846D02*
X0433042Y0022846D01*
X0433042Y0022248D02*
X0433642Y0022248D01*
X0433642Y0021649D02*
X0433042Y0021649D01*
X0433042Y0021600D02*
X0433642Y0021600D01*
X0433642Y0021000D01*
X0443500Y0021000D01*
X0443500Y0020730D01*
X0443372Y0019596D01*
X0443118Y0018483D01*
X0442742Y0017406D01*
X0442247Y0016379D01*
X0441640Y0015412D01*
X0440928Y0014520D01*
X0440121Y0013714D01*
X0439229Y0013002D01*
X0438263Y0012395D01*
X0437235Y0011900D01*
X0436158Y0011523D01*
X0435046Y0011269D01*
X0433912Y0011142D01*
X0433642Y0011142D01*
X0433642Y0021000D01*
X0433042Y0021000D01*
X0433042Y0011142D01*
X0432771Y0011142D01*
X0431638Y0011269D01*
X0430525Y0011523D01*
X0429448Y0011900D01*
X0428420Y0012395D01*
X0427454Y0013002D01*
X0426562Y0013714D01*
X0425755Y0014520D01*
X0425044Y0015412D01*
X0424437Y0016379D01*
X0423942Y0017406D01*
X0423565Y0018483D01*
X0423311Y0019596D01*
X0423184Y0020730D01*
X0423184Y0021000D01*
X0433042Y0021000D01*
X0433042Y0021600D01*
X0433042Y0021051D02*
X0083642Y0021051D01*
X0083642Y0021000D02*
X0083642Y0021600D01*
X0093500Y0021600D01*
X0093500Y0021870D01*
X0093372Y0023004D01*
X0093118Y0024117D01*
X0092742Y0025194D01*
X0092247Y0026221D01*
X0091640Y0027188D01*
X0090928Y0028080D01*
X0090121Y0028886D01*
X0089229Y0029598D01*
X0088263Y0030205D01*
X0087235Y0030700D01*
X0086158Y0031077D01*
X0085046Y0031331D01*
X0083912Y0031458D01*
X0083642Y0031458D01*
X0083642Y0021600D01*
X0083042Y0021600D01*
X0083042Y0031458D01*
X0082771Y0031458D01*
X0081638Y0031331D01*
X0080525Y0031077D01*
X0079448Y0030700D01*
X0078420Y0030205D01*
X0077454Y0029598D01*
X0076562Y0028886D01*
X0075755Y0028080D01*
X0075044Y0027188D01*
X0074437Y0026221D01*
X0073942Y0025194D01*
X0073565Y0024117D01*
X0073311Y0023004D01*
X0073184Y0021870D01*
X0073184Y0021600D01*
X0083042Y0021600D01*
X0083042Y0021000D01*
X0083642Y0021000D01*
X0093500Y0021000D01*
X0093500Y0020730D01*
X0093372Y0019596D01*
X0093118Y0018483D01*
X0092742Y0017406D01*
X0092247Y0016379D01*
X0091640Y0015412D01*
X0090928Y0014520D01*
X0090121Y0013714D01*
X0089229Y0013002D01*
X0088263Y0012395D01*
X0087235Y0011900D01*
X0086158Y0011523D01*
X0085046Y0011269D01*
X0083912Y0011142D01*
X0083642Y0011142D01*
X0083642Y0021000D01*
X0083642Y0020452D02*
X0083042Y0020452D01*
X0083042Y0021000D02*
X0083042Y0011142D01*
X0082771Y0011142D01*
X0081638Y0011269D01*
X0080525Y0011523D01*
X0079448Y0011900D01*
X0078420Y0012395D01*
X0077454Y0013002D01*
X0076562Y0013714D01*
X0075755Y0014520D01*
X0075044Y0015412D01*
X0074437Y0016379D01*
X0073942Y0017406D01*
X0073565Y0018483D01*
X0073311Y0019596D01*
X0073184Y0020730D01*
X0073184Y0021000D01*
X0083042Y0021000D01*
X0083042Y0021051D02*
X0064656Y0021051D01*
X0064642Y0021300D02*
X0064642Y0204056D01*
X0064723Y0205084D01*
X0065358Y0207040D01*
X0066567Y0208704D01*
X0068231Y0209913D01*
X0070187Y0210549D01*
X0071216Y0210630D01*
X0082488Y0210630D01*
X0084480Y0210630D01*
X0087244Y0211528D01*
X0089595Y0213236D01*
X0091303Y0215587D01*
X0092201Y0218351D01*
X0092201Y0260627D01*
X0091303Y0263391D01*
X0089595Y0265742D01*
X0087244Y0267450D01*
X0087244Y0267450D01*
X0084480Y0268348D01*
X0071216Y0268348D01*
X0070187Y0268429D01*
X0068231Y0269065D01*
X0066567Y0270274D01*
X0065358Y0271938D01*
X0064723Y0273894D01*
X0064642Y0274922D01*
X0064642Y0301300D01*
X0064759Y0303394D01*
X0065691Y0307476D01*
X0067508Y0311249D01*
X0070119Y0314523D01*
X0073393Y0317134D01*
X0077166Y0318951D01*
X0081248Y0319882D01*
X0083342Y0320000D01*
X0433342Y0320000D01*
X0435436Y0319882D01*
X0439518Y0318951D01*
X0443291Y0317134D01*
X0446565Y0314523D01*
X0449176Y0311249D01*
X0450992Y0307476D01*
X0451924Y0303394D01*
X0452042Y0301300D01*
X0452042Y0021300D01*
X0451924Y0019206D01*
X0450992Y0015124D01*
X0449176Y0011351D01*
X0446565Y0008077D01*
X0443291Y0005466D01*
X0439518Y0003649D01*
X0435436Y0002718D01*
X0433342Y0002600D01*
X0083342Y0002600D01*
X0081248Y0002718D01*
X0077166Y0003649D01*
X0073393Y0005466D01*
X0070119Y0008077D01*
X0067508Y0011351D01*
X0065691Y0015124D01*
X0064759Y0019206D01*
X0064642Y0021300D01*
X0064642Y0021649D02*
X0073184Y0021649D01*
X0073226Y0022248D02*
X0064642Y0022248D01*
X0064642Y0022846D02*
X0073294Y0022846D01*
X0073412Y0023445D02*
X0064642Y0023445D01*
X0064642Y0024043D02*
X0073548Y0024043D01*
X0073749Y0024642D02*
X0064642Y0024642D01*
X0064642Y0025240D02*
X0073965Y0025240D01*
X0074253Y0025839D02*
X0064642Y0025839D01*
X0064642Y0026437D02*
X0074573Y0026437D01*
X0074949Y0027036D02*
X0064642Y0027036D01*
X0064642Y0027634D02*
X0075401Y0027634D01*
X0075909Y0028233D02*
X0064642Y0028233D01*
X0064642Y0028832D02*
X0076507Y0028832D01*
X0077244Y0029430D02*
X0064642Y0029430D01*
X0064642Y0030029D02*
X0078140Y0030029D01*
X0079297Y0030627D02*
X0064642Y0030627D01*
X0064642Y0031226D02*
X0081178Y0031226D01*
X0083042Y0031226D02*
X0083642Y0031226D01*
X0083642Y0030627D02*
X0083042Y0030627D01*
X0083042Y0030029D02*
X0083642Y0030029D01*
X0083642Y0029430D02*
X0083042Y0029430D01*
X0083042Y0028832D02*
X0083642Y0028832D01*
X0083642Y0028233D02*
X0083042Y0028233D01*
X0083042Y0027634D02*
X0083642Y0027634D01*
X0083642Y0027036D02*
X0083042Y0027036D01*
X0083042Y0026437D02*
X0083642Y0026437D01*
X0083642Y0025839D02*
X0083042Y0025839D01*
X0083042Y0025240D02*
X0083642Y0025240D01*
X0083642Y0024642D02*
X0083042Y0024642D01*
X0083042Y0024043D02*
X0083642Y0024043D01*
X0083642Y0023445D02*
X0083042Y0023445D01*
X0083042Y0022846D02*
X0083642Y0022846D01*
X0083642Y0022248D02*
X0083042Y0022248D01*
X0083042Y0021649D02*
X0083642Y0021649D01*
X0083642Y0019854D02*
X0083042Y0019854D01*
X0083042Y0019255D02*
X0083642Y0019255D01*
X0083642Y0018657D02*
X0083042Y0018657D01*
X0083042Y0018058D02*
X0083642Y0018058D01*
X0083642Y0017460D02*
X0083042Y0017460D01*
X0083042Y0016861D02*
X0083642Y0016861D01*
X0083642Y0016263D02*
X0083042Y0016263D01*
X0083042Y0015664D02*
X0083642Y0015664D01*
X0083642Y0015066D02*
X0083042Y0015066D01*
X0083042Y0014467D02*
X0083642Y0014467D01*
X0083642Y0013869D02*
X0083042Y0013869D01*
X0083042Y0013270D02*
X0083642Y0013270D01*
X0083642Y0012672D02*
X0083042Y0012672D01*
X0083042Y0012073D02*
X0083642Y0012073D01*
X0083642Y0011475D02*
X0083042Y0011475D01*
X0080738Y0011475D02*
X0067448Y0011475D01*
X0067160Y0012073D02*
X0079089Y0012073D01*
X0077980Y0012672D02*
X0066872Y0012672D01*
X0066584Y0013270D02*
X0077118Y0013270D01*
X0076407Y0013869D02*
X0066296Y0013869D01*
X0066007Y0014467D02*
X0075809Y0014467D01*
X0075321Y0015066D02*
X0065719Y0015066D01*
X0065568Y0015664D02*
X0074886Y0015664D01*
X0074510Y0016263D02*
X0065431Y0016263D01*
X0065295Y0016861D02*
X0074205Y0016861D01*
X0073923Y0017460D02*
X0065158Y0017460D01*
X0065021Y0018058D02*
X0073714Y0018058D01*
X0073526Y0018657D02*
X0064885Y0018657D01*
X0064757Y0019255D02*
X0073389Y0019255D01*
X0073282Y0019854D02*
X0064723Y0019854D01*
X0064689Y0020452D02*
X0073215Y0020452D01*
X0067887Y0010876D02*
X0448797Y0010876D01*
X0449235Y0011475D02*
X0435945Y0011475D01*
X0437595Y0012073D02*
X0449523Y0012073D01*
X0449812Y0012672D02*
X0438703Y0012672D01*
X0439565Y0013270D02*
X0450100Y0013270D01*
X0450388Y0013869D02*
X0440277Y0013869D01*
X0440875Y0014467D02*
X0450676Y0014467D01*
X0450964Y0015066D02*
X0441363Y0015066D01*
X0441798Y0015664D02*
X0451116Y0015664D01*
X0451252Y0016263D02*
X0442174Y0016263D01*
X0442479Y0016861D02*
X0451389Y0016861D01*
X0451526Y0017460D02*
X0442760Y0017460D01*
X0442970Y0018058D02*
X0451662Y0018058D01*
X0451799Y0018657D02*
X0443158Y0018657D01*
X0443295Y0019255D02*
X0451927Y0019255D01*
X0451961Y0019854D02*
X0443401Y0019854D01*
X0443469Y0020452D02*
X0451994Y0020452D01*
X0452028Y0021051D02*
X0433642Y0021051D01*
X0433642Y0020452D02*
X0433042Y0020452D01*
X0433042Y0019854D02*
X0433642Y0019854D01*
X0433642Y0019255D02*
X0433042Y0019255D01*
X0433042Y0018657D02*
X0433642Y0018657D01*
X0433642Y0018058D02*
X0433042Y0018058D01*
X0433042Y0017460D02*
X0433642Y0017460D01*
X0433642Y0016861D02*
X0433042Y0016861D01*
X0433042Y0016263D02*
X0433642Y0016263D01*
X0433642Y0015664D02*
X0433042Y0015664D01*
X0433042Y0015066D02*
X0433642Y0015066D01*
X0433642Y0014467D02*
X0433042Y0014467D01*
X0433042Y0013869D02*
X0433642Y0013869D01*
X0433642Y0013270D02*
X0433042Y0013270D01*
X0433042Y0012672D02*
X0433642Y0012672D01*
X0433642Y0012073D02*
X0433042Y0012073D01*
X0433042Y0011475D02*
X0433642Y0011475D01*
X0430738Y0011475D02*
X0085945Y0011475D01*
X0087595Y0012073D02*
X0429089Y0012073D01*
X0427980Y0012672D02*
X0088703Y0012672D01*
X0089565Y0013270D02*
X0427118Y0013270D01*
X0426407Y0013869D02*
X0090277Y0013869D01*
X0090875Y0014467D02*
X0425809Y0014467D01*
X0425321Y0015066D02*
X0091363Y0015066D01*
X0091798Y0015664D02*
X0424886Y0015664D01*
X0424510Y0016263D02*
X0092174Y0016263D01*
X0092479Y0016861D02*
X0424205Y0016861D01*
X0423923Y0017460D02*
X0092760Y0017460D01*
X0092970Y0018058D02*
X0423714Y0018058D01*
X0423526Y0018657D02*
X0093158Y0018657D01*
X0093295Y0019255D02*
X0423389Y0019255D01*
X0423282Y0019854D02*
X0093401Y0019854D01*
X0093469Y0020452D02*
X0423215Y0020452D01*
X0423184Y0021649D02*
X0093500Y0021649D01*
X0093458Y0022248D02*
X0423226Y0022248D01*
X0423294Y0022846D02*
X0093390Y0022846D01*
X0093272Y0023445D02*
X0423412Y0023445D01*
X0423548Y0024043D02*
X0093135Y0024043D01*
X0092935Y0024642D02*
X0423749Y0024642D01*
X0423965Y0025240D02*
X0092719Y0025240D01*
X0092431Y0025839D02*
X0424253Y0025839D01*
X0424573Y0026437D02*
X0092111Y0026437D01*
X0091735Y0027036D02*
X0262027Y0027036D01*
X0262793Y0026719D02*
X0264678Y0026719D01*
X0266420Y0027440D01*
X0267753Y0028773D01*
X0268474Y0030515D01*
X0268474Y0032400D01*
X0267753Y0034142D01*
X0266420Y0035475D01*
X0264678Y0036196D01*
X0262793Y0036196D01*
X0261051Y0035475D01*
X0259718Y0034142D01*
X0258997Y0032400D01*
X0258997Y0030515D01*
X0259718Y0028773D01*
X0261051Y0027440D01*
X0262793Y0026719D01*
X0260857Y0027634D02*
X0091283Y0027634D01*
X0090775Y0028233D02*
X0260259Y0028233D01*
X0259694Y0028832D02*
X0090176Y0028832D01*
X0089440Y0029430D02*
X0259446Y0029430D01*
X0259198Y0030029D02*
X0088544Y0030029D01*
X0087386Y0030627D02*
X0258997Y0030627D01*
X0258997Y0031226D02*
X0085506Y0031226D01*
X0064642Y0031824D02*
X0258997Y0031824D01*
X0259006Y0032423D02*
X0064642Y0032423D01*
X0064642Y0033021D02*
X0259254Y0033021D01*
X0259502Y0033620D02*
X0064642Y0033620D01*
X0064642Y0034218D02*
X0259795Y0034218D01*
X0260393Y0034817D02*
X0064642Y0034817D01*
X0064642Y0035415D02*
X0260992Y0035415D01*
X0262353Y0036014D02*
X0064642Y0036014D01*
X0064642Y0056962D02*
X0082207Y0056962D01*
X0082793Y0056719D02*
X0084678Y0056719D01*
X0086420Y0057440D01*
X0087753Y0058773D01*
X0088474Y0060515D01*
X0088474Y0062400D01*
X0087753Y0064142D01*
X0086420Y0065475D01*
X0084678Y0066196D01*
X0082793Y0066196D01*
X0081051Y0065475D01*
X0079718Y0064142D01*
X0078997Y0062400D01*
X0078997Y0060515D01*
X0079718Y0058773D01*
X0081051Y0057440D01*
X0082793Y0056719D01*
X0080932Y0057560D02*
X0064642Y0057560D01*
X0064642Y0058159D02*
X0080333Y0058159D01*
X0079735Y0058757D02*
X0064642Y0058757D01*
X0064642Y0059356D02*
X0079477Y0059356D01*
X0079229Y0059954D02*
X0064642Y0059954D01*
X0064642Y0060553D02*
X0078997Y0060553D01*
X0078997Y0061151D02*
X0064642Y0061151D01*
X0064642Y0061750D02*
X0078997Y0061750D01*
X0078997Y0062348D02*
X0064642Y0062348D01*
X0064642Y0062947D02*
X0079223Y0062947D01*
X0079471Y0063545D02*
X0064642Y0063545D01*
X0064642Y0064144D02*
X0079720Y0064144D01*
X0080319Y0064742D02*
X0064642Y0064742D01*
X0064642Y0065341D02*
X0080917Y0065341D01*
X0082173Y0065939D02*
X0064642Y0065939D01*
X0064642Y0076114D02*
X0082637Y0076114D01*
X0082532Y0076130D02*
X0083331Y0076004D01*
X0083436Y0076004D01*
X0083436Y0080842D01*
X0084035Y0080842D01*
X0084035Y0076004D01*
X0084140Y0076004D01*
X0084939Y0076130D01*
X0085708Y0076380D01*
X0086429Y0076748D01*
X0087083Y0077223D01*
X0087655Y0077795D01*
X0088130Y0078449D01*
X0088498Y0079170D01*
X0088748Y0079939D01*
X0088874Y0080738D01*
X0088874Y0080843D01*
X0084036Y0080843D01*
X0084036Y0081442D01*
X0088874Y0081442D01*
X0088874Y0081547D01*
X0088748Y0082346D01*
X0088498Y0083115D01*
X0088130Y0083836D01*
X0087655Y0084490D01*
X0087083Y0085062D01*
X0086429Y0085537D01*
X0085708Y0085905D01*
X0084939Y0086155D01*
X0084140Y0086281D01*
X0084035Y0086281D01*
X0084035Y0081443D01*
X0083436Y0081443D01*
X0083436Y0086281D01*
X0083331Y0086281D01*
X0082532Y0086155D01*
X0081763Y0085905D01*
X0081042Y0085537D01*
X0080388Y0085062D01*
X0079816Y0084490D01*
X0079341Y0083836D01*
X0078973Y0083115D01*
X0078723Y0082346D01*
X0078597Y0081547D01*
X0078597Y0081442D01*
X0083435Y0081442D01*
X0083435Y0080843D01*
X0078597Y0080843D01*
X0078597Y0080738D01*
X0078723Y0079939D01*
X0078973Y0079170D01*
X0079341Y0078449D01*
X0079816Y0077795D01*
X0080388Y0077223D01*
X0081042Y0076748D01*
X0081763Y0076380D01*
X0082532Y0076130D01*
X0083436Y0076114D02*
X0084035Y0076114D01*
X0084035Y0076712D02*
X0083436Y0076712D01*
X0083436Y0077311D02*
X0084035Y0077311D01*
X0084035Y0077909D02*
X0083436Y0077909D01*
X0083436Y0078508D02*
X0084035Y0078508D01*
X0084035Y0079106D02*
X0083436Y0079106D01*
X0083436Y0079705D02*
X0084035Y0079705D01*
X0084035Y0080303D02*
X0083436Y0080303D01*
X0083435Y0080902D02*
X0064642Y0080902D01*
X0064642Y0081501D02*
X0078597Y0081501D01*
X0078684Y0082099D02*
X0064642Y0082099D01*
X0064642Y0082698D02*
X0078838Y0082698D01*
X0079066Y0083296D02*
X0064642Y0083296D01*
X0064642Y0083895D02*
X0079383Y0083895D01*
X0079819Y0084493D02*
X0064642Y0084493D01*
X0064642Y0085092D02*
X0080429Y0085092D01*
X0081342Y0085690D02*
X0064642Y0085690D01*
X0064642Y0080303D02*
X0078666Y0080303D01*
X0078800Y0079705D02*
X0064642Y0079705D01*
X0064642Y0079106D02*
X0079006Y0079106D01*
X0079311Y0078508D02*
X0064642Y0078508D01*
X0064642Y0077909D02*
X0079733Y0077909D01*
X0080300Y0077311D02*
X0064642Y0077311D01*
X0064642Y0076712D02*
X0081111Y0076712D01*
X0084834Y0076114D02*
X0131849Y0076114D01*
X0131745Y0076130D02*
X0132544Y0076004D01*
X0132648Y0076004D01*
X0132648Y0080842D01*
X0133248Y0080842D01*
X0133248Y0076004D01*
X0133353Y0076004D01*
X0134151Y0076130D01*
X0134921Y0076380D01*
X0135641Y0076748D01*
X0136296Y0077223D01*
X0136868Y0077795D01*
X0137343Y0078449D01*
X0137710Y0079170D01*
X0137960Y0079939D01*
X0138087Y0080738D01*
X0138087Y0080843D01*
X0133248Y0080843D01*
X0133248Y0081442D01*
X0138087Y0081442D01*
X0138087Y0081547D01*
X0137960Y0082346D01*
X0137710Y0083115D01*
X0137343Y0083836D01*
X0136868Y0084490D01*
X0136296Y0085062D01*
X0135641Y0085537D01*
X0134921Y0085905D01*
X0134151Y0086155D01*
X0133353Y0086281D01*
X0133248Y0086281D01*
X0133248Y0081443D01*
X0132648Y0081443D01*
X0132648Y0086281D01*
X0132544Y0086281D01*
X0131745Y0086155D01*
X0130976Y0085905D01*
X0130255Y0085537D01*
X0129601Y0085062D01*
X0129029Y0084490D01*
X0128553Y0083836D01*
X0128186Y0083115D01*
X0127936Y0082346D01*
X0127810Y0081547D01*
X0127810Y0081442D01*
X0132648Y0081442D01*
X0132648Y0080843D01*
X0127810Y0080843D01*
X0127810Y0080738D01*
X0127936Y0079939D01*
X0128186Y0079170D01*
X0128553Y0078449D01*
X0129029Y0077795D01*
X0129601Y0077223D01*
X0130255Y0076748D01*
X0130976Y0076380D01*
X0131745Y0076130D01*
X0132648Y0076114D02*
X0133248Y0076114D01*
X0133248Y0076712D02*
X0132648Y0076712D01*
X0132648Y0077311D02*
X0133248Y0077311D01*
X0133248Y0077909D02*
X0132648Y0077909D01*
X0132648Y0078508D02*
X0133248Y0078508D01*
X0133248Y0079106D02*
X0132648Y0079106D01*
X0132648Y0079705D02*
X0133248Y0079705D01*
X0133248Y0080303D02*
X0132648Y0080303D01*
X0132648Y0080902D02*
X0084036Y0080902D01*
X0084035Y0081501D02*
X0083436Y0081501D01*
X0083436Y0082099D02*
X0084035Y0082099D01*
X0084035Y0082698D02*
X0083436Y0082698D01*
X0083436Y0083296D02*
X0084035Y0083296D01*
X0084035Y0083895D02*
X0083436Y0083895D01*
X0083436Y0084493D02*
X0084035Y0084493D01*
X0084035Y0085092D02*
X0083436Y0085092D01*
X0083436Y0085690D02*
X0084035Y0085690D01*
X0086129Y0085690D02*
X0130555Y0085690D01*
X0129641Y0085092D02*
X0087042Y0085092D01*
X0087652Y0084493D02*
X0129032Y0084493D01*
X0128596Y0083895D02*
X0088088Y0083895D01*
X0088405Y0083296D02*
X0128278Y0083296D01*
X0128050Y0082698D02*
X0088633Y0082698D01*
X0088787Y0082099D02*
X0127897Y0082099D01*
X0127810Y0081501D02*
X0088874Y0081501D01*
X0088805Y0080303D02*
X0127878Y0080303D01*
X0128012Y0079705D02*
X0088671Y0079705D01*
X0088465Y0079106D02*
X0128218Y0079106D01*
X0128523Y0078508D02*
X0088160Y0078508D01*
X0087738Y0077909D02*
X0128945Y0077909D01*
X0129513Y0077311D02*
X0087171Y0077311D01*
X0086360Y0076712D02*
X0130324Y0076712D01*
X0134047Y0076114D02*
X0142637Y0076114D01*
X0142532Y0076130D02*
X0143331Y0076004D01*
X0143436Y0076004D01*
X0143436Y0080842D01*
X0144035Y0080842D01*
X0144035Y0076004D01*
X0144140Y0076004D01*
X0144939Y0076130D01*
X0145708Y0076380D01*
X0146429Y0076748D01*
X0147083Y0077223D01*
X0147655Y0077795D01*
X0148130Y0078449D01*
X0148498Y0079170D01*
X0148748Y0079939D01*
X0148874Y0080738D01*
X0148874Y0080843D01*
X0144036Y0080843D01*
X0144036Y0081442D01*
X0148874Y0081442D01*
X0148874Y0081547D01*
X0148748Y0082346D01*
X0148498Y0083115D01*
X0148130Y0083836D01*
X0147655Y0084490D01*
X0147083Y0085062D01*
X0146429Y0085537D01*
X0145708Y0085905D01*
X0144939Y0086155D01*
X0144140Y0086281D01*
X0144035Y0086281D01*
X0144035Y0081443D01*
X0143436Y0081443D01*
X0143436Y0086281D01*
X0143331Y0086281D01*
X0142532Y0086155D01*
X0141763Y0085905D01*
X0141042Y0085537D01*
X0140388Y0085062D01*
X0139816Y0084490D01*
X0139341Y0083836D01*
X0138973Y0083115D01*
X0138723Y0082346D01*
X0138597Y0081547D01*
X0138597Y0081442D01*
X0143435Y0081442D01*
X0143435Y0080843D01*
X0138597Y0080843D01*
X0138597Y0080738D01*
X0138723Y0079939D01*
X0138973Y0079170D01*
X0139341Y0078449D01*
X0139816Y0077795D01*
X0140388Y0077223D01*
X0141042Y0076748D01*
X0141763Y0076380D01*
X0142532Y0076130D01*
X0143436Y0076114D02*
X0144035Y0076114D01*
X0144035Y0076712D02*
X0143436Y0076712D01*
X0143436Y0077311D02*
X0144035Y0077311D01*
X0144035Y0077909D02*
X0143436Y0077909D01*
X0143436Y0078508D02*
X0144035Y0078508D01*
X0144035Y0079106D02*
X0143436Y0079106D01*
X0143436Y0079705D02*
X0144035Y0079705D01*
X0144035Y0080303D02*
X0143436Y0080303D01*
X0143435Y0080902D02*
X0133248Y0080902D01*
X0133248Y0081501D02*
X0132648Y0081501D01*
X0132648Y0082099D02*
X0133248Y0082099D01*
X0133248Y0082698D02*
X0132648Y0082698D01*
X0132648Y0083296D02*
X0133248Y0083296D01*
X0133248Y0083895D02*
X0132648Y0083895D01*
X0132648Y0084493D02*
X0133248Y0084493D01*
X0133248Y0085092D02*
X0132648Y0085092D01*
X0132648Y0085690D02*
X0133248Y0085690D01*
X0135342Y0085690D02*
X0141342Y0085690D01*
X0140429Y0085092D02*
X0136255Y0085092D01*
X0136865Y0084493D02*
X0139819Y0084493D01*
X0139383Y0083895D02*
X0137300Y0083895D01*
X0137618Y0083296D02*
X0139066Y0083296D01*
X0138838Y0082698D02*
X0137846Y0082698D01*
X0137999Y0082099D02*
X0138684Y0082099D01*
X0138597Y0081501D02*
X0138087Y0081501D01*
X0138018Y0080303D02*
X0138666Y0080303D01*
X0138800Y0079705D02*
X0137884Y0079705D01*
X0137678Y0079106D02*
X0139006Y0079106D01*
X0139311Y0078508D02*
X0137373Y0078508D01*
X0136951Y0077909D02*
X0139733Y0077909D01*
X0140300Y0077311D02*
X0136384Y0077311D01*
X0135572Y0076712D02*
X0141111Y0076712D01*
X0144834Y0076114D02*
X0191849Y0076114D01*
X0191745Y0076130D02*
X0192544Y0076004D01*
X0192648Y0076004D01*
X0192648Y0080842D01*
X0193248Y0080842D01*
X0193248Y0076004D01*
X0193353Y0076004D01*
X0194151Y0076130D01*
X0194921Y0076380D01*
X0195641Y0076748D01*
X0196296Y0077223D01*
X0196868Y0077795D01*
X0197343Y0078449D01*
X0197710Y0079170D01*
X0197960Y0079939D01*
X0198087Y0080738D01*
X0198087Y0080843D01*
X0193248Y0080843D01*
X0193248Y0081442D01*
X0198087Y0081442D01*
X0198087Y0081547D01*
X0197960Y0082346D01*
X0197710Y0083115D01*
X0197343Y0083836D01*
X0196868Y0084490D01*
X0196296Y0085062D01*
X0195641Y0085537D01*
X0194921Y0085905D01*
X0194151Y0086155D01*
X0193353Y0086281D01*
X0193248Y0086281D01*
X0193248Y0081443D01*
X0192648Y0081443D01*
X0192648Y0086281D01*
X0192544Y0086281D01*
X0191745Y0086155D01*
X0190976Y0085905D01*
X0190255Y0085537D01*
X0189601Y0085062D01*
X0189029Y0084490D01*
X0188553Y0083836D01*
X0188186Y0083115D01*
X0187936Y0082346D01*
X0187810Y0081547D01*
X0187810Y0081442D01*
X0192648Y0081442D01*
X0192648Y0080843D01*
X0187810Y0080843D01*
X0187810Y0080738D01*
X0187936Y0079939D01*
X0188186Y0079170D01*
X0188553Y0078449D01*
X0189029Y0077795D01*
X0189601Y0077223D01*
X0190255Y0076748D01*
X0190976Y0076380D01*
X0191745Y0076130D01*
X0192648Y0076114D02*
X0193248Y0076114D01*
X0193248Y0076712D02*
X0192648Y0076712D01*
X0192648Y0077311D02*
X0193248Y0077311D01*
X0193248Y0077909D02*
X0192648Y0077909D01*
X0192648Y0078508D02*
X0193248Y0078508D01*
X0193248Y0079106D02*
X0192648Y0079106D01*
X0192648Y0079705D02*
X0193248Y0079705D01*
X0193248Y0080303D02*
X0192648Y0080303D01*
X0192648Y0080902D02*
X0144036Y0080902D01*
X0144035Y0081501D02*
X0143436Y0081501D01*
X0143436Y0082099D02*
X0144035Y0082099D01*
X0144035Y0082698D02*
X0143436Y0082698D01*
X0143436Y0083296D02*
X0144035Y0083296D01*
X0144035Y0083895D02*
X0143436Y0083895D01*
X0143436Y0084493D02*
X0144035Y0084493D01*
X0144035Y0085092D02*
X0143436Y0085092D01*
X0143436Y0085690D02*
X0144035Y0085690D01*
X0146129Y0085690D02*
X0190555Y0085690D01*
X0189641Y0085092D02*
X0147042Y0085092D01*
X0147652Y0084493D02*
X0189032Y0084493D01*
X0188596Y0083895D02*
X0148088Y0083895D01*
X0148405Y0083296D02*
X0188278Y0083296D01*
X0188050Y0082698D02*
X0148633Y0082698D01*
X0148787Y0082099D02*
X0187897Y0082099D01*
X0187810Y0081501D02*
X0148874Y0081501D01*
X0148805Y0080303D02*
X0187878Y0080303D01*
X0188012Y0079705D02*
X0148671Y0079705D01*
X0148465Y0079106D02*
X0188218Y0079106D01*
X0188523Y0078508D02*
X0148160Y0078508D01*
X0147738Y0077909D02*
X0188945Y0077909D01*
X0189513Y0077311D02*
X0147171Y0077311D01*
X0146360Y0076712D02*
X0190324Y0076712D01*
X0194047Y0076114D02*
X0202637Y0076114D01*
X0202532Y0076130D02*
X0203331Y0076004D01*
X0203436Y0076004D01*
X0203436Y0080842D01*
X0204035Y0080842D01*
X0204035Y0076004D01*
X0204140Y0076004D01*
X0204939Y0076130D01*
X0205708Y0076380D01*
X0206429Y0076748D01*
X0207083Y0077223D01*
X0207655Y0077795D01*
X0208130Y0078449D01*
X0208498Y0079170D01*
X0208748Y0079939D01*
X0208874Y0080738D01*
X0208874Y0080843D01*
X0204036Y0080843D01*
X0204036Y0081442D01*
X0208874Y0081442D01*
X0208874Y0081547D01*
X0208748Y0082346D01*
X0208498Y0083115D01*
X0208130Y0083836D01*
X0207655Y0084490D01*
X0207083Y0085062D01*
X0206429Y0085537D01*
X0205708Y0085905D01*
X0204939Y0086155D01*
X0204140Y0086281D01*
X0204035Y0086281D01*
X0204035Y0081443D01*
X0203436Y0081443D01*
X0203436Y0086281D01*
X0203331Y0086281D01*
X0202532Y0086155D01*
X0201763Y0085905D01*
X0201042Y0085537D01*
X0200388Y0085062D01*
X0199816Y0084490D01*
X0199341Y0083836D01*
X0198973Y0083115D01*
X0198723Y0082346D01*
X0198597Y0081547D01*
X0198597Y0081442D01*
X0203435Y0081442D01*
X0203435Y0080843D01*
X0198597Y0080843D01*
X0198597Y0080738D01*
X0198723Y0079939D01*
X0198973Y0079170D01*
X0199341Y0078449D01*
X0199816Y0077795D01*
X0200388Y0077223D01*
X0201042Y0076748D01*
X0201763Y0076380D01*
X0202532Y0076130D01*
X0203436Y0076114D02*
X0204035Y0076114D01*
X0204035Y0076712D02*
X0203436Y0076712D01*
X0203436Y0077311D02*
X0204035Y0077311D01*
X0204035Y0077909D02*
X0203436Y0077909D01*
X0203436Y0078508D02*
X0204035Y0078508D01*
X0204035Y0079106D02*
X0203436Y0079106D01*
X0203436Y0079705D02*
X0204035Y0079705D01*
X0204035Y0080303D02*
X0203436Y0080303D01*
X0203435Y0080902D02*
X0193248Y0080902D01*
X0193248Y0081501D02*
X0192648Y0081501D01*
X0192648Y0082099D02*
X0193248Y0082099D01*
X0193248Y0082698D02*
X0192648Y0082698D01*
X0192648Y0083296D02*
X0193248Y0083296D01*
X0193248Y0083895D02*
X0192648Y0083895D01*
X0192648Y0084493D02*
X0193248Y0084493D01*
X0193248Y0085092D02*
X0192648Y0085092D01*
X0192648Y0085690D02*
X0193248Y0085690D01*
X0195342Y0085690D02*
X0201342Y0085690D01*
X0200429Y0085092D02*
X0196255Y0085092D01*
X0196865Y0084493D02*
X0199819Y0084493D01*
X0199383Y0083895D02*
X0197300Y0083895D01*
X0197618Y0083296D02*
X0199066Y0083296D01*
X0198838Y0082698D02*
X0197846Y0082698D01*
X0197999Y0082099D02*
X0198684Y0082099D01*
X0198597Y0081501D02*
X0198087Y0081501D01*
X0198018Y0080303D02*
X0198666Y0080303D01*
X0198800Y0079705D02*
X0197884Y0079705D01*
X0197678Y0079106D02*
X0199006Y0079106D01*
X0199311Y0078508D02*
X0197373Y0078508D01*
X0196951Y0077909D02*
X0199733Y0077909D01*
X0200300Y0077311D02*
X0196384Y0077311D01*
X0195572Y0076712D02*
X0201111Y0076712D01*
X0204834Y0076114D02*
X0251849Y0076114D01*
X0251745Y0076130D02*
X0252544Y0076004D01*
X0252648Y0076004D01*
X0252648Y0080842D01*
X0253248Y0080842D01*
X0253248Y0076004D01*
X0253353Y0076004D01*
X0254151Y0076130D01*
X0254921Y0076380D01*
X0255641Y0076748D01*
X0256296Y0077223D01*
X0256868Y0077795D01*
X0257343Y0078449D01*
X0257710Y0079170D01*
X0257960Y0079939D01*
X0258087Y0080738D01*
X0258087Y0080843D01*
X0253248Y0080843D01*
X0253248Y0081442D01*
X0258087Y0081442D01*
X0258087Y0081547D01*
X0257960Y0082346D01*
X0257710Y0083115D01*
X0257343Y0083836D01*
X0256868Y0084490D01*
X0256296Y0085062D01*
X0255641Y0085537D01*
X0254921Y0085905D01*
X0254151Y0086155D01*
X0253353Y0086281D01*
X0253248Y0086281D01*
X0253248Y0081443D01*
X0252648Y0081443D01*
X0252648Y0086281D01*
X0252544Y0086281D01*
X0251745Y0086155D01*
X0250976Y0085905D01*
X0250255Y0085537D01*
X0249601Y0085062D01*
X0249029Y0084490D01*
X0248553Y0083836D01*
X0248186Y0083115D01*
X0247936Y0082346D01*
X0247810Y0081547D01*
X0247810Y0081442D01*
X0252648Y0081442D01*
X0252648Y0080843D01*
X0247810Y0080843D01*
X0247810Y0080738D01*
X0247936Y0079939D01*
X0248186Y0079170D01*
X0248553Y0078449D01*
X0249029Y0077795D01*
X0249601Y0077223D01*
X0250255Y0076748D01*
X0250976Y0076380D01*
X0251745Y0076130D01*
X0252648Y0076114D02*
X0253248Y0076114D01*
X0253248Y0076712D02*
X0252648Y0076712D01*
X0252648Y0077311D02*
X0253248Y0077311D01*
X0253248Y0077909D02*
X0252648Y0077909D01*
X0252648Y0078508D02*
X0253248Y0078508D01*
X0253248Y0079106D02*
X0252648Y0079106D01*
X0252648Y0079705D02*
X0253248Y0079705D01*
X0253248Y0080303D02*
X0252648Y0080303D01*
X0252648Y0080902D02*
X0204036Y0080902D01*
X0204035Y0081501D02*
X0203436Y0081501D01*
X0203436Y0082099D02*
X0204035Y0082099D01*
X0204035Y0082698D02*
X0203436Y0082698D01*
X0203436Y0083296D02*
X0204035Y0083296D01*
X0204035Y0083895D02*
X0203436Y0083895D01*
X0203436Y0084493D02*
X0204035Y0084493D01*
X0204035Y0085092D02*
X0203436Y0085092D01*
X0203436Y0085690D02*
X0204035Y0085690D01*
X0206129Y0085690D02*
X0250555Y0085690D01*
X0249641Y0085092D02*
X0207042Y0085092D01*
X0207652Y0084493D02*
X0249032Y0084493D01*
X0248596Y0083895D02*
X0208088Y0083895D01*
X0208405Y0083296D02*
X0248278Y0083296D01*
X0248050Y0082698D02*
X0208633Y0082698D01*
X0208787Y0082099D02*
X0247897Y0082099D01*
X0247810Y0081501D02*
X0208874Y0081501D01*
X0208805Y0080303D02*
X0247878Y0080303D01*
X0248012Y0079705D02*
X0208671Y0079705D01*
X0208465Y0079106D02*
X0248218Y0079106D01*
X0248523Y0078508D02*
X0208160Y0078508D01*
X0207738Y0077909D02*
X0248945Y0077909D01*
X0249513Y0077311D02*
X0207171Y0077311D01*
X0206360Y0076712D02*
X0250324Y0076712D01*
X0254047Y0076114D02*
X0322637Y0076114D01*
X0321111Y0076712D02*
X0255572Y0076712D01*
X0256384Y0077311D02*
X0320300Y0077311D01*
X0319733Y0077909D02*
X0256951Y0077909D01*
X0257373Y0078508D02*
X0319311Y0078508D01*
X0319006Y0079106D02*
X0257678Y0079106D01*
X0257884Y0079705D02*
X0318800Y0079705D01*
X0318666Y0080303D02*
X0258018Y0080303D01*
X0258087Y0081501D02*
X0318597Y0081501D01*
X0318684Y0082099D02*
X0257999Y0082099D01*
X0257846Y0082698D02*
X0318838Y0082698D01*
X0319066Y0083296D02*
X0257618Y0083296D01*
X0257300Y0083895D02*
X0319383Y0083895D01*
X0319819Y0084493D02*
X0256865Y0084493D01*
X0256255Y0085092D02*
X0320429Y0085092D01*
X0321342Y0085690D02*
X0255342Y0085690D01*
X0253248Y0085690D02*
X0252648Y0085690D01*
X0252648Y0085092D02*
X0253248Y0085092D01*
X0253248Y0084493D02*
X0252648Y0084493D01*
X0252648Y0083895D02*
X0253248Y0083895D01*
X0253248Y0083296D02*
X0252648Y0083296D01*
X0252648Y0082698D02*
X0253248Y0082698D01*
X0253248Y0082099D02*
X0252648Y0082099D01*
X0252648Y0081501D02*
X0253248Y0081501D01*
X0253248Y0080902D02*
X0323435Y0080902D01*
X0323436Y0081501D02*
X0324035Y0081501D01*
X0324035Y0082099D02*
X0323436Y0082099D01*
X0323436Y0082698D02*
X0324035Y0082698D01*
X0324035Y0083296D02*
X0323436Y0083296D01*
X0323436Y0083895D02*
X0324035Y0083895D01*
X0324035Y0084493D02*
X0323436Y0084493D01*
X0323436Y0085092D02*
X0324035Y0085092D01*
X0324035Y0085690D02*
X0323436Y0085690D01*
X0326129Y0085690D02*
X0370555Y0085690D01*
X0369641Y0085092D02*
X0327042Y0085092D01*
X0327652Y0084493D02*
X0369032Y0084493D01*
X0368596Y0083895D02*
X0328088Y0083895D01*
X0328405Y0083296D02*
X0368278Y0083296D01*
X0368050Y0082698D02*
X0328633Y0082698D01*
X0328787Y0082099D02*
X0367897Y0082099D01*
X0367810Y0081501D02*
X0328874Y0081501D01*
X0328805Y0080303D02*
X0367878Y0080303D01*
X0368012Y0079705D02*
X0328671Y0079705D01*
X0328465Y0079106D02*
X0368218Y0079106D01*
X0368523Y0078508D02*
X0328160Y0078508D01*
X0327738Y0077909D02*
X0368945Y0077909D01*
X0369513Y0077311D02*
X0327171Y0077311D01*
X0326360Y0076712D02*
X0370324Y0076712D01*
X0372006Y0066196D02*
X0370264Y0065475D01*
X0368931Y0064142D01*
X0368210Y0062400D01*
X0368210Y0060515D01*
X0368931Y0058773D01*
X0370264Y0057440D01*
X0372006Y0056719D01*
X0373891Y0056719D01*
X0375632Y0057440D01*
X0376965Y0058773D01*
X0377687Y0060515D01*
X0377687Y0062400D01*
X0376965Y0064142D01*
X0375632Y0065475D01*
X0373891Y0066196D01*
X0372006Y0066196D01*
X0371386Y0065939D02*
X0325298Y0065939D01*
X0324678Y0066196D02*
X0326420Y0065475D01*
X0327753Y0064142D01*
X0328474Y0062400D01*
X0328474Y0060515D01*
X0327753Y0058773D01*
X0326420Y0057440D01*
X0324678Y0056719D01*
X0322793Y0056719D01*
X0321051Y0057440D01*
X0319718Y0058773D01*
X0318997Y0060515D01*
X0318997Y0062400D01*
X0319718Y0064142D01*
X0321051Y0065475D01*
X0322793Y0066196D01*
X0324678Y0066196D01*
X0326554Y0065341D02*
X0370130Y0065341D01*
X0369531Y0064742D02*
X0327152Y0064742D01*
X0327751Y0064144D02*
X0368933Y0064144D01*
X0368684Y0063545D02*
X0328000Y0063545D01*
X0328248Y0062947D02*
X0368436Y0062947D01*
X0368210Y0062348D02*
X0328474Y0062348D01*
X0328474Y0061750D02*
X0368210Y0061750D01*
X0368210Y0061151D02*
X0328474Y0061151D01*
X0328474Y0060553D02*
X0368210Y0060553D01*
X0368442Y0059954D02*
X0328242Y0059954D01*
X0327994Y0059356D02*
X0368690Y0059356D01*
X0368947Y0058757D02*
X0327736Y0058757D01*
X0327138Y0058159D02*
X0369546Y0058159D01*
X0370144Y0057560D02*
X0326539Y0057560D01*
X0325264Y0056962D02*
X0371420Y0056962D01*
X0374476Y0056962D02*
X0382207Y0056962D01*
X0382793Y0056719D02*
X0384678Y0056719D01*
X0386420Y0057440D01*
X0387753Y0058773D01*
X0388474Y0060515D01*
X0388474Y0062400D01*
X0387753Y0064142D01*
X0386420Y0065475D01*
X0384678Y0066196D01*
X0382793Y0066196D01*
X0381051Y0065475D01*
X0379718Y0064142D01*
X0378997Y0062400D01*
X0378997Y0060515D01*
X0379718Y0058773D01*
X0381051Y0057440D01*
X0382793Y0056719D01*
X0380932Y0057560D02*
X0375752Y0057560D01*
X0376351Y0058159D02*
X0380333Y0058159D01*
X0379735Y0058757D02*
X0376949Y0058757D01*
X0377206Y0059356D02*
X0379477Y0059356D01*
X0379229Y0059954D02*
X0377454Y0059954D01*
X0377687Y0060553D02*
X0378997Y0060553D01*
X0378997Y0061151D02*
X0377687Y0061151D01*
X0377687Y0061750D02*
X0378997Y0061750D01*
X0378997Y0062348D02*
X0377687Y0062348D01*
X0377460Y0062947D02*
X0379223Y0062947D01*
X0379471Y0063545D02*
X0377212Y0063545D01*
X0376963Y0064144D02*
X0379720Y0064144D01*
X0380319Y0064742D02*
X0376365Y0064742D01*
X0375766Y0065341D02*
X0380917Y0065341D01*
X0382173Y0065939D02*
X0374511Y0065939D01*
X0385298Y0065939D02*
X0431386Y0065939D01*
X0430130Y0065341D02*
X0386554Y0065341D01*
X0387152Y0064742D02*
X0429531Y0064742D01*
X0428933Y0064144D02*
X0387751Y0064144D01*
X0388000Y0063545D02*
X0428684Y0063545D01*
X0428436Y0062947D02*
X0388248Y0062947D01*
X0388474Y0062348D02*
X0428210Y0062348D01*
X0428210Y0061750D02*
X0388474Y0061750D01*
X0388474Y0061151D02*
X0428210Y0061151D01*
X0428210Y0060553D02*
X0388474Y0060553D01*
X0388242Y0059954D02*
X0428442Y0059954D01*
X0428690Y0059356D02*
X0387994Y0059356D01*
X0387736Y0058757D02*
X0428947Y0058757D01*
X0429546Y0058159D02*
X0387138Y0058159D01*
X0386539Y0057560D02*
X0430144Y0057560D01*
X0431420Y0056962D02*
X0385264Y0056962D01*
X0424949Y0027036D02*
X0314656Y0027036D01*
X0315826Y0027634D02*
X0425401Y0027634D01*
X0425909Y0028233D02*
X0316425Y0028233D01*
X0316989Y0028832D02*
X0426507Y0028832D01*
X0427244Y0029430D02*
X0317237Y0029430D01*
X0317485Y0030029D02*
X0428140Y0030029D01*
X0429297Y0030627D02*
X0317687Y0030627D01*
X0317687Y0031226D02*
X0431178Y0031226D01*
X0437386Y0030627D02*
X0452042Y0030627D01*
X0452042Y0030029D02*
X0438544Y0030029D01*
X0439440Y0029430D02*
X0452042Y0029430D01*
X0452042Y0028832D02*
X0440176Y0028832D01*
X0440775Y0028233D02*
X0452042Y0028233D01*
X0452042Y0027634D02*
X0441283Y0027634D01*
X0441735Y0027036D02*
X0452042Y0027036D01*
X0452042Y0026437D02*
X0442111Y0026437D01*
X0442431Y0025839D02*
X0452042Y0025839D01*
X0452042Y0025240D02*
X0442719Y0025240D01*
X0442935Y0024642D02*
X0452042Y0024642D01*
X0452042Y0024043D02*
X0443135Y0024043D01*
X0443272Y0023445D02*
X0452042Y0023445D01*
X0452042Y0022846D02*
X0443390Y0022846D01*
X0443458Y0022248D02*
X0452042Y0022248D01*
X0452042Y0021649D02*
X0443500Y0021649D01*
X0448320Y0010278D02*
X0068364Y0010278D01*
X0068841Y0009679D02*
X0447842Y0009679D01*
X0447365Y0009081D02*
X0069319Y0009081D01*
X0069796Y0008482D02*
X0446888Y0008482D01*
X0446322Y0007884D02*
X0070362Y0007884D01*
X0071112Y0007285D02*
X0445572Y0007285D01*
X0444821Y0006687D02*
X0071863Y0006687D01*
X0072613Y0006088D02*
X0444071Y0006088D01*
X0443320Y0005490D02*
X0073364Y0005490D01*
X0074587Y0004891D02*
X0442096Y0004891D01*
X0440854Y0004293D02*
X0075830Y0004293D01*
X0077073Y0003694D02*
X0439611Y0003694D01*
X0437091Y0003096D02*
X0079592Y0003096D01*
X0085264Y0056962D02*
X0131420Y0056962D01*
X0132006Y0056719D02*
X0133891Y0056719D01*
X0135632Y0057440D01*
X0136965Y0058773D01*
X0137687Y0060515D01*
X0137687Y0062400D01*
X0136965Y0064142D01*
X0135632Y0065475D01*
X0133891Y0066196D01*
X0132006Y0066196D01*
X0130264Y0065475D01*
X0128931Y0064142D01*
X0128210Y0062400D01*
X0128210Y0060515D01*
X0128931Y0058773D01*
X0130264Y0057440D01*
X0132006Y0056719D01*
X0130144Y0057560D02*
X0086539Y0057560D01*
X0087138Y0058159D02*
X0129546Y0058159D01*
X0128947Y0058757D02*
X0087736Y0058757D01*
X0087994Y0059356D02*
X0128690Y0059356D01*
X0128442Y0059954D02*
X0088242Y0059954D01*
X0088474Y0060553D02*
X0128210Y0060553D01*
X0128210Y0061151D02*
X0088474Y0061151D01*
X0088474Y0061750D02*
X0128210Y0061750D01*
X0128210Y0062348D02*
X0088474Y0062348D01*
X0088248Y0062947D02*
X0128436Y0062947D01*
X0128684Y0063545D02*
X0088000Y0063545D01*
X0087751Y0064144D02*
X0128933Y0064144D01*
X0129531Y0064742D02*
X0087152Y0064742D01*
X0086554Y0065341D02*
X0130130Y0065341D01*
X0131386Y0065939D02*
X0085298Y0065939D01*
X0064642Y0097062D02*
X0452042Y0097062D01*
X0452042Y0097660D02*
X0064642Y0097660D01*
X0064642Y0098259D02*
X0452042Y0098259D01*
X0452042Y0098857D02*
X0064642Y0098857D01*
X0064642Y0099456D02*
X0452042Y0099456D01*
X0452042Y0100054D02*
X0064642Y0100054D01*
X0064642Y0100653D02*
X0452042Y0100653D01*
X0452042Y0101251D02*
X0064642Y0101251D01*
X0064642Y0101850D02*
X0452042Y0101850D01*
X0452042Y0102448D02*
X0064642Y0102448D01*
X0064642Y0103047D02*
X0452042Y0103047D01*
X0452042Y0103645D02*
X0064642Y0103645D01*
X0064642Y0104244D02*
X0452042Y0104244D01*
X0452042Y0104842D02*
X0064642Y0104842D01*
X0064642Y0105441D02*
X0452042Y0105441D01*
X0452042Y0106039D02*
X0313577Y0106039D01*
X0313248Y0106039D02*
X0312648Y0106039D01*
X0312319Y0106039D02*
X0264364Y0106039D01*
X0264035Y0106039D02*
X0263436Y0106039D01*
X0263107Y0106039D02*
X0064642Y0106039D01*
X0064642Y0106638D02*
X0261257Y0106638D01*
X0260374Y0107237D02*
X0064642Y0107237D01*
X0064642Y0107835D02*
X0259787Y0107835D01*
X0259352Y0108434D02*
X0064642Y0108434D01*
X0064642Y0109032D02*
X0259044Y0109032D01*
X0258824Y0109631D02*
X0064642Y0109631D01*
X0064642Y0110229D02*
X0258678Y0110229D01*
X0263436Y0110229D02*
X0264035Y0110229D01*
X0264035Y0109631D02*
X0263436Y0109631D01*
X0263436Y0109032D02*
X0264035Y0109032D01*
X0264035Y0108434D02*
X0263436Y0108434D01*
X0263436Y0107835D02*
X0264035Y0107835D01*
X0264035Y0107237D02*
X0263436Y0107237D01*
X0263436Y0106638D02*
X0264035Y0106638D01*
X0266214Y0106638D02*
X0310470Y0106638D01*
X0309587Y0107237D02*
X0267097Y0107237D01*
X0267684Y0107835D02*
X0309000Y0107835D01*
X0308565Y0108434D02*
X0268119Y0108434D01*
X0268427Y0109032D02*
X0308256Y0109032D01*
X0308036Y0109631D02*
X0268647Y0109631D01*
X0268793Y0110229D02*
X0307890Y0110229D01*
X0307810Y0110828D02*
X0268874Y0110828D01*
X0268798Y0112025D02*
X0307885Y0112025D01*
X0308026Y0112623D02*
X0268657Y0112623D01*
X0268443Y0113222D02*
X0308240Y0113222D01*
X0308545Y0113820D02*
X0268138Y0113820D01*
X0267707Y0114419D02*
X0308977Y0114419D01*
X0309556Y0115017D02*
X0267128Y0115017D01*
X0266275Y0115616D02*
X0310408Y0115616D01*
X0312648Y0115616D02*
X0313248Y0115616D01*
X0313248Y0115017D02*
X0312648Y0115017D01*
X0312648Y0114419D02*
X0313248Y0114419D01*
X0313248Y0113820D02*
X0312648Y0113820D01*
X0312648Y0113222D02*
X0313248Y0113222D01*
X0313248Y0112623D02*
X0312648Y0112623D01*
X0312648Y0112025D02*
X0313248Y0112025D01*
X0313248Y0110229D02*
X0312648Y0110229D01*
X0312648Y0109631D02*
X0313248Y0109631D01*
X0313248Y0109032D02*
X0312648Y0109032D01*
X0312648Y0108434D02*
X0313248Y0108434D01*
X0313248Y0107835D02*
X0312648Y0107835D01*
X0312648Y0107237D02*
X0313248Y0107237D01*
X0313248Y0106638D02*
X0312648Y0106638D01*
X0315426Y0106638D02*
X0452042Y0106638D01*
X0452042Y0107237D02*
X0316309Y0107237D01*
X0316897Y0107835D02*
X0452042Y0107835D01*
X0452042Y0108434D02*
X0317332Y0108434D01*
X0317640Y0109032D02*
X0452042Y0109032D01*
X0452042Y0118010D02*
X0064642Y0118010D01*
X0064642Y0118608D02*
X0452042Y0118608D01*
X0452042Y0119207D02*
X0064642Y0119207D01*
X0064642Y0119805D02*
X0452042Y0119805D01*
X0452042Y0120404D02*
X0064642Y0120404D01*
X0064642Y0121002D02*
X0452042Y0121002D01*
X0452042Y0121601D02*
X0064642Y0121601D01*
X0064642Y0122199D02*
X0452042Y0122199D01*
X0452042Y0122798D02*
X0064642Y0122798D01*
X0064642Y0123396D02*
X0452042Y0123396D01*
X0452042Y0123995D02*
X0064642Y0123995D01*
X0064642Y0124593D02*
X0452042Y0124593D01*
X0452042Y0125192D02*
X0064642Y0125192D01*
X0064642Y0125790D02*
X0452042Y0125790D01*
X0452042Y0126389D02*
X0064642Y0126389D01*
X0064642Y0126987D02*
X0452042Y0126987D01*
X0452042Y0127586D02*
X0064642Y0127586D01*
X0064642Y0128184D02*
X0452042Y0128184D01*
X0452042Y0128783D02*
X0064642Y0128783D01*
X0064642Y0129381D02*
X0452042Y0129381D01*
X0452042Y0129980D02*
X0064642Y0129980D01*
X0064642Y0130578D02*
X0452042Y0130578D01*
X0452042Y0131177D02*
X0064642Y0131177D01*
X0064642Y0131775D02*
X0452042Y0131775D01*
X0452042Y0132374D02*
X0064642Y0132374D01*
X0064642Y0132972D02*
X0452042Y0132972D01*
X0452042Y0133571D02*
X0064642Y0133571D01*
X0064642Y0134170D02*
X0452042Y0134170D01*
X0452042Y0134768D02*
X0064642Y0134768D01*
X0064642Y0135367D02*
X0452042Y0135367D01*
X0452042Y0135965D02*
X0064642Y0135965D01*
X0064642Y0136564D02*
X0452042Y0136564D01*
X0452042Y0137162D02*
X0064642Y0137162D01*
X0064642Y0137761D02*
X0452042Y0137761D01*
X0452042Y0138359D02*
X0064642Y0138359D01*
X0064642Y0138958D02*
X0452042Y0138958D01*
X0452042Y0139556D02*
X0064642Y0139556D01*
X0064642Y0140155D02*
X0452042Y0140155D01*
X0452042Y0140753D02*
X0064642Y0140753D01*
X0064642Y0159307D02*
X0452042Y0159307D01*
X0452042Y0159905D02*
X0064642Y0159905D01*
X0064642Y0160504D02*
X0452042Y0160504D01*
X0452042Y0161103D02*
X0064642Y0161103D01*
X0064642Y0161701D02*
X0452042Y0161701D01*
X0452042Y0162300D02*
X0064642Y0162300D01*
X0064642Y0162898D02*
X0452042Y0162898D01*
X0452042Y0163497D02*
X0064642Y0163497D01*
X0064642Y0164095D02*
X0452042Y0164095D01*
X0452042Y0164694D02*
X0064642Y0164694D01*
X0064642Y0165292D02*
X0452042Y0165292D01*
X0452042Y0165891D02*
X0064642Y0165891D01*
X0064642Y0166489D02*
X0452042Y0166489D01*
X0452042Y0167088D02*
X0064642Y0167088D01*
X0064642Y0167686D02*
X0452042Y0167686D01*
X0452042Y0168285D02*
X0064642Y0168285D01*
X0064642Y0168883D02*
X0452042Y0168883D01*
X0452042Y0169482D02*
X0064642Y0169482D01*
X0064642Y0170080D02*
X0452042Y0170080D01*
X0452042Y0170679D02*
X0064642Y0170679D01*
X0064642Y0171277D02*
X0452042Y0171277D01*
X0452042Y0171876D02*
X0064642Y0171876D01*
X0064642Y0172474D02*
X0452042Y0172474D01*
X0452042Y0173073D02*
X0064642Y0173073D01*
X0064642Y0173671D02*
X0452042Y0173671D01*
X0452042Y0174270D02*
X0064642Y0174270D01*
X0064642Y0174868D02*
X0452042Y0174868D01*
X0452042Y0175467D02*
X0064642Y0175467D01*
X0064642Y0176065D02*
X0452042Y0176065D01*
X0452042Y0176664D02*
X0064642Y0176664D01*
X0064642Y0177262D02*
X0452042Y0177262D01*
X0452042Y0185043D02*
X0064642Y0185043D01*
X0064642Y0185641D02*
X0452042Y0185641D01*
X0452042Y0186240D02*
X0064642Y0186240D01*
X0064642Y0186839D02*
X0452042Y0186839D01*
X0452042Y0187437D02*
X0064642Y0187437D01*
X0064642Y0188036D02*
X0452042Y0188036D01*
X0452042Y0188634D02*
X0064642Y0188634D01*
X0064642Y0189233D02*
X0452042Y0189233D01*
X0452042Y0189831D02*
X0064642Y0189831D01*
X0064642Y0190430D02*
X0452042Y0190430D01*
X0452042Y0191028D02*
X0064642Y0191028D01*
X0064642Y0191627D02*
X0452042Y0191627D01*
X0452042Y0192225D02*
X0064642Y0192225D01*
X0064642Y0192824D02*
X0452042Y0192824D01*
X0452042Y0193422D02*
X0064642Y0193422D01*
X0064642Y0194021D02*
X0452042Y0194021D01*
X0452042Y0194619D02*
X0064642Y0194619D01*
X0064642Y0195218D02*
X0452042Y0195218D01*
X0452042Y0195816D02*
X0064642Y0195816D01*
X0064642Y0196415D02*
X0452042Y0196415D01*
X0452042Y0197013D02*
X0064642Y0197013D01*
X0064642Y0197612D02*
X0452042Y0197612D01*
X0452042Y0198210D02*
X0064642Y0198210D01*
X0064642Y0198809D02*
X0452042Y0198809D01*
X0452042Y0199407D02*
X0064642Y0199407D01*
X0064642Y0200006D02*
X0452042Y0200006D01*
X0452042Y0200604D02*
X0064642Y0200604D01*
X0064642Y0201203D02*
X0452042Y0201203D01*
X0452042Y0201801D02*
X0064642Y0201801D01*
X0064642Y0202400D02*
X0452042Y0202400D01*
X0452042Y0202998D02*
X0064642Y0202998D01*
X0064642Y0203597D02*
X0452042Y0203597D01*
X0452042Y0204195D02*
X0064653Y0204195D01*
X0064700Y0204794D02*
X0452042Y0204794D01*
X0452042Y0205392D02*
X0064823Y0205392D01*
X0065017Y0205991D02*
X0452042Y0205991D01*
X0452042Y0206589D02*
X0065212Y0206589D01*
X0065465Y0207188D02*
X0452042Y0207188D01*
X0452042Y0207786D02*
X0065900Y0207786D01*
X0066335Y0208385D02*
X0452042Y0208385D01*
X0452042Y0208983D02*
X0066951Y0208983D01*
X0067775Y0209582D02*
X0452042Y0209582D01*
X0452042Y0210180D02*
X0069053Y0210180D01*
X0084939Y0210779D02*
X0452042Y0210779D01*
X0452042Y0211377D02*
X0086781Y0211377D01*
X0087244Y0211528D02*
X0087244Y0211528D01*
X0087860Y0211976D02*
X0452042Y0211976D01*
X0452042Y0212574D02*
X0088684Y0212574D01*
X0089508Y0213173D02*
X0452042Y0213173D01*
X0452042Y0213772D02*
X0089984Y0213772D01*
X0089595Y0213236D02*
X0089595Y0213236D01*
X0089595Y0213236D01*
X0090419Y0214370D02*
X0452042Y0214370D01*
X0452042Y0214969D02*
X0090853Y0214969D01*
X0091288Y0215567D02*
X0452042Y0215567D01*
X0452042Y0216166D02*
X0091491Y0216166D01*
X0091303Y0215587D02*
X0091303Y0215587D01*
X0091685Y0216764D02*
X0452042Y0216764D01*
X0452042Y0217363D02*
X0091880Y0217363D01*
X0092074Y0217961D02*
X0452042Y0217961D01*
X0452042Y0218560D02*
X0092201Y0218560D01*
X0092201Y0219158D02*
X0452042Y0219158D01*
X0452042Y0219757D02*
X0092201Y0219757D01*
X0092201Y0220355D02*
X0452042Y0220355D01*
X0452042Y0220954D02*
X0092201Y0220954D01*
X0092201Y0221552D02*
X0452042Y0221552D01*
X0452042Y0222151D02*
X0092201Y0222151D01*
X0092201Y0222749D02*
X0452042Y0222749D01*
X0452042Y0223348D02*
X0092201Y0223348D01*
X0092201Y0223946D02*
X0452042Y0223946D01*
X0452042Y0224545D02*
X0092201Y0224545D01*
X0092201Y0225143D02*
X0452042Y0225143D01*
X0452042Y0225742D02*
X0092201Y0225742D01*
X0092201Y0226340D02*
X0452042Y0226340D01*
X0452042Y0226939D02*
X0092201Y0226939D01*
X0092201Y0227537D02*
X0168169Y0227537D01*
X0169483Y0227185D02*
X0173972Y0227185D01*
X0178308Y0228347D01*
X0182195Y0230591D01*
X0185369Y0233765D01*
X0187614Y0237653D01*
X0188776Y0241989D01*
X0188776Y0246477D01*
X0187614Y0250813D01*
X0185369Y0254701D01*
X0182195Y0257875D01*
X0178308Y0260119D01*
X0173972Y0261281D01*
X0169483Y0261281D01*
X0165147Y0260119D01*
X0161260Y0257875D01*
X0158086Y0254701D01*
X0155841Y0250813D01*
X0154680Y0246477D01*
X0154680Y0241989D01*
X0155841Y0237653D01*
X0158086Y0233765D01*
X0161260Y0230591D01*
X0165147Y0228347D01*
X0169483Y0227185D01*
X0165935Y0228136D02*
X0092201Y0228136D01*
X0092201Y0228734D02*
X0164476Y0228734D01*
X0163440Y0229333D02*
X0092201Y0229333D01*
X0092201Y0229931D02*
X0162403Y0229931D01*
X0161366Y0230530D02*
X0092201Y0230530D01*
X0092201Y0231128D02*
X0160723Y0231128D01*
X0160124Y0231727D02*
X0092201Y0231727D01*
X0092201Y0232325D02*
X0159526Y0232325D01*
X0158927Y0232924D02*
X0092201Y0232924D01*
X0092201Y0233522D02*
X0158329Y0233522D01*
X0157881Y0234121D02*
X0092201Y0234121D01*
X0092201Y0234719D02*
X0157535Y0234719D01*
X0157189Y0235318D02*
X0092201Y0235318D01*
X0092201Y0235916D02*
X0156844Y0235916D01*
X0156498Y0236515D02*
X0092201Y0236515D01*
X0092201Y0237113D02*
X0156153Y0237113D01*
X0155826Y0237712D02*
X0092201Y0237712D01*
X0092201Y0238310D02*
X0155665Y0238310D01*
X0155505Y0238909D02*
X0092201Y0238909D01*
X0092201Y0239508D02*
X0155344Y0239508D01*
X0155184Y0240106D02*
X0092201Y0240106D01*
X0092201Y0240705D02*
X0155024Y0240705D01*
X0154863Y0241303D02*
X0092201Y0241303D01*
X0092201Y0241902D02*
X0154703Y0241902D01*
X0154680Y0242500D02*
X0092201Y0242500D01*
X0092201Y0243099D02*
X0154680Y0243099D01*
X0154680Y0243697D02*
X0092201Y0243697D01*
X0092201Y0244296D02*
X0154680Y0244296D01*
X0154680Y0244894D02*
X0092201Y0244894D01*
X0092201Y0245493D02*
X0154680Y0245493D01*
X0154680Y0246091D02*
X0092201Y0246091D01*
X0092201Y0246690D02*
X0154736Y0246690D01*
X0154897Y0247288D02*
X0092201Y0247288D01*
X0092201Y0247887D02*
X0155057Y0247887D01*
X0155218Y0248485D02*
X0092201Y0248485D01*
X0092201Y0249084D02*
X0155378Y0249084D01*
X0155538Y0249682D02*
X0092201Y0249682D01*
X0092201Y0250281D02*
X0155699Y0250281D01*
X0155879Y0250879D02*
X0092201Y0250879D01*
X0092201Y0251478D02*
X0156225Y0251478D01*
X0156571Y0252076D02*
X0092201Y0252076D01*
X0092201Y0252675D02*
X0156916Y0252675D01*
X0157262Y0253273D02*
X0092201Y0253273D01*
X0092201Y0253872D02*
X0157607Y0253872D01*
X0157953Y0254470D02*
X0092201Y0254470D01*
X0092201Y0255069D02*
X0158454Y0255069D01*
X0159052Y0255667D02*
X0092201Y0255667D01*
X0092201Y0256266D02*
X0159651Y0256266D01*
X0160249Y0256864D02*
X0092201Y0256864D01*
X0092201Y0257463D02*
X0160848Y0257463D01*
X0161583Y0258061D02*
X0092201Y0258061D01*
X0092201Y0258660D02*
X0162620Y0258660D01*
X0163656Y0259258D02*
X0092201Y0259258D01*
X0092201Y0259857D02*
X0164693Y0259857D01*
X0166402Y0260455D02*
X0092201Y0260455D01*
X0092062Y0261054D02*
X0168635Y0261054D01*
X0174820Y0261054D02*
X0452042Y0261054D01*
X0452042Y0261652D02*
X0091868Y0261652D01*
X0091673Y0262251D02*
X0452042Y0262251D01*
X0452042Y0262849D02*
X0091479Y0262849D01*
X0091303Y0263391D02*
X0091303Y0263391D01*
X0091261Y0263448D02*
X0107839Y0263448D01*
X0108952Y0262987D02*
X0112456Y0262987D01*
X0115692Y0264327D01*
X0118169Y0266804D01*
X0119510Y0270041D01*
X0119510Y0273544D01*
X0118169Y0276780D01*
X0115692Y0279257D01*
X0112456Y0280598D01*
X0108952Y0280598D01*
X0105716Y0279257D01*
X0103239Y0276780D01*
X0101898Y0273544D01*
X0101898Y0270041D01*
X0103239Y0266804D01*
X0105716Y0264327D01*
X0108952Y0262987D01*
X0106394Y0264046D02*
X0090827Y0264046D01*
X0090392Y0264645D02*
X0105398Y0264645D01*
X0104800Y0265243D02*
X0089957Y0265243D01*
X0089595Y0265742D02*
X0089595Y0265742D01*
X0089595Y0265742D01*
X0089457Y0265842D02*
X0104201Y0265842D01*
X0103603Y0266441D02*
X0088633Y0266441D01*
X0087809Y0267039D02*
X0103142Y0267039D01*
X0102894Y0267638D02*
X0086666Y0267638D01*
X0084824Y0268236D02*
X0102646Y0268236D01*
X0102398Y0268835D02*
X0068939Y0268835D01*
X0067724Y0269433D02*
X0102150Y0269433D01*
X0101902Y0270032D02*
X0066900Y0270032D01*
X0066308Y0270630D02*
X0101898Y0270630D01*
X0101898Y0271229D02*
X0065873Y0271229D01*
X0065439Y0271827D02*
X0101898Y0271827D01*
X0101898Y0272426D02*
X0065200Y0272426D01*
X0065005Y0273024D02*
X0101898Y0273024D01*
X0101931Y0273623D02*
X0064811Y0273623D01*
X0064697Y0274221D02*
X0102179Y0274221D01*
X0102427Y0274820D02*
X0064650Y0274820D01*
X0064642Y0275418D02*
X0102675Y0275418D01*
X0102923Y0276017D02*
X0064642Y0276017D01*
X0064642Y0276615D02*
X0103171Y0276615D01*
X0103673Y0277214D02*
X0064642Y0277214D01*
X0064642Y0277812D02*
X0104271Y0277812D01*
X0104870Y0278411D02*
X0064642Y0278411D01*
X0064642Y0279009D02*
X0105468Y0279009D01*
X0106563Y0279608D02*
X0064642Y0279608D01*
X0064642Y0280206D02*
X0108008Y0280206D01*
X0113400Y0280206D02*
X0403283Y0280206D01*
X0404228Y0280598D02*
X0400992Y0279257D01*
X0398515Y0276780D01*
X0397174Y0273544D01*
X0397174Y0270041D01*
X0398515Y0266804D01*
X0400992Y0264327D01*
X0404228Y0262987D01*
X0407731Y0262987D01*
X0410968Y0264327D01*
X0413445Y0266804D01*
X0414785Y0270041D01*
X0414785Y0273544D01*
X0413445Y0276780D01*
X0410968Y0279257D01*
X0407731Y0280598D01*
X0404228Y0280598D01*
X0401838Y0279608D02*
X0114845Y0279608D01*
X0115940Y0279009D02*
X0400744Y0279009D01*
X0400145Y0278411D02*
X0116538Y0278411D01*
X0117137Y0277812D02*
X0399547Y0277812D01*
X0398948Y0277214D02*
X0117735Y0277214D01*
X0118237Y0276615D02*
X0398446Y0276615D01*
X0398198Y0276017D02*
X0118485Y0276017D01*
X0118733Y0275418D02*
X0397951Y0275418D01*
X0397703Y0274820D02*
X0118981Y0274820D01*
X0119229Y0274221D02*
X0397455Y0274221D01*
X0397207Y0273623D02*
X0119477Y0273623D01*
X0119510Y0273024D02*
X0397174Y0273024D01*
X0397174Y0272426D02*
X0119510Y0272426D01*
X0119510Y0271827D02*
X0397174Y0271827D01*
X0397174Y0271229D02*
X0119510Y0271229D01*
X0119510Y0270630D02*
X0397174Y0270630D01*
X0397178Y0270032D02*
X0119506Y0270032D01*
X0119258Y0269433D02*
X0397426Y0269433D01*
X0397674Y0268835D02*
X0119010Y0268835D01*
X0118762Y0268236D02*
X0397922Y0268236D01*
X0398169Y0267638D02*
X0118514Y0267638D01*
X0118266Y0267039D02*
X0398417Y0267039D01*
X0398878Y0266441D02*
X0117805Y0266441D01*
X0117207Y0265842D02*
X0399477Y0265842D01*
X0400075Y0265243D02*
X0116608Y0265243D01*
X0116010Y0264645D02*
X0400674Y0264645D01*
X0401669Y0264046D02*
X0115014Y0264046D01*
X0113569Y0263448D02*
X0403114Y0263448D01*
X0408845Y0263448D02*
X0452042Y0263448D01*
X0452042Y0264046D02*
X0410290Y0264046D01*
X0411285Y0264645D02*
X0452042Y0264645D01*
X0452042Y0265243D02*
X0411884Y0265243D01*
X0412482Y0265842D02*
X0452042Y0265842D01*
X0452042Y0266441D02*
X0413081Y0266441D01*
X0413542Y0267039D02*
X0452042Y0267039D01*
X0452042Y0267638D02*
X0413790Y0267638D01*
X0414038Y0268236D02*
X0452042Y0268236D01*
X0452042Y0268835D02*
X0414286Y0268835D01*
X0414533Y0269433D02*
X0452042Y0269433D01*
X0452042Y0270032D02*
X0414781Y0270032D01*
X0414785Y0270630D02*
X0452042Y0270630D01*
X0452042Y0271229D02*
X0414785Y0271229D01*
X0414785Y0271827D02*
X0452042Y0271827D01*
X0452042Y0272426D02*
X0414785Y0272426D01*
X0414785Y0273024D02*
X0452042Y0273024D01*
X0452042Y0273623D02*
X0414752Y0273623D01*
X0414504Y0274221D02*
X0452042Y0274221D01*
X0452042Y0274820D02*
X0414257Y0274820D01*
X0414009Y0275418D02*
X0452042Y0275418D01*
X0452042Y0276017D02*
X0413761Y0276017D01*
X0413513Y0276615D02*
X0452042Y0276615D01*
X0452042Y0277214D02*
X0413011Y0277214D01*
X0412412Y0277812D02*
X0452042Y0277812D01*
X0452042Y0278411D02*
X0411814Y0278411D01*
X0411215Y0279009D02*
X0452042Y0279009D01*
X0452042Y0279608D02*
X0410121Y0279608D01*
X0408676Y0280206D02*
X0452042Y0280206D01*
X0452042Y0280805D02*
X0064642Y0280805D01*
X0064642Y0281403D02*
X0452042Y0281403D01*
X0452042Y0282002D02*
X0064642Y0282002D01*
X0064642Y0282600D02*
X0452042Y0282600D01*
X0452042Y0283199D02*
X0064642Y0283199D01*
X0064642Y0283797D02*
X0452042Y0283797D01*
X0452042Y0284396D02*
X0064642Y0284396D01*
X0064642Y0284994D02*
X0452042Y0284994D01*
X0452042Y0285593D02*
X0064642Y0285593D01*
X0064642Y0286191D02*
X0452042Y0286191D01*
X0452042Y0286790D02*
X0064642Y0286790D01*
X0064642Y0287388D02*
X0452042Y0287388D01*
X0452042Y0287987D02*
X0064642Y0287987D01*
X0064642Y0288585D02*
X0452042Y0288585D01*
X0452042Y0289184D02*
X0064642Y0289184D01*
X0064642Y0289782D02*
X0452042Y0289782D01*
X0452042Y0290381D02*
X0064642Y0290381D01*
X0064642Y0290979D02*
X0452042Y0290979D01*
X0452042Y0291578D02*
X0436315Y0291578D01*
X0436158Y0291523D02*
X0437235Y0291900D01*
X0438263Y0292395D01*
X0439229Y0293002D01*
X0440121Y0293714D01*
X0440928Y0294520D01*
X0441640Y0295412D01*
X0442247Y0296379D01*
X0442742Y0297406D01*
X0443118Y0298483D01*
X0443372Y0299596D01*
X0443500Y0300730D01*
X0443500Y0301000D01*
X0433642Y0301000D01*
X0433642Y0301600D01*
X0443500Y0301600D01*
X0443500Y0301870D01*
X0443372Y0303004D01*
X0443118Y0304117D01*
X0442742Y0305194D01*
X0442247Y0306221D01*
X0441640Y0307188D01*
X0440928Y0308080D01*
X0440121Y0308886D01*
X0439229Y0309598D01*
X0438263Y0310205D01*
X0437235Y0310700D01*
X0436158Y0311077D01*
X0435046Y0311331D01*
X0433912Y0311458D01*
X0433642Y0311458D01*
X0433642Y0301600D01*
X0433042Y0301600D01*
X0433042Y0311458D01*
X0432771Y0311458D01*
X0431638Y0311331D01*
X0430525Y0311077D01*
X0429448Y0310700D01*
X0428420Y0310205D01*
X0427454Y0309598D01*
X0426562Y0308886D01*
X0425755Y0308080D01*
X0425044Y0307188D01*
X0424437Y0306221D01*
X0423942Y0305194D01*
X0423565Y0304117D01*
X0423311Y0303004D01*
X0423184Y0301870D01*
X0423184Y0301600D01*
X0433042Y0301600D01*
X0433042Y0301000D01*
X0433642Y0301000D01*
X0433642Y0291142D01*
X0433912Y0291142D01*
X0435046Y0291269D01*
X0436158Y0291523D01*
X0437809Y0292177D02*
X0452042Y0292177D01*
X0452042Y0292775D02*
X0438868Y0292775D01*
X0439695Y0293374D02*
X0452042Y0293374D01*
X0452042Y0293972D02*
X0440380Y0293972D01*
X0440968Y0294571D02*
X0452042Y0294571D01*
X0452042Y0295169D02*
X0441445Y0295169D01*
X0441863Y0295768D02*
X0452042Y0295768D01*
X0452042Y0296366D02*
X0442239Y0296366D01*
X0442529Y0296965D02*
X0452042Y0296965D01*
X0452042Y0297563D02*
X0442796Y0297563D01*
X0443006Y0298162D02*
X0452042Y0298162D01*
X0452042Y0298760D02*
X0443182Y0298760D01*
X0443318Y0299359D02*
X0452042Y0299359D01*
X0452042Y0299957D02*
X0443413Y0299957D01*
X0443480Y0300556D02*
X0452042Y0300556D01*
X0452042Y0301154D02*
X0433642Y0301154D01*
X0433642Y0300556D02*
X0433042Y0300556D01*
X0433042Y0301000D02*
X0433042Y0291142D01*
X0432771Y0291142D01*
X0431638Y0291269D01*
X0430525Y0291523D01*
X0429448Y0291900D01*
X0428420Y0292395D01*
X0427454Y0293002D01*
X0426562Y0293714D01*
X0425755Y0294520D01*
X0425044Y0295412D01*
X0424437Y0296379D01*
X0423942Y0297406D01*
X0423565Y0298483D01*
X0423311Y0299596D01*
X0423184Y0300730D01*
X0423184Y0301000D01*
X0433042Y0301000D01*
X0433042Y0301154D02*
X0247742Y0301154D01*
X0247742Y0300556D02*
X0423203Y0300556D01*
X0423271Y0299957D02*
X0247548Y0299957D01*
X0247742Y0300425D02*
X0247072Y0298808D01*
X0245834Y0297570D01*
X0244217Y0296900D01*
X0242467Y0296900D01*
X0240849Y0297570D01*
X0239612Y0298808D01*
X0238942Y0300425D01*
X0238942Y0302175D01*
X0239612Y0303792D01*
X0240849Y0305030D01*
X0242467Y0305700D01*
X0244217Y0305700D01*
X0245834Y0305030D01*
X0247072Y0303792D01*
X0247742Y0302175D01*
X0247742Y0300425D01*
X0247300Y0299359D02*
X0423365Y0299359D01*
X0423502Y0298760D02*
X0247024Y0298760D01*
X0246426Y0298162D02*
X0423678Y0298162D01*
X0423887Y0297563D02*
X0245818Y0297563D01*
X0244373Y0296965D02*
X0424155Y0296965D01*
X0424445Y0296366D02*
X0092239Y0296366D01*
X0092247Y0296379D02*
X0092742Y0297406D01*
X0093118Y0298483D01*
X0093372Y0299596D01*
X0093500Y0300730D01*
X0093500Y0301000D01*
X0083642Y0301000D01*
X0083642Y0301600D01*
X0093500Y0301600D01*
X0093500Y0301870D01*
X0093372Y0303004D01*
X0093118Y0304117D01*
X0092742Y0305194D01*
X0092247Y0306221D01*
X0091640Y0307188D01*
X0090928Y0308080D01*
X0090121Y0308886D01*
X0089229Y0309598D01*
X0088263Y0310205D01*
X0087235Y0310700D01*
X0086158Y0311077D01*
X0085046Y0311331D01*
X0083912Y0311458D01*
X0083642Y0311458D01*
X0083642Y0301600D01*
X0083042Y0301600D01*
X0083042Y0311458D01*
X0082771Y0311458D01*
X0081638Y0311331D01*
X0080525Y0311077D01*
X0079448Y0310700D01*
X0078420Y0310205D01*
X0077454Y0309598D01*
X0076562Y0308886D01*
X0075755Y0308080D01*
X0075044Y0307188D01*
X0074437Y0306221D01*
X0073942Y0305194D01*
X0073565Y0304117D01*
X0073311Y0303004D01*
X0073184Y0301870D01*
X0073184Y0301600D01*
X0083042Y0301600D01*
X0083042Y0301000D01*
X0083642Y0301000D01*
X0083642Y0291142D01*
X0083912Y0291142D01*
X0085046Y0291269D01*
X0086158Y0291523D01*
X0087235Y0291900D01*
X0088263Y0292395D01*
X0089229Y0293002D01*
X0090121Y0293714D01*
X0090928Y0294520D01*
X0091640Y0295412D01*
X0092247Y0296379D01*
X0092529Y0296965D02*
X0108839Y0296965D01*
X0108802Y0297002D02*
X0109044Y0296760D01*
X0109340Y0296589D01*
X0109671Y0296500D01*
X0113042Y0296500D01*
X0113042Y0301000D01*
X0113642Y0301000D01*
X0113642Y0301600D01*
X0118142Y0301600D01*
X0118142Y0304971D01*
X0118053Y0305302D01*
X0117882Y0305598D01*
X0117640Y0305840D01*
X0117344Y0306011D01*
X0117013Y0306100D01*
X0113642Y0306100D01*
X0113642Y0301600D01*
X0113042Y0301600D01*
X0113042Y0306100D01*
X0109671Y0306100D01*
X0109340Y0306011D01*
X0109044Y0305840D01*
X0108802Y0305598D01*
X0108630Y0305302D01*
X0108542Y0304971D01*
X0108542Y0301600D01*
X0113042Y0301600D01*
X0113042Y0301000D01*
X0108542Y0301000D01*
X0108542Y0297629D01*
X0108630Y0297298D01*
X0108802Y0297002D01*
X0108559Y0297563D02*
X0092796Y0297563D01*
X0093006Y0298162D02*
X0108542Y0298162D01*
X0108542Y0298760D02*
X0093182Y0298760D01*
X0093318Y0299359D02*
X0108542Y0299359D01*
X0108542Y0299957D02*
X0093413Y0299957D01*
X0093480Y0300556D02*
X0108542Y0300556D01*
X0108542Y0301753D02*
X0093500Y0301753D01*
X0093446Y0302351D02*
X0108542Y0302351D01*
X0108542Y0302950D02*
X0093378Y0302950D01*
X0093248Y0303548D02*
X0108542Y0303548D01*
X0108542Y0304147D02*
X0093108Y0304147D01*
X0092898Y0304745D02*
X0108542Y0304745D01*
X0108655Y0305344D02*
X0092669Y0305344D01*
X0092381Y0305942D02*
X0109220Y0305942D01*
X0113042Y0305942D02*
X0113642Y0305942D01*
X0113642Y0305344D02*
X0113042Y0305344D01*
X0113042Y0304745D02*
X0113642Y0304745D01*
X0113642Y0304147D02*
X0113042Y0304147D01*
X0113042Y0303548D02*
X0113642Y0303548D01*
X0113642Y0302950D02*
X0113042Y0302950D01*
X0113042Y0302351D02*
X0113642Y0302351D01*
X0113642Y0301753D02*
X0113042Y0301753D01*
X0113042Y0301154D02*
X0083642Y0301154D01*
X0083642Y0300556D02*
X0083042Y0300556D01*
X0083042Y0301000D02*
X0083042Y0291142D01*
X0082771Y0291142D01*
X0081638Y0291269D01*
X0080525Y0291523D01*
X0079448Y0291900D01*
X0078420Y0292395D01*
X0077454Y0293002D01*
X0076562Y0293714D01*
X0075755Y0294520D01*
X0075044Y0295412D01*
X0074437Y0296379D01*
X0073942Y0297406D01*
X0073565Y0298483D01*
X0073311Y0299596D01*
X0073184Y0300730D01*
X0073184Y0301000D01*
X0083042Y0301000D01*
X0083042Y0301154D02*
X0064642Y0301154D01*
X0064642Y0300556D02*
X0073203Y0300556D01*
X0073271Y0299957D02*
X0064642Y0299957D01*
X0064642Y0299359D02*
X0073365Y0299359D01*
X0073502Y0298760D02*
X0064642Y0298760D01*
X0064642Y0298162D02*
X0073678Y0298162D01*
X0073887Y0297563D02*
X0064642Y0297563D01*
X0064642Y0296965D02*
X0074155Y0296965D01*
X0074445Y0296366D02*
X0064642Y0296366D01*
X0064642Y0295768D02*
X0074821Y0295768D01*
X0075238Y0295169D02*
X0064642Y0295169D01*
X0064642Y0294571D02*
X0075715Y0294571D01*
X0076304Y0293972D02*
X0064642Y0293972D01*
X0064642Y0293374D02*
X0076989Y0293374D01*
X0077816Y0292775D02*
X0064642Y0292775D01*
X0064642Y0292177D02*
X0078875Y0292177D01*
X0080369Y0291578D02*
X0064642Y0291578D01*
X0064667Y0301753D02*
X0073184Y0301753D01*
X0073238Y0302351D02*
X0064701Y0302351D01*
X0064734Y0302950D02*
X0073305Y0302950D01*
X0073435Y0303548D02*
X0064795Y0303548D01*
X0064931Y0304147D02*
X0073576Y0304147D01*
X0073785Y0304745D02*
X0065068Y0304745D01*
X0065204Y0305344D02*
X0074014Y0305344D01*
X0074303Y0305942D02*
X0065341Y0305942D01*
X0065478Y0306541D02*
X0074638Y0306541D01*
X0075014Y0307139D02*
X0065614Y0307139D01*
X0065817Y0307738D02*
X0075483Y0307738D01*
X0076012Y0308336D02*
X0066105Y0308336D01*
X0066394Y0308935D02*
X0076623Y0308935D01*
X0077373Y0309533D02*
X0066682Y0309533D01*
X0066970Y0310132D02*
X0078304Y0310132D01*
X0079536Y0310730D02*
X0067258Y0310730D01*
X0067572Y0311329D02*
X0081630Y0311329D01*
X0083042Y0311329D02*
X0083642Y0311329D01*
X0083642Y0310730D02*
X0083042Y0310730D01*
X0083042Y0310132D02*
X0083642Y0310132D01*
X0083642Y0309533D02*
X0083042Y0309533D01*
X0083042Y0308935D02*
X0083642Y0308935D01*
X0083642Y0308336D02*
X0083042Y0308336D01*
X0083042Y0307738D02*
X0083642Y0307738D01*
X0083642Y0307139D02*
X0083042Y0307139D01*
X0083042Y0306541D02*
X0083642Y0306541D01*
X0083642Y0305942D02*
X0083042Y0305942D01*
X0083042Y0305344D02*
X0083642Y0305344D01*
X0083642Y0304745D02*
X0083042Y0304745D01*
X0083042Y0304147D02*
X0083642Y0304147D01*
X0083642Y0303548D02*
X0083042Y0303548D01*
X0083042Y0302950D02*
X0083642Y0302950D01*
X0083642Y0302351D02*
X0083042Y0302351D01*
X0083042Y0301753D02*
X0083642Y0301753D01*
X0083642Y0299957D02*
X0083042Y0299957D01*
X0083042Y0299359D02*
X0083642Y0299359D01*
X0083642Y0298760D02*
X0083042Y0298760D01*
X0083042Y0298162D02*
X0083642Y0298162D01*
X0083642Y0297563D02*
X0083042Y0297563D01*
X0083042Y0296965D02*
X0083642Y0296965D01*
X0083642Y0296366D02*
X0083042Y0296366D01*
X0083042Y0295768D02*
X0083642Y0295768D01*
X0083642Y0295169D02*
X0083042Y0295169D01*
X0083042Y0294571D02*
X0083642Y0294571D01*
X0083642Y0293972D02*
X0083042Y0293972D01*
X0083042Y0293374D02*
X0083642Y0293374D01*
X0083642Y0292775D02*
X0083042Y0292775D01*
X0083042Y0292177D02*
X0083642Y0292177D01*
X0083642Y0291578D02*
X0083042Y0291578D01*
X0086315Y0291578D02*
X0430369Y0291578D01*
X0428875Y0292177D02*
X0087809Y0292177D01*
X0088868Y0292775D02*
X0427816Y0292775D01*
X0426989Y0293374D02*
X0089695Y0293374D01*
X0090380Y0293972D02*
X0426304Y0293972D01*
X0425715Y0294571D02*
X0090968Y0294571D01*
X0091445Y0295169D02*
X0425238Y0295169D01*
X0424821Y0295768D02*
X0091863Y0295768D01*
X0092046Y0306541D02*
X0424638Y0306541D01*
X0424303Y0305942D02*
X0217463Y0305942D01*
X0217344Y0306011D02*
X0217013Y0306100D01*
X0213642Y0306100D01*
X0213642Y0301600D01*
X0218142Y0301600D01*
X0218142Y0304971D01*
X0218053Y0305302D01*
X0217882Y0305598D01*
X0217640Y0305840D01*
X0217344Y0306011D01*
X0218029Y0305344D02*
X0221607Y0305344D01*
X0220849Y0305030D02*
X0219612Y0303792D01*
X0218942Y0302175D01*
X0218942Y0300425D01*
X0219612Y0298808D01*
X0220849Y0297570D01*
X0222467Y0296900D01*
X0224217Y0296900D01*
X0225834Y0297570D01*
X0227072Y0298808D01*
X0227742Y0300425D01*
X0227742Y0302175D01*
X0227072Y0303792D01*
X0225834Y0305030D01*
X0224217Y0305700D01*
X0222467Y0305700D01*
X0220849Y0305030D01*
X0220565Y0304745D02*
X0218142Y0304745D01*
X0218142Y0304147D02*
X0219966Y0304147D01*
X0219511Y0303548D02*
X0218142Y0303548D01*
X0218142Y0302950D02*
X0219263Y0302950D01*
X0219015Y0302351D02*
X0218142Y0302351D01*
X0218142Y0301753D02*
X0218942Y0301753D01*
X0218942Y0301154D02*
X0213642Y0301154D01*
X0213642Y0301000D02*
X0213642Y0301600D01*
X0213042Y0301600D01*
X0213042Y0306100D01*
X0209671Y0306100D01*
X0209340Y0306011D01*
X0209044Y0305840D01*
X0208802Y0305598D01*
X0208630Y0305302D01*
X0208542Y0304971D01*
X0208542Y0301600D01*
X0213042Y0301600D01*
X0213042Y0301000D01*
X0213642Y0301000D01*
X0218142Y0301000D01*
X0218142Y0297629D01*
X0218053Y0297298D01*
X0217882Y0297002D01*
X0217640Y0296760D01*
X0217344Y0296589D01*
X0217013Y0296500D01*
X0213642Y0296500D01*
X0213642Y0301000D01*
X0213642Y0300556D02*
X0213042Y0300556D01*
X0213042Y0301000D02*
X0213042Y0296500D01*
X0209671Y0296500D01*
X0209340Y0296589D01*
X0209044Y0296760D01*
X0208802Y0297002D01*
X0208630Y0297298D01*
X0208542Y0297629D01*
X0208542Y0301000D01*
X0213042Y0301000D01*
X0213042Y0301154D02*
X0187742Y0301154D01*
X0187742Y0300556D02*
X0208542Y0300556D01*
X0208542Y0299957D02*
X0187548Y0299957D01*
X0187742Y0300425D02*
X0187072Y0298808D01*
X0185834Y0297570D01*
X0184217Y0296900D01*
X0182467Y0296900D01*
X0180849Y0297570D01*
X0179612Y0298808D01*
X0178942Y0300425D01*
X0178942Y0302175D01*
X0179612Y0303792D01*
X0180849Y0305030D01*
X0182467Y0305700D01*
X0184217Y0305700D01*
X0185834Y0305030D01*
X0187072Y0303792D01*
X0187742Y0302175D01*
X0187742Y0300425D01*
X0187300Y0299359D02*
X0208542Y0299359D01*
X0208542Y0298760D02*
X0187024Y0298760D01*
X0186426Y0298162D02*
X0208542Y0298162D01*
X0208559Y0297563D02*
X0185818Y0297563D01*
X0184373Y0296965D02*
X0208839Y0296965D01*
X0213042Y0296965D02*
X0213642Y0296965D01*
X0213642Y0297563D02*
X0213042Y0297563D01*
X0213042Y0298162D02*
X0213642Y0298162D01*
X0213642Y0298760D02*
X0213042Y0298760D01*
X0213042Y0299359D02*
X0213642Y0299359D01*
X0213642Y0299957D02*
X0213042Y0299957D01*
X0213042Y0301753D02*
X0213642Y0301753D01*
X0213642Y0302351D02*
X0213042Y0302351D01*
X0213042Y0302950D02*
X0213642Y0302950D01*
X0213642Y0303548D02*
X0213042Y0303548D01*
X0213042Y0304147D02*
X0213642Y0304147D01*
X0213642Y0304745D02*
X0213042Y0304745D01*
X0213042Y0305344D02*
X0213642Y0305344D01*
X0213642Y0305942D02*
X0213042Y0305942D01*
X0209220Y0305942D02*
X0117463Y0305942D01*
X0118029Y0305344D02*
X0121607Y0305344D01*
X0120849Y0305030D02*
X0119612Y0303792D01*
X0118942Y0302175D01*
X0118942Y0300425D01*
X0119612Y0298808D01*
X0120849Y0297570D01*
X0122467Y0296900D01*
X0124217Y0296900D01*
X0125834Y0297570D01*
X0127072Y0298808D01*
X0127742Y0300425D01*
X0127742Y0302175D01*
X0127072Y0303792D01*
X0125834Y0305030D01*
X0124217Y0305700D01*
X0122467Y0305700D01*
X0120849Y0305030D01*
X0120565Y0304745D02*
X0118142Y0304745D01*
X0118142Y0304147D02*
X0119966Y0304147D01*
X0119511Y0303548D02*
X0118142Y0303548D01*
X0118142Y0302950D02*
X0119263Y0302950D01*
X0119015Y0302351D02*
X0118142Y0302351D01*
X0118142Y0301753D02*
X0118942Y0301753D01*
X0118942Y0301154D02*
X0113642Y0301154D01*
X0113642Y0301000D02*
X0118142Y0301000D01*
X0118142Y0297629D01*
X0118053Y0297298D01*
X0117882Y0297002D01*
X0117640Y0296760D01*
X0117344Y0296589D01*
X0117013Y0296500D01*
X0113642Y0296500D01*
X0113642Y0301000D01*
X0113642Y0300556D02*
X0113042Y0300556D01*
X0113042Y0299957D02*
X0113642Y0299957D01*
X0113642Y0299359D02*
X0113042Y0299359D01*
X0113042Y0298760D02*
X0113642Y0298760D01*
X0113642Y0298162D02*
X0113042Y0298162D01*
X0113042Y0297563D02*
X0113642Y0297563D01*
X0113642Y0296965D02*
X0113042Y0296965D01*
X0117845Y0296965D02*
X0122311Y0296965D01*
X0120866Y0297563D02*
X0118124Y0297563D01*
X0118142Y0298162D02*
X0120258Y0298162D01*
X0119659Y0298760D02*
X0118142Y0298760D01*
X0118142Y0299359D02*
X0119383Y0299359D01*
X0119135Y0299957D02*
X0118142Y0299957D01*
X0118142Y0300556D02*
X0118942Y0300556D01*
X0124373Y0296965D02*
X0132311Y0296965D01*
X0132467Y0296900D02*
X0134217Y0296900D01*
X0135834Y0297570D01*
X0137072Y0298808D01*
X0137742Y0300425D01*
X0137742Y0302175D01*
X0137072Y0303792D01*
X0135834Y0305030D01*
X0134217Y0305700D01*
X0132467Y0305700D01*
X0130849Y0305030D01*
X0129612Y0303792D01*
X0128942Y0302175D01*
X0128942Y0300425D01*
X0129612Y0298808D01*
X0130849Y0297570D01*
X0132467Y0296900D01*
X0130866Y0297563D02*
X0125818Y0297563D01*
X0126426Y0298162D02*
X0130258Y0298162D01*
X0129659Y0298760D02*
X0127024Y0298760D01*
X0127300Y0299359D02*
X0129383Y0299359D01*
X0129135Y0299957D02*
X0127548Y0299957D01*
X0127742Y0300556D02*
X0128942Y0300556D01*
X0128942Y0301154D02*
X0127742Y0301154D01*
X0127742Y0301753D02*
X0128942Y0301753D01*
X0129015Y0302351D02*
X0127669Y0302351D01*
X0127421Y0302950D02*
X0129263Y0302950D01*
X0129511Y0303548D02*
X0127173Y0303548D01*
X0126718Y0304147D02*
X0129966Y0304147D01*
X0130565Y0304745D02*
X0126119Y0304745D01*
X0125077Y0305344D02*
X0131607Y0305344D01*
X0135077Y0305344D02*
X0141607Y0305344D01*
X0140849Y0305030D02*
X0139612Y0303792D01*
X0138942Y0302175D01*
X0138942Y0300425D01*
X0139612Y0298808D01*
X0140849Y0297570D01*
X0142467Y0296900D01*
X0144217Y0296900D01*
X0145834Y0297570D01*
X0147072Y0298808D01*
X0147742Y0300425D01*
X0147742Y0302175D01*
X0147072Y0303792D01*
X0145834Y0305030D01*
X0144217Y0305700D01*
X0142467Y0305700D01*
X0140849Y0305030D01*
X0140565Y0304745D02*
X0136119Y0304745D01*
X0136718Y0304147D02*
X0139966Y0304147D01*
X0139511Y0303548D02*
X0137173Y0303548D01*
X0137421Y0302950D02*
X0139263Y0302950D01*
X0139015Y0302351D02*
X0137669Y0302351D01*
X0137742Y0301753D02*
X0138942Y0301753D01*
X0138942Y0301154D02*
X0137742Y0301154D01*
X0137742Y0300556D02*
X0138942Y0300556D01*
X0139135Y0299957D02*
X0137548Y0299957D01*
X0137300Y0299359D02*
X0139383Y0299359D01*
X0139659Y0298760D02*
X0137024Y0298760D01*
X0136426Y0298162D02*
X0140258Y0298162D01*
X0140866Y0297563D02*
X0135818Y0297563D01*
X0134373Y0296965D02*
X0142311Y0296965D01*
X0144373Y0296965D02*
X0152311Y0296965D01*
X0152467Y0296900D02*
X0154217Y0296900D01*
X0155834Y0297570D01*
X0157072Y0298808D01*
X0157742Y0300425D01*
X0157742Y0302175D01*
X0157072Y0303792D01*
X0155834Y0305030D01*
X0154217Y0305700D01*
X0152467Y0305700D01*
X0150849Y0305030D01*
X0149612Y0303792D01*
X0148942Y0302175D01*
X0148942Y0300425D01*
X0149612Y0298808D01*
X0150849Y0297570D01*
X0152467Y0296900D01*
X0150866Y0297563D02*
X0145818Y0297563D01*
X0146426Y0298162D02*
X0150258Y0298162D01*
X0149659Y0298760D02*
X0147024Y0298760D01*
X0147300Y0299359D02*
X0149383Y0299359D01*
X0149135Y0299957D02*
X0147548Y0299957D01*
X0147742Y0300556D02*
X0148942Y0300556D01*
X0148942Y0301154D02*
X0147742Y0301154D01*
X0147742Y0301753D02*
X0148942Y0301753D01*
X0149015Y0302351D02*
X0147669Y0302351D01*
X0147421Y0302950D02*
X0149263Y0302950D01*
X0149511Y0303548D02*
X0147173Y0303548D01*
X0146718Y0304147D02*
X0149966Y0304147D01*
X0150565Y0304745D02*
X0146119Y0304745D01*
X0145077Y0305344D02*
X0151607Y0305344D01*
X0155077Y0305344D02*
X0161607Y0305344D01*
X0160849Y0305030D02*
X0159612Y0303792D01*
X0158942Y0302175D01*
X0158942Y0300425D01*
X0159612Y0298808D01*
X0160849Y0297570D01*
X0162467Y0296900D01*
X0164217Y0296900D01*
X0165834Y0297570D01*
X0167072Y0298808D01*
X0167742Y0300425D01*
X0167742Y0302175D01*
X0167072Y0303792D01*
X0165834Y0305030D01*
X0164217Y0305700D01*
X0162467Y0305700D01*
X0160849Y0305030D01*
X0160565Y0304745D02*
X0156119Y0304745D01*
X0156718Y0304147D02*
X0159966Y0304147D01*
X0159511Y0303548D02*
X0157173Y0303548D01*
X0157421Y0302950D02*
X0159263Y0302950D01*
X0159015Y0302351D02*
X0157669Y0302351D01*
X0157742Y0301753D02*
X0158942Y0301753D01*
X0158942Y0301154D02*
X0157742Y0301154D01*
X0157742Y0300556D02*
X0158942Y0300556D01*
X0159135Y0299957D02*
X0157548Y0299957D01*
X0157300Y0299359D02*
X0159383Y0299359D01*
X0159659Y0298760D02*
X0157024Y0298760D01*
X0156426Y0298162D02*
X0160258Y0298162D01*
X0160866Y0297563D02*
X0155818Y0297563D01*
X0154373Y0296965D02*
X0162311Y0296965D01*
X0164373Y0296965D02*
X0172311Y0296965D01*
X0172467Y0296900D02*
X0174217Y0296900D01*
X0175834Y0297570D01*
X0177072Y0298808D01*
X0177742Y0300425D01*
X0177742Y0302175D01*
X0177072Y0303792D01*
X0175834Y0305030D01*
X0174217Y0305700D01*
X0172467Y0305700D01*
X0170849Y0305030D01*
X0169612Y0303792D01*
X0168942Y0302175D01*
X0168942Y0300425D01*
X0169612Y0298808D01*
X0170849Y0297570D01*
X0172467Y0296900D01*
X0170866Y0297563D02*
X0165818Y0297563D01*
X0166426Y0298162D02*
X0170258Y0298162D01*
X0169659Y0298760D02*
X0167024Y0298760D01*
X0167300Y0299359D02*
X0169383Y0299359D01*
X0169135Y0299957D02*
X0167548Y0299957D01*
X0167742Y0300556D02*
X0168942Y0300556D01*
X0168942Y0301154D02*
X0167742Y0301154D01*
X0167742Y0301753D02*
X0168942Y0301753D01*
X0169015Y0302351D02*
X0167669Y0302351D01*
X0167421Y0302950D02*
X0169263Y0302950D01*
X0169511Y0303548D02*
X0167173Y0303548D01*
X0166718Y0304147D02*
X0169966Y0304147D01*
X0170565Y0304745D02*
X0166119Y0304745D01*
X0165077Y0305344D02*
X0171607Y0305344D01*
X0175077Y0305344D02*
X0181607Y0305344D01*
X0180565Y0304745D02*
X0176119Y0304745D01*
X0176718Y0304147D02*
X0179966Y0304147D01*
X0179511Y0303548D02*
X0177173Y0303548D01*
X0177421Y0302950D02*
X0179263Y0302950D01*
X0179015Y0302351D02*
X0177669Y0302351D01*
X0177742Y0301753D02*
X0178942Y0301753D01*
X0178942Y0301154D02*
X0177742Y0301154D01*
X0177742Y0300556D02*
X0178942Y0300556D01*
X0179135Y0299957D02*
X0177548Y0299957D01*
X0177300Y0299359D02*
X0179383Y0299359D01*
X0179659Y0298760D02*
X0177024Y0298760D01*
X0176426Y0298162D02*
X0180258Y0298162D01*
X0180866Y0297563D02*
X0175818Y0297563D01*
X0174373Y0296965D02*
X0182311Y0296965D01*
X0187742Y0301753D02*
X0208542Y0301753D01*
X0208542Y0302351D02*
X0187669Y0302351D01*
X0187421Y0302950D02*
X0208542Y0302950D01*
X0208542Y0303548D02*
X0187173Y0303548D01*
X0186718Y0304147D02*
X0208542Y0304147D01*
X0208542Y0304745D02*
X0186119Y0304745D01*
X0185077Y0305344D02*
X0208655Y0305344D01*
X0218142Y0300556D02*
X0218942Y0300556D01*
X0219135Y0299957D02*
X0218142Y0299957D01*
X0218142Y0299359D02*
X0219383Y0299359D01*
X0219659Y0298760D02*
X0218142Y0298760D01*
X0218142Y0298162D02*
X0220258Y0298162D01*
X0220866Y0297563D02*
X0218124Y0297563D01*
X0217845Y0296965D02*
X0222311Y0296965D01*
X0224373Y0296965D02*
X0232311Y0296965D01*
X0232467Y0296900D02*
X0230849Y0297570D01*
X0229612Y0298808D01*
X0228942Y0300425D01*
X0228942Y0302175D01*
X0229612Y0303792D01*
X0230849Y0305030D01*
X0232467Y0305700D01*
X0234217Y0305700D01*
X0235834Y0305030D01*
X0237072Y0303792D01*
X0237742Y0302175D01*
X0237742Y0300425D01*
X0237072Y0298808D01*
X0235834Y0297570D01*
X0234217Y0296900D01*
X0232467Y0296900D01*
X0230866Y0297563D02*
X0225818Y0297563D01*
X0226426Y0298162D02*
X0230258Y0298162D01*
X0229659Y0298760D02*
X0227024Y0298760D01*
X0227300Y0299359D02*
X0229383Y0299359D01*
X0229135Y0299957D02*
X0227548Y0299957D01*
X0227742Y0300556D02*
X0228942Y0300556D01*
X0228942Y0301154D02*
X0227742Y0301154D01*
X0227742Y0301753D02*
X0228942Y0301753D01*
X0229015Y0302351D02*
X0227669Y0302351D01*
X0227421Y0302950D02*
X0229263Y0302950D01*
X0229511Y0303548D02*
X0227173Y0303548D01*
X0226718Y0304147D02*
X0229966Y0304147D01*
X0230565Y0304745D02*
X0226119Y0304745D01*
X0225077Y0305344D02*
X0231607Y0305344D01*
X0235077Y0305344D02*
X0241607Y0305344D01*
X0240565Y0304745D02*
X0236119Y0304745D01*
X0236718Y0304147D02*
X0239966Y0304147D01*
X0239511Y0303548D02*
X0237173Y0303548D01*
X0237421Y0302950D02*
X0239263Y0302950D01*
X0239015Y0302351D02*
X0237669Y0302351D01*
X0237742Y0301753D02*
X0238942Y0301753D01*
X0238942Y0301154D02*
X0237742Y0301154D01*
X0237742Y0300556D02*
X0238942Y0300556D01*
X0239135Y0299957D02*
X0237548Y0299957D01*
X0237300Y0299359D02*
X0239383Y0299359D01*
X0239659Y0298760D02*
X0237024Y0298760D01*
X0236426Y0298162D02*
X0240258Y0298162D01*
X0240866Y0297563D02*
X0235818Y0297563D01*
X0234373Y0296965D02*
X0242311Y0296965D01*
X0247742Y0301753D02*
X0423184Y0301753D01*
X0423238Y0302351D02*
X0247669Y0302351D01*
X0247421Y0302950D02*
X0423305Y0302950D01*
X0423435Y0303548D02*
X0247173Y0303548D01*
X0246718Y0304147D02*
X0423576Y0304147D01*
X0423785Y0304745D02*
X0246119Y0304745D01*
X0245077Y0305344D02*
X0424014Y0305344D01*
X0425014Y0307139D02*
X0091670Y0307139D01*
X0091201Y0307738D02*
X0425483Y0307738D01*
X0426012Y0308336D02*
X0090671Y0308336D01*
X0090061Y0308935D02*
X0426623Y0308935D01*
X0427373Y0309533D02*
X0089310Y0309533D01*
X0088379Y0310132D02*
X0428304Y0310132D01*
X0429536Y0310730D02*
X0087148Y0310730D01*
X0085053Y0311329D02*
X0431630Y0311329D01*
X0433042Y0311329D02*
X0433642Y0311329D01*
X0433642Y0310730D02*
X0433042Y0310730D01*
X0433042Y0310132D02*
X0433642Y0310132D01*
X0433642Y0309533D02*
X0433042Y0309533D01*
X0433042Y0308935D02*
X0433642Y0308935D01*
X0433642Y0308336D02*
X0433042Y0308336D01*
X0433042Y0307738D02*
X0433642Y0307738D01*
X0433642Y0307139D02*
X0433042Y0307139D01*
X0433042Y0306541D02*
X0433642Y0306541D01*
X0433642Y0305942D02*
X0433042Y0305942D01*
X0433042Y0305344D02*
X0433642Y0305344D01*
X0433642Y0304745D02*
X0433042Y0304745D01*
X0433042Y0304147D02*
X0433642Y0304147D01*
X0433642Y0303548D02*
X0433042Y0303548D01*
X0433042Y0302950D02*
X0433642Y0302950D01*
X0433642Y0302351D02*
X0433042Y0302351D01*
X0433042Y0301753D02*
X0433642Y0301753D01*
X0433642Y0299957D02*
X0433042Y0299957D01*
X0433042Y0299359D02*
X0433642Y0299359D01*
X0433642Y0298760D02*
X0433042Y0298760D01*
X0433042Y0298162D02*
X0433642Y0298162D01*
X0433642Y0297563D02*
X0433042Y0297563D01*
X0433042Y0296965D02*
X0433642Y0296965D01*
X0433642Y0296366D02*
X0433042Y0296366D01*
X0433042Y0295768D02*
X0433642Y0295768D01*
X0433642Y0295169D02*
X0433042Y0295169D01*
X0433042Y0294571D02*
X0433642Y0294571D01*
X0433642Y0293972D02*
X0433042Y0293972D01*
X0433042Y0293374D02*
X0433642Y0293374D01*
X0433642Y0292775D02*
X0433042Y0292775D01*
X0433042Y0292177D02*
X0433642Y0292177D01*
X0433642Y0291578D02*
X0433042Y0291578D01*
X0443500Y0301753D02*
X0452016Y0301753D01*
X0451983Y0302351D02*
X0443446Y0302351D01*
X0443378Y0302950D02*
X0451949Y0302950D01*
X0451889Y0303548D02*
X0443248Y0303548D01*
X0443108Y0304147D02*
X0451752Y0304147D01*
X0451616Y0304745D02*
X0442898Y0304745D01*
X0442669Y0305344D02*
X0451479Y0305344D01*
X0451343Y0305942D02*
X0442381Y0305942D01*
X0442046Y0306541D02*
X0451206Y0306541D01*
X0451069Y0307139D02*
X0441670Y0307139D01*
X0441201Y0307738D02*
X0450866Y0307738D01*
X0450578Y0308336D02*
X0440671Y0308336D01*
X0440061Y0308935D02*
X0450290Y0308935D01*
X0450002Y0309533D02*
X0439310Y0309533D01*
X0438379Y0310132D02*
X0449714Y0310132D01*
X0449425Y0310730D02*
X0437148Y0310730D01*
X0435053Y0311329D02*
X0449112Y0311329D01*
X0448635Y0311927D02*
X0068049Y0311927D01*
X0068526Y0312526D02*
X0448157Y0312526D01*
X0447680Y0313124D02*
X0069004Y0313124D01*
X0069481Y0313723D02*
X0447203Y0313723D01*
X0446725Y0314321D02*
X0069958Y0314321D01*
X0070617Y0314920D02*
X0446067Y0314920D01*
X0445316Y0315518D02*
X0071367Y0315518D01*
X0072118Y0316117D02*
X0444566Y0316117D01*
X0443815Y0316715D02*
X0072868Y0316715D01*
X0073767Y0317314D02*
X0442917Y0317314D01*
X0441674Y0317912D02*
X0075010Y0317912D01*
X0076253Y0318511D02*
X0440431Y0318511D01*
X0438822Y0319110D02*
X0077862Y0319110D01*
X0080484Y0319708D02*
X0436200Y0319708D01*
X0452042Y0260455D02*
X0177054Y0260455D01*
X0178762Y0259857D02*
X0452042Y0259857D01*
X0452042Y0259258D02*
X0179799Y0259258D01*
X0180836Y0258660D02*
X0452042Y0258660D01*
X0452042Y0258061D02*
X0181872Y0258061D01*
X0182607Y0257463D02*
X0452042Y0257463D01*
X0452042Y0256864D02*
X0183206Y0256864D01*
X0183804Y0256266D02*
X0452042Y0256266D01*
X0452042Y0255667D02*
X0184403Y0255667D01*
X0185001Y0255069D02*
X0452042Y0255069D01*
X0452042Y0254470D02*
X0185503Y0254470D01*
X0185848Y0253872D02*
X0452042Y0253872D01*
X0452042Y0253273D02*
X0186194Y0253273D01*
X0186539Y0252675D02*
X0452042Y0252675D01*
X0452042Y0252076D02*
X0186885Y0252076D01*
X0187230Y0251478D02*
X0452042Y0251478D01*
X0452042Y0250879D02*
X0187576Y0250879D01*
X0187757Y0250281D02*
X0452042Y0250281D01*
X0452042Y0249682D02*
X0187917Y0249682D01*
X0188077Y0249084D02*
X0452042Y0249084D01*
X0452042Y0248485D02*
X0188238Y0248485D01*
X0188398Y0247887D02*
X0452042Y0247887D01*
X0452042Y0247288D02*
X0188558Y0247288D01*
X0188719Y0246690D02*
X0452042Y0246690D01*
X0452042Y0246091D02*
X0188776Y0246091D01*
X0188776Y0245493D02*
X0452042Y0245493D01*
X0452042Y0244894D02*
X0188776Y0244894D01*
X0188776Y0244296D02*
X0452042Y0244296D01*
X0452042Y0243697D02*
X0188776Y0243697D01*
X0188776Y0243099D02*
X0452042Y0243099D01*
X0452042Y0242500D02*
X0188776Y0242500D01*
X0188752Y0241902D02*
X0452042Y0241902D01*
X0452042Y0241303D02*
X0188592Y0241303D01*
X0188432Y0240705D02*
X0452042Y0240705D01*
X0452042Y0240106D02*
X0188271Y0240106D01*
X0188111Y0239508D02*
X0452042Y0239508D01*
X0452042Y0238909D02*
X0187950Y0238909D01*
X0187790Y0238310D02*
X0452042Y0238310D01*
X0452042Y0237712D02*
X0187630Y0237712D01*
X0187302Y0237113D02*
X0452042Y0237113D01*
X0452042Y0236515D02*
X0186957Y0236515D01*
X0186611Y0235916D02*
X0452042Y0235916D01*
X0452042Y0235318D02*
X0186266Y0235318D01*
X0185920Y0234719D02*
X0452042Y0234719D01*
X0452042Y0234121D02*
X0185575Y0234121D01*
X0185127Y0233522D02*
X0452042Y0233522D01*
X0452042Y0232924D02*
X0184528Y0232924D01*
X0183929Y0232325D02*
X0452042Y0232325D01*
X0452042Y0231727D02*
X0183331Y0231727D01*
X0182732Y0231128D02*
X0452042Y0231128D01*
X0452042Y0230530D02*
X0182089Y0230530D01*
X0181052Y0229931D02*
X0452042Y0229931D01*
X0452042Y0229333D02*
X0180016Y0229333D01*
X0178979Y0228734D02*
X0452042Y0228734D01*
X0452042Y0228136D02*
X0177520Y0228136D01*
X0175287Y0227537D02*
X0452042Y0227537D01*
X0311206Y0095865D02*
X0265478Y0095865D01*
X0266628Y0095266D02*
X0310056Y0095266D01*
X0309457Y0094668D02*
X0267227Y0094668D01*
X0267783Y0094069D02*
X0308901Y0094069D01*
X0308653Y0093471D02*
X0268031Y0093471D01*
X0268278Y0092872D02*
X0308405Y0092872D01*
X0308210Y0092274D02*
X0268474Y0092274D01*
X0268474Y0091675D02*
X0308210Y0091675D01*
X0308210Y0091077D02*
X0268474Y0091077D01*
X0268459Y0090478D02*
X0308225Y0090478D01*
X0308473Y0089880D02*
X0268211Y0089880D01*
X0267963Y0089281D02*
X0308721Y0089281D01*
X0309022Y0088683D02*
X0267662Y0088683D01*
X0267064Y0088084D02*
X0309620Y0088084D01*
X0310219Y0087486D02*
X0266465Y0087486D01*
X0265084Y0086887D02*
X0311599Y0086887D01*
X0322173Y0065939D02*
X0254511Y0065939D01*
X0253891Y0066196D02*
X0252006Y0066196D01*
X0250264Y0065475D01*
X0248931Y0064142D01*
X0248210Y0062400D01*
X0248210Y0060515D01*
X0248931Y0058773D01*
X0250264Y0057440D01*
X0252006Y0056719D01*
X0253891Y0056719D01*
X0255632Y0057440D01*
X0256965Y0058773D01*
X0257687Y0060515D01*
X0257687Y0062400D01*
X0256965Y0064142D01*
X0255632Y0065475D01*
X0253891Y0066196D01*
X0255766Y0065341D02*
X0320917Y0065341D01*
X0320319Y0064742D02*
X0256365Y0064742D01*
X0256963Y0064144D02*
X0319720Y0064144D01*
X0319471Y0063545D02*
X0257212Y0063545D01*
X0257460Y0062947D02*
X0319223Y0062947D01*
X0318997Y0062348D02*
X0257687Y0062348D01*
X0257687Y0061750D02*
X0318997Y0061750D01*
X0318997Y0061151D02*
X0257687Y0061151D01*
X0257687Y0060553D02*
X0318997Y0060553D01*
X0319229Y0059954D02*
X0257454Y0059954D01*
X0257206Y0059356D02*
X0319477Y0059356D01*
X0319735Y0058757D02*
X0256949Y0058757D01*
X0256351Y0058159D02*
X0320333Y0058159D01*
X0320932Y0057560D02*
X0255752Y0057560D01*
X0254476Y0056962D02*
X0322207Y0056962D01*
X0317246Y0053969D02*
X0452042Y0053969D01*
X0452042Y0054568D02*
X0316790Y0054568D01*
X0316152Y0055166D02*
X0452042Y0055166D01*
X0452042Y0055765D02*
X0315196Y0055765D01*
X0313248Y0055765D02*
X0312648Y0055765D01*
X0312648Y0055166D02*
X0313248Y0055166D01*
X0313248Y0054568D02*
X0312648Y0054568D01*
X0312648Y0053969D02*
X0313248Y0053969D01*
X0313248Y0053370D02*
X0312648Y0053370D01*
X0312648Y0052772D02*
X0313248Y0052772D01*
X0313248Y0052173D02*
X0312648Y0052173D01*
X0312648Y0051575D02*
X0313248Y0051575D01*
X0313248Y0049779D02*
X0312648Y0049779D01*
X0312648Y0049181D02*
X0313248Y0049181D01*
X0313248Y0048582D02*
X0312648Y0048582D01*
X0312648Y0047984D02*
X0313248Y0047984D01*
X0313248Y0047385D02*
X0312648Y0047385D01*
X0312648Y0046787D02*
X0313248Y0046787D01*
X0313248Y0046188D02*
X0312648Y0046188D01*
X0318082Y0051575D02*
X0452042Y0051575D01*
X0452042Y0052173D02*
X0317987Y0052173D01*
X0317822Y0052772D02*
X0452042Y0052772D01*
X0452042Y0053370D02*
X0317580Y0053370D01*
X0311565Y0036014D02*
X0265118Y0036014D01*
X0266479Y0035415D02*
X0310204Y0035415D01*
X0309606Y0034817D02*
X0267078Y0034817D01*
X0267676Y0034218D02*
X0309007Y0034218D01*
X0308715Y0033620D02*
X0267969Y0033620D01*
X0268217Y0033021D02*
X0308467Y0033021D01*
X0308219Y0032423D02*
X0268465Y0032423D01*
X0268474Y0031824D02*
X0308210Y0031824D01*
X0308210Y0031226D02*
X0268474Y0031226D01*
X0268474Y0030627D02*
X0308210Y0030627D01*
X0308411Y0030029D02*
X0268273Y0030029D01*
X0268025Y0029430D02*
X0308659Y0029430D01*
X0308907Y0028832D02*
X0267777Y0028832D01*
X0267212Y0028233D02*
X0309471Y0028233D01*
X0310070Y0027634D02*
X0266614Y0027634D01*
X0265444Y0027036D02*
X0311240Y0027036D01*
X0251420Y0056962D02*
X0205264Y0056962D01*
X0204678Y0056719D02*
X0206420Y0057440D01*
X0207753Y0058773D01*
X0208474Y0060515D01*
X0208474Y0062400D01*
X0207753Y0064142D01*
X0206420Y0065475D01*
X0204678Y0066196D01*
X0202793Y0066196D01*
X0201051Y0065475D01*
X0199718Y0064142D01*
X0198997Y0062400D01*
X0198997Y0060515D01*
X0199718Y0058773D01*
X0201051Y0057440D01*
X0202793Y0056719D01*
X0204678Y0056719D01*
X0206539Y0057560D02*
X0250144Y0057560D01*
X0249546Y0058159D02*
X0207138Y0058159D01*
X0207736Y0058757D02*
X0248947Y0058757D01*
X0248690Y0059356D02*
X0207994Y0059356D01*
X0208242Y0059954D02*
X0248442Y0059954D01*
X0248210Y0060553D02*
X0208474Y0060553D01*
X0208474Y0061151D02*
X0248210Y0061151D01*
X0248210Y0061750D02*
X0208474Y0061750D01*
X0208474Y0062348D02*
X0248210Y0062348D01*
X0248436Y0062947D02*
X0208248Y0062947D01*
X0208000Y0063545D02*
X0248684Y0063545D01*
X0248933Y0064144D02*
X0207751Y0064144D01*
X0207152Y0064742D02*
X0249531Y0064742D01*
X0250130Y0065341D02*
X0206554Y0065341D01*
X0205298Y0065939D02*
X0251386Y0065939D01*
X0202173Y0065939D02*
X0194511Y0065939D01*
X0193891Y0066196D02*
X0192006Y0066196D01*
X0190264Y0065475D01*
X0188931Y0064142D01*
X0188210Y0062400D01*
X0188210Y0060515D01*
X0188931Y0058773D01*
X0190264Y0057440D01*
X0192006Y0056719D01*
X0193891Y0056719D01*
X0195632Y0057440D01*
X0196965Y0058773D01*
X0197687Y0060515D01*
X0197687Y0062400D01*
X0196965Y0064142D01*
X0195632Y0065475D01*
X0193891Y0066196D01*
X0195766Y0065341D02*
X0200917Y0065341D01*
X0200319Y0064742D02*
X0196365Y0064742D01*
X0196963Y0064144D02*
X0199720Y0064144D01*
X0199471Y0063545D02*
X0197212Y0063545D01*
X0197460Y0062947D02*
X0199223Y0062947D01*
X0198997Y0062348D02*
X0197687Y0062348D01*
X0197687Y0061750D02*
X0198997Y0061750D01*
X0198997Y0061151D02*
X0197687Y0061151D01*
X0197687Y0060553D02*
X0198997Y0060553D01*
X0199229Y0059954D02*
X0197454Y0059954D01*
X0197206Y0059356D02*
X0199477Y0059356D01*
X0199735Y0058757D02*
X0196949Y0058757D01*
X0196351Y0058159D02*
X0200333Y0058159D01*
X0200932Y0057560D02*
X0195752Y0057560D01*
X0194476Y0056962D02*
X0202207Y0056962D01*
X0191420Y0056962D02*
X0145264Y0056962D01*
X0144678Y0056719D02*
X0146420Y0057440D01*
X0147753Y0058773D01*
X0148474Y0060515D01*
X0148474Y0062400D01*
X0147753Y0064142D01*
X0146420Y0065475D01*
X0144678Y0066196D01*
X0142793Y0066196D01*
X0141051Y0065475D01*
X0139718Y0064142D01*
X0138997Y0062400D01*
X0138997Y0060515D01*
X0139718Y0058773D01*
X0141051Y0057440D01*
X0142793Y0056719D01*
X0144678Y0056719D01*
X0146539Y0057560D02*
X0190144Y0057560D01*
X0189546Y0058159D02*
X0147138Y0058159D01*
X0147736Y0058757D02*
X0188947Y0058757D01*
X0188690Y0059356D02*
X0147994Y0059356D01*
X0148242Y0059954D02*
X0188442Y0059954D01*
X0188210Y0060553D02*
X0148474Y0060553D01*
X0148474Y0061151D02*
X0188210Y0061151D01*
X0188210Y0061750D02*
X0148474Y0061750D01*
X0148474Y0062348D02*
X0188210Y0062348D01*
X0188436Y0062947D02*
X0148248Y0062947D01*
X0148000Y0063545D02*
X0188684Y0063545D01*
X0188933Y0064144D02*
X0147751Y0064144D01*
X0147152Y0064742D02*
X0189531Y0064742D01*
X0190130Y0065341D02*
X0146554Y0065341D01*
X0145298Y0065939D02*
X0191386Y0065939D01*
X0142173Y0065939D02*
X0134511Y0065939D01*
X0135766Y0065341D02*
X0140917Y0065341D01*
X0140319Y0064742D02*
X0136365Y0064742D01*
X0136963Y0064144D02*
X0139720Y0064144D01*
X0139471Y0063545D02*
X0137212Y0063545D01*
X0137460Y0062947D02*
X0139223Y0062947D01*
X0138997Y0062348D02*
X0137687Y0062348D01*
X0137687Y0061750D02*
X0138997Y0061750D01*
X0138997Y0061151D02*
X0137687Y0061151D01*
X0137687Y0060553D02*
X0138997Y0060553D01*
X0139229Y0059954D02*
X0137454Y0059954D01*
X0137206Y0059356D02*
X0139477Y0059356D01*
X0139735Y0058757D02*
X0136949Y0058757D01*
X0136351Y0058159D02*
X0140333Y0058159D01*
X0140932Y0057560D02*
X0135752Y0057560D01*
X0134476Y0056962D02*
X0142207Y0056962D01*
X0263436Y0112025D02*
X0264035Y0112025D01*
X0264035Y0112623D02*
X0263436Y0112623D01*
X0263436Y0113222D02*
X0264035Y0113222D01*
X0264035Y0113820D02*
X0263436Y0113820D01*
X0263436Y0114419D02*
X0264035Y0114419D01*
X0264035Y0115017D02*
X0263436Y0115017D01*
X0263436Y0115616D02*
X0264035Y0115616D01*
M02*
