%
M48
M72
T01C0.03200
T02C0.03937
T03C0.05118
T04C0.11811
T05C0.31496
%
T01
X343342Y113800
X353342Y113800
X373342Y113800
X383342Y113800
X403342Y113800
X413342Y113800
X387161Y151143
X373066Y151143
X358972Y151143
X358972Y181143
X373066Y181143
X387161Y181143
T02
X153342Y301300
X163342Y301300
X173342Y301300
X183342Y301300
X213342Y301300
X223342Y301300
X233342Y301300
X243342Y301300
X143342Y301300
X133342Y301300
X123342Y301300
X113342Y301300
T03
X263736Y111143
X263736Y91457
X252948Y81143
X252948Y61457
X263736Y51143
X263736Y31457
X312948Y31457
X312948Y51143
X323736Y61457
X323736Y81143
X312948Y91457
X312948Y111143
X372948Y81143
X383736Y81143
X383736Y61457
X372948Y61457
X432948Y61457
X432948Y81143
X203736Y81143
X192948Y81143
X192948Y61457
X203736Y61457
X143736Y61457
X132948Y61457
X132948Y81143
X143736Y81143
X83736Y81143
X83736Y61457
T04
X83342Y301300
X433342Y301300
X433342Y21300
X83342Y21300
X110704Y149745
X110704Y271792
X405980Y271792
X405980Y149745
T05
X171728Y244233
M30
