G75*
%MOIN*%
%OFA0B0*%
%FSLAX25Y25*%
%IPPOS*%
%LPD*%
%AMOC8*
5,1,8,0,0,1.08239X$1,22.5*
%
%ADD10C,0.00000*%
%ADD11C,0.00600*%
%ADD12C,0.00400*%
%ADD13C,0.01000*%
%ADD14C,0.00500*%
%ADD15C,0.00800*%
%ADD16R,0.02000X0.01500*%
%ADD17R,0.01170X0.00166*%
%ADD18R,0.01160X0.00166*%
%ADD19R,0.02500X0.00166*%
%ADD20R,0.00670X0.00166*%
%ADD21R,0.00830X0.00166*%
%ADD22R,0.00660X0.00166*%
%ADD23R,0.02000X0.00167*%
%ADD24R,0.01840X0.00167*%
%ADD25R,0.02500X0.00167*%
%ADD26R,0.00670X0.00167*%
%ADD27R,0.00830X0.00167*%
%ADD28R,0.00660X0.00167*%
%ADD29R,0.01000X0.00167*%
%ADD30R,0.01830X0.00167*%
%ADD31R,0.02330X0.00167*%
%ADD32R,0.02160X0.00167*%
%ADD33R,0.01170X0.00167*%
%ADD34R,0.02170X0.00167*%
%ADD35R,0.02330X0.00166*%
%ADD36R,0.01330X0.00167*%
%ADD37R,0.01160X0.00167*%
%ADD38R,0.00840X0.00167*%
%ADD39R,0.00840X0.00166*%
%ADD40R,0.01500X0.00166*%
%ADD41R,0.01500X0.00167*%
%ADD42R,0.01670X0.00167*%
%ADD43R,0.01830X0.00166*%
%ADD44R,0.01660X0.00166*%
%ADD45R,0.01840X0.00166*%
%ADD46R,0.01000X0.00166*%
%ADD47R,0.01330X0.00166*%
%ADD48R,0.02670X0.00167*%
%ADD49R,0.02840X0.00167*%
%ADD50R,0.02340X0.00166*%
%ADD51R,0.01660X0.00167*%
%ADD52R,0.02000X0.00166*%
%ADD53R,0.06830X0.00166*%
%ADD54R,0.06670X0.00167*%
%ADD55R,0.06500X0.00167*%
%ADD56R,0.06500X0.00166*%
%ADD57R,0.06330X0.00167*%
%ADD58R,0.06170X0.00167*%
%ADD59R,0.06000X0.00166*%
%ADD60R,0.05830X0.00167*%
%ADD61R,0.05670X0.00167*%
%ADD62R,0.05500X0.00166*%
%ADD63R,0.05500X0.00167*%
%ADD64R,0.02340X0.00167*%
%ADD65R,0.02170X0.00166*%
%ADD66R,0.02160X0.00166*%
%ADD67R,0.02830X0.00167*%
%ADD68R,0.03500X0.00166*%
%ADD69R,0.10660X0.00167*%
%ADD70R,0.10670X0.00167*%
%ADD71R,0.10340X0.00166*%
%ADD72R,0.10330X0.00166*%
%ADD73R,0.10170X0.00167*%
%ADD74R,0.10160X0.00167*%
%ADD75R,0.10000X0.00167*%
%ADD76R,0.09660X0.00166*%
%ADD77R,0.04840X0.00166*%
%ADD78R,0.04670X0.00166*%
%ADD79R,0.04500X0.00167*%
%ADD80R,0.04000X0.00167*%
%ADD81R,0.06160X0.00167*%
%ADD82R,0.05840X0.00166*%
%ADD83R,0.05160X0.00166*%
%ADD84R,0.04840X0.00167*%
%ADD85R,0.03840X0.00166*%
%ADD86R,0.03500X0.00167*%
D10*
X0063342Y0020985D02*
X0063342Y0204056D01*
X0063344Y0204246D01*
X0063351Y0204436D01*
X0063363Y0204626D01*
X0063379Y0204816D01*
X0063399Y0205005D01*
X0063425Y0205194D01*
X0063454Y0205382D01*
X0063489Y0205569D01*
X0063528Y0205755D01*
X0063571Y0205940D01*
X0063619Y0206125D01*
X0063671Y0206308D01*
X0063727Y0206489D01*
X0063788Y0206669D01*
X0063854Y0206848D01*
X0063923Y0207025D01*
X0063997Y0207201D01*
X0064075Y0207374D01*
X0064158Y0207546D01*
X0064244Y0207715D01*
X0064334Y0207883D01*
X0064429Y0208048D01*
X0064527Y0208211D01*
X0064630Y0208371D01*
X0064736Y0208529D01*
X0064846Y0208684D01*
X0064959Y0208837D01*
X0065077Y0208987D01*
X0065198Y0209133D01*
X0065322Y0209277D01*
X0065450Y0209418D01*
X0065581Y0209556D01*
X0065716Y0209691D01*
X0065854Y0209822D01*
X0065995Y0209950D01*
X0066139Y0210074D01*
X0066285Y0210195D01*
X0066435Y0210313D01*
X0066588Y0210426D01*
X0066743Y0210536D01*
X0066901Y0210642D01*
X0067061Y0210745D01*
X0067224Y0210843D01*
X0067389Y0210938D01*
X0067557Y0211028D01*
X0067726Y0211114D01*
X0067898Y0211197D01*
X0068071Y0211275D01*
X0068247Y0211349D01*
X0068424Y0211418D01*
X0068603Y0211484D01*
X0068783Y0211545D01*
X0068964Y0211601D01*
X0069147Y0211653D01*
X0069332Y0211701D01*
X0069517Y0211744D01*
X0069703Y0211783D01*
X0069890Y0211818D01*
X0070078Y0211847D01*
X0070267Y0211873D01*
X0070456Y0211893D01*
X0070646Y0211909D01*
X0070836Y0211921D01*
X0071026Y0211928D01*
X0071216Y0211930D01*
X0083027Y0211930D01*
X0083217Y0211932D01*
X0083407Y0211939D01*
X0083597Y0211951D01*
X0083787Y0211967D01*
X0083976Y0211987D01*
X0084165Y0212013D01*
X0084353Y0212042D01*
X0084540Y0212077D01*
X0084726Y0212116D01*
X0084911Y0212159D01*
X0085096Y0212207D01*
X0085279Y0212259D01*
X0085460Y0212315D01*
X0085640Y0212376D01*
X0085819Y0212442D01*
X0085996Y0212511D01*
X0086172Y0212585D01*
X0086345Y0212663D01*
X0086517Y0212746D01*
X0086686Y0212832D01*
X0086854Y0212922D01*
X0087019Y0213017D01*
X0087182Y0213115D01*
X0087342Y0213218D01*
X0087500Y0213324D01*
X0087655Y0213434D01*
X0087808Y0213547D01*
X0087958Y0213665D01*
X0088104Y0213786D01*
X0088248Y0213910D01*
X0088389Y0214038D01*
X0088527Y0214169D01*
X0088662Y0214304D01*
X0088793Y0214442D01*
X0088921Y0214583D01*
X0089045Y0214727D01*
X0089166Y0214873D01*
X0089284Y0215023D01*
X0089397Y0215176D01*
X0089507Y0215331D01*
X0089613Y0215489D01*
X0089716Y0215649D01*
X0089814Y0215812D01*
X0089909Y0215977D01*
X0089999Y0216145D01*
X0090085Y0216314D01*
X0090168Y0216486D01*
X0090246Y0216659D01*
X0090320Y0216835D01*
X0090389Y0217012D01*
X0090455Y0217191D01*
X0090516Y0217371D01*
X0090572Y0217552D01*
X0090624Y0217735D01*
X0090672Y0217920D01*
X0090715Y0218105D01*
X0090754Y0218291D01*
X0090789Y0218478D01*
X0090818Y0218666D01*
X0090844Y0218855D01*
X0090864Y0219044D01*
X0090880Y0219234D01*
X0090892Y0219424D01*
X0090899Y0219614D01*
X0090901Y0219804D01*
X0090901Y0259174D01*
X0090899Y0259364D01*
X0090892Y0259554D01*
X0090880Y0259744D01*
X0090864Y0259934D01*
X0090844Y0260123D01*
X0090818Y0260312D01*
X0090789Y0260500D01*
X0090754Y0260687D01*
X0090715Y0260873D01*
X0090672Y0261058D01*
X0090624Y0261243D01*
X0090572Y0261426D01*
X0090516Y0261607D01*
X0090455Y0261787D01*
X0090389Y0261966D01*
X0090320Y0262143D01*
X0090246Y0262319D01*
X0090168Y0262492D01*
X0090085Y0262664D01*
X0089999Y0262833D01*
X0089909Y0263001D01*
X0089814Y0263166D01*
X0089716Y0263329D01*
X0089613Y0263489D01*
X0089507Y0263647D01*
X0089397Y0263802D01*
X0089284Y0263955D01*
X0089166Y0264105D01*
X0089045Y0264251D01*
X0088921Y0264395D01*
X0088793Y0264536D01*
X0088662Y0264674D01*
X0088527Y0264809D01*
X0088389Y0264940D01*
X0088248Y0265068D01*
X0088104Y0265192D01*
X0087958Y0265313D01*
X0087808Y0265431D01*
X0087655Y0265544D01*
X0087500Y0265654D01*
X0087342Y0265760D01*
X0087182Y0265863D01*
X0087019Y0265961D01*
X0086854Y0266056D01*
X0086686Y0266146D01*
X0086517Y0266232D01*
X0086345Y0266315D01*
X0086172Y0266393D01*
X0085996Y0266467D01*
X0085819Y0266536D01*
X0085640Y0266602D01*
X0085460Y0266663D01*
X0085279Y0266719D01*
X0085096Y0266771D01*
X0084911Y0266819D01*
X0084726Y0266862D01*
X0084540Y0266901D01*
X0084353Y0266936D01*
X0084165Y0266965D01*
X0083976Y0266991D01*
X0083787Y0267011D01*
X0083597Y0267027D01*
X0083407Y0267039D01*
X0083217Y0267046D01*
X0083027Y0267048D01*
X0071216Y0267048D01*
X0071026Y0267050D01*
X0070836Y0267057D01*
X0070646Y0267069D01*
X0070456Y0267085D01*
X0070267Y0267105D01*
X0070078Y0267131D01*
X0069890Y0267160D01*
X0069703Y0267195D01*
X0069517Y0267234D01*
X0069332Y0267277D01*
X0069147Y0267325D01*
X0068964Y0267377D01*
X0068783Y0267433D01*
X0068603Y0267494D01*
X0068424Y0267560D01*
X0068247Y0267629D01*
X0068071Y0267703D01*
X0067898Y0267781D01*
X0067726Y0267864D01*
X0067557Y0267950D01*
X0067389Y0268040D01*
X0067224Y0268135D01*
X0067061Y0268233D01*
X0066901Y0268336D01*
X0066743Y0268442D01*
X0066588Y0268552D01*
X0066435Y0268665D01*
X0066285Y0268783D01*
X0066139Y0268904D01*
X0065995Y0269028D01*
X0065854Y0269156D01*
X0065716Y0269287D01*
X0065581Y0269422D01*
X0065450Y0269560D01*
X0065322Y0269701D01*
X0065198Y0269845D01*
X0065077Y0269991D01*
X0064959Y0270141D01*
X0064846Y0270294D01*
X0064736Y0270449D01*
X0064630Y0270607D01*
X0064527Y0270767D01*
X0064429Y0270930D01*
X0064334Y0271095D01*
X0064244Y0271263D01*
X0064158Y0271432D01*
X0064075Y0271604D01*
X0063997Y0271777D01*
X0063923Y0271953D01*
X0063854Y0272130D01*
X0063788Y0272309D01*
X0063727Y0272489D01*
X0063671Y0272670D01*
X0063619Y0272853D01*
X0063571Y0273038D01*
X0063528Y0273223D01*
X0063489Y0273409D01*
X0063454Y0273596D01*
X0063425Y0273784D01*
X0063399Y0273973D01*
X0063379Y0274162D01*
X0063363Y0274352D01*
X0063351Y0274542D01*
X0063344Y0274732D01*
X0063342Y0274922D01*
X0063342Y0301300D01*
X0063348Y0301783D01*
X0063365Y0302266D01*
X0063395Y0302749D01*
X0063435Y0303230D01*
X0063488Y0303711D01*
X0063552Y0304190D01*
X0063627Y0304667D01*
X0063715Y0305143D01*
X0063813Y0305616D01*
X0063923Y0306086D01*
X0064044Y0306554D01*
X0064177Y0307019D01*
X0064321Y0307480D01*
X0064476Y0307938D01*
X0064642Y0308392D01*
X0064819Y0308842D01*
X0065006Y0309287D01*
X0065205Y0309728D01*
X0065413Y0310164D01*
X0065633Y0310594D01*
X0065863Y0311020D01*
X0066103Y0311439D01*
X0066353Y0311853D01*
X0066613Y0312260D01*
X0066882Y0312661D01*
X0067162Y0313056D01*
X0067450Y0313443D01*
X0067749Y0313824D01*
X0068056Y0314197D01*
X0068372Y0314562D01*
X0068697Y0314920D01*
X0069030Y0315270D01*
X0069372Y0315612D01*
X0069722Y0315945D01*
X0070080Y0316270D01*
X0070445Y0316586D01*
X0070818Y0316893D01*
X0071199Y0317192D01*
X0071586Y0317480D01*
X0071981Y0317760D01*
X0072382Y0318029D01*
X0072789Y0318289D01*
X0073203Y0318539D01*
X0073622Y0318779D01*
X0074048Y0319009D01*
X0074478Y0319229D01*
X0074914Y0319437D01*
X0075355Y0319636D01*
X0075800Y0319823D01*
X0076250Y0320000D01*
X0076704Y0320166D01*
X0077162Y0320321D01*
X0077623Y0320465D01*
X0078088Y0320598D01*
X0078556Y0320719D01*
X0079026Y0320829D01*
X0079499Y0320927D01*
X0079975Y0321015D01*
X0080452Y0321090D01*
X0080931Y0321154D01*
X0081412Y0321207D01*
X0081893Y0321247D01*
X0082376Y0321277D01*
X0082859Y0321294D01*
X0083342Y0321300D01*
X0433342Y0321300D01*
X0433825Y0321294D01*
X0434308Y0321277D01*
X0434791Y0321247D01*
X0435272Y0321207D01*
X0435753Y0321154D01*
X0436232Y0321090D01*
X0436709Y0321015D01*
X0437185Y0320927D01*
X0437658Y0320829D01*
X0438128Y0320719D01*
X0438596Y0320598D01*
X0439061Y0320465D01*
X0439522Y0320321D01*
X0439980Y0320166D01*
X0440434Y0320000D01*
X0440884Y0319823D01*
X0441329Y0319636D01*
X0441770Y0319437D01*
X0442206Y0319229D01*
X0442636Y0319009D01*
X0443062Y0318779D01*
X0443481Y0318539D01*
X0443895Y0318289D01*
X0444302Y0318029D01*
X0444703Y0317760D01*
X0445098Y0317480D01*
X0445485Y0317192D01*
X0445866Y0316893D01*
X0446239Y0316586D01*
X0446604Y0316270D01*
X0446962Y0315945D01*
X0447312Y0315612D01*
X0447654Y0315270D01*
X0447987Y0314920D01*
X0448312Y0314562D01*
X0448628Y0314197D01*
X0448935Y0313824D01*
X0449234Y0313443D01*
X0449522Y0313056D01*
X0449802Y0312661D01*
X0450071Y0312260D01*
X0450331Y0311853D01*
X0450581Y0311439D01*
X0450821Y0311020D01*
X0451051Y0310594D01*
X0451271Y0310164D01*
X0451479Y0309728D01*
X0451678Y0309287D01*
X0451865Y0308842D01*
X0452042Y0308392D01*
X0452208Y0307938D01*
X0452363Y0307480D01*
X0452507Y0307019D01*
X0452640Y0306554D01*
X0452761Y0306086D01*
X0452871Y0305616D01*
X0452969Y0305143D01*
X0453057Y0304667D01*
X0453132Y0304190D01*
X0453196Y0303711D01*
X0453249Y0303230D01*
X0453289Y0302749D01*
X0453319Y0302266D01*
X0453336Y0301783D01*
X0453342Y0301300D01*
X0453342Y0021300D01*
X0453336Y0020817D01*
X0453319Y0020334D01*
X0453289Y0019851D01*
X0453249Y0019370D01*
X0453196Y0018889D01*
X0453132Y0018410D01*
X0453057Y0017933D01*
X0452969Y0017457D01*
X0452871Y0016984D01*
X0452761Y0016514D01*
X0452640Y0016046D01*
X0452507Y0015581D01*
X0452363Y0015120D01*
X0452208Y0014662D01*
X0452042Y0014208D01*
X0451865Y0013758D01*
X0451678Y0013313D01*
X0451479Y0012872D01*
X0451271Y0012436D01*
X0451051Y0012006D01*
X0450821Y0011580D01*
X0450581Y0011161D01*
X0450331Y0010747D01*
X0450071Y0010340D01*
X0449802Y0009939D01*
X0449522Y0009544D01*
X0449234Y0009157D01*
X0448935Y0008776D01*
X0448628Y0008403D01*
X0448312Y0008038D01*
X0447987Y0007680D01*
X0447654Y0007330D01*
X0447312Y0006988D01*
X0446962Y0006655D01*
X0446604Y0006330D01*
X0446239Y0006014D01*
X0445866Y0005707D01*
X0445485Y0005408D01*
X0445098Y0005120D01*
X0444703Y0004840D01*
X0444302Y0004571D01*
X0443895Y0004311D01*
X0443481Y0004061D01*
X0443062Y0003821D01*
X0442636Y0003591D01*
X0442206Y0003371D01*
X0441770Y0003163D01*
X0441329Y0002964D01*
X0440884Y0002777D01*
X0440434Y0002600D01*
X0439980Y0002434D01*
X0439522Y0002279D01*
X0439061Y0002135D01*
X0438596Y0002002D01*
X0438128Y0001881D01*
X0437658Y0001771D01*
X0437185Y0001673D01*
X0436709Y0001585D01*
X0436232Y0001510D01*
X0435753Y0001446D01*
X0435272Y0001393D01*
X0434791Y0001353D01*
X0434308Y0001323D01*
X0433825Y0001306D01*
X0433342Y0001300D01*
X0083342Y0001300D01*
X0082859Y0001306D01*
X0082376Y0001323D01*
X0081893Y0001353D01*
X0081412Y0001393D01*
X0080931Y0001446D01*
X0080452Y0001510D01*
X0079975Y0001585D01*
X0079499Y0001673D01*
X0079026Y0001771D01*
X0078556Y0001881D01*
X0078088Y0002002D01*
X0077623Y0002135D01*
X0077162Y0002279D01*
X0076704Y0002434D01*
X0076250Y0002600D01*
X0075800Y0002777D01*
X0075355Y0002964D01*
X0074914Y0003163D01*
X0074478Y0003371D01*
X0074048Y0003591D01*
X0073622Y0003821D01*
X0073203Y0004061D01*
X0072789Y0004311D01*
X0072382Y0004571D01*
X0071981Y0004840D01*
X0071586Y0005120D01*
X0071199Y0005408D01*
X0070818Y0005707D01*
X0070445Y0006014D01*
X0070080Y0006330D01*
X0069722Y0006655D01*
X0069372Y0006988D01*
X0069030Y0007330D01*
X0068697Y0007680D01*
X0068372Y0008038D01*
X0068056Y0008403D01*
X0067749Y0008776D01*
X0067450Y0009157D01*
X0067162Y0009544D01*
X0066882Y0009939D01*
X0066613Y0010340D01*
X0066353Y0010747D01*
X0066103Y0011161D01*
X0065863Y0011580D01*
X0065633Y0012006D01*
X0065413Y0012436D01*
X0065205Y0012872D01*
X0065006Y0013313D01*
X0064819Y0013758D01*
X0064642Y0014208D01*
X0064476Y0014662D01*
X0064321Y0015120D01*
X0064177Y0015581D01*
X0064044Y0016046D01*
X0063923Y0016514D01*
X0063813Y0016984D01*
X0063715Y0017457D01*
X0063627Y0017933D01*
X0063552Y0018410D01*
X0063488Y0018889D01*
X0063435Y0019370D01*
X0063395Y0019851D01*
X0063365Y0020334D01*
X0063348Y0020817D01*
X0063342Y0021300D01*
X0155980Y0244233D02*
X0155985Y0244619D01*
X0155999Y0245006D01*
X0156023Y0245391D01*
X0156056Y0245777D01*
X0156098Y0246161D01*
X0156150Y0246544D01*
X0156212Y0246925D01*
X0156283Y0247305D01*
X0156363Y0247683D01*
X0156452Y0248059D01*
X0156550Y0248433D01*
X0156658Y0248804D01*
X0156775Y0249173D01*
X0156901Y0249538D01*
X0157035Y0249901D01*
X0157179Y0250259D01*
X0157331Y0250615D01*
X0157492Y0250966D01*
X0157662Y0251313D01*
X0157840Y0251657D01*
X0158026Y0251995D01*
X0158220Y0252329D01*
X0158423Y0252658D01*
X0158634Y0252982D01*
X0158853Y0253301D01*
X0159079Y0253614D01*
X0159313Y0253922D01*
X0159555Y0254223D01*
X0159803Y0254519D01*
X0160060Y0254809D01*
X0160323Y0255092D01*
X0160592Y0255369D01*
X0160869Y0255638D01*
X0161152Y0255901D01*
X0161442Y0256158D01*
X0161738Y0256406D01*
X0162039Y0256648D01*
X0162347Y0256882D01*
X0162660Y0257108D01*
X0162979Y0257327D01*
X0163303Y0257538D01*
X0163632Y0257741D01*
X0163966Y0257935D01*
X0164304Y0258121D01*
X0164648Y0258299D01*
X0164995Y0258469D01*
X0165346Y0258630D01*
X0165702Y0258782D01*
X0166060Y0258926D01*
X0166423Y0259060D01*
X0166788Y0259186D01*
X0167157Y0259303D01*
X0167528Y0259411D01*
X0167902Y0259509D01*
X0168278Y0259598D01*
X0168656Y0259678D01*
X0169036Y0259749D01*
X0169417Y0259811D01*
X0169800Y0259863D01*
X0170184Y0259905D01*
X0170570Y0259938D01*
X0170955Y0259962D01*
X0171342Y0259976D01*
X0171728Y0259981D01*
X0172114Y0259976D01*
X0172501Y0259962D01*
X0172886Y0259938D01*
X0173272Y0259905D01*
X0173656Y0259863D01*
X0174039Y0259811D01*
X0174420Y0259749D01*
X0174800Y0259678D01*
X0175178Y0259598D01*
X0175554Y0259509D01*
X0175928Y0259411D01*
X0176299Y0259303D01*
X0176668Y0259186D01*
X0177033Y0259060D01*
X0177396Y0258926D01*
X0177754Y0258782D01*
X0178110Y0258630D01*
X0178461Y0258469D01*
X0178808Y0258299D01*
X0179152Y0258121D01*
X0179490Y0257935D01*
X0179824Y0257741D01*
X0180153Y0257538D01*
X0180477Y0257327D01*
X0180796Y0257108D01*
X0181109Y0256882D01*
X0181417Y0256648D01*
X0181718Y0256406D01*
X0182014Y0256158D01*
X0182304Y0255901D01*
X0182587Y0255638D01*
X0182864Y0255369D01*
X0183133Y0255092D01*
X0183396Y0254809D01*
X0183653Y0254519D01*
X0183901Y0254223D01*
X0184143Y0253922D01*
X0184377Y0253614D01*
X0184603Y0253301D01*
X0184822Y0252982D01*
X0185033Y0252658D01*
X0185236Y0252329D01*
X0185430Y0251995D01*
X0185616Y0251657D01*
X0185794Y0251313D01*
X0185964Y0250966D01*
X0186125Y0250615D01*
X0186277Y0250259D01*
X0186421Y0249901D01*
X0186555Y0249538D01*
X0186681Y0249173D01*
X0186798Y0248804D01*
X0186906Y0248433D01*
X0187004Y0248059D01*
X0187093Y0247683D01*
X0187173Y0247305D01*
X0187244Y0246925D01*
X0187306Y0246544D01*
X0187358Y0246161D01*
X0187400Y0245777D01*
X0187433Y0245391D01*
X0187457Y0245006D01*
X0187471Y0244619D01*
X0187476Y0244233D01*
X0187471Y0243847D01*
X0187457Y0243460D01*
X0187433Y0243075D01*
X0187400Y0242689D01*
X0187358Y0242305D01*
X0187306Y0241922D01*
X0187244Y0241541D01*
X0187173Y0241161D01*
X0187093Y0240783D01*
X0187004Y0240407D01*
X0186906Y0240033D01*
X0186798Y0239662D01*
X0186681Y0239293D01*
X0186555Y0238928D01*
X0186421Y0238565D01*
X0186277Y0238207D01*
X0186125Y0237851D01*
X0185964Y0237500D01*
X0185794Y0237153D01*
X0185616Y0236809D01*
X0185430Y0236471D01*
X0185236Y0236137D01*
X0185033Y0235808D01*
X0184822Y0235484D01*
X0184603Y0235165D01*
X0184377Y0234852D01*
X0184143Y0234544D01*
X0183901Y0234243D01*
X0183653Y0233947D01*
X0183396Y0233657D01*
X0183133Y0233374D01*
X0182864Y0233097D01*
X0182587Y0232828D01*
X0182304Y0232565D01*
X0182014Y0232308D01*
X0181718Y0232060D01*
X0181417Y0231818D01*
X0181109Y0231584D01*
X0180796Y0231358D01*
X0180477Y0231139D01*
X0180153Y0230928D01*
X0179824Y0230725D01*
X0179490Y0230531D01*
X0179152Y0230345D01*
X0178808Y0230167D01*
X0178461Y0229997D01*
X0178110Y0229836D01*
X0177754Y0229684D01*
X0177396Y0229540D01*
X0177033Y0229406D01*
X0176668Y0229280D01*
X0176299Y0229163D01*
X0175928Y0229055D01*
X0175554Y0228957D01*
X0175178Y0228868D01*
X0174800Y0228788D01*
X0174420Y0228717D01*
X0174039Y0228655D01*
X0173656Y0228603D01*
X0173272Y0228561D01*
X0172886Y0228528D01*
X0172501Y0228504D01*
X0172114Y0228490D01*
X0171728Y0228485D01*
X0171342Y0228490D01*
X0170955Y0228504D01*
X0170570Y0228528D01*
X0170184Y0228561D01*
X0169800Y0228603D01*
X0169417Y0228655D01*
X0169036Y0228717D01*
X0168656Y0228788D01*
X0168278Y0228868D01*
X0167902Y0228957D01*
X0167528Y0229055D01*
X0167157Y0229163D01*
X0166788Y0229280D01*
X0166423Y0229406D01*
X0166060Y0229540D01*
X0165702Y0229684D01*
X0165346Y0229836D01*
X0164995Y0229997D01*
X0164648Y0230167D01*
X0164304Y0230345D01*
X0163966Y0230531D01*
X0163632Y0230725D01*
X0163303Y0230928D01*
X0162979Y0231139D01*
X0162660Y0231358D01*
X0162347Y0231584D01*
X0162039Y0231818D01*
X0161738Y0232060D01*
X0161442Y0232308D01*
X0161152Y0232565D01*
X0160869Y0232828D01*
X0160592Y0233097D01*
X0160323Y0233374D01*
X0160060Y0233657D01*
X0159803Y0233947D01*
X0159555Y0234243D01*
X0159313Y0234544D01*
X0159079Y0234852D01*
X0158853Y0235165D01*
X0158634Y0235484D01*
X0158423Y0235808D01*
X0158220Y0236137D01*
X0158026Y0236471D01*
X0157840Y0236809D01*
X0157662Y0237153D01*
X0157492Y0237500D01*
X0157331Y0237851D01*
X0157179Y0238207D01*
X0157035Y0238565D01*
X0156901Y0238928D01*
X0156775Y0239293D01*
X0156658Y0239662D01*
X0156550Y0240033D01*
X0156452Y0240407D01*
X0156363Y0240783D01*
X0156283Y0241161D01*
X0156212Y0241541D01*
X0156150Y0241922D01*
X0156098Y0242305D01*
X0156056Y0242689D01*
X0156023Y0243075D01*
X0155999Y0243460D01*
X0155985Y0243847D01*
X0155980Y0244233D01*
D11*
X0154988Y0116979D02*
X0152144Y0109157D01*
X0149626Y0109868D02*
X0147848Y0109868D01*
X0147848Y0109867D02*
X0147784Y0109869D01*
X0147719Y0109875D01*
X0147656Y0109884D01*
X0147593Y0109898D01*
X0147531Y0109915D01*
X0147470Y0109936D01*
X0147410Y0109961D01*
X0147352Y0109989D01*
X0147296Y0110021D01*
X0147242Y0110056D01*
X0147190Y0110094D01*
X0147140Y0110135D01*
X0147094Y0110180D01*
X0147049Y0110226D01*
X0147008Y0110276D01*
X0146970Y0110328D01*
X0146935Y0110382D01*
X0146903Y0110438D01*
X0146875Y0110496D01*
X0146850Y0110556D01*
X0146829Y0110617D01*
X0146812Y0110679D01*
X0146798Y0110742D01*
X0146789Y0110805D01*
X0146783Y0110870D01*
X0146781Y0110934D01*
X0146782Y0110934D02*
X0146782Y0113068D01*
X0146781Y0113068D02*
X0146783Y0113132D01*
X0146789Y0113197D01*
X0146798Y0113260D01*
X0146812Y0113323D01*
X0146829Y0113385D01*
X0146850Y0113446D01*
X0146875Y0113506D01*
X0146903Y0113564D01*
X0146935Y0113620D01*
X0146970Y0113674D01*
X0147008Y0113726D01*
X0147049Y0113776D01*
X0147094Y0113822D01*
X0147140Y0113867D01*
X0147190Y0113908D01*
X0147242Y0113946D01*
X0147296Y0113981D01*
X0147352Y0114013D01*
X0147410Y0114041D01*
X0147470Y0114066D01*
X0147531Y0114087D01*
X0147593Y0114104D01*
X0147656Y0114118D01*
X0147719Y0114127D01*
X0147784Y0114133D01*
X0147848Y0114135D01*
X0147848Y0114134D02*
X0149626Y0114134D01*
X0149626Y0116268D02*
X0149626Y0109868D01*
X0144087Y0109868D02*
X0144087Y0113068D01*
X0144087Y0112357D02*
X0142487Y0112357D01*
X0144088Y0113068D02*
X0144086Y0113132D01*
X0144080Y0113197D01*
X0144071Y0113260D01*
X0144057Y0113323D01*
X0144040Y0113385D01*
X0144019Y0113446D01*
X0143994Y0113506D01*
X0143966Y0113564D01*
X0143934Y0113620D01*
X0143899Y0113674D01*
X0143861Y0113726D01*
X0143820Y0113776D01*
X0143775Y0113822D01*
X0143729Y0113867D01*
X0143679Y0113908D01*
X0143627Y0113946D01*
X0143573Y0113981D01*
X0143517Y0114013D01*
X0143459Y0114041D01*
X0143399Y0114066D01*
X0143338Y0114087D01*
X0143276Y0114104D01*
X0143213Y0114118D01*
X0143150Y0114127D01*
X0143085Y0114133D01*
X0143021Y0114135D01*
X0143021Y0114134D02*
X0141599Y0114134D01*
X0138812Y0113068D02*
X0138812Y0110934D01*
X0138810Y0110870D01*
X0138804Y0110805D01*
X0138795Y0110742D01*
X0138781Y0110679D01*
X0138764Y0110617D01*
X0138743Y0110556D01*
X0138718Y0110496D01*
X0138690Y0110438D01*
X0138658Y0110382D01*
X0138623Y0110328D01*
X0138585Y0110276D01*
X0138544Y0110226D01*
X0138499Y0110180D01*
X0138453Y0110135D01*
X0138403Y0110094D01*
X0138351Y0110056D01*
X0138297Y0110021D01*
X0138241Y0109989D01*
X0138183Y0109961D01*
X0138123Y0109936D01*
X0138062Y0109915D01*
X0138000Y0109898D01*
X0137937Y0109884D01*
X0137874Y0109875D01*
X0137809Y0109869D01*
X0137745Y0109867D01*
X0137745Y0109868D02*
X0135967Y0109868D01*
X0135967Y0107734D02*
X0135967Y0114134D01*
X0137745Y0114134D01*
X0137745Y0114135D02*
X0137809Y0114133D01*
X0137874Y0114127D01*
X0137937Y0114118D01*
X0138000Y0114104D01*
X0138062Y0114087D01*
X0138123Y0114066D01*
X0138183Y0114041D01*
X0138241Y0114013D01*
X0138297Y0113981D01*
X0138351Y0113946D01*
X0138403Y0113908D01*
X0138453Y0113867D01*
X0138499Y0113822D01*
X0138544Y0113776D01*
X0138585Y0113726D01*
X0138623Y0113674D01*
X0138658Y0113620D01*
X0138690Y0113564D01*
X0138718Y0113506D01*
X0138743Y0113446D01*
X0138764Y0113385D01*
X0138781Y0113323D01*
X0138795Y0113260D01*
X0138804Y0113197D01*
X0138810Y0113132D01*
X0138812Y0113068D01*
X0142487Y0112356D02*
X0142417Y0112354D01*
X0142348Y0112348D01*
X0142279Y0112338D01*
X0142210Y0112325D01*
X0142143Y0112307D01*
X0142076Y0112286D01*
X0142011Y0112261D01*
X0141947Y0112233D01*
X0141885Y0112201D01*
X0141825Y0112165D01*
X0141767Y0112127D01*
X0141711Y0112085D01*
X0141658Y0112040D01*
X0141607Y0111992D01*
X0141559Y0111941D01*
X0141514Y0111888D01*
X0141472Y0111832D01*
X0141434Y0111774D01*
X0141398Y0111714D01*
X0141366Y0111652D01*
X0141338Y0111588D01*
X0141313Y0111523D01*
X0141292Y0111456D01*
X0141274Y0111389D01*
X0141261Y0111320D01*
X0141251Y0111251D01*
X0141245Y0111182D01*
X0141243Y0111112D01*
X0141245Y0111042D01*
X0141251Y0110973D01*
X0141261Y0110904D01*
X0141274Y0110835D01*
X0141292Y0110768D01*
X0141313Y0110701D01*
X0141338Y0110636D01*
X0141366Y0110572D01*
X0141398Y0110510D01*
X0141434Y0110450D01*
X0141472Y0110392D01*
X0141514Y0110336D01*
X0141559Y0110283D01*
X0141607Y0110232D01*
X0141658Y0110184D01*
X0141711Y0110139D01*
X0141767Y0110097D01*
X0141825Y0110059D01*
X0141885Y0110023D01*
X0141947Y0109991D01*
X0142011Y0109963D01*
X0142076Y0109938D01*
X0142143Y0109917D01*
X0142210Y0109899D01*
X0142279Y0109886D01*
X0142348Y0109876D01*
X0142417Y0109870D01*
X0142487Y0109868D01*
X0144087Y0109868D01*
X0157532Y0109868D02*
X0157532Y0116268D01*
X0159310Y0116268D01*
X0159392Y0116266D01*
X0159474Y0116260D01*
X0159556Y0116251D01*
X0159637Y0116238D01*
X0159717Y0116221D01*
X0159797Y0116200D01*
X0159875Y0116176D01*
X0159952Y0116148D01*
X0160028Y0116117D01*
X0160103Y0116082D01*
X0160175Y0116043D01*
X0160246Y0116002D01*
X0160315Y0115957D01*
X0160381Y0115909D01*
X0160446Y0115858D01*
X0160508Y0115804D01*
X0160567Y0115747D01*
X0160624Y0115688D01*
X0160678Y0115626D01*
X0160729Y0115561D01*
X0160777Y0115495D01*
X0160822Y0115426D01*
X0160863Y0115355D01*
X0160902Y0115283D01*
X0160937Y0115208D01*
X0160968Y0115132D01*
X0160996Y0115055D01*
X0161020Y0114977D01*
X0161041Y0114897D01*
X0161058Y0114817D01*
X0161071Y0114736D01*
X0161080Y0114654D01*
X0161086Y0114572D01*
X0161088Y0114490D01*
X0161088Y0111645D01*
X0161086Y0111563D01*
X0161080Y0111481D01*
X0161071Y0111399D01*
X0161058Y0111318D01*
X0161041Y0111238D01*
X0161020Y0111158D01*
X0160996Y0111080D01*
X0160968Y0111003D01*
X0160937Y0110927D01*
X0160902Y0110852D01*
X0160863Y0110780D01*
X0160822Y0110709D01*
X0160777Y0110640D01*
X0160729Y0110574D01*
X0160678Y0110509D01*
X0160624Y0110447D01*
X0160567Y0110388D01*
X0160508Y0110331D01*
X0160446Y0110277D01*
X0160381Y0110226D01*
X0160315Y0110178D01*
X0160246Y0110133D01*
X0160175Y0110092D01*
X0160103Y0110053D01*
X0160028Y0110018D01*
X0159952Y0109987D01*
X0159875Y0109959D01*
X0159797Y0109935D01*
X0159717Y0109914D01*
X0159637Y0109897D01*
X0159556Y0109884D01*
X0159474Y0109875D01*
X0159392Y0109869D01*
X0159310Y0109867D01*
X0159310Y0109868D02*
X0157532Y0109868D01*
X0163823Y0109868D02*
X0163823Y0114134D01*
X0164001Y0115912D02*
X0163645Y0115912D01*
X0163645Y0116268D01*
X0164001Y0116268D01*
X0164001Y0115912D01*
X0167187Y0114135D02*
X0167128Y0114134D01*
X0167068Y0114129D01*
X0167010Y0114120D01*
X0166951Y0114108D01*
X0166894Y0114091D01*
X0166838Y0114072D01*
X0166783Y0114048D01*
X0166730Y0114021D01*
X0166679Y0113991D01*
X0166630Y0113957D01*
X0166583Y0113921D01*
X0166539Y0113881D01*
X0166497Y0113839D01*
X0166458Y0113794D01*
X0166422Y0113746D01*
X0166389Y0113697D01*
X0166360Y0113645D01*
X0166333Y0113592D01*
X0166311Y0113537D01*
X0166292Y0113480D01*
X0166276Y0113423D01*
X0166265Y0113365D01*
X0166257Y0113306D01*
X0166253Y0113246D01*
X0166252Y0113187D01*
X0166256Y0113127D01*
X0166263Y0113068D01*
X0166275Y0113010D01*
X0166290Y0112952D01*
X0166308Y0112896D01*
X0166331Y0112841D01*
X0166356Y0112787D01*
X0166386Y0112735D01*
X0166418Y0112685D01*
X0166454Y0112638D01*
X0166492Y0112592D01*
X0166534Y0112550D01*
X0166578Y0112510D01*
X0166624Y0112473D01*
X0166673Y0112439D01*
X0166724Y0112408D01*
X0166777Y0112381D01*
X0166832Y0112357D01*
X0168609Y0111645D01*
X0168609Y0111646D02*
X0168664Y0111622D01*
X0168717Y0111595D01*
X0168768Y0111564D01*
X0168817Y0111530D01*
X0168863Y0111493D01*
X0168907Y0111453D01*
X0168949Y0111411D01*
X0168987Y0111365D01*
X0169023Y0111318D01*
X0169055Y0111268D01*
X0169085Y0111216D01*
X0169110Y0111162D01*
X0169133Y0111107D01*
X0169151Y0111051D01*
X0169166Y0110993D01*
X0169178Y0110935D01*
X0169185Y0110876D01*
X0169189Y0110816D01*
X0169188Y0110757D01*
X0169184Y0110697D01*
X0169176Y0110638D01*
X0169165Y0110580D01*
X0169149Y0110523D01*
X0169130Y0110466D01*
X0169108Y0110411D01*
X0169081Y0110358D01*
X0169052Y0110306D01*
X0169019Y0110257D01*
X0168983Y0110209D01*
X0168944Y0110164D01*
X0168902Y0110122D01*
X0168858Y0110082D01*
X0168811Y0110046D01*
X0168762Y0110012D01*
X0168711Y0109982D01*
X0168658Y0109955D01*
X0168603Y0109931D01*
X0168547Y0109912D01*
X0168490Y0109895D01*
X0168431Y0109883D01*
X0168373Y0109874D01*
X0168313Y0109869D01*
X0168254Y0109868D01*
X0168787Y0113779D02*
X0168679Y0113826D01*
X0168569Y0113869D01*
X0168458Y0113910D01*
X0168346Y0113947D01*
X0168234Y0113981D01*
X0168120Y0114012D01*
X0168005Y0114039D01*
X0167889Y0114063D01*
X0167773Y0114083D01*
X0167657Y0114100D01*
X0167540Y0114114D01*
X0167422Y0114124D01*
X0167305Y0114131D01*
X0167187Y0114135D01*
X0166298Y0110223D02*
X0166443Y0110173D01*
X0166590Y0110127D01*
X0166737Y0110084D01*
X0166886Y0110045D01*
X0167036Y0110010D01*
X0167186Y0109978D01*
X0167337Y0109951D01*
X0167489Y0109927D01*
X0167641Y0109908D01*
X0167794Y0109892D01*
X0167947Y0109880D01*
X0168100Y0109872D01*
X0168254Y0109868D01*
X0171866Y0109868D02*
X0173643Y0109868D01*
X0173643Y0109867D02*
X0173707Y0109869D01*
X0173772Y0109875D01*
X0173835Y0109884D01*
X0173898Y0109898D01*
X0173960Y0109915D01*
X0174021Y0109936D01*
X0174081Y0109961D01*
X0174139Y0109989D01*
X0174195Y0110021D01*
X0174249Y0110056D01*
X0174301Y0110094D01*
X0174351Y0110135D01*
X0174397Y0110180D01*
X0174442Y0110226D01*
X0174483Y0110276D01*
X0174521Y0110328D01*
X0174556Y0110382D01*
X0174588Y0110438D01*
X0174616Y0110496D01*
X0174641Y0110556D01*
X0174662Y0110617D01*
X0174679Y0110679D01*
X0174693Y0110742D01*
X0174702Y0110805D01*
X0174708Y0110870D01*
X0174710Y0110934D01*
X0174710Y0113068D01*
X0174708Y0113132D01*
X0174702Y0113197D01*
X0174693Y0113260D01*
X0174679Y0113323D01*
X0174662Y0113385D01*
X0174641Y0113446D01*
X0174616Y0113506D01*
X0174588Y0113564D01*
X0174556Y0113620D01*
X0174521Y0113674D01*
X0174483Y0113726D01*
X0174442Y0113776D01*
X0174397Y0113822D01*
X0174351Y0113867D01*
X0174301Y0113908D01*
X0174249Y0113946D01*
X0174195Y0113981D01*
X0174139Y0114013D01*
X0174081Y0114041D01*
X0174021Y0114066D01*
X0173960Y0114087D01*
X0173898Y0114104D01*
X0173835Y0114118D01*
X0173772Y0114127D01*
X0173707Y0114133D01*
X0173643Y0114135D01*
X0173643Y0114134D02*
X0171866Y0114134D01*
X0171866Y0107734D01*
X0177264Y0110934D02*
X0177264Y0116268D01*
X0180779Y0114134D02*
X0182201Y0114134D01*
X0182201Y0114135D02*
X0182265Y0114133D01*
X0182330Y0114127D01*
X0182393Y0114118D01*
X0182456Y0114104D01*
X0182518Y0114087D01*
X0182579Y0114066D01*
X0182639Y0114041D01*
X0182697Y0114013D01*
X0182753Y0113981D01*
X0182807Y0113946D01*
X0182859Y0113908D01*
X0182909Y0113867D01*
X0182955Y0113822D01*
X0183000Y0113776D01*
X0183041Y0113726D01*
X0183079Y0113674D01*
X0183114Y0113620D01*
X0183146Y0113564D01*
X0183174Y0113506D01*
X0183199Y0113446D01*
X0183220Y0113385D01*
X0183237Y0113323D01*
X0183251Y0113260D01*
X0183260Y0113197D01*
X0183266Y0113132D01*
X0183268Y0113068D01*
X0183268Y0109868D01*
X0181668Y0109868D01*
X0181598Y0109870D01*
X0181529Y0109876D01*
X0181460Y0109886D01*
X0181391Y0109899D01*
X0181324Y0109917D01*
X0181257Y0109938D01*
X0181192Y0109963D01*
X0181128Y0109991D01*
X0181066Y0110023D01*
X0181006Y0110059D01*
X0180948Y0110097D01*
X0180892Y0110139D01*
X0180839Y0110184D01*
X0180788Y0110232D01*
X0180740Y0110283D01*
X0180695Y0110336D01*
X0180653Y0110392D01*
X0180615Y0110450D01*
X0180579Y0110510D01*
X0180547Y0110572D01*
X0180519Y0110636D01*
X0180494Y0110701D01*
X0180473Y0110768D01*
X0180455Y0110835D01*
X0180442Y0110904D01*
X0180432Y0110973D01*
X0180426Y0111042D01*
X0180424Y0111112D01*
X0180426Y0111182D01*
X0180432Y0111251D01*
X0180442Y0111320D01*
X0180455Y0111389D01*
X0180473Y0111456D01*
X0180494Y0111523D01*
X0180519Y0111588D01*
X0180547Y0111652D01*
X0180579Y0111714D01*
X0180615Y0111774D01*
X0180653Y0111832D01*
X0180695Y0111888D01*
X0180740Y0111941D01*
X0180788Y0111992D01*
X0180839Y0112040D01*
X0180892Y0112085D01*
X0180948Y0112127D01*
X0181006Y0112165D01*
X0181066Y0112201D01*
X0181128Y0112233D01*
X0181192Y0112261D01*
X0181257Y0112286D01*
X0181324Y0112307D01*
X0181391Y0112325D01*
X0181460Y0112338D01*
X0181529Y0112348D01*
X0181598Y0112354D01*
X0181668Y0112356D01*
X0181668Y0112357D02*
X0183268Y0112357D01*
X0185786Y0114134D02*
X0187208Y0109868D01*
X0186497Y0107734D02*
X0185786Y0107734D01*
X0186497Y0107734D02*
X0188630Y0114134D01*
X0178330Y0109867D02*
X0178266Y0109869D01*
X0178201Y0109875D01*
X0178138Y0109884D01*
X0178075Y0109898D01*
X0178013Y0109915D01*
X0177952Y0109936D01*
X0177892Y0109961D01*
X0177834Y0109989D01*
X0177778Y0110021D01*
X0177724Y0110056D01*
X0177672Y0110094D01*
X0177622Y0110135D01*
X0177576Y0110180D01*
X0177531Y0110226D01*
X0177490Y0110276D01*
X0177452Y0110328D01*
X0177417Y0110382D01*
X0177385Y0110438D01*
X0177357Y0110496D01*
X0177332Y0110556D01*
X0177311Y0110617D01*
X0177294Y0110679D01*
X0177280Y0110742D01*
X0177271Y0110805D01*
X0177265Y0110870D01*
X0177263Y0110934D01*
X0133449Y0114134D02*
X0131316Y0107734D01*
X0130605Y0107734D01*
X0132027Y0109868D02*
X0130605Y0114134D01*
X0128321Y0112712D02*
X0128321Y0112001D01*
X0125477Y0112001D01*
X0125477Y0112712D02*
X0125477Y0110934D01*
X0125476Y0110934D02*
X0125478Y0110870D01*
X0125484Y0110805D01*
X0125493Y0110742D01*
X0125507Y0110679D01*
X0125524Y0110617D01*
X0125545Y0110556D01*
X0125570Y0110496D01*
X0125598Y0110438D01*
X0125630Y0110382D01*
X0125665Y0110328D01*
X0125703Y0110276D01*
X0125744Y0110226D01*
X0125789Y0110180D01*
X0125835Y0110135D01*
X0125885Y0110094D01*
X0125937Y0110056D01*
X0125991Y0110021D01*
X0126047Y0109989D01*
X0126105Y0109961D01*
X0126165Y0109936D01*
X0126226Y0109915D01*
X0126288Y0109898D01*
X0126351Y0109884D01*
X0126414Y0109875D01*
X0126479Y0109869D01*
X0126543Y0109867D01*
X0126543Y0109868D02*
X0128321Y0109868D01*
X0128321Y0112712D02*
X0128319Y0112786D01*
X0128313Y0112861D01*
X0128303Y0112934D01*
X0128290Y0113008D01*
X0128273Y0113080D01*
X0128251Y0113151D01*
X0128227Y0113222D01*
X0128198Y0113290D01*
X0128166Y0113358D01*
X0128130Y0113423D01*
X0128092Y0113486D01*
X0128049Y0113548D01*
X0128004Y0113607D01*
X0127956Y0113664D01*
X0127905Y0113718D01*
X0127851Y0113769D01*
X0127794Y0113817D01*
X0127735Y0113862D01*
X0127673Y0113905D01*
X0127610Y0113943D01*
X0127545Y0113979D01*
X0127477Y0114011D01*
X0127409Y0114040D01*
X0127338Y0114064D01*
X0127267Y0114086D01*
X0127195Y0114103D01*
X0127121Y0114116D01*
X0127048Y0114126D01*
X0126973Y0114132D01*
X0126899Y0114134D01*
X0126825Y0114132D01*
X0126750Y0114126D01*
X0126677Y0114116D01*
X0126603Y0114103D01*
X0126531Y0114086D01*
X0126460Y0114064D01*
X0126389Y0114040D01*
X0126321Y0114011D01*
X0126253Y0113979D01*
X0126188Y0113943D01*
X0126125Y0113905D01*
X0126063Y0113862D01*
X0126004Y0113817D01*
X0125947Y0113769D01*
X0125893Y0113718D01*
X0125842Y0113664D01*
X0125794Y0113607D01*
X0125749Y0113548D01*
X0125706Y0113486D01*
X0125668Y0113423D01*
X0125632Y0113358D01*
X0125600Y0113290D01*
X0125571Y0113222D01*
X0125547Y0113151D01*
X0125525Y0113080D01*
X0125508Y0113008D01*
X0125495Y0112934D01*
X0125485Y0112861D01*
X0125479Y0112786D01*
X0125477Y0112712D01*
X0123221Y0109868D02*
X0121088Y0113779D01*
X0119665Y0112357D02*
X0123221Y0116268D01*
X0119665Y0116268D02*
X0119665Y0109868D01*
X0108219Y0042065D02*
X0110553Y0035065D01*
X0109969Y0036815D02*
X0106469Y0036815D01*
X0105886Y0035065D02*
X0108219Y0042065D01*
X0166910Y0042065D02*
X0166910Y0035065D01*
X0168854Y0035065D01*
X0168941Y0035067D01*
X0169028Y0035073D01*
X0169115Y0035083D01*
X0169201Y0035096D01*
X0169287Y0035114D01*
X0169371Y0035135D01*
X0169455Y0035160D01*
X0169537Y0035189D01*
X0169618Y0035221D01*
X0169697Y0035258D01*
X0169775Y0035297D01*
X0169851Y0035340D01*
X0169925Y0035387D01*
X0169997Y0035436D01*
X0170066Y0035489D01*
X0170133Y0035545D01*
X0170197Y0035604D01*
X0170259Y0035666D01*
X0170318Y0035730D01*
X0170374Y0035797D01*
X0170427Y0035866D01*
X0170476Y0035938D01*
X0170523Y0036012D01*
X0170566Y0036088D01*
X0170605Y0036166D01*
X0170642Y0036245D01*
X0170674Y0036326D01*
X0170703Y0036408D01*
X0170728Y0036492D01*
X0170749Y0036576D01*
X0170767Y0036662D01*
X0170780Y0036748D01*
X0170790Y0036835D01*
X0170796Y0036922D01*
X0170798Y0037009D01*
X0170796Y0037096D01*
X0170790Y0037183D01*
X0170780Y0037270D01*
X0170767Y0037356D01*
X0170749Y0037442D01*
X0170728Y0037526D01*
X0170703Y0037610D01*
X0170674Y0037692D01*
X0170642Y0037773D01*
X0170605Y0037852D01*
X0170566Y0037930D01*
X0170523Y0038006D01*
X0170476Y0038080D01*
X0170427Y0038152D01*
X0170374Y0038221D01*
X0170318Y0038288D01*
X0170259Y0038352D01*
X0170197Y0038414D01*
X0170133Y0038473D01*
X0170066Y0038529D01*
X0169997Y0038582D01*
X0169925Y0038631D01*
X0169851Y0038678D01*
X0169775Y0038721D01*
X0169697Y0038760D01*
X0169618Y0038797D01*
X0169537Y0038829D01*
X0169455Y0038858D01*
X0169371Y0038883D01*
X0169287Y0038904D01*
X0169201Y0038922D01*
X0169115Y0038935D01*
X0169028Y0038945D01*
X0168941Y0038951D01*
X0168854Y0038953D01*
X0166910Y0038953D01*
X0168854Y0038953D02*
X0168932Y0038955D01*
X0169009Y0038961D01*
X0169086Y0038970D01*
X0169162Y0038984D01*
X0169238Y0039001D01*
X0169313Y0039022D01*
X0169386Y0039047D01*
X0169458Y0039075D01*
X0169529Y0039107D01*
X0169598Y0039142D01*
X0169665Y0039181D01*
X0169731Y0039223D01*
X0169794Y0039269D01*
X0169854Y0039317D01*
X0169912Y0039368D01*
X0169968Y0039423D01*
X0170021Y0039479D01*
X0170071Y0039539D01*
X0170117Y0039601D01*
X0170161Y0039665D01*
X0170202Y0039731D01*
X0170239Y0039799D01*
X0170272Y0039869D01*
X0170302Y0039941D01*
X0170329Y0040013D01*
X0170352Y0040088D01*
X0170371Y0040163D01*
X0170386Y0040239D01*
X0170398Y0040316D01*
X0170406Y0040393D01*
X0170410Y0040470D01*
X0170410Y0040548D01*
X0170406Y0040625D01*
X0170398Y0040702D01*
X0170386Y0040779D01*
X0170371Y0040855D01*
X0170352Y0040930D01*
X0170329Y0041005D01*
X0170302Y0041077D01*
X0170272Y0041149D01*
X0170239Y0041219D01*
X0170202Y0041287D01*
X0170161Y0041353D01*
X0170117Y0041417D01*
X0170071Y0041479D01*
X0170021Y0041539D01*
X0169968Y0041595D01*
X0169912Y0041650D01*
X0169854Y0041701D01*
X0169794Y0041749D01*
X0169731Y0041795D01*
X0169665Y0041837D01*
X0169598Y0041876D01*
X0169529Y0041911D01*
X0169458Y0041943D01*
X0169386Y0041971D01*
X0169313Y0041996D01*
X0169238Y0042017D01*
X0169162Y0042034D01*
X0169086Y0042048D01*
X0169009Y0042057D01*
X0168932Y0042063D01*
X0168854Y0042065D01*
X0166910Y0042065D01*
X0227933Y0042065D02*
X0227933Y0035065D01*
X0231044Y0035065D01*
X0255492Y0024348D02*
X0255492Y0017348D01*
X0257437Y0017348D01*
X0257524Y0017350D01*
X0257611Y0017356D01*
X0257698Y0017366D01*
X0257784Y0017379D01*
X0257870Y0017397D01*
X0257954Y0017418D01*
X0258038Y0017443D01*
X0258120Y0017472D01*
X0258201Y0017504D01*
X0258280Y0017541D01*
X0258358Y0017580D01*
X0258434Y0017623D01*
X0258508Y0017670D01*
X0258580Y0017719D01*
X0258649Y0017772D01*
X0258716Y0017828D01*
X0258780Y0017887D01*
X0258842Y0017949D01*
X0258901Y0018013D01*
X0258957Y0018080D01*
X0259010Y0018149D01*
X0259059Y0018221D01*
X0259106Y0018295D01*
X0259149Y0018371D01*
X0259188Y0018449D01*
X0259225Y0018528D01*
X0259257Y0018609D01*
X0259286Y0018691D01*
X0259311Y0018775D01*
X0259332Y0018859D01*
X0259350Y0018945D01*
X0259363Y0019031D01*
X0259373Y0019118D01*
X0259379Y0019205D01*
X0259381Y0019292D01*
X0259381Y0022404D01*
X0259379Y0022491D01*
X0259373Y0022578D01*
X0259363Y0022665D01*
X0259350Y0022751D01*
X0259332Y0022837D01*
X0259311Y0022921D01*
X0259286Y0023005D01*
X0259257Y0023087D01*
X0259225Y0023168D01*
X0259188Y0023247D01*
X0259149Y0023325D01*
X0259106Y0023401D01*
X0259059Y0023475D01*
X0259010Y0023547D01*
X0258957Y0023616D01*
X0258901Y0023683D01*
X0258842Y0023747D01*
X0258780Y0023809D01*
X0258716Y0023868D01*
X0258649Y0023924D01*
X0258580Y0023977D01*
X0258508Y0024026D01*
X0258434Y0024073D01*
X0258358Y0024116D01*
X0258280Y0024155D01*
X0258201Y0024192D01*
X0258120Y0024224D01*
X0258038Y0024253D01*
X0257954Y0024278D01*
X0257870Y0024299D01*
X0257784Y0024317D01*
X0257698Y0024330D01*
X0257611Y0024340D01*
X0257524Y0024346D01*
X0257437Y0024348D01*
X0255492Y0024348D01*
X0348012Y0035065D02*
X0348012Y0042065D01*
X0349956Y0042065D01*
X0349956Y0042064D02*
X0350043Y0042062D01*
X0350130Y0042056D01*
X0350217Y0042046D01*
X0350303Y0042033D01*
X0350389Y0042015D01*
X0350473Y0041994D01*
X0350557Y0041969D01*
X0350639Y0041940D01*
X0350720Y0041908D01*
X0350799Y0041871D01*
X0350877Y0041832D01*
X0350953Y0041789D01*
X0351027Y0041742D01*
X0351099Y0041693D01*
X0351168Y0041640D01*
X0351235Y0041584D01*
X0351299Y0041525D01*
X0351361Y0041463D01*
X0351420Y0041399D01*
X0351476Y0041332D01*
X0351529Y0041263D01*
X0351578Y0041191D01*
X0351625Y0041117D01*
X0351668Y0041041D01*
X0351707Y0040963D01*
X0351744Y0040884D01*
X0351776Y0040803D01*
X0351805Y0040721D01*
X0351830Y0040637D01*
X0351851Y0040553D01*
X0351869Y0040467D01*
X0351882Y0040381D01*
X0351892Y0040294D01*
X0351898Y0040207D01*
X0351900Y0040120D01*
X0351898Y0040033D01*
X0351892Y0039946D01*
X0351882Y0039859D01*
X0351869Y0039773D01*
X0351851Y0039687D01*
X0351830Y0039603D01*
X0351805Y0039519D01*
X0351776Y0039437D01*
X0351744Y0039356D01*
X0351707Y0039277D01*
X0351668Y0039199D01*
X0351625Y0039123D01*
X0351578Y0039049D01*
X0351529Y0038977D01*
X0351476Y0038908D01*
X0351420Y0038841D01*
X0351361Y0038777D01*
X0351299Y0038715D01*
X0351235Y0038656D01*
X0351168Y0038600D01*
X0351099Y0038547D01*
X0351027Y0038498D01*
X0350953Y0038451D01*
X0350877Y0038408D01*
X0350799Y0038369D01*
X0350720Y0038332D01*
X0350639Y0038300D01*
X0350557Y0038271D01*
X0350473Y0038246D01*
X0350389Y0038225D01*
X0350303Y0038207D01*
X0350217Y0038194D01*
X0350130Y0038184D01*
X0350043Y0038178D01*
X0349956Y0038176D01*
X0348012Y0038176D01*
X0350345Y0038176D02*
X0351901Y0035065D01*
X0407067Y0036620D02*
X0407067Y0040509D01*
X0407069Y0040588D01*
X0407075Y0040666D01*
X0407085Y0040745D01*
X0407099Y0040822D01*
X0407117Y0040899D01*
X0407138Y0040975D01*
X0407164Y0041049D01*
X0407193Y0041123D01*
X0407226Y0041194D01*
X0407263Y0041264D01*
X0407303Y0041332D01*
X0407346Y0041398D01*
X0407393Y0041461D01*
X0407442Y0041523D01*
X0407495Y0041581D01*
X0407551Y0041637D01*
X0407609Y0041690D01*
X0407671Y0041739D01*
X0407734Y0041786D01*
X0407800Y0041829D01*
X0407868Y0041869D01*
X0407938Y0041906D01*
X0408009Y0041939D01*
X0408083Y0041968D01*
X0408157Y0041994D01*
X0408233Y0042015D01*
X0408310Y0042033D01*
X0408387Y0042047D01*
X0408466Y0042057D01*
X0408544Y0042063D01*
X0408623Y0042065D01*
X0410178Y0042065D01*
X0407067Y0036620D02*
X0407069Y0036544D01*
X0407074Y0036467D01*
X0407084Y0036392D01*
X0407097Y0036316D01*
X0407114Y0036242D01*
X0407134Y0036168D01*
X0407158Y0036096D01*
X0407185Y0036025D01*
X0407216Y0035955D01*
X0407251Y0035887D01*
X0407288Y0035820D01*
X0407329Y0035756D01*
X0407373Y0035693D01*
X0407420Y0035633D01*
X0407470Y0035575D01*
X0407523Y0035520D01*
X0407578Y0035467D01*
X0407636Y0035417D01*
X0407696Y0035370D01*
X0407759Y0035326D01*
X0407823Y0035285D01*
X0407890Y0035248D01*
X0407958Y0035213D01*
X0408028Y0035182D01*
X0408099Y0035155D01*
X0408171Y0035131D01*
X0408245Y0035111D01*
X0408319Y0035094D01*
X0408395Y0035081D01*
X0408470Y0035071D01*
X0408547Y0035066D01*
X0408623Y0035064D01*
X0408623Y0035065D02*
X0410178Y0035065D01*
X0398342Y0113800D02*
X0398345Y0114045D01*
X0398354Y0114291D01*
X0398369Y0114536D01*
X0398390Y0114780D01*
X0398417Y0115024D01*
X0398450Y0115267D01*
X0398489Y0115510D01*
X0398534Y0115751D01*
X0398585Y0115991D01*
X0398642Y0116230D01*
X0398704Y0116467D01*
X0398773Y0116703D01*
X0398847Y0116937D01*
X0398927Y0117169D01*
X0399012Y0117399D01*
X0399103Y0117627D01*
X0399200Y0117852D01*
X0399302Y0118076D01*
X0399410Y0118296D01*
X0399523Y0118514D01*
X0399641Y0118729D01*
X0399765Y0118941D01*
X0399893Y0119150D01*
X0400027Y0119356D01*
X0400166Y0119558D01*
X0400310Y0119757D01*
X0400459Y0119952D01*
X0400612Y0120144D01*
X0400770Y0120332D01*
X0400932Y0120516D01*
X0401100Y0120695D01*
X0401271Y0120871D01*
X0401447Y0121042D01*
X0401626Y0121210D01*
X0401810Y0121372D01*
X0401998Y0121530D01*
X0402190Y0121683D01*
X0402385Y0121832D01*
X0402584Y0121976D01*
X0402786Y0122115D01*
X0402992Y0122249D01*
X0403201Y0122377D01*
X0403413Y0122501D01*
X0403628Y0122619D01*
X0403846Y0122732D01*
X0404066Y0122840D01*
X0404290Y0122942D01*
X0404515Y0123039D01*
X0404743Y0123130D01*
X0404973Y0123215D01*
X0405205Y0123295D01*
X0405439Y0123369D01*
X0405675Y0123438D01*
X0405912Y0123500D01*
X0406151Y0123557D01*
X0406391Y0123608D01*
X0406632Y0123653D01*
X0406875Y0123692D01*
X0407118Y0123725D01*
X0407362Y0123752D01*
X0407606Y0123773D01*
X0407851Y0123788D01*
X0408097Y0123797D01*
X0408342Y0123800D01*
X0408587Y0123797D01*
X0408833Y0123788D01*
X0409078Y0123773D01*
X0409322Y0123752D01*
X0409566Y0123725D01*
X0409809Y0123692D01*
X0410052Y0123653D01*
X0410293Y0123608D01*
X0410533Y0123557D01*
X0410772Y0123500D01*
X0411009Y0123438D01*
X0411245Y0123369D01*
X0411479Y0123295D01*
X0411711Y0123215D01*
X0411941Y0123130D01*
X0412169Y0123039D01*
X0412394Y0122942D01*
X0412618Y0122840D01*
X0412838Y0122732D01*
X0413056Y0122619D01*
X0413271Y0122501D01*
X0413483Y0122377D01*
X0413692Y0122249D01*
X0413898Y0122115D01*
X0414100Y0121976D01*
X0414299Y0121832D01*
X0414494Y0121683D01*
X0414686Y0121530D01*
X0414874Y0121372D01*
X0415058Y0121210D01*
X0415237Y0121042D01*
X0415413Y0120871D01*
X0415584Y0120695D01*
X0415752Y0120516D01*
X0415914Y0120332D01*
X0416072Y0120144D01*
X0416225Y0119952D01*
X0416374Y0119757D01*
X0416518Y0119558D01*
X0416657Y0119356D01*
X0416791Y0119150D01*
X0416919Y0118941D01*
X0417043Y0118729D01*
X0417161Y0118514D01*
X0417274Y0118296D01*
X0417382Y0118076D01*
X0417484Y0117852D01*
X0417581Y0117627D01*
X0417672Y0117399D01*
X0417757Y0117169D01*
X0417837Y0116937D01*
X0417911Y0116703D01*
X0417980Y0116467D01*
X0418042Y0116230D01*
X0418099Y0115991D01*
X0418150Y0115751D01*
X0418195Y0115510D01*
X0418234Y0115267D01*
X0418267Y0115024D01*
X0418294Y0114780D01*
X0418315Y0114536D01*
X0418330Y0114291D01*
X0418339Y0114045D01*
X0418342Y0113800D01*
X0418339Y0113555D01*
X0418330Y0113309D01*
X0418315Y0113064D01*
X0418294Y0112820D01*
X0418267Y0112576D01*
X0418234Y0112333D01*
X0418195Y0112090D01*
X0418150Y0111849D01*
X0418099Y0111609D01*
X0418042Y0111370D01*
X0417980Y0111133D01*
X0417911Y0110897D01*
X0417837Y0110663D01*
X0417757Y0110431D01*
X0417672Y0110201D01*
X0417581Y0109973D01*
X0417484Y0109748D01*
X0417382Y0109524D01*
X0417274Y0109304D01*
X0417161Y0109086D01*
X0417043Y0108871D01*
X0416919Y0108659D01*
X0416791Y0108450D01*
X0416657Y0108244D01*
X0416518Y0108042D01*
X0416374Y0107843D01*
X0416225Y0107648D01*
X0416072Y0107456D01*
X0415914Y0107268D01*
X0415752Y0107084D01*
X0415584Y0106905D01*
X0415413Y0106729D01*
X0415237Y0106558D01*
X0415058Y0106390D01*
X0414874Y0106228D01*
X0414686Y0106070D01*
X0414494Y0105917D01*
X0414299Y0105768D01*
X0414100Y0105624D01*
X0413898Y0105485D01*
X0413692Y0105351D01*
X0413483Y0105223D01*
X0413271Y0105099D01*
X0413056Y0104981D01*
X0412838Y0104868D01*
X0412618Y0104760D01*
X0412394Y0104658D01*
X0412169Y0104561D01*
X0411941Y0104470D01*
X0411711Y0104385D01*
X0411479Y0104305D01*
X0411245Y0104231D01*
X0411009Y0104162D01*
X0410772Y0104100D01*
X0410533Y0104043D01*
X0410293Y0103992D01*
X0410052Y0103947D01*
X0409809Y0103908D01*
X0409566Y0103875D01*
X0409322Y0103848D01*
X0409078Y0103827D01*
X0408833Y0103812D01*
X0408587Y0103803D01*
X0408342Y0103800D01*
X0408097Y0103803D01*
X0407851Y0103812D01*
X0407606Y0103827D01*
X0407362Y0103848D01*
X0407118Y0103875D01*
X0406875Y0103908D01*
X0406632Y0103947D01*
X0406391Y0103992D01*
X0406151Y0104043D01*
X0405912Y0104100D01*
X0405675Y0104162D01*
X0405439Y0104231D01*
X0405205Y0104305D01*
X0404973Y0104385D01*
X0404743Y0104470D01*
X0404515Y0104561D01*
X0404290Y0104658D01*
X0404066Y0104760D01*
X0403846Y0104868D01*
X0403628Y0104981D01*
X0403413Y0105099D01*
X0403201Y0105223D01*
X0402992Y0105351D01*
X0402786Y0105485D01*
X0402584Y0105624D01*
X0402385Y0105768D01*
X0402190Y0105917D01*
X0401998Y0106070D01*
X0401810Y0106228D01*
X0401626Y0106390D01*
X0401447Y0106558D01*
X0401271Y0106729D01*
X0401100Y0106905D01*
X0400932Y0107084D01*
X0400770Y0107268D01*
X0400612Y0107456D01*
X0400459Y0107648D01*
X0400310Y0107843D01*
X0400166Y0108042D01*
X0400027Y0108244D01*
X0399893Y0108450D01*
X0399765Y0108659D01*
X0399641Y0108871D01*
X0399523Y0109086D01*
X0399410Y0109304D01*
X0399302Y0109524D01*
X0399200Y0109748D01*
X0399103Y0109973D01*
X0399012Y0110201D01*
X0398927Y0110431D01*
X0398847Y0110663D01*
X0398773Y0110897D01*
X0398704Y0111133D01*
X0398642Y0111370D01*
X0398585Y0111609D01*
X0398534Y0111849D01*
X0398489Y0112090D01*
X0398450Y0112333D01*
X0398417Y0112576D01*
X0398390Y0112820D01*
X0398369Y0113064D01*
X0398354Y0113309D01*
X0398345Y0113555D01*
X0398342Y0113800D01*
X0368342Y0113800D02*
X0368345Y0114045D01*
X0368354Y0114291D01*
X0368369Y0114536D01*
X0368390Y0114780D01*
X0368417Y0115024D01*
X0368450Y0115267D01*
X0368489Y0115510D01*
X0368534Y0115751D01*
X0368585Y0115991D01*
X0368642Y0116230D01*
X0368704Y0116467D01*
X0368773Y0116703D01*
X0368847Y0116937D01*
X0368927Y0117169D01*
X0369012Y0117399D01*
X0369103Y0117627D01*
X0369200Y0117852D01*
X0369302Y0118076D01*
X0369410Y0118296D01*
X0369523Y0118514D01*
X0369641Y0118729D01*
X0369765Y0118941D01*
X0369893Y0119150D01*
X0370027Y0119356D01*
X0370166Y0119558D01*
X0370310Y0119757D01*
X0370459Y0119952D01*
X0370612Y0120144D01*
X0370770Y0120332D01*
X0370932Y0120516D01*
X0371100Y0120695D01*
X0371271Y0120871D01*
X0371447Y0121042D01*
X0371626Y0121210D01*
X0371810Y0121372D01*
X0371998Y0121530D01*
X0372190Y0121683D01*
X0372385Y0121832D01*
X0372584Y0121976D01*
X0372786Y0122115D01*
X0372992Y0122249D01*
X0373201Y0122377D01*
X0373413Y0122501D01*
X0373628Y0122619D01*
X0373846Y0122732D01*
X0374066Y0122840D01*
X0374290Y0122942D01*
X0374515Y0123039D01*
X0374743Y0123130D01*
X0374973Y0123215D01*
X0375205Y0123295D01*
X0375439Y0123369D01*
X0375675Y0123438D01*
X0375912Y0123500D01*
X0376151Y0123557D01*
X0376391Y0123608D01*
X0376632Y0123653D01*
X0376875Y0123692D01*
X0377118Y0123725D01*
X0377362Y0123752D01*
X0377606Y0123773D01*
X0377851Y0123788D01*
X0378097Y0123797D01*
X0378342Y0123800D01*
X0378587Y0123797D01*
X0378833Y0123788D01*
X0379078Y0123773D01*
X0379322Y0123752D01*
X0379566Y0123725D01*
X0379809Y0123692D01*
X0380052Y0123653D01*
X0380293Y0123608D01*
X0380533Y0123557D01*
X0380772Y0123500D01*
X0381009Y0123438D01*
X0381245Y0123369D01*
X0381479Y0123295D01*
X0381711Y0123215D01*
X0381941Y0123130D01*
X0382169Y0123039D01*
X0382394Y0122942D01*
X0382618Y0122840D01*
X0382838Y0122732D01*
X0383056Y0122619D01*
X0383271Y0122501D01*
X0383483Y0122377D01*
X0383692Y0122249D01*
X0383898Y0122115D01*
X0384100Y0121976D01*
X0384299Y0121832D01*
X0384494Y0121683D01*
X0384686Y0121530D01*
X0384874Y0121372D01*
X0385058Y0121210D01*
X0385237Y0121042D01*
X0385413Y0120871D01*
X0385584Y0120695D01*
X0385752Y0120516D01*
X0385914Y0120332D01*
X0386072Y0120144D01*
X0386225Y0119952D01*
X0386374Y0119757D01*
X0386518Y0119558D01*
X0386657Y0119356D01*
X0386791Y0119150D01*
X0386919Y0118941D01*
X0387043Y0118729D01*
X0387161Y0118514D01*
X0387274Y0118296D01*
X0387382Y0118076D01*
X0387484Y0117852D01*
X0387581Y0117627D01*
X0387672Y0117399D01*
X0387757Y0117169D01*
X0387837Y0116937D01*
X0387911Y0116703D01*
X0387980Y0116467D01*
X0388042Y0116230D01*
X0388099Y0115991D01*
X0388150Y0115751D01*
X0388195Y0115510D01*
X0388234Y0115267D01*
X0388267Y0115024D01*
X0388294Y0114780D01*
X0388315Y0114536D01*
X0388330Y0114291D01*
X0388339Y0114045D01*
X0388342Y0113800D01*
X0388339Y0113555D01*
X0388330Y0113309D01*
X0388315Y0113064D01*
X0388294Y0112820D01*
X0388267Y0112576D01*
X0388234Y0112333D01*
X0388195Y0112090D01*
X0388150Y0111849D01*
X0388099Y0111609D01*
X0388042Y0111370D01*
X0387980Y0111133D01*
X0387911Y0110897D01*
X0387837Y0110663D01*
X0387757Y0110431D01*
X0387672Y0110201D01*
X0387581Y0109973D01*
X0387484Y0109748D01*
X0387382Y0109524D01*
X0387274Y0109304D01*
X0387161Y0109086D01*
X0387043Y0108871D01*
X0386919Y0108659D01*
X0386791Y0108450D01*
X0386657Y0108244D01*
X0386518Y0108042D01*
X0386374Y0107843D01*
X0386225Y0107648D01*
X0386072Y0107456D01*
X0385914Y0107268D01*
X0385752Y0107084D01*
X0385584Y0106905D01*
X0385413Y0106729D01*
X0385237Y0106558D01*
X0385058Y0106390D01*
X0384874Y0106228D01*
X0384686Y0106070D01*
X0384494Y0105917D01*
X0384299Y0105768D01*
X0384100Y0105624D01*
X0383898Y0105485D01*
X0383692Y0105351D01*
X0383483Y0105223D01*
X0383271Y0105099D01*
X0383056Y0104981D01*
X0382838Y0104868D01*
X0382618Y0104760D01*
X0382394Y0104658D01*
X0382169Y0104561D01*
X0381941Y0104470D01*
X0381711Y0104385D01*
X0381479Y0104305D01*
X0381245Y0104231D01*
X0381009Y0104162D01*
X0380772Y0104100D01*
X0380533Y0104043D01*
X0380293Y0103992D01*
X0380052Y0103947D01*
X0379809Y0103908D01*
X0379566Y0103875D01*
X0379322Y0103848D01*
X0379078Y0103827D01*
X0378833Y0103812D01*
X0378587Y0103803D01*
X0378342Y0103800D01*
X0378097Y0103803D01*
X0377851Y0103812D01*
X0377606Y0103827D01*
X0377362Y0103848D01*
X0377118Y0103875D01*
X0376875Y0103908D01*
X0376632Y0103947D01*
X0376391Y0103992D01*
X0376151Y0104043D01*
X0375912Y0104100D01*
X0375675Y0104162D01*
X0375439Y0104231D01*
X0375205Y0104305D01*
X0374973Y0104385D01*
X0374743Y0104470D01*
X0374515Y0104561D01*
X0374290Y0104658D01*
X0374066Y0104760D01*
X0373846Y0104868D01*
X0373628Y0104981D01*
X0373413Y0105099D01*
X0373201Y0105223D01*
X0372992Y0105351D01*
X0372786Y0105485D01*
X0372584Y0105624D01*
X0372385Y0105768D01*
X0372190Y0105917D01*
X0371998Y0106070D01*
X0371810Y0106228D01*
X0371626Y0106390D01*
X0371447Y0106558D01*
X0371271Y0106729D01*
X0371100Y0106905D01*
X0370932Y0107084D01*
X0370770Y0107268D01*
X0370612Y0107456D01*
X0370459Y0107648D01*
X0370310Y0107843D01*
X0370166Y0108042D01*
X0370027Y0108244D01*
X0369893Y0108450D01*
X0369765Y0108659D01*
X0369641Y0108871D01*
X0369523Y0109086D01*
X0369410Y0109304D01*
X0369302Y0109524D01*
X0369200Y0109748D01*
X0369103Y0109973D01*
X0369012Y0110201D01*
X0368927Y0110431D01*
X0368847Y0110663D01*
X0368773Y0110897D01*
X0368704Y0111133D01*
X0368642Y0111370D01*
X0368585Y0111609D01*
X0368534Y0111849D01*
X0368489Y0112090D01*
X0368450Y0112333D01*
X0368417Y0112576D01*
X0368390Y0112820D01*
X0368369Y0113064D01*
X0368354Y0113309D01*
X0368345Y0113555D01*
X0368342Y0113800D01*
X0338342Y0113800D02*
X0338345Y0114045D01*
X0338354Y0114291D01*
X0338369Y0114536D01*
X0338390Y0114780D01*
X0338417Y0115024D01*
X0338450Y0115267D01*
X0338489Y0115510D01*
X0338534Y0115751D01*
X0338585Y0115991D01*
X0338642Y0116230D01*
X0338704Y0116467D01*
X0338773Y0116703D01*
X0338847Y0116937D01*
X0338927Y0117169D01*
X0339012Y0117399D01*
X0339103Y0117627D01*
X0339200Y0117852D01*
X0339302Y0118076D01*
X0339410Y0118296D01*
X0339523Y0118514D01*
X0339641Y0118729D01*
X0339765Y0118941D01*
X0339893Y0119150D01*
X0340027Y0119356D01*
X0340166Y0119558D01*
X0340310Y0119757D01*
X0340459Y0119952D01*
X0340612Y0120144D01*
X0340770Y0120332D01*
X0340932Y0120516D01*
X0341100Y0120695D01*
X0341271Y0120871D01*
X0341447Y0121042D01*
X0341626Y0121210D01*
X0341810Y0121372D01*
X0341998Y0121530D01*
X0342190Y0121683D01*
X0342385Y0121832D01*
X0342584Y0121976D01*
X0342786Y0122115D01*
X0342992Y0122249D01*
X0343201Y0122377D01*
X0343413Y0122501D01*
X0343628Y0122619D01*
X0343846Y0122732D01*
X0344066Y0122840D01*
X0344290Y0122942D01*
X0344515Y0123039D01*
X0344743Y0123130D01*
X0344973Y0123215D01*
X0345205Y0123295D01*
X0345439Y0123369D01*
X0345675Y0123438D01*
X0345912Y0123500D01*
X0346151Y0123557D01*
X0346391Y0123608D01*
X0346632Y0123653D01*
X0346875Y0123692D01*
X0347118Y0123725D01*
X0347362Y0123752D01*
X0347606Y0123773D01*
X0347851Y0123788D01*
X0348097Y0123797D01*
X0348342Y0123800D01*
X0348587Y0123797D01*
X0348833Y0123788D01*
X0349078Y0123773D01*
X0349322Y0123752D01*
X0349566Y0123725D01*
X0349809Y0123692D01*
X0350052Y0123653D01*
X0350293Y0123608D01*
X0350533Y0123557D01*
X0350772Y0123500D01*
X0351009Y0123438D01*
X0351245Y0123369D01*
X0351479Y0123295D01*
X0351711Y0123215D01*
X0351941Y0123130D01*
X0352169Y0123039D01*
X0352394Y0122942D01*
X0352618Y0122840D01*
X0352838Y0122732D01*
X0353056Y0122619D01*
X0353271Y0122501D01*
X0353483Y0122377D01*
X0353692Y0122249D01*
X0353898Y0122115D01*
X0354100Y0121976D01*
X0354299Y0121832D01*
X0354494Y0121683D01*
X0354686Y0121530D01*
X0354874Y0121372D01*
X0355058Y0121210D01*
X0355237Y0121042D01*
X0355413Y0120871D01*
X0355584Y0120695D01*
X0355752Y0120516D01*
X0355914Y0120332D01*
X0356072Y0120144D01*
X0356225Y0119952D01*
X0356374Y0119757D01*
X0356518Y0119558D01*
X0356657Y0119356D01*
X0356791Y0119150D01*
X0356919Y0118941D01*
X0357043Y0118729D01*
X0357161Y0118514D01*
X0357274Y0118296D01*
X0357382Y0118076D01*
X0357484Y0117852D01*
X0357581Y0117627D01*
X0357672Y0117399D01*
X0357757Y0117169D01*
X0357837Y0116937D01*
X0357911Y0116703D01*
X0357980Y0116467D01*
X0358042Y0116230D01*
X0358099Y0115991D01*
X0358150Y0115751D01*
X0358195Y0115510D01*
X0358234Y0115267D01*
X0358267Y0115024D01*
X0358294Y0114780D01*
X0358315Y0114536D01*
X0358330Y0114291D01*
X0358339Y0114045D01*
X0358342Y0113800D01*
X0358339Y0113555D01*
X0358330Y0113309D01*
X0358315Y0113064D01*
X0358294Y0112820D01*
X0358267Y0112576D01*
X0358234Y0112333D01*
X0358195Y0112090D01*
X0358150Y0111849D01*
X0358099Y0111609D01*
X0358042Y0111370D01*
X0357980Y0111133D01*
X0357911Y0110897D01*
X0357837Y0110663D01*
X0357757Y0110431D01*
X0357672Y0110201D01*
X0357581Y0109973D01*
X0357484Y0109748D01*
X0357382Y0109524D01*
X0357274Y0109304D01*
X0357161Y0109086D01*
X0357043Y0108871D01*
X0356919Y0108659D01*
X0356791Y0108450D01*
X0356657Y0108244D01*
X0356518Y0108042D01*
X0356374Y0107843D01*
X0356225Y0107648D01*
X0356072Y0107456D01*
X0355914Y0107268D01*
X0355752Y0107084D01*
X0355584Y0106905D01*
X0355413Y0106729D01*
X0355237Y0106558D01*
X0355058Y0106390D01*
X0354874Y0106228D01*
X0354686Y0106070D01*
X0354494Y0105917D01*
X0354299Y0105768D01*
X0354100Y0105624D01*
X0353898Y0105485D01*
X0353692Y0105351D01*
X0353483Y0105223D01*
X0353271Y0105099D01*
X0353056Y0104981D01*
X0352838Y0104868D01*
X0352618Y0104760D01*
X0352394Y0104658D01*
X0352169Y0104561D01*
X0351941Y0104470D01*
X0351711Y0104385D01*
X0351479Y0104305D01*
X0351245Y0104231D01*
X0351009Y0104162D01*
X0350772Y0104100D01*
X0350533Y0104043D01*
X0350293Y0103992D01*
X0350052Y0103947D01*
X0349809Y0103908D01*
X0349566Y0103875D01*
X0349322Y0103848D01*
X0349078Y0103827D01*
X0348833Y0103812D01*
X0348587Y0103803D01*
X0348342Y0103800D01*
X0348097Y0103803D01*
X0347851Y0103812D01*
X0347606Y0103827D01*
X0347362Y0103848D01*
X0347118Y0103875D01*
X0346875Y0103908D01*
X0346632Y0103947D01*
X0346391Y0103992D01*
X0346151Y0104043D01*
X0345912Y0104100D01*
X0345675Y0104162D01*
X0345439Y0104231D01*
X0345205Y0104305D01*
X0344973Y0104385D01*
X0344743Y0104470D01*
X0344515Y0104561D01*
X0344290Y0104658D01*
X0344066Y0104760D01*
X0343846Y0104868D01*
X0343628Y0104981D01*
X0343413Y0105099D01*
X0343201Y0105223D01*
X0342992Y0105351D01*
X0342786Y0105485D01*
X0342584Y0105624D01*
X0342385Y0105768D01*
X0342190Y0105917D01*
X0341998Y0106070D01*
X0341810Y0106228D01*
X0341626Y0106390D01*
X0341447Y0106558D01*
X0341271Y0106729D01*
X0341100Y0106905D01*
X0340932Y0107084D01*
X0340770Y0107268D01*
X0340612Y0107456D01*
X0340459Y0107648D01*
X0340310Y0107843D01*
X0340166Y0108042D01*
X0340027Y0108244D01*
X0339893Y0108450D01*
X0339765Y0108659D01*
X0339641Y0108871D01*
X0339523Y0109086D01*
X0339410Y0109304D01*
X0339302Y0109524D01*
X0339200Y0109748D01*
X0339103Y0109973D01*
X0339012Y0110201D01*
X0338927Y0110431D01*
X0338847Y0110663D01*
X0338773Y0110897D01*
X0338704Y0111133D01*
X0338642Y0111370D01*
X0338585Y0111609D01*
X0338534Y0111849D01*
X0338489Y0112090D01*
X0338450Y0112333D01*
X0338417Y0112576D01*
X0338390Y0112820D01*
X0338369Y0113064D01*
X0338354Y0113309D01*
X0338345Y0113555D01*
X0338342Y0113800D01*
X0322373Y0121655D02*
X0322373Y0126710D01*
X0318484Y0126710D02*
X0318484Y0121655D01*
X0318485Y0121655D02*
X0318487Y0121568D01*
X0318493Y0121481D01*
X0318503Y0121394D01*
X0318516Y0121308D01*
X0318534Y0121222D01*
X0318555Y0121138D01*
X0318580Y0121054D01*
X0318609Y0120972D01*
X0318641Y0120891D01*
X0318678Y0120812D01*
X0318717Y0120734D01*
X0318760Y0120658D01*
X0318807Y0120584D01*
X0318856Y0120512D01*
X0318909Y0120443D01*
X0318965Y0120376D01*
X0319024Y0120312D01*
X0319086Y0120250D01*
X0319150Y0120191D01*
X0319217Y0120135D01*
X0319286Y0120082D01*
X0319358Y0120033D01*
X0319432Y0119986D01*
X0319508Y0119943D01*
X0319586Y0119904D01*
X0319665Y0119867D01*
X0319746Y0119835D01*
X0319828Y0119806D01*
X0319912Y0119781D01*
X0319996Y0119760D01*
X0320082Y0119742D01*
X0320168Y0119729D01*
X0320255Y0119719D01*
X0320342Y0119713D01*
X0320429Y0119711D01*
X0320516Y0119713D01*
X0320603Y0119719D01*
X0320690Y0119729D01*
X0320776Y0119742D01*
X0320862Y0119760D01*
X0320946Y0119781D01*
X0321030Y0119806D01*
X0321112Y0119835D01*
X0321193Y0119867D01*
X0321272Y0119904D01*
X0321350Y0119943D01*
X0321426Y0119986D01*
X0321500Y0120033D01*
X0321572Y0120082D01*
X0321641Y0120135D01*
X0321708Y0120191D01*
X0321772Y0120250D01*
X0321834Y0120312D01*
X0321893Y0120376D01*
X0321949Y0120443D01*
X0322002Y0120512D01*
X0322051Y0120584D01*
X0322098Y0120658D01*
X0322141Y0120734D01*
X0322180Y0120812D01*
X0322217Y0120891D01*
X0322249Y0120972D01*
X0322278Y0121054D01*
X0322303Y0121138D01*
X0322324Y0121222D01*
X0322342Y0121308D01*
X0322355Y0121394D01*
X0322365Y0121481D01*
X0322371Y0121568D01*
X0322373Y0121655D01*
X0355972Y0156143D02*
X0361972Y0156143D01*
X0362032Y0156145D01*
X0362093Y0156150D01*
X0362152Y0156159D01*
X0362211Y0156172D01*
X0362270Y0156188D01*
X0362327Y0156208D01*
X0362382Y0156231D01*
X0362437Y0156258D01*
X0362489Y0156287D01*
X0362540Y0156320D01*
X0362589Y0156356D01*
X0362635Y0156394D01*
X0362679Y0156436D01*
X0362721Y0156480D01*
X0362759Y0156526D01*
X0362795Y0156575D01*
X0362828Y0156626D01*
X0362857Y0156678D01*
X0362884Y0156733D01*
X0362907Y0156788D01*
X0362927Y0156845D01*
X0362943Y0156904D01*
X0362956Y0156963D01*
X0362965Y0157022D01*
X0362970Y0157083D01*
X0362972Y0157143D01*
X0362972Y0158643D01*
X0362472Y0159143D01*
X0362472Y0173143D01*
X0362972Y0173643D01*
X0362972Y0175143D01*
X0362970Y0175203D01*
X0362965Y0175264D01*
X0362956Y0175323D01*
X0362943Y0175382D01*
X0362927Y0175441D01*
X0362907Y0175498D01*
X0362884Y0175553D01*
X0362857Y0175608D01*
X0362828Y0175660D01*
X0362795Y0175711D01*
X0362759Y0175760D01*
X0362721Y0175806D01*
X0362679Y0175850D01*
X0362635Y0175892D01*
X0362589Y0175930D01*
X0362540Y0175966D01*
X0362489Y0175999D01*
X0362437Y0176028D01*
X0362382Y0176055D01*
X0362327Y0176078D01*
X0362270Y0176098D01*
X0362211Y0176114D01*
X0362152Y0176127D01*
X0362093Y0176136D01*
X0362032Y0176141D01*
X0361972Y0176143D01*
X0355972Y0176143D01*
X0355912Y0176141D01*
X0355851Y0176136D01*
X0355792Y0176127D01*
X0355733Y0176114D01*
X0355674Y0176098D01*
X0355617Y0176078D01*
X0355562Y0176055D01*
X0355507Y0176028D01*
X0355455Y0175999D01*
X0355404Y0175966D01*
X0355355Y0175930D01*
X0355309Y0175892D01*
X0355265Y0175850D01*
X0355223Y0175806D01*
X0355185Y0175760D01*
X0355149Y0175711D01*
X0355116Y0175660D01*
X0355087Y0175608D01*
X0355060Y0175553D01*
X0355037Y0175498D01*
X0355017Y0175441D01*
X0355001Y0175382D01*
X0354988Y0175323D01*
X0354979Y0175264D01*
X0354974Y0175203D01*
X0354972Y0175143D01*
X0354972Y0173643D01*
X0355472Y0173143D01*
X0355472Y0159143D01*
X0354972Y0158643D01*
X0354972Y0157143D01*
X0354974Y0157083D01*
X0354979Y0157022D01*
X0354988Y0156963D01*
X0355001Y0156904D01*
X0355017Y0156845D01*
X0355037Y0156788D01*
X0355060Y0156733D01*
X0355087Y0156678D01*
X0355116Y0156626D01*
X0355149Y0156575D01*
X0355185Y0156526D01*
X0355223Y0156480D01*
X0355265Y0156436D01*
X0355309Y0156394D01*
X0355355Y0156356D01*
X0355404Y0156320D01*
X0355455Y0156287D01*
X0355507Y0156258D01*
X0355562Y0156231D01*
X0355617Y0156208D01*
X0355674Y0156188D01*
X0355733Y0156172D01*
X0355792Y0156159D01*
X0355851Y0156150D01*
X0355912Y0156145D01*
X0355972Y0156143D01*
X0369066Y0157143D02*
X0369066Y0158643D01*
X0369566Y0159143D01*
X0369566Y0173143D01*
X0369066Y0173643D01*
X0369066Y0175143D01*
X0369068Y0175203D01*
X0369073Y0175264D01*
X0369082Y0175323D01*
X0369095Y0175382D01*
X0369111Y0175441D01*
X0369131Y0175498D01*
X0369154Y0175553D01*
X0369181Y0175608D01*
X0369210Y0175660D01*
X0369243Y0175711D01*
X0369279Y0175760D01*
X0369317Y0175806D01*
X0369359Y0175850D01*
X0369403Y0175892D01*
X0369449Y0175930D01*
X0369498Y0175966D01*
X0369549Y0175999D01*
X0369601Y0176028D01*
X0369656Y0176055D01*
X0369711Y0176078D01*
X0369768Y0176098D01*
X0369827Y0176114D01*
X0369886Y0176127D01*
X0369945Y0176136D01*
X0370006Y0176141D01*
X0370066Y0176143D01*
X0376066Y0176143D01*
X0376126Y0176141D01*
X0376187Y0176136D01*
X0376246Y0176127D01*
X0376305Y0176114D01*
X0376364Y0176098D01*
X0376421Y0176078D01*
X0376476Y0176055D01*
X0376531Y0176028D01*
X0376583Y0175999D01*
X0376634Y0175966D01*
X0376683Y0175930D01*
X0376729Y0175892D01*
X0376773Y0175850D01*
X0376815Y0175806D01*
X0376853Y0175760D01*
X0376889Y0175711D01*
X0376922Y0175660D01*
X0376951Y0175608D01*
X0376978Y0175553D01*
X0377001Y0175498D01*
X0377021Y0175441D01*
X0377037Y0175382D01*
X0377050Y0175323D01*
X0377059Y0175264D01*
X0377064Y0175203D01*
X0377066Y0175143D01*
X0377066Y0173643D01*
X0376566Y0173143D01*
X0376566Y0159143D01*
X0377066Y0158643D01*
X0377066Y0157143D01*
X0377064Y0157083D01*
X0377059Y0157022D01*
X0377050Y0156963D01*
X0377037Y0156904D01*
X0377021Y0156845D01*
X0377001Y0156788D01*
X0376978Y0156733D01*
X0376951Y0156678D01*
X0376922Y0156626D01*
X0376889Y0156575D01*
X0376853Y0156526D01*
X0376815Y0156480D01*
X0376773Y0156436D01*
X0376729Y0156394D01*
X0376683Y0156356D01*
X0376634Y0156320D01*
X0376583Y0156287D01*
X0376531Y0156258D01*
X0376476Y0156231D01*
X0376421Y0156208D01*
X0376364Y0156188D01*
X0376305Y0156172D01*
X0376246Y0156159D01*
X0376187Y0156150D01*
X0376126Y0156145D01*
X0376066Y0156143D01*
X0370066Y0156143D01*
X0370006Y0156145D01*
X0369945Y0156150D01*
X0369886Y0156159D01*
X0369827Y0156172D01*
X0369768Y0156188D01*
X0369711Y0156208D01*
X0369656Y0156231D01*
X0369601Y0156258D01*
X0369549Y0156287D01*
X0369498Y0156320D01*
X0369449Y0156356D01*
X0369403Y0156394D01*
X0369359Y0156436D01*
X0369317Y0156480D01*
X0369279Y0156526D01*
X0369243Y0156575D01*
X0369210Y0156626D01*
X0369181Y0156678D01*
X0369154Y0156733D01*
X0369131Y0156788D01*
X0369111Y0156845D01*
X0369095Y0156904D01*
X0369082Y0156963D01*
X0369073Y0157022D01*
X0369068Y0157083D01*
X0369066Y0157143D01*
X0383161Y0157143D02*
X0383161Y0158643D01*
X0383661Y0159143D01*
X0383661Y0173143D01*
X0383161Y0173643D01*
X0383161Y0175143D01*
X0383163Y0175203D01*
X0383168Y0175264D01*
X0383177Y0175323D01*
X0383190Y0175382D01*
X0383206Y0175441D01*
X0383226Y0175498D01*
X0383249Y0175553D01*
X0383276Y0175608D01*
X0383305Y0175660D01*
X0383338Y0175711D01*
X0383374Y0175760D01*
X0383412Y0175806D01*
X0383454Y0175850D01*
X0383498Y0175892D01*
X0383544Y0175930D01*
X0383593Y0175966D01*
X0383644Y0175999D01*
X0383696Y0176028D01*
X0383751Y0176055D01*
X0383806Y0176078D01*
X0383863Y0176098D01*
X0383922Y0176114D01*
X0383981Y0176127D01*
X0384040Y0176136D01*
X0384101Y0176141D01*
X0384161Y0176143D01*
X0390161Y0176143D01*
X0390221Y0176141D01*
X0390282Y0176136D01*
X0390341Y0176127D01*
X0390400Y0176114D01*
X0390459Y0176098D01*
X0390516Y0176078D01*
X0390571Y0176055D01*
X0390626Y0176028D01*
X0390678Y0175999D01*
X0390729Y0175966D01*
X0390778Y0175930D01*
X0390824Y0175892D01*
X0390868Y0175850D01*
X0390910Y0175806D01*
X0390948Y0175760D01*
X0390984Y0175711D01*
X0391017Y0175660D01*
X0391046Y0175608D01*
X0391073Y0175553D01*
X0391096Y0175498D01*
X0391116Y0175441D01*
X0391132Y0175382D01*
X0391145Y0175323D01*
X0391154Y0175264D01*
X0391159Y0175203D01*
X0391161Y0175143D01*
X0391161Y0173643D01*
X0390661Y0173143D01*
X0390661Y0159143D01*
X0391161Y0158643D01*
X0391161Y0157143D01*
X0391159Y0157083D01*
X0391154Y0157022D01*
X0391145Y0156963D01*
X0391132Y0156904D01*
X0391116Y0156845D01*
X0391096Y0156788D01*
X0391073Y0156733D01*
X0391046Y0156678D01*
X0391017Y0156626D01*
X0390984Y0156575D01*
X0390948Y0156526D01*
X0390910Y0156480D01*
X0390868Y0156436D01*
X0390824Y0156394D01*
X0390778Y0156356D01*
X0390729Y0156320D01*
X0390678Y0156287D01*
X0390626Y0156258D01*
X0390571Y0156231D01*
X0390516Y0156208D01*
X0390459Y0156188D01*
X0390400Y0156172D01*
X0390341Y0156159D01*
X0390282Y0156150D01*
X0390221Y0156145D01*
X0390161Y0156143D01*
X0384161Y0156143D01*
X0384101Y0156145D01*
X0384040Y0156150D01*
X0383981Y0156159D01*
X0383922Y0156172D01*
X0383863Y0156188D01*
X0383806Y0156208D01*
X0383751Y0156231D01*
X0383696Y0156258D01*
X0383644Y0156287D01*
X0383593Y0156320D01*
X0383544Y0156356D01*
X0383498Y0156394D01*
X0383454Y0156436D01*
X0383412Y0156480D01*
X0383374Y0156526D01*
X0383338Y0156575D01*
X0383305Y0156626D01*
X0383276Y0156678D01*
X0383249Y0156733D01*
X0383226Y0156788D01*
X0383206Y0156845D01*
X0383190Y0156904D01*
X0383177Y0156963D01*
X0383168Y0157022D01*
X0383163Y0157083D01*
X0383161Y0157143D01*
D12*
X0431808Y0194000D02*
X0433342Y0198600D01*
X0434875Y0194000D01*
X0434492Y0195150D02*
X0432192Y0195150D01*
X0244620Y0289000D02*
X0243086Y0289000D01*
X0243024Y0289002D01*
X0242963Y0289007D01*
X0242902Y0289017D01*
X0242841Y0289030D01*
X0242782Y0289046D01*
X0242724Y0289066D01*
X0242667Y0289090D01*
X0242611Y0289117D01*
X0242557Y0289147D01*
X0242505Y0289181D01*
X0242456Y0289217D01*
X0242408Y0289257D01*
X0242363Y0289299D01*
X0242321Y0289344D01*
X0242281Y0289392D01*
X0242245Y0289441D01*
X0242211Y0289493D01*
X0242181Y0289547D01*
X0242154Y0289603D01*
X0242130Y0289660D01*
X0242110Y0289718D01*
X0242094Y0289777D01*
X0242081Y0289838D01*
X0242071Y0289899D01*
X0242066Y0289960D01*
X0242064Y0290022D01*
X0242064Y0292578D01*
X0242066Y0292640D01*
X0242071Y0292701D01*
X0242081Y0292762D01*
X0242094Y0292823D01*
X0242110Y0292882D01*
X0242130Y0292940D01*
X0242154Y0292997D01*
X0242181Y0293053D01*
X0242211Y0293107D01*
X0242245Y0293159D01*
X0242281Y0293208D01*
X0242321Y0293256D01*
X0242363Y0293301D01*
X0242408Y0293343D01*
X0242456Y0293382D01*
X0242505Y0293419D01*
X0242557Y0293453D01*
X0242611Y0293483D01*
X0242667Y0293510D01*
X0242724Y0293534D01*
X0242782Y0293554D01*
X0242841Y0293570D01*
X0242902Y0293583D01*
X0242963Y0293593D01*
X0243024Y0293598D01*
X0243086Y0293600D01*
X0244620Y0293600D01*
X0244620Y0291556D02*
X0244620Y0289000D01*
X0244620Y0291556D02*
X0243853Y0291556D01*
X0234875Y0293600D02*
X0233342Y0291428D01*
X0233342Y0289000D01*
X0233342Y0291428D02*
X0231808Y0293600D01*
X0223342Y0293600D02*
X0222064Y0293600D01*
X0222064Y0289000D01*
X0222064Y0291044D02*
X0223342Y0291044D01*
X0223597Y0291044D02*
X0224620Y0289000D01*
X0223342Y0291044D02*
X0223412Y0291046D01*
X0223483Y0291052D01*
X0223552Y0291061D01*
X0223621Y0291075D01*
X0223690Y0291092D01*
X0223757Y0291113D01*
X0223823Y0291138D01*
X0223887Y0291166D01*
X0223950Y0291198D01*
X0224011Y0291233D01*
X0224070Y0291272D01*
X0224127Y0291313D01*
X0224181Y0291358D01*
X0224233Y0291406D01*
X0224282Y0291456D01*
X0224329Y0291510D01*
X0224372Y0291565D01*
X0224412Y0291623D01*
X0224449Y0291683D01*
X0224482Y0291745D01*
X0224512Y0291809D01*
X0224539Y0291874D01*
X0224562Y0291940D01*
X0224581Y0292008D01*
X0224596Y0292077D01*
X0224608Y0292146D01*
X0224616Y0292216D01*
X0224620Y0292287D01*
X0224620Y0292357D01*
X0224616Y0292428D01*
X0224608Y0292498D01*
X0224596Y0292567D01*
X0224581Y0292636D01*
X0224562Y0292704D01*
X0224539Y0292770D01*
X0224512Y0292835D01*
X0224482Y0292899D01*
X0224449Y0292961D01*
X0224412Y0293021D01*
X0224372Y0293079D01*
X0224329Y0293134D01*
X0224282Y0293188D01*
X0224233Y0293238D01*
X0224181Y0293286D01*
X0224127Y0293331D01*
X0224070Y0293372D01*
X0224011Y0293411D01*
X0223950Y0293446D01*
X0223887Y0293478D01*
X0223823Y0293506D01*
X0223757Y0293531D01*
X0223690Y0293552D01*
X0223621Y0293569D01*
X0223552Y0293583D01*
X0223483Y0293592D01*
X0223412Y0293598D01*
X0223342Y0293600D01*
X0205642Y0295022D02*
X0205642Y0296556D01*
X0203086Y0296556D01*
X0203086Y0295789D01*
X0202064Y0294000D02*
X0202002Y0294002D01*
X0201941Y0294007D01*
X0201880Y0294017D01*
X0201819Y0294030D01*
X0201760Y0294046D01*
X0201702Y0294066D01*
X0201645Y0294090D01*
X0201589Y0294117D01*
X0201535Y0294147D01*
X0201483Y0294181D01*
X0201434Y0294217D01*
X0201386Y0294257D01*
X0201341Y0294299D01*
X0201299Y0294344D01*
X0201260Y0294392D01*
X0201223Y0294441D01*
X0201189Y0294493D01*
X0201159Y0294547D01*
X0201132Y0294603D01*
X0201108Y0294660D01*
X0201088Y0294718D01*
X0201072Y0294777D01*
X0201059Y0294838D01*
X0201049Y0294899D01*
X0201044Y0294960D01*
X0201042Y0295022D01*
X0201042Y0296556D01*
X0201042Y0298800D02*
X0205642Y0301356D01*
X0201042Y0301356D01*
X0201042Y0303600D02*
X0201042Y0304878D01*
X0201044Y0304947D01*
X0201049Y0305016D01*
X0201059Y0305085D01*
X0201072Y0305153D01*
X0201089Y0305220D01*
X0201109Y0305286D01*
X0201133Y0305351D01*
X0201160Y0305415D01*
X0201191Y0305477D01*
X0201225Y0305537D01*
X0201262Y0305595D01*
X0201303Y0305651D01*
X0201346Y0305705D01*
X0201392Y0305757D01*
X0201441Y0305806D01*
X0201493Y0305852D01*
X0201547Y0305895D01*
X0201603Y0305936D01*
X0201661Y0305973D01*
X0201721Y0306007D01*
X0201783Y0306038D01*
X0201847Y0306065D01*
X0201912Y0306089D01*
X0201978Y0306109D01*
X0202045Y0306126D01*
X0202113Y0306139D01*
X0202182Y0306149D01*
X0202251Y0306154D01*
X0202320Y0306156D01*
X0204364Y0306156D01*
X0204433Y0306154D01*
X0204502Y0306149D01*
X0204571Y0306139D01*
X0204639Y0306126D01*
X0204706Y0306109D01*
X0204772Y0306089D01*
X0204837Y0306065D01*
X0204901Y0306038D01*
X0204963Y0306007D01*
X0205023Y0305973D01*
X0205081Y0305936D01*
X0205137Y0305895D01*
X0205191Y0305852D01*
X0205243Y0305806D01*
X0205292Y0305757D01*
X0205338Y0305705D01*
X0205381Y0305651D01*
X0205422Y0305595D01*
X0205459Y0305537D01*
X0205493Y0305477D01*
X0205524Y0305415D01*
X0205551Y0305351D01*
X0205575Y0305286D01*
X0205595Y0305220D01*
X0205612Y0305153D01*
X0205625Y0305085D01*
X0205635Y0305016D01*
X0205640Y0304947D01*
X0205642Y0304878D01*
X0205642Y0303600D01*
X0201042Y0303600D01*
X0201042Y0298800D02*
X0205642Y0298800D01*
X0205642Y0295022D02*
X0205640Y0294960D01*
X0205635Y0294899D01*
X0205625Y0294838D01*
X0205612Y0294777D01*
X0205596Y0294718D01*
X0205576Y0294660D01*
X0205552Y0294603D01*
X0205525Y0294547D01*
X0205495Y0294493D01*
X0205461Y0294441D01*
X0205425Y0294392D01*
X0205385Y0294344D01*
X0205343Y0294299D01*
X0205298Y0294257D01*
X0205250Y0294217D01*
X0205201Y0294181D01*
X0205149Y0294147D01*
X0205095Y0294117D01*
X0205039Y0294090D01*
X0204982Y0294066D01*
X0204924Y0294046D01*
X0204865Y0294030D01*
X0204804Y0294017D01*
X0204743Y0294007D01*
X0204682Y0294002D01*
X0204620Y0294000D01*
X0202064Y0294000D01*
X0184364Y0293600D02*
X0183342Y0293600D01*
X0183280Y0293598D01*
X0183219Y0293593D01*
X0183158Y0293583D01*
X0183097Y0293570D01*
X0183038Y0293554D01*
X0182980Y0293534D01*
X0182923Y0293510D01*
X0182867Y0293483D01*
X0182813Y0293453D01*
X0182761Y0293419D01*
X0182712Y0293382D01*
X0182664Y0293343D01*
X0182619Y0293301D01*
X0182577Y0293256D01*
X0182537Y0293208D01*
X0182501Y0293159D01*
X0182467Y0293107D01*
X0182437Y0293053D01*
X0182410Y0292997D01*
X0182386Y0292940D01*
X0182366Y0292882D01*
X0182350Y0292823D01*
X0182337Y0292762D01*
X0182327Y0292701D01*
X0182322Y0292640D01*
X0182320Y0292578D01*
X0182320Y0290022D01*
X0182322Y0289960D01*
X0182327Y0289899D01*
X0182337Y0289838D01*
X0182350Y0289777D01*
X0182366Y0289718D01*
X0182386Y0289660D01*
X0182410Y0289603D01*
X0182437Y0289547D01*
X0182467Y0289493D01*
X0182501Y0289441D01*
X0182537Y0289392D01*
X0182577Y0289344D01*
X0182619Y0289299D01*
X0182664Y0289257D01*
X0182712Y0289217D01*
X0182761Y0289181D01*
X0182813Y0289147D01*
X0182867Y0289117D01*
X0182923Y0289090D01*
X0182980Y0289066D01*
X0183038Y0289046D01*
X0183097Y0289030D01*
X0183158Y0289017D01*
X0183219Y0289007D01*
X0183280Y0289002D01*
X0183342Y0289000D01*
X0184364Y0289000D01*
X0174620Y0290278D02*
X0174620Y0293600D01*
X0172064Y0293600D02*
X0172064Y0290278D01*
X0172066Y0290208D01*
X0172072Y0290137D01*
X0172081Y0290068D01*
X0172095Y0289999D01*
X0172112Y0289930D01*
X0172133Y0289863D01*
X0172158Y0289797D01*
X0172186Y0289733D01*
X0172218Y0289670D01*
X0172253Y0289609D01*
X0172292Y0289550D01*
X0172333Y0289493D01*
X0172378Y0289439D01*
X0172426Y0289387D01*
X0172476Y0289338D01*
X0172530Y0289291D01*
X0172585Y0289248D01*
X0172643Y0289208D01*
X0172703Y0289171D01*
X0172765Y0289138D01*
X0172829Y0289108D01*
X0172894Y0289081D01*
X0172960Y0289058D01*
X0173028Y0289039D01*
X0173097Y0289024D01*
X0173166Y0289012D01*
X0173236Y0289004D01*
X0173307Y0289000D01*
X0173377Y0289000D01*
X0173448Y0289004D01*
X0173518Y0289012D01*
X0173587Y0289024D01*
X0173656Y0289039D01*
X0173724Y0289058D01*
X0173790Y0289081D01*
X0173855Y0289108D01*
X0173919Y0289138D01*
X0173981Y0289171D01*
X0174041Y0289208D01*
X0174099Y0289248D01*
X0174154Y0289291D01*
X0174208Y0289338D01*
X0174258Y0289387D01*
X0174306Y0289439D01*
X0174351Y0289493D01*
X0174392Y0289550D01*
X0174431Y0289609D01*
X0174466Y0289670D01*
X0174498Y0289733D01*
X0174526Y0289797D01*
X0174551Y0289863D01*
X0174572Y0289930D01*
X0174589Y0289999D01*
X0174603Y0290068D01*
X0174612Y0290137D01*
X0174618Y0290208D01*
X0174620Y0290278D01*
X0164620Y0289000D02*
X0163597Y0291044D01*
X0163342Y0291044D02*
X0162064Y0291044D01*
X0163342Y0291044D02*
X0163412Y0291046D01*
X0163483Y0291052D01*
X0163552Y0291061D01*
X0163621Y0291075D01*
X0163690Y0291092D01*
X0163757Y0291113D01*
X0163823Y0291138D01*
X0163887Y0291166D01*
X0163950Y0291198D01*
X0164011Y0291233D01*
X0164070Y0291272D01*
X0164127Y0291313D01*
X0164181Y0291358D01*
X0164233Y0291406D01*
X0164282Y0291456D01*
X0164329Y0291510D01*
X0164372Y0291565D01*
X0164412Y0291623D01*
X0164449Y0291683D01*
X0164482Y0291745D01*
X0164512Y0291809D01*
X0164539Y0291874D01*
X0164562Y0291940D01*
X0164581Y0292008D01*
X0164596Y0292077D01*
X0164608Y0292146D01*
X0164616Y0292216D01*
X0164620Y0292287D01*
X0164620Y0292357D01*
X0164616Y0292428D01*
X0164608Y0292498D01*
X0164596Y0292567D01*
X0164581Y0292636D01*
X0164562Y0292704D01*
X0164539Y0292770D01*
X0164512Y0292835D01*
X0164482Y0292899D01*
X0164449Y0292961D01*
X0164412Y0293021D01*
X0164372Y0293079D01*
X0164329Y0293134D01*
X0164282Y0293188D01*
X0164233Y0293238D01*
X0164181Y0293286D01*
X0164127Y0293331D01*
X0164070Y0293372D01*
X0164011Y0293411D01*
X0163950Y0293446D01*
X0163887Y0293478D01*
X0163823Y0293506D01*
X0163757Y0293531D01*
X0163690Y0293552D01*
X0163621Y0293569D01*
X0163552Y0293583D01*
X0163483Y0293592D01*
X0163412Y0293598D01*
X0163342Y0293600D01*
X0162064Y0293600D01*
X0162064Y0289000D01*
X0154364Y0289000D02*
X0152320Y0289000D01*
X0152320Y0293600D01*
X0144620Y0292322D02*
X0144620Y0290278D01*
X0144618Y0290209D01*
X0144613Y0290140D01*
X0144603Y0290071D01*
X0144590Y0290003D01*
X0144573Y0289936D01*
X0144553Y0289870D01*
X0144529Y0289805D01*
X0144502Y0289741D01*
X0144471Y0289679D01*
X0144437Y0289619D01*
X0144400Y0289561D01*
X0144359Y0289505D01*
X0144316Y0289451D01*
X0144270Y0289399D01*
X0144221Y0289350D01*
X0144169Y0289304D01*
X0144115Y0289261D01*
X0144059Y0289220D01*
X0144001Y0289183D01*
X0143941Y0289149D01*
X0143879Y0289118D01*
X0143815Y0289091D01*
X0143750Y0289067D01*
X0143684Y0289047D01*
X0143617Y0289030D01*
X0143549Y0289017D01*
X0143480Y0289007D01*
X0143411Y0289002D01*
X0143342Y0289000D01*
X0142064Y0289000D01*
X0142064Y0293600D01*
X0143342Y0293600D01*
X0143411Y0293598D01*
X0143480Y0293593D01*
X0143549Y0293583D01*
X0143617Y0293570D01*
X0143684Y0293553D01*
X0143750Y0293533D01*
X0143815Y0293509D01*
X0143879Y0293482D01*
X0143941Y0293451D01*
X0144001Y0293417D01*
X0144059Y0293380D01*
X0144115Y0293339D01*
X0144169Y0293296D01*
X0144221Y0293250D01*
X0144270Y0293201D01*
X0144316Y0293149D01*
X0144359Y0293095D01*
X0144400Y0293039D01*
X0144437Y0292981D01*
X0144471Y0292921D01*
X0144502Y0292859D01*
X0144529Y0292795D01*
X0144553Y0292730D01*
X0144573Y0292664D01*
X0144590Y0292597D01*
X0144603Y0292529D01*
X0144613Y0292460D01*
X0144618Y0292391D01*
X0144620Y0292322D01*
X0133342Y0291556D02*
X0133405Y0291558D01*
X0133468Y0291564D01*
X0133530Y0291573D01*
X0133591Y0291587D01*
X0133652Y0291604D01*
X0133711Y0291625D01*
X0133769Y0291650D01*
X0133826Y0291678D01*
X0133880Y0291709D01*
X0133932Y0291744D01*
X0133983Y0291782D01*
X0134031Y0291823D01*
X0134076Y0291867D01*
X0134118Y0291913D01*
X0134158Y0291962D01*
X0134194Y0292013D01*
X0134227Y0292067D01*
X0134257Y0292122D01*
X0134283Y0292180D01*
X0134306Y0292238D01*
X0134325Y0292298D01*
X0134340Y0292359D01*
X0134352Y0292421D01*
X0134360Y0292484D01*
X0134364Y0292547D01*
X0134364Y0292609D01*
X0134360Y0292672D01*
X0134352Y0292735D01*
X0134340Y0292797D01*
X0134325Y0292858D01*
X0134306Y0292918D01*
X0134283Y0292976D01*
X0134257Y0293034D01*
X0134227Y0293089D01*
X0134194Y0293143D01*
X0134158Y0293194D01*
X0134118Y0293243D01*
X0134076Y0293289D01*
X0134031Y0293333D01*
X0133983Y0293374D01*
X0133932Y0293412D01*
X0133880Y0293447D01*
X0133826Y0293478D01*
X0133769Y0293506D01*
X0133711Y0293531D01*
X0133652Y0293552D01*
X0133591Y0293569D01*
X0133530Y0293583D01*
X0133468Y0293592D01*
X0133405Y0293598D01*
X0133342Y0293600D01*
X0132064Y0293600D01*
X0132064Y0289000D01*
X0133342Y0289000D01*
X0133412Y0289002D01*
X0133483Y0289008D01*
X0133552Y0289017D01*
X0133621Y0289031D01*
X0133690Y0289048D01*
X0133757Y0289069D01*
X0133823Y0289094D01*
X0133887Y0289122D01*
X0133950Y0289154D01*
X0134011Y0289189D01*
X0134070Y0289228D01*
X0134127Y0289269D01*
X0134181Y0289314D01*
X0134233Y0289362D01*
X0134282Y0289412D01*
X0134329Y0289466D01*
X0134372Y0289521D01*
X0134412Y0289579D01*
X0134449Y0289639D01*
X0134482Y0289701D01*
X0134512Y0289765D01*
X0134539Y0289830D01*
X0134562Y0289896D01*
X0134581Y0289964D01*
X0134596Y0290033D01*
X0134608Y0290102D01*
X0134616Y0290172D01*
X0134620Y0290243D01*
X0134620Y0290313D01*
X0134616Y0290384D01*
X0134608Y0290454D01*
X0134596Y0290523D01*
X0134581Y0290592D01*
X0134562Y0290660D01*
X0134539Y0290726D01*
X0134512Y0290791D01*
X0134482Y0290855D01*
X0134449Y0290917D01*
X0134412Y0290977D01*
X0134372Y0291035D01*
X0134329Y0291090D01*
X0134282Y0291144D01*
X0134233Y0291194D01*
X0134181Y0291242D01*
X0134127Y0291287D01*
X0134070Y0291328D01*
X0134011Y0291367D01*
X0133950Y0291402D01*
X0133887Y0291434D01*
X0133823Y0291462D01*
X0133757Y0291487D01*
X0133690Y0291508D01*
X0133621Y0291525D01*
X0133552Y0291539D01*
X0133483Y0291548D01*
X0133412Y0291554D01*
X0133342Y0291556D01*
X0132064Y0291556D01*
X0124875Y0289000D02*
X0123342Y0293600D01*
X0121808Y0289000D01*
X0122192Y0290150D02*
X0124492Y0290150D01*
X0105642Y0295022D02*
X0105642Y0296556D01*
X0103086Y0296556D01*
X0103086Y0295789D01*
X0102064Y0294000D02*
X0102002Y0294002D01*
X0101941Y0294007D01*
X0101880Y0294017D01*
X0101819Y0294030D01*
X0101760Y0294046D01*
X0101702Y0294066D01*
X0101645Y0294090D01*
X0101589Y0294117D01*
X0101535Y0294147D01*
X0101483Y0294181D01*
X0101434Y0294217D01*
X0101386Y0294257D01*
X0101341Y0294299D01*
X0101299Y0294344D01*
X0101260Y0294392D01*
X0101223Y0294441D01*
X0101189Y0294493D01*
X0101159Y0294547D01*
X0101132Y0294603D01*
X0101108Y0294660D01*
X0101088Y0294718D01*
X0101072Y0294777D01*
X0101059Y0294838D01*
X0101049Y0294899D01*
X0101044Y0294960D01*
X0101042Y0295022D01*
X0101042Y0296556D01*
X0101042Y0298800D02*
X0105642Y0301356D01*
X0101042Y0301356D01*
X0101042Y0303600D02*
X0101042Y0304878D01*
X0101044Y0304947D01*
X0101049Y0305016D01*
X0101059Y0305085D01*
X0101072Y0305153D01*
X0101089Y0305220D01*
X0101109Y0305286D01*
X0101133Y0305351D01*
X0101160Y0305415D01*
X0101191Y0305477D01*
X0101225Y0305537D01*
X0101262Y0305595D01*
X0101303Y0305651D01*
X0101346Y0305705D01*
X0101392Y0305757D01*
X0101441Y0305806D01*
X0101493Y0305852D01*
X0101547Y0305895D01*
X0101603Y0305936D01*
X0101661Y0305973D01*
X0101721Y0306007D01*
X0101783Y0306038D01*
X0101847Y0306065D01*
X0101912Y0306089D01*
X0101978Y0306109D01*
X0102045Y0306126D01*
X0102113Y0306139D01*
X0102182Y0306149D01*
X0102251Y0306154D01*
X0102320Y0306156D01*
X0104364Y0306156D01*
X0104433Y0306154D01*
X0104502Y0306149D01*
X0104571Y0306139D01*
X0104639Y0306126D01*
X0104706Y0306109D01*
X0104772Y0306089D01*
X0104837Y0306065D01*
X0104901Y0306038D01*
X0104963Y0306007D01*
X0105023Y0305973D01*
X0105081Y0305936D01*
X0105137Y0305895D01*
X0105191Y0305852D01*
X0105243Y0305806D01*
X0105292Y0305757D01*
X0105338Y0305705D01*
X0105381Y0305651D01*
X0105422Y0305595D01*
X0105459Y0305537D01*
X0105493Y0305477D01*
X0105524Y0305415D01*
X0105551Y0305351D01*
X0105575Y0305286D01*
X0105595Y0305220D01*
X0105612Y0305153D01*
X0105625Y0305085D01*
X0105635Y0305016D01*
X0105640Y0304947D01*
X0105642Y0304878D01*
X0105642Y0303600D01*
X0101042Y0303600D01*
X0101042Y0298800D02*
X0105642Y0298800D01*
X0105642Y0295022D02*
X0105640Y0294960D01*
X0105635Y0294899D01*
X0105625Y0294838D01*
X0105612Y0294777D01*
X0105596Y0294718D01*
X0105576Y0294660D01*
X0105552Y0294603D01*
X0105525Y0294547D01*
X0105495Y0294493D01*
X0105461Y0294441D01*
X0105425Y0294392D01*
X0105385Y0294344D01*
X0105343Y0294299D01*
X0105298Y0294257D01*
X0105250Y0294217D01*
X0105201Y0294181D01*
X0105149Y0294147D01*
X0105095Y0294117D01*
X0105039Y0294090D01*
X0104982Y0294066D01*
X0104924Y0294046D01*
X0104865Y0294030D01*
X0104804Y0294017D01*
X0104743Y0294007D01*
X0104682Y0294002D01*
X0104620Y0294000D01*
X0102064Y0294000D01*
D13*
X0358342Y0121300D02*
X0358155Y0121543D01*
X0357963Y0121781D01*
X0357764Y0122014D01*
X0357560Y0122242D01*
X0357351Y0122465D01*
X0357136Y0122683D01*
X0356916Y0122896D01*
X0356691Y0123103D01*
X0356460Y0123305D01*
X0356225Y0123501D01*
X0355985Y0123691D01*
X0355741Y0123875D01*
X0355492Y0124053D01*
X0355238Y0124225D01*
X0354981Y0124391D01*
X0354720Y0124551D01*
X0354455Y0124704D01*
X0354186Y0124850D01*
X0353913Y0124990D01*
X0353638Y0125123D01*
X0353359Y0125249D01*
X0353077Y0125369D01*
X0352792Y0125481D01*
X0352505Y0125586D01*
X0352215Y0125685D01*
X0351923Y0125776D01*
X0351628Y0125860D01*
X0351332Y0125937D01*
X0351034Y0126007D01*
X0350734Y0126069D01*
X0350433Y0126124D01*
X0350131Y0126171D01*
X0349827Y0126211D01*
X0349523Y0126244D01*
X0349218Y0126269D01*
X0348912Y0126287D01*
X0348606Y0126297D01*
X0348300Y0126300D01*
X0347994Y0126295D01*
X0347688Y0126283D01*
X0347382Y0126263D01*
X0347078Y0126236D01*
X0346773Y0126201D01*
X0346470Y0126159D01*
X0346168Y0126110D01*
X0345867Y0126053D01*
X0345568Y0125988D01*
X0345270Y0125917D01*
X0344975Y0125838D01*
X0344681Y0125752D01*
X0344389Y0125659D01*
X0344100Y0125558D01*
X0343813Y0125451D01*
X0343529Y0125336D01*
X0343248Y0125215D01*
X0342970Y0125087D01*
X0342695Y0124952D01*
X0342424Y0124810D01*
X0342156Y0124662D01*
X0341892Y0124507D01*
X0341632Y0124346D01*
X0341376Y0124179D01*
X0341123Y0124005D01*
X0340876Y0123825D01*
X0340632Y0123639D01*
X0340394Y0123448D01*
X0340160Y0123250D01*
X0339931Y0123047D01*
X0339707Y0122838D01*
X0339488Y0122624D01*
X0339275Y0122404D01*
X0339067Y0122180D01*
X0338864Y0121950D01*
X0338668Y0121716D01*
X0338477Y0121476D01*
X0338292Y0121233D01*
X0338113Y0120984D01*
X0337940Y0120732D01*
X0337773Y0120475D01*
X0337613Y0120214D01*
X0337459Y0119949D01*
X0337312Y0119681D01*
X0337171Y0119409D01*
X0337037Y0119134D01*
X0336910Y0118855D01*
X0336789Y0118574D01*
X0336676Y0118289D01*
X0336570Y0118002D01*
X0336470Y0117713D01*
X0336378Y0117421D01*
X0336293Y0117127D01*
X0336215Y0116831D01*
X0336144Y0116533D01*
X0336081Y0116233D01*
X0336025Y0115932D01*
X0335977Y0115630D01*
X0335936Y0115327D01*
X0335902Y0115023D01*
X0335876Y0114718D01*
X0335857Y0114412D01*
X0335846Y0114106D01*
X0335842Y0113800D01*
X0335846Y0113494D01*
X0335857Y0113188D01*
X0335876Y0112882D01*
X0335902Y0112577D01*
X0335936Y0112273D01*
X0335977Y0111970D01*
X0336025Y0111668D01*
X0336081Y0111367D01*
X0336144Y0111067D01*
X0336215Y0110769D01*
X0336293Y0110473D01*
X0336378Y0110179D01*
X0336470Y0109887D01*
X0336570Y0109598D01*
X0336676Y0109311D01*
X0336789Y0109026D01*
X0336910Y0108745D01*
X0337037Y0108466D01*
X0337171Y0108191D01*
X0337312Y0107919D01*
X0337459Y0107651D01*
X0337613Y0107386D01*
X0337773Y0107125D01*
X0337940Y0106868D01*
X0338113Y0106616D01*
X0338292Y0106367D01*
X0338477Y0106124D01*
X0338668Y0105884D01*
X0338864Y0105650D01*
X0339067Y0105420D01*
X0339275Y0105196D01*
X0339488Y0104976D01*
X0339707Y0104762D01*
X0339931Y0104553D01*
X0340160Y0104350D01*
X0340394Y0104152D01*
X0340632Y0103961D01*
X0340876Y0103775D01*
X0341123Y0103595D01*
X0341376Y0103421D01*
X0341632Y0103254D01*
X0341892Y0103093D01*
X0342156Y0102938D01*
X0342424Y0102790D01*
X0342695Y0102648D01*
X0342970Y0102513D01*
X0343248Y0102385D01*
X0343529Y0102264D01*
X0343813Y0102149D01*
X0344100Y0102042D01*
X0344389Y0101941D01*
X0344681Y0101848D01*
X0344975Y0101762D01*
X0345270Y0101683D01*
X0345568Y0101612D01*
X0345867Y0101547D01*
X0346168Y0101490D01*
X0346470Y0101441D01*
X0346773Y0101399D01*
X0347078Y0101364D01*
X0347382Y0101337D01*
X0347688Y0101317D01*
X0347994Y0101305D01*
X0348300Y0101300D01*
X0348606Y0101303D01*
X0348912Y0101313D01*
X0349218Y0101331D01*
X0349523Y0101356D01*
X0349827Y0101389D01*
X0350131Y0101429D01*
X0350433Y0101476D01*
X0350734Y0101531D01*
X0351034Y0101593D01*
X0351332Y0101663D01*
X0351628Y0101740D01*
X0351923Y0101824D01*
X0352215Y0101915D01*
X0352505Y0102014D01*
X0352792Y0102119D01*
X0353077Y0102231D01*
X0353359Y0102351D01*
X0353638Y0102477D01*
X0353913Y0102610D01*
X0354186Y0102750D01*
X0354455Y0102896D01*
X0354720Y0103049D01*
X0354981Y0103209D01*
X0355238Y0103375D01*
X0355492Y0103547D01*
X0355741Y0103725D01*
X0355985Y0103909D01*
X0356225Y0104099D01*
X0356460Y0104295D01*
X0356691Y0104497D01*
X0356916Y0104704D01*
X0357136Y0104917D01*
X0357351Y0105135D01*
X0357560Y0105358D01*
X0357764Y0105586D01*
X0357963Y0105819D01*
X0358155Y0106057D01*
X0358342Y0106300D01*
X0388342Y0106300D02*
X0388155Y0106057D01*
X0387963Y0105819D01*
X0387764Y0105586D01*
X0387560Y0105358D01*
X0387351Y0105135D01*
X0387136Y0104917D01*
X0386916Y0104704D01*
X0386691Y0104497D01*
X0386460Y0104295D01*
X0386225Y0104099D01*
X0385985Y0103909D01*
X0385741Y0103725D01*
X0385492Y0103547D01*
X0385238Y0103375D01*
X0384981Y0103209D01*
X0384720Y0103049D01*
X0384455Y0102896D01*
X0384186Y0102750D01*
X0383913Y0102610D01*
X0383638Y0102477D01*
X0383359Y0102351D01*
X0383077Y0102231D01*
X0382792Y0102119D01*
X0382505Y0102014D01*
X0382215Y0101915D01*
X0381923Y0101824D01*
X0381628Y0101740D01*
X0381332Y0101663D01*
X0381034Y0101593D01*
X0380734Y0101531D01*
X0380433Y0101476D01*
X0380131Y0101429D01*
X0379827Y0101389D01*
X0379523Y0101356D01*
X0379218Y0101331D01*
X0378912Y0101313D01*
X0378606Y0101303D01*
X0378300Y0101300D01*
X0377994Y0101305D01*
X0377688Y0101317D01*
X0377382Y0101337D01*
X0377078Y0101364D01*
X0376773Y0101399D01*
X0376470Y0101441D01*
X0376168Y0101490D01*
X0375867Y0101547D01*
X0375568Y0101612D01*
X0375270Y0101683D01*
X0374975Y0101762D01*
X0374681Y0101848D01*
X0374389Y0101941D01*
X0374100Y0102042D01*
X0373813Y0102149D01*
X0373529Y0102264D01*
X0373248Y0102385D01*
X0372970Y0102513D01*
X0372695Y0102648D01*
X0372424Y0102790D01*
X0372156Y0102938D01*
X0371892Y0103093D01*
X0371632Y0103254D01*
X0371376Y0103421D01*
X0371123Y0103595D01*
X0370876Y0103775D01*
X0370632Y0103961D01*
X0370394Y0104152D01*
X0370160Y0104350D01*
X0369931Y0104553D01*
X0369707Y0104762D01*
X0369488Y0104976D01*
X0369275Y0105196D01*
X0369067Y0105420D01*
X0368864Y0105650D01*
X0368668Y0105884D01*
X0368477Y0106124D01*
X0368292Y0106367D01*
X0368113Y0106616D01*
X0367940Y0106868D01*
X0367773Y0107125D01*
X0367613Y0107386D01*
X0367459Y0107651D01*
X0367312Y0107919D01*
X0367171Y0108191D01*
X0367037Y0108466D01*
X0366910Y0108745D01*
X0366789Y0109026D01*
X0366676Y0109311D01*
X0366570Y0109598D01*
X0366470Y0109887D01*
X0366378Y0110179D01*
X0366293Y0110473D01*
X0366215Y0110769D01*
X0366144Y0111067D01*
X0366081Y0111367D01*
X0366025Y0111668D01*
X0365977Y0111970D01*
X0365936Y0112273D01*
X0365902Y0112577D01*
X0365876Y0112882D01*
X0365857Y0113188D01*
X0365846Y0113494D01*
X0365842Y0113800D01*
X0365846Y0114106D01*
X0365857Y0114412D01*
X0365876Y0114718D01*
X0365902Y0115023D01*
X0365936Y0115327D01*
X0365977Y0115630D01*
X0366025Y0115932D01*
X0366081Y0116233D01*
X0366144Y0116533D01*
X0366215Y0116831D01*
X0366293Y0117127D01*
X0366378Y0117421D01*
X0366470Y0117713D01*
X0366570Y0118002D01*
X0366676Y0118289D01*
X0366789Y0118574D01*
X0366910Y0118855D01*
X0367037Y0119134D01*
X0367171Y0119409D01*
X0367312Y0119681D01*
X0367459Y0119949D01*
X0367613Y0120214D01*
X0367773Y0120475D01*
X0367940Y0120732D01*
X0368113Y0120984D01*
X0368292Y0121233D01*
X0368477Y0121476D01*
X0368668Y0121716D01*
X0368864Y0121950D01*
X0369067Y0122180D01*
X0369275Y0122404D01*
X0369488Y0122624D01*
X0369707Y0122838D01*
X0369931Y0123047D01*
X0370160Y0123250D01*
X0370394Y0123448D01*
X0370632Y0123639D01*
X0370876Y0123825D01*
X0371123Y0124005D01*
X0371376Y0124179D01*
X0371632Y0124346D01*
X0371892Y0124507D01*
X0372156Y0124662D01*
X0372424Y0124810D01*
X0372695Y0124952D01*
X0372970Y0125087D01*
X0373248Y0125215D01*
X0373529Y0125336D01*
X0373813Y0125451D01*
X0374100Y0125558D01*
X0374389Y0125659D01*
X0374681Y0125752D01*
X0374975Y0125838D01*
X0375270Y0125917D01*
X0375568Y0125988D01*
X0375867Y0126053D01*
X0376168Y0126110D01*
X0376470Y0126159D01*
X0376773Y0126201D01*
X0377078Y0126236D01*
X0377382Y0126263D01*
X0377688Y0126283D01*
X0377994Y0126295D01*
X0378300Y0126300D01*
X0378606Y0126297D01*
X0378912Y0126287D01*
X0379218Y0126269D01*
X0379523Y0126244D01*
X0379827Y0126211D01*
X0380131Y0126171D01*
X0380433Y0126124D01*
X0380734Y0126069D01*
X0381034Y0126007D01*
X0381332Y0125937D01*
X0381628Y0125860D01*
X0381923Y0125776D01*
X0382215Y0125685D01*
X0382505Y0125586D01*
X0382792Y0125481D01*
X0383077Y0125369D01*
X0383359Y0125249D01*
X0383638Y0125123D01*
X0383913Y0124990D01*
X0384186Y0124850D01*
X0384455Y0124704D01*
X0384720Y0124551D01*
X0384981Y0124391D01*
X0385238Y0124225D01*
X0385492Y0124053D01*
X0385741Y0123875D01*
X0385985Y0123691D01*
X0386225Y0123501D01*
X0386460Y0123305D01*
X0386691Y0123103D01*
X0386916Y0122896D01*
X0387136Y0122683D01*
X0387351Y0122465D01*
X0387560Y0122242D01*
X0387764Y0122014D01*
X0387963Y0121781D01*
X0388155Y0121543D01*
X0388342Y0121300D01*
X0418342Y0121300D02*
X0418155Y0121543D01*
X0417963Y0121781D01*
X0417764Y0122014D01*
X0417560Y0122242D01*
X0417351Y0122465D01*
X0417136Y0122683D01*
X0416916Y0122896D01*
X0416691Y0123103D01*
X0416460Y0123305D01*
X0416225Y0123501D01*
X0415985Y0123691D01*
X0415741Y0123875D01*
X0415492Y0124053D01*
X0415238Y0124225D01*
X0414981Y0124391D01*
X0414720Y0124551D01*
X0414455Y0124704D01*
X0414186Y0124850D01*
X0413913Y0124990D01*
X0413638Y0125123D01*
X0413359Y0125249D01*
X0413077Y0125369D01*
X0412792Y0125481D01*
X0412505Y0125586D01*
X0412215Y0125685D01*
X0411923Y0125776D01*
X0411628Y0125860D01*
X0411332Y0125937D01*
X0411034Y0126007D01*
X0410734Y0126069D01*
X0410433Y0126124D01*
X0410131Y0126171D01*
X0409827Y0126211D01*
X0409523Y0126244D01*
X0409218Y0126269D01*
X0408912Y0126287D01*
X0408606Y0126297D01*
X0408300Y0126300D01*
X0407994Y0126295D01*
X0407688Y0126283D01*
X0407382Y0126263D01*
X0407078Y0126236D01*
X0406773Y0126201D01*
X0406470Y0126159D01*
X0406168Y0126110D01*
X0405867Y0126053D01*
X0405568Y0125988D01*
X0405270Y0125917D01*
X0404975Y0125838D01*
X0404681Y0125752D01*
X0404389Y0125659D01*
X0404100Y0125558D01*
X0403813Y0125451D01*
X0403529Y0125336D01*
X0403248Y0125215D01*
X0402970Y0125087D01*
X0402695Y0124952D01*
X0402424Y0124810D01*
X0402156Y0124662D01*
X0401892Y0124507D01*
X0401632Y0124346D01*
X0401376Y0124179D01*
X0401123Y0124005D01*
X0400876Y0123825D01*
X0400632Y0123639D01*
X0400394Y0123448D01*
X0400160Y0123250D01*
X0399931Y0123047D01*
X0399707Y0122838D01*
X0399488Y0122624D01*
X0399275Y0122404D01*
X0399067Y0122180D01*
X0398864Y0121950D01*
X0398668Y0121716D01*
X0398477Y0121476D01*
X0398292Y0121233D01*
X0398113Y0120984D01*
X0397940Y0120732D01*
X0397773Y0120475D01*
X0397613Y0120214D01*
X0397459Y0119949D01*
X0397312Y0119681D01*
X0397171Y0119409D01*
X0397037Y0119134D01*
X0396910Y0118855D01*
X0396789Y0118574D01*
X0396676Y0118289D01*
X0396570Y0118002D01*
X0396470Y0117713D01*
X0396378Y0117421D01*
X0396293Y0117127D01*
X0396215Y0116831D01*
X0396144Y0116533D01*
X0396081Y0116233D01*
X0396025Y0115932D01*
X0395977Y0115630D01*
X0395936Y0115327D01*
X0395902Y0115023D01*
X0395876Y0114718D01*
X0395857Y0114412D01*
X0395846Y0114106D01*
X0395842Y0113800D01*
X0395846Y0113494D01*
X0395857Y0113188D01*
X0395876Y0112882D01*
X0395902Y0112577D01*
X0395936Y0112273D01*
X0395977Y0111970D01*
X0396025Y0111668D01*
X0396081Y0111367D01*
X0396144Y0111067D01*
X0396215Y0110769D01*
X0396293Y0110473D01*
X0396378Y0110179D01*
X0396470Y0109887D01*
X0396570Y0109598D01*
X0396676Y0109311D01*
X0396789Y0109026D01*
X0396910Y0108745D01*
X0397037Y0108466D01*
X0397171Y0108191D01*
X0397312Y0107919D01*
X0397459Y0107651D01*
X0397613Y0107386D01*
X0397773Y0107125D01*
X0397940Y0106868D01*
X0398113Y0106616D01*
X0398292Y0106367D01*
X0398477Y0106124D01*
X0398668Y0105884D01*
X0398864Y0105650D01*
X0399067Y0105420D01*
X0399275Y0105196D01*
X0399488Y0104976D01*
X0399707Y0104762D01*
X0399931Y0104553D01*
X0400160Y0104350D01*
X0400394Y0104152D01*
X0400632Y0103961D01*
X0400876Y0103775D01*
X0401123Y0103595D01*
X0401376Y0103421D01*
X0401632Y0103254D01*
X0401892Y0103093D01*
X0402156Y0102938D01*
X0402424Y0102790D01*
X0402695Y0102648D01*
X0402970Y0102513D01*
X0403248Y0102385D01*
X0403529Y0102264D01*
X0403813Y0102149D01*
X0404100Y0102042D01*
X0404389Y0101941D01*
X0404681Y0101848D01*
X0404975Y0101762D01*
X0405270Y0101683D01*
X0405568Y0101612D01*
X0405867Y0101547D01*
X0406168Y0101490D01*
X0406470Y0101441D01*
X0406773Y0101399D01*
X0407078Y0101364D01*
X0407382Y0101337D01*
X0407688Y0101317D01*
X0407994Y0101305D01*
X0408300Y0101300D01*
X0408606Y0101303D01*
X0408912Y0101313D01*
X0409218Y0101331D01*
X0409523Y0101356D01*
X0409827Y0101389D01*
X0410131Y0101429D01*
X0410433Y0101476D01*
X0410734Y0101531D01*
X0411034Y0101593D01*
X0411332Y0101663D01*
X0411628Y0101740D01*
X0411923Y0101824D01*
X0412215Y0101915D01*
X0412505Y0102014D01*
X0412792Y0102119D01*
X0413077Y0102231D01*
X0413359Y0102351D01*
X0413638Y0102477D01*
X0413913Y0102610D01*
X0414186Y0102750D01*
X0414455Y0102896D01*
X0414720Y0103049D01*
X0414981Y0103209D01*
X0415238Y0103375D01*
X0415492Y0103547D01*
X0415741Y0103725D01*
X0415985Y0103909D01*
X0416225Y0104099D01*
X0416460Y0104295D01*
X0416691Y0104497D01*
X0416916Y0104704D01*
X0417136Y0104917D01*
X0417351Y0105135D01*
X0417560Y0105358D01*
X0417764Y0105586D01*
X0417963Y0105819D01*
X0418155Y0106057D01*
X0418342Y0106300D01*
X0428342Y0196300D02*
X0428344Y0196441D01*
X0428350Y0196582D01*
X0428360Y0196722D01*
X0428374Y0196862D01*
X0428392Y0197002D01*
X0428413Y0197141D01*
X0428439Y0197280D01*
X0428468Y0197418D01*
X0428502Y0197554D01*
X0428539Y0197690D01*
X0428580Y0197825D01*
X0428625Y0197959D01*
X0428674Y0198091D01*
X0428726Y0198222D01*
X0428782Y0198351D01*
X0428842Y0198478D01*
X0428905Y0198604D01*
X0428971Y0198728D01*
X0429042Y0198851D01*
X0429115Y0198971D01*
X0429192Y0199089D01*
X0429272Y0199205D01*
X0429356Y0199318D01*
X0429442Y0199429D01*
X0429532Y0199538D01*
X0429625Y0199644D01*
X0429720Y0199747D01*
X0429819Y0199848D01*
X0429920Y0199946D01*
X0430024Y0200041D01*
X0430131Y0200133D01*
X0430240Y0200222D01*
X0430352Y0200307D01*
X0430466Y0200390D01*
X0430582Y0200470D01*
X0430701Y0200546D01*
X0430822Y0200618D01*
X0430944Y0200688D01*
X0431069Y0200753D01*
X0431195Y0200816D01*
X0431323Y0200874D01*
X0431453Y0200929D01*
X0431584Y0200981D01*
X0431717Y0201028D01*
X0431851Y0201072D01*
X0431986Y0201113D01*
X0432122Y0201149D01*
X0432259Y0201181D01*
X0432397Y0201210D01*
X0432535Y0201235D01*
X0432675Y0201255D01*
X0432815Y0201272D01*
X0432955Y0201285D01*
X0433096Y0201294D01*
X0433236Y0201299D01*
X0433377Y0201300D01*
X0433518Y0201297D01*
X0433659Y0201290D01*
X0433799Y0201279D01*
X0433939Y0201264D01*
X0434079Y0201245D01*
X0434218Y0201223D01*
X0434356Y0201196D01*
X0434494Y0201166D01*
X0434630Y0201131D01*
X0434766Y0201093D01*
X0434900Y0201051D01*
X0435034Y0201005D01*
X0435166Y0200956D01*
X0435296Y0200902D01*
X0435425Y0200845D01*
X0435552Y0200785D01*
X0435678Y0200721D01*
X0435801Y0200653D01*
X0435923Y0200582D01*
X0436043Y0200508D01*
X0436160Y0200430D01*
X0436275Y0200349D01*
X0436388Y0200265D01*
X0436499Y0200178D01*
X0436607Y0200087D01*
X0436712Y0199994D01*
X0436815Y0199897D01*
X0436915Y0199798D01*
X0437012Y0199696D01*
X0437106Y0199591D01*
X0437197Y0199484D01*
X0437285Y0199374D01*
X0437370Y0199262D01*
X0437452Y0199147D01*
X0437531Y0199030D01*
X0437606Y0198911D01*
X0437678Y0198790D01*
X0437746Y0198667D01*
X0437811Y0198542D01*
X0437873Y0198415D01*
X0437930Y0198286D01*
X0437985Y0198156D01*
X0438035Y0198025D01*
X0438082Y0197892D01*
X0438125Y0197758D01*
X0438164Y0197622D01*
X0438199Y0197486D01*
X0438231Y0197349D01*
X0438258Y0197211D01*
X0438282Y0197072D01*
X0438302Y0196932D01*
X0438318Y0196792D01*
X0438330Y0196652D01*
X0438338Y0196511D01*
X0438342Y0196370D01*
X0438342Y0196230D01*
X0438338Y0196089D01*
X0438330Y0195948D01*
X0438318Y0195808D01*
X0438302Y0195668D01*
X0438282Y0195528D01*
X0438258Y0195389D01*
X0438231Y0195251D01*
X0438199Y0195114D01*
X0438164Y0194978D01*
X0438125Y0194842D01*
X0438082Y0194708D01*
X0438035Y0194575D01*
X0437985Y0194444D01*
X0437930Y0194314D01*
X0437873Y0194185D01*
X0437811Y0194058D01*
X0437746Y0193933D01*
X0437678Y0193810D01*
X0437606Y0193689D01*
X0437531Y0193570D01*
X0437452Y0193453D01*
X0437370Y0193338D01*
X0437285Y0193226D01*
X0437197Y0193116D01*
X0437106Y0193009D01*
X0437012Y0192904D01*
X0436915Y0192802D01*
X0436815Y0192703D01*
X0436712Y0192606D01*
X0436607Y0192513D01*
X0436499Y0192422D01*
X0436388Y0192335D01*
X0436275Y0192251D01*
X0436160Y0192170D01*
X0436043Y0192092D01*
X0435923Y0192018D01*
X0435801Y0191947D01*
X0435678Y0191879D01*
X0435552Y0191815D01*
X0435425Y0191755D01*
X0435296Y0191698D01*
X0435166Y0191644D01*
X0435034Y0191595D01*
X0434900Y0191549D01*
X0434766Y0191507D01*
X0434630Y0191469D01*
X0434494Y0191434D01*
X0434356Y0191404D01*
X0434218Y0191377D01*
X0434079Y0191355D01*
X0433939Y0191336D01*
X0433799Y0191321D01*
X0433659Y0191310D01*
X0433518Y0191303D01*
X0433377Y0191300D01*
X0433236Y0191301D01*
X0433096Y0191306D01*
X0432955Y0191315D01*
X0432815Y0191328D01*
X0432675Y0191345D01*
X0432535Y0191365D01*
X0432397Y0191390D01*
X0432259Y0191419D01*
X0432122Y0191451D01*
X0431986Y0191487D01*
X0431851Y0191528D01*
X0431717Y0191572D01*
X0431584Y0191619D01*
X0431453Y0191671D01*
X0431323Y0191726D01*
X0431195Y0191784D01*
X0431069Y0191847D01*
X0430944Y0191912D01*
X0430822Y0191982D01*
X0430701Y0192054D01*
X0430582Y0192130D01*
X0430466Y0192210D01*
X0430352Y0192293D01*
X0430240Y0192378D01*
X0430131Y0192467D01*
X0430024Y0192559D01*
X0429920Y0192654D01*
X0429819Y0192752D01*
X0429720Y0192853D01*
X0429625Y0192956D01*
X0429532Y0193062D01*
X0429442Y0193171D01*
X0429356Y0193282D01*
X0429272Y0193395D01*
X0429192Y0193511D01*
X0429115Y0193629D01*
X0429042Y0193749D01*
X0428971Y0193872D01*
X0428905Y0193996D01*
X0428842Y0194122D01*
X0428782Y0194249D01*
X0428726Y0194378D01*
X0428674Y0194509D01*
X0428625Y0194641D01*
X0428580Y0194775D01*
X0428539Y0194910D01*
X0428502Y0195046D01*
X0428468Y0195182D01*
X0428439Y0195320D01*
X0428413Y0195459D01*
X0428392Y0195598D01*
X0428374Y0195738D01*
X0428360Y0195878D01*
X0428350Y0196018D01*
X0428344Y0196159D01*
X0428342Y0196300D01*
D14*
X0417791Y0137934D02*
X0098893Y0137934D01*
X0098893Y0283603D01*
X0417791Y0283603D01*
X0417791Y0137934D01*
X0433932Y0096891D02*
X0382751Y0096891D01*
X0382751Y0085080D01*
X0382751Y0077206D02*
X0382751Y0065394D01*
X0382751Y0057520D02*
X0382751Y0045709D01*
X0433932Y0045709D01*
X0433932Y0057520D01*
X0433932Y0065394D02*
X0433932Y0077206D01*
X0433932Y0085080D02*
X0433932Y0096891D01*
X0373932Y0096891D02*
X0373932Y0085080D01*
X0373932Y0077206D02*
X0373932Y0065394D01*
X0373932Y0057520D02*
X0373932Y0045709D01*
X0322751Y0045709D01*
X0322751Y0057520D01*
X0322751Y0065394D02*
X0322751Y0077206D01*
X0322751Y0085080D02*
X0322751Y0096891D01*
X0373932Y0096891D01*
X0313932Y0095394D02*
X0313932Y0107206D01*
X0313932Y0115080D02*
X0313932Y0126891D01*
X0262751Y0126891D01*
X0262751Y0115080D01*
X0262751Y0107206D02*
X0262751Y0095394D01*
X0262751Y0087520D02*
X0262751Y0075709D01*
X0313932Y0075709D01*
X0313932Y0087520D01*
X0313932Y0066891D02*
X0313932Y0055080D01*
X0313932Y0047206D02*
X0313932Y0035394D01*
X0313932Y0027520D02*
X0313932Y0015709D01*
X0262751Y0015709D01*
X0262751Y0027520D01*
X0262751Y0035394D02*
X0262751Y0047206D01*
X0262751Y0055080D02*
X0262751Y0066891D01*
X0313932Y0066891D01*
X0253932Y0065394D02*
X0253932Y0077206D01*
X0253932Y0085080D02*
X0253932Y0096891D01*
X0202751Y0096891D01*
X0202751Y0085080D01*
X0202751Y0077206D02*
X0202751Y0065394D01*
X0202751Y0057520D02*
X0202751Y0045709D01*
X0253932Y0045709D01*
X0253932Y0057520D01*
X0193932Y0057520D02*
X0193932Y0045709D01*
X0142751Y0045709D01*
X0142751Y0057520D01*
X0142751Y0065394D02*
X0142751Y0077206D01*
X0142751Y0085080D02*
X0142751Y0096891D01*
X0193932Y0096891D01*
X0193932Y0085080D01*
X0193932Y0077206D02*
X0193932Y0065394D01*
X0133932Y0065394D02*
X0133932Y0077206D01*
X0133932Y0085080D02*
X0133932Y0096891D01*
X0082751Y0096891D01*
X0082751Y0085080D01*
X0082751Y0077206D02*
X0082751Y0065394D01*
X0082751Y0057520D02*
X0082751Y0045709D01*
X0133932Y0045709D01*
X0133932Y0057520D01*
X0118342Y0296300D02*
X0108342Y0296300D01*
X0108342Y0306300D01*
X0118342Y0306300D01*
X0118342Y0296300D01*
X0188342Y0296300D01*
X0188342Y0306300D01*
X0118342Y0306300D01*
X0208342Y0306300D02*
X0208342Y0296300D01*
X0218342Y0296300D01*
X0218342Y0306300D01*
X0208342Y0306300D01*
X0218342Y0306300D02*
X0248342Y0306300D01*
X0248342Y0296300D01*
X0218342Y0296300D01*
D15*
X0358342Y0121300D02*
X0358342Y0106300D01*
X0388342Y0106300D02*
X0388342Y0121300D01*
X0418342Y0121300D02*
X0418342Y0106300D01*
D16*
X0387161Y0155393D03*
X0373066Y0155393D03*
X0358972Y0155393D03*
X0358972Y0176893D03*
X0373066Y0176893D03*
X0387161Y0176893D03*
D17*
X0113862Y0109568D03*
X0110692Y0110068D03*
X0084362Y0109568D03*
D18*
X0088527Y0109568D03*
X0096027Y0109568D03*
X0105527Y0109568D03*
D19*
X0105527Y0110068D03*
X0105527Y0112568D03*
X0099697Y0112568D03*
X0100027Y0119068D03*
X0097027Y0123068D03*
X0093027Y0120568D03*
X0084527Y0120568D03*
X0084357Y0112568D03*
X0084357Y0110068D03*
X0088527Y0110068D03*
X0088527Y0112568D03*
X0092527Y0110068D03*
X0092527Y0109568D03*
X0113857Y0110068D03*
X0113697Y0120568D03*
D20*
X0105612Y0113068D03*
X0099612Y0112068D03*
X0099612Y0111568D03*
X0099612Y0111068D03*
X0099612Y0110568D03*
X0099612Y0110068D03*
X0099612Y0109568D03*
X0096942Y0110568D03*
X0088442Y0113068D03*
X0085442Y0110568D03*
X0114942Y0110568D03*
D21*
X0112862Y0112068D03*
X0113862Y0113068D03*
X0110862Y0112568D03*
X0110862Y0112068D03*
X0110862Y0111568D03*
X0110862Y0111068D03*
X0109862Y0111068D03*
X0109692Y0111568D03*
X0110862Y0109568D03*
X0106862Y0111068D03*
X0106862Y0111568D03*
X0106692Y0112068D03*
X0106692Y0110568D03*
X0104362Y0110568D03*
X0104192Y0111068D03*
X0104192Y0111568D03*
X0102362Y0111568D03*
X0102362Y0112068D03*
X0102362Y0112568D03*
X0102362Y0111068D03*
X0102362Y0110568D03*
X0102362Y0110068D03*
X0102362Y0109568D03*
X0091692Y0110568D03*
X0091692Y0111068D03*
X0091692Y0111568D03*
X0091692Y0112068D03*
X0091692Y0112568D03*
X0089862Y0111068D03*
X0089692Y0110568D03*
X0087362Y0110568D03*
X0087192Y0111068D03*
X0087192Y0111568D03*
X0087362Y0112068D03*
X0085362Y0112068D03*
X0084362Y0113068D03*
X0083362Y0112068D03*
X0083362Y0110568D03*
D22*
X0089777Y0111568D03*
X0108777Y0111568D03*
X0108777Y0111068D03*
X0108777Y0110568D03*
X0108777Y0110068D03*
X0108777Y0109568D03*
X0112777Y0110568D03*
X0114777Y0112068D03*
D23*
X0113777Y0112734D03*
X0113777Y0111401D03*
X0109447Y0115234D03*
X0109447Y0115401D03*
X0109447Y0115734D03*
X0109447Y0115901D03*
X0109447Y0116234D03*
X0109447Y0116401D03*
X0109447Y0116734D03*
X0109447Y0116901D03*
X0109447Y0117234D03*
X0109447Y0117401D03*
X0109447Y0117734D03*
X0109447Y0117901D03*
X0109447Y0118234D03*
X0109447Y0118401D03*
X0109447Y0118734D03*
X0109447Y0118901D03*
X0109447Y0119234D03*
X0109447Y0119401D03*
X0109447Y0119734D03*
X0109447Y0119901D03*
X0107107Y0122401D03*
X0104947Y0120234D03*
X0104777Y0119901D03*
X0104777Y0119734D03*
X0101277Y0120901D03*
X0101447Y0121734D03*
X0101447Y0121901D03*
X0101447Y0122234D03*
X0101277Y0122734D03*
X0096777Y0122734D03*
X0096607Y0122401D03*
X0096607Y0122234D03*
X0093277Y0120234D03*
X0093447Y0119901D03*
X0093447Y0119734D03*
X0088777Y0119734D03*
X0088777Y0119901D03*
X0088777Y0119401D03*
X0088777Y0119234D03*
X0088777Y0118901D03*
X0088777Y0118734D03*
X0088777Y0118401D03*
X0088777Y0118234D03*
X0088777Y0117901D03*
X0088777Y0117734D03*
X0088777Y0117401D03*
X0088777Y0117234D03*
X0088777Y0116901D03*
X0088777Y0116734D03*
X0088777Y0116401D03*
X0088777Y0116234D03*
X0088777Y0115901D03*
X0088777Y0115734D03*
X0088777Y0115401D03*
X0088777Y0115234D03*
X0084107Y0119734D03*
X0084107Y0119901D03*
X0084277Y0120234D03*
X0086447Y0122401D03*
X0084447Y0109734D03*
X0114107Y0119734D03*
X0114107Y0119901D03*
X0113947Y0120234D03*
D24*
X0105527Y0109734D03*
X0096027Y0109734D03*
X0093527Y0115234D03*
X0093527Y0115401D03*
X0093527Y0115734D03*
X0093527Y0115901D03*
X0093527Y0116234D03*
X0093527Y0116401D03*
X0093527Y0116734D03*
X0093527Y0116901D03*
X0093527Y0117234D03*
X0093527Y0117401D03*
X0093527Y0117734D03*
X0093527Y0117901D03*
X0093527Y0118234D03*
X0093527Y0118401D03*
X0093527Y0118734D03*
X0093527Y0118901D03*
X0093527Y0119234D03*
X0093527Y0119401D03*
X0096527Y0121734D03*
X0096527Y0121901D03*
X0084027Y0119401D03*
X0084027Y0119234D03*
X0084027Y0118901D03*
X0084027Y0118734D03*
X0084027Y0118401D03*
X0084027Y0118234D03*
X0084027Y0117901D03*
X0084027Y0117734D03*
X0084027Y0117401D03*
X0084027Y0117234D03*
X0084027Y0116901D03*
X0084027Y0116734D03*
X0084027Y0116401D03*
X0084027Y0116234D03*
X0084027Y0115901D03*
X0084027Y0115734D03*
X0084027Y0115401D03*
X0084027Y0115234D03*
X0088527Y0109734D03*
D25*
X0092527Y0109734D03*
X0092527Y0109901D03*
X0092527Y0110234D03*
X0084357Y0112401D03*
X0088857Y0120234D03*
X0099027Y0117901D03*
X0099697Y0112901D03*
X0099697Y0112734D03*
X0099697Y0112401D03*
X0109527Y0120234D03*
X0113857Y0112401D03*
D26*
X0099612Y0112234D03*
X0099612Y0111901D03*
X0099612Y0111734D03*
X0099612Y0111401D03*
X0099612Y0111234D03*
X0099612Y0110901D03*
X0099612Y0110734D03*
X0099612Y0110401D03*
X0099612Y0110234D03*
X0099612Y0109901D03*
X0099612Y0109734D03*
X0083442Y0111901D03*
D27*
X0083362Y0110401D03*
X0085362Y0110401D03*
X0085362Y0110734D03*
X0085362Y0111901D03*
X0085192Y0112234D03*
X0087192Y0111734D03*
X0087362Y0111901D03*
X0087192Y0111401D03*
X0087192Y0111234D03*
X0087192Y0110901D03*
X0089692Y0110734D03*
X0089862Y0111234D03*
X0089862Y0111401D03*
X0089692Y0111734D03*
X0089692Y0111901D03*
X0091692Y0111901D03*
X0091692Y0111734D03*
X0091692Y0111401D03*
X0091692Y0111234D03*
X0091692Y0110901D03*
X0091692Y0110734D03*
X0091692Y0110401D03*
X0091692Y0112234D03*
X0091692Y0112401D03*
X0091692Y0112734D03*
X0091692Y0112901D03*
X0095192Y0110401D03*
X0096862Y0110401D03*
X0102362Y0110401D03*
X0102362Y0110234D03*
X0102362Y0109901D03*
X0102362Y0109734D03*
X0102362Y0110734D03*
X0102362Y0110901D03*
X0102362Y0111234D03*
X0102362Y0111401D03*
X0102362Y0111734D03*
X0102362Y0111901D03*
X0102362Y0112234D03*
X0102362Y0112401D03*
X0102362Y0112734D03*
X0102362Y0112901D03*
X0104362Y0111901D03*
X0104192Y0111401D03*
X0104192Y0111234D03*
X0104362Y0110734D03*
X0106862Y0110901D03*
X0106862Y0111234D03*
X0106862Y0111401D03*
X0106862Y0111734D03*
X0106692Y0111901D03*
X0108862Y0112901D03*
X0109692Y0111401D03*
X0109862Y0111234D03*
X0110862Y0111234D03*
X0110862Y0111401D03*
X0110862Y0111734D03*
X0110862Y0111901D03*
X0110862Y0112234D03*
X0110862Y0112401D03*
X0110862Y0112734D03*
X0110862Y0112901D03*
X0112862Y0112234D03*
X0112862Y0111901D03*
X0112862Y0110401D03*
X0114862Y0110401D03*
X0114862Y0110734D03*
X0114692Y0112234D03*
D28*
X0114777Y0111901D03*
X0112777Y0110734D03*
X0108777Y0110734D03*
X0108777Y0110901D03*
X0108777Y0111234D03*
X0108777Y0111401D03*
X0108777Y0110401D03*
X0108777Y0110234D03*
X0108777Y0109901D03*
X0108777Y0109734D03*
X0106777Y0110734D03*
X0104277Y0110901D03*
X0104277Y0111734D03*
X0089777Y0110901D03*
X0087277Y0110734D03*
X0083277Y0110734D03*
D29*
X0083607Y0110234D03*
X0085277Y0110234D03*
X0087447Y0110401D03*
X0087607Y0112234D03*
X0089447Y0112234D03*
X0095277Y0110234D03*
X0096777Y0110234D03*
X0104607Y0112234D03*
X0106447Y0112234D03*
X0106607Y0110401D03*
X0108947Y0112734D03*
X0110777Y0109734D03*
X0114777Y0110234D03*
D30*
X0113862Y0109734D03*
X0114192Y0115234D03*
X0114192Y0115401D03*
X0114192Y0115734D03*
X0114192Y0115901D03*
X0114192Y0116234D03*
X0114192Y0116401D03*
X0114192Y0116734D03*
X0114192Y0116901D03*
X0114192Y0117234D03*
X0114192Y0117401D03*
X0114192Y0117734D03*
X0114192Y0117901D03*
X0114192Y0118234D03*
X0114192Y0118401D03*
X0114192Y0118734D03*
X0114192Y0118901D03*
X0114192Y0119234D03*
X0114192Y0119401D03*
X0104692Y0119401D03*
X0104692Y0119234D03*
X0104692Y0118901D03*
X0104692Y0118734D03*
X0104692Y0118401D03*
X0104692Y0118234D03*
X0104692Y0117901D03*
X0104692Y0117734D03*
X0104692Y0117401D03*
X0104692Y0117234D03*
X0104692Y0116901D03*
X0104692Y0116734D03*
X0104692Y0116401D03*
X0104692Y0116234D03*
X0104692Y0115901D03*
X0104692Y0115734D03*
X0104692Y0115401D03*
X0104692Y0115234D03*
X0101362Y0121234D03*
X0101362Y0121401D03*
X0101362Y0122401D03*
D31*
X0100612Y0119734D03*
X0100112Y0119234D03*
X0099942Y0118901D03*
X0099442Y0118401D03*
X0098942Y0117734D03*
X0098612Y0117401D03*
X0098442Y0117234D03*
X0098112Y0116901D03*
X0105112Y0120401D03*
X0084442Y0120401D03*
X0084442Y0109901D03*
D32*
X0084527Y0111234D03*
X0088527Y0109901D03*
X0088527Y0112734D03*
X0096027Y0109901D03*
X0105527Y0109901D03*
X0105527Y0112734D03*
X0114027Y0111234D03*
X0101027Y0120401D03*
D33*
X0104692Y0110234D03*
X0106362Y0110234D03*
X0110692Y0109901D03*
X0113192Y0111734D03*
X0114692Y0110901D03*
X0089362Y0110234D03*
X0087692Y0110234D03*
X0085192Y0110901D03*
X0083692Y0111734D03*
D34*
X0084362Y0111401D03*
X0084362Y0112734D03*
X0093192Y0120401D03*
X0091192Y0122401D03*
X0096862Y0122901D03*
X0101192Y0122901D03*
X0101192Y0120734D03*
X0100862Y0120234D03*
X0100692Y0119901D03*
X0111862Y0122401D03*
X0113862Y0120401D03*
X0113862Y0109901D03*
D35*
X0109442Y0120068D03*
X0100942Y0123068D03*
X0100442Y0119568D03*
X0099612Y0118568D03*
X0099112Y0118068D03*
X0095942Y0110068D03*
D36*
X0109112Y0111901D03*
X0110612Y0110401D03*
X0110612Y0110234D03*
D37*
X0113027Y0110234D03*
X0109027Y0112234D03*
X0109027Y0112401D03*
D38*
X0104527Y0110401D03*
X0097027Y0110734D03*
X0097027Y0110901D03*
X0097027Y0111234D03*
X0097027Y0111401D03*
X0097027Y0111734D03*
X0097027Y0111901D03*
X0097027Y0112234D03*
X0097027Y0112401D03*
X0097027Y0112734D03*
X0097027Y0112901D03*
X0095027Y0112901D03*
X0095027Y0112734D03*
X0095027Y0112401D03*
X0095027Y0112234D03*
X0095027Y0111901D03*
X0095027Y0111734D03*
X0095027Y0111401D03*
X0095027Y0111234D03*
X0095027Y0110901D03*
X0095027Y0110734D03*
X0089527Y0110401D03*
X0083527Y0112234D03*
D39*
X0095027Y0112068D03*
X0095027Y0112568D03*
X0095027Y0111568D03*
X0095027Y0111068D03*
X0095027Y0110568D03*
X0097027Y0111068D03*
X0097027Y0111568D03*
X0097027Y0112068D03*
X0097027Y0112568D03*
D40*
X0099027Y0125068D03*
X0110527Y0110568D03*
D41*
X0110527Y0110734D03*
X0109197Y0111734D03*
X0105527Y0112901D03*
X0088527Y0112901D03*
X0084357Y0112901D03*
D42*
X0110442Y0110901D03*
D43*
X0114192Y0115068D03*
X0114192Y0115568D03*
X0114192Y0116068D03*
X0114192Y0116568D03*
X0114192Y0117068D03*
X0114192Y0117568D03*
X0114192Y0118068D03*
X0114192Y0118568D03*
X0114192Y0119068D03*
X0104692Y0119068D03*
X0104692Y0118568D03*
X0104692Y0118068D03*
X0104692Y0117568D03*
X0104692Y0117068D03*
X0104692Y0116568D03*
X0104692Y0116068D03*
X0104692Y0115568D03*
X0104692Y0115068D03*
X0084862Y0111068D03*
D44*
X0114277Y0111068D03*
D45*
X0113527Y0111568D03*
X0093527Y0115068D03*
X0093527Y0115568D03*
X0093527Y0116068D03*
X0093527Y0116568D03*
X0093527Y0117068D03*
X0093527Y0117568D03*
X0093527Y0118068D03*
X0093527Y0118568D03*
X0093527Y0119068D03*
X0084027Y0119068D03*
X0084027Y0118568D03*
X0084027Y0118068D03*
X0084027Y0117568D03*
X0084027Y0117068D03*
X0084027Y0116568D03*
X0084027Y0116068D03*
X0084027Y0115568D03*
X0084027Y0115068D03*
X0084027Y0111568D03*
D46*
X0089607Y0112068D03*
X0104447Y0112068D03*
X0108947Y0112568D03*
D47*
X0109112Y0112068D03*
D48*
X0088442Y0112401D03*
D49*
X0099027Y0124901D03*
X0107027Y0122234D03*
X0109527Y0120401D03*
X0105527Y0112401D03*
D50*
X0098777Y0117568D03*
X0098277Y0117068D03*
X0100777Y0120068D03*
X0105277Y0120568D03*
X0113777Y0112568D03*
X0088777Y0120068D03*
D51*
X0113777Y0112901D03*
D52*
X0109447Y0115068D03*
X0109447Y0115568D03*
X0109447Y0116068D03*
X0109447Y0116568D03*
X0109447Y0117068D03*
X0109447Y0117568D03*
X0109447Y0118068D03*
X0109447Y0118568D03*
X0109447Y0119068D03*
X0109447Y0119568D03*
X0104947Y0120068D03*
X0104777Y0119568D03*
X0101107Y0120568D03*
X0101277Y0121068D03*
X0101447Y0121568D03*
X0101447Y0122068D03*
X0101277Y0122568D03*
X0096607Y0122068D03*
X0093447Y0119568D03*
X0088777Y0119568D03*
X0088777Y0119068D03*
X0088777Y0118568D03*
X0088777Y0118068D03*
X0088777Y0117568D03*
X0088777Y0117068D03*
X0088777Y0116568D03*
X0088777Y0116068D03*
X0088777Y0115568D03*
X0088777Y0115068D03*
X0084107Y0119568D03*
X0084277Y0120068D03*
X0114107Y0119568D03*
D53*
X0098862Y0115068D03*
D54*
X0098942Y0115234D03*
D55*
X0099027Y0115401D03*
D56*
X0099027Y0115568D03*
D57*
X0099112Y0115734D03*
D58*
X0099192Y0115901D03*
D59*
X0099277Y0116068D03*
D60*
X0099362Y0116234D03*
D61*
X0099442Y0116401D03*
D62*
X0099527Y0116568D03*
D63*
X0099527Y0116734D03*
X0099027Y0123734D03*
X0099027Y0123901D03*
D64*
X0100277Y0119401D03*
X0099777Y0118734D03*
X0099277Y0118234D03*
D65*
X0096692Y0122568D03*
X0093362Y0120068D03*
D66*
X0114027Y0120068D03*
D67*
X0111862Y0122234D03*
X0100692Y0123234D03*
X0097362Y0123234D03*
X0091192Y0122234D03*
X0088862Y0120401D03*
X0086362Y0122234D03*
D68*
X0086357Y0122068D03*
X0088857Y0120568D03*
X0091197Y0122068D03*
X0107027Y0122068D03*
X0109527Y0120568D03*
X0111857Y0122068D03*
D69*
X0088777Y0120901D03*
X0088777Y0120734D03*
D70*
X0109442Y0120734D03*
X0109442Y0120901D03*
D71*
X0088777Y0121068D03*
D72*
X0109442Y0121068D03*
D73*
X0088862Y0121234D03*
D74*
X0109527Y0121234D03*
D75*
X0109447Y0121401D03*
X0088777Y0121401D03*
D76*
X0088777Y0121568D03*
D77*
X0107027Y0121568D03*
D78*
X0111942Y0121568D03*
D79*
X0111857Y0121734D03*
X0107027Y0121734D03*
X0099027Y0124401D03*
X0091197Y0121734D03*
X0086357Y0121734D03*
D80*
X0086447Y0121901D03*
X0091277Y0121901D03*
X0107107Y0121901D03*
X0111947Y0121901D03*
D81*
X0099027Y0123401D03*
D82*
X0099027Y0123568D03*
D83*
X0099027Y0124068D03*
D84*
X0099027Y0124234D03*
D85*
X0099027Y0124568D03*
D86*
X0099027Y0124734D03*
M02*
