%
M48
M72
T01C0.03200
T02C0.03937
T03C0.05118
T04C0.11811
T05C0.31496
%
T01
X343342Y113800
X353342Y113800
X373342Y113800
X383342Y113800
X403342Y113800
X413342Y113800
X387161Y151143
X373066Y151143
X358972Y151143
X358972Y181143
X373066Y181143
X387161Y181143
T02
X147121Y206182
X147121Y196182
X147121Y186182
X147121Y176182
X158224Y297087
X168224Y297087
X178224Y297087
X188224Y297087
X198224Y297087
X208224Y297087
X218224Y297087
X228224Y297087
X238224Y297087
X248224Y297087
X258224Y297087
X268224Y297087
X278224Y297087
X288224Y297087
X298224Y297087
X308224Y297087
X308224Y307087
X298224Y307087
X288224Y307087
X278224Y307087
X268224Y307087
X258224Y307087
X248224Y307087
X238224Y307087
X228224Y307087
X218224Y307087
X208224Y307087
X198224Y307087
X188224Y307087
X178224Y307087
X168224Y307087
X158224Y307087
X148224Y307087
X138224Y307087
X128224Y307087
X118224Y307087
X118224Y297087
X128224Y297087
X138224Y297087
X148224Y297087
T03
X263736Y111143
X263736Y91457
X252948Y81143
X252948Y61457
X263736Y51143
X263736Y31457
X312948Y31457
X312948Y51143
X323736Y61457
X323736Y81143
X312948Y91457
X312948Y111143
X372948Y81143
X383736Y81143
X383736Y61457
X372948Y61457
X432948Y61457
X432948Y81143
X203736Y81143
X192948Y81143
X192948Y61457
X203736Y61457
X143736Y61457
X132948Y61457
X132948Y81143
X143736Y81143
X83736Y81143
X83736Y61457
T04
X83342Y301300
X433342Y301300
X433342Y21300
X83342Y21300
X110704Y149745
X110704Y271792
X405980Y271792
X405980Y149745
T05
X171728Y244233
M30
