G75*
%MOIN*%
%OFA0B0*%
%FSLAX25Y25*%
%IPPOS*%
%LPD*%
%AMOC8*
5,1,8,0,0,1.08239X$1,22.5*
%
%ADD10C,0.00000*%
%ADD11R,0.02660X0.00334*%
%ADD12R,0.02340X0.00334*%
%ADD13R,0.02000X0.00334*%
%ADD14R,0.02330X0.00334*%
%ADD15R,0.01660X0.00334*%
%ADD16R,0.06000X0.00334*%
%ADD17R,0.02670X0.00334*%
%ADD18R,0.04330X0.00333*%
%ADD19R,0.02340X0.00333*%
%ADD20R,0.02000X0.00333*%
%ADD21R,0.04000X0.00333*%
%ADD22R,0.01660X0.00333*%
%ADD23R,0.06000X0.00333*%
%ADD24R,0.04340X0.00333*%
%ADD25R,0.05340X0.00333*%
%ADD26R,0.02670X0.00333*%
%ADD27R,0.05000X0.00333*%
%ADD28R,0.04670X0.00333*%
%ADD29R,0.05330X0.00333*%
%ADD30R,0.05330X0.00334*%
%ADD31R,0.05660X0.00334*%
%ADD32R,0.06330X0.00333*%
%ADD33R,0.03000X0.00333*%
%ADD34R,0.06670X0.00333*%
%ADD35R,0.05660X0.00333*%
%ADD36R,0.06340X0.00333*%
%ADD37R,0.02660X0.00333*%
%ADD38R,0.03340X0.00333*%
%ADD39R,0.03340X0.00334*%
%ADD40R,0.03670X0.00333*%
%ADD41R,0.02330X0.00333*%
%ADD42R,0.01670X0.00333*%
%ADD43R,0.04000X0.00334*%
%ADD44R,0.01670X0.00334*%
%ADD45R,0.03660X0.00333*%
%ADD46R,0.05000X0.00334*%
%ADD47R,0.04660X0.00334*%
%ADD48R,0.04670X0.00334*%
%ADD49R,0.03670X0.00334*%
%ADD50R,0.03000X0.00334*%
%ADD51R,0.06340X0.00334*%
%ADD52R,0.05670X0.00333*%
%ADD53R,0.05340X0.00334*%
%ADD54R,0.04660X0.00333*%
%ADD55R,0.17660X0.00333*%
%ADD56R,0.17330X0.00334*%
%ADD57R,0.17000X0.00333*%
%ADD58R,0.16660X0.00333*%
%ADD59R,0.16330X0.00334*%
%ADD60R,0.16000X0.00333*%
%ADD61R,0.15660X0.00334*%
%ADD62R,0.15330X0.00333*%
%ADD63R,0.15000X0.00333*%
%ADD64R,0.14660X0.00334*%
%ADD65R,0.14330X0.00333*%
%ADD66R,0.14000X0.00333*%
%ADD67R,0.13660X0.00334*%
%ADD68R,0.05670X0.00334*%
%ADD69R,0.06330X0.00334*%
%ADD70R,0.06670X0.00334*%
%ADD71R,0.07670X0.00333*%
%ADD72R,0.07330X0.00333*%
%ADD73R,0.08330X0.00333*%
%ADD74R,0.08670X0.00333*%
%ADD75R,0.27000X0.00334*%
%ADD76R,0.26660X0.00333*%
%ADD77R,0.26670X0.00333*%
%ADD78R,0.26330X0.00333*%
%ADD79R,0.26000X0.00333*%
%ADD80R,0.26000X0.00334*%
%ADD81R,0.25670X0.00333*%
%ADD82R,0.25330X0.00333*%
%ADD83R,0.25000X0.00333*%
%ADD84R,0.24670X0.00333*%
%ADD85R,0.24330X0.00334*%
%ADD86R,0.24670X0.00334*%
%ADD87R,0.11670X0.00333*%
%ADD88R,0.11340X0.00333*%
%ADD89R,0.11660X0.00333*%
%ADD90R,0.11000X0.00333*%
%ADD91R,0.10660X0.00333*%
%ADD92R,0.10000X0.00334*%
%ADD93R,0.09000X0.00333*%
%ADD94R,0.09330X0.00333*%
%ADD95R,0.08000X0.00333*%
%ADD96R,0.07000X0.00333*%
%ADD97R,0.15340X0.00333*%
%ADD98R,0.15000X0.00334*%
%ADD99R,0.14660X0.00333*%
%ADD100R,0.13340X0.00334*%
%ADD101R,0.13000X0.00333*%
%ADD102R,0.12330X0.00333*%
%ADD103R,0.11670X0.00334*%
%ADD104R,0.10000X0.00333*%
%ADD105R,0.09000X0.00334*%
D10*
X0063342Y0020985D02*
X0063342Y0204056D01*
X0063344Y0204246D01*
X0063351Y0204436D01*
X0063363Y0204626D01*
X0063379Y0204816D01*
X0063399Y0205005D01*
X0063425Y0205194D01*
X0063454Y0205382D01*
X0063489Y0205569D01*
X0063528Y0205755D01*
X0063571Y0205940D01*
X0063619Y0206125D01*
X0063671Y0206308D01*
X0063727Y0206489D01*
X0063788Y0206669D01*
X0063854Y0206848D01*
X0063923Y0207025D01*
X0063997Y0207201D01*
X0064075Y0207374D01*
X0064158Y0207546D01*
X0064244Y0207715D01*
X0064334Y0207883D01*
X0064429Y0208048D01*
X0064527Y0208211D01*
X0064630Y0208371D01*
X0064736Y0208529D01*
X0064846Y0208684D01*
X0064959Y0208837D01*
X0065077Y0208987D01*
X0065198Y0209133D01*
X0065322Y0209277D01*
X0065450Y0209418D01*
X0065581Y0209556D01*
X0065716Y0209691D01*
X0065854Y0209822D01*
X0065995Y0209950D01*
X0066139Y0210074D01*
X0066285Y0210195D01*
X0066435Y0210313D01*
X0066588Y0210426D01*
X0066743Y0210536D01*
X0066901Y0210642D01*
X0067061Y0210745D01*
X0067224Y0210843D01*
X0067389Y0210938D01*
X0067557Y0211028D01*
X0067726Y0211114D01*
X0067898Y0211197D01*
X0068071Y0211275D01*
X0068247Y0211349D01*
X0068424Y0211418D01*
X0068603Y0211484D01*
X0068783Y0211545D01*
X0068964Y0211601D01*
X0069147Y0211653D01*
X0069332Y0211701D01*
X0069517Y0211744D01*
X0069703Y0211783D01*
X0069890Y0211818D01*
X0070078Y0211847D01*
X0070267Y0211873D01*
X0070456Y0211893D01*
X0070646Y0211909D01*
X0070836Y0211921D01*
X0071026Y0211928D01*
X0071216Y0211930D01*
X0083027Y0211930D01*
X0083217Y0211932D01*
X0083407Y0211939D01*
X0083597Y0211951D01*
X0083787Y0211967D01*
X0083976Y0211987D01*
X0084165Y0212013D01*
X0084353Y0212042D01*
X0084540Y0212077D01*
X0084726Y0212116D01*
X0084911Y0212159D01*
X0085096Y0212207D01*
X0085279Y0212259D01*
X0085460Y0212315D01*
X0085640Y0212376D01*
X0085819Y0212442D01*
X0085996Y0212511D01*
X0086172Y0212585D01*
X0086345Y0212663D01*
X0086517Y0212746D01*
X0086686Y0212832D01*
X0086854Y0212922D01*
X0087019Y0213017D01*
X0087182Y0213115D01*
X0087342Y0213218D01*
X0087500Y0213324D01*
X0087655Y0213434D01*
X0087808Y0213547D01*
X0087958Y0213665D01*
X0088104Y0213786D01*
X0088248Y0213910D01*
X0088389Y0214038D01*
X0088527Y0214169D01*
X0088662Y0214304D01*
X0088793Y0214442D01*
X0088921Y0214583D01*
X0089045Y0214727D01*
X0089166Y0214873D01*
X0089284Y0215023D01*
X0089397Y0215176D01*
X0089507Y0215331D01*
X0089613Y0215489D01*
X0089716Y0215649D01*
X0089814Y0215812D01*
X0089909Y0215977D01*
X0089999Y0216145D01*
X0090085Y0216314D01*
X0090168Y0216486D01*
X0090246Y0216659D01*
X0090320Y0216835D01*
X0090389Y0217012D01*
X0090455Y0217191D01*
X0090516Y0217371D01*
X0090572Y0217552D01*
X0090624Y0217735D01*
X0090672Y0217920D01*
X0090715Y0218105D01*
X0090754Y0218291D01*
X0090789Y0218478D01*
X0090818Y0218666D01*
X0090844Y0218855D01*
X0090864Y0219044D01*
X0090880Y0219234D01*
X0090892Y0219424D01*
X0090899Y0219614D01*
X0090901Y0219804D01*
X0090901Y0259174D01*
X0090899Y0259364D01*
X0090892Y0259554D01*
X0090880Y0259744D01*
X0090864Y0259934D01*
X0090844Y0260123D01*
X0090818Y0260312D01*
X0090789Y0260500D01*
X0090754Y0260687D01*
X0090715Y0260873D01*
X0090672Y0261058D01*
X0090624Y0261243D01*
X0090572Y0261426D01*
X0090516Y0261607D01*
X0090455Y0261787D01*
X0090389Y0261966D01*
X0090320Y0262143D01*
X0090246Y0262319D01*
X0090168Y0262492D01*
X0090085Y0262664D01*
X0089999Y0262833D01*
X0089909Y0263001D01*
X0089814Y0263166D01*
X0089716Y0263329D01*
X0089613Y0263489D01*
X0089507Y0263647D01*
X0089397Y0263802D01*
X0089284Y0263955D01*
X0089166Y0264105D01*
X0089045Y0264251D01*
X0088921Y0264395D01*
X0088793Y0264536D01*
X0088662Y0264674D01*
X0088527Y0264809D01*
X0088389Y0264940D01*
X0088248Y0265068D01*
X0088104Y0265192D01*
X0087958Y0265313D01*
X0087808Y0265431D01*
X0087655Y0265544D01*
X0087500Y0265654D01*
X0087342Y0265760D01*
X0087182Y0265863D01*
X0087019Y0265961D01*
X0086854Y0266056D01*
X0086686Y0266146D01*
X0086517Y0266232D01*
X0086345Y0266315D01*
X0086172Y0266393D01*
X0085996Y0266467D01*
X0085819Y0266536D01*
X0085640Y0266602D01*
X0085460Y0266663D01*
X0085279Y0266719D01*
X0085096Y0266771D01*
X0084911Y0266819D01*
X0084726Y0266862D01*
X0084540Y0266901D01*
X0084353Y0266936D01*
X0084165Y0266965D01*
X0083976Y0266991D01*
X0083787Y0267011D01*
X0083597Y0267027D01*
X0083407Y0267039D01*
X0083217Y0267046D01*
X0083027Y0267048D01*
X0071216Y0267048D01*
X0071026Y0267050D01*
X0070836Y0267057D01*
X0070646Y0267069D01*
X0070456Y0267085D01*
X0070267Y0267105D01*
X0070078Y0267131D01*
X0069890Y0267160D01*
X0069703Y0267195D01*
X0069517Y0267234D01*
X0069332Y0267277D01*
X0069147Y0267325D01*
X0068964Y0267377D01*
X0068783Y0267433D01*
X0068603Y0267494D01*
X0068424Y0267560D01*
X0068247Y0267629D01*
X0068071Y0267703D01*
X0067898Y0267781D01*
X0067726Y0267864D01*
X0067557Y0267950D01*
X0067389Y0268040D01*
X0067224Y0268135D01*
X0067061Y0268233D01*
X0066901Y0268336D01*
X0066743Y0268442D01*
X0066588Y0268552D01*
X0066435Y0268665D01*
X0066285Y0268783D01*
X0066139Y0268904D01*
X0065995Y0269028D01*
X0065854Y0269156D01*
X0065716Y0269287D01*
X0065581Y0269422D01*
X0065450Y0269560D01*
X0065322Y0269701D01*
X0065198Y0269845D01*
X0065077Y0269991D01*
X0064959Y0270141D01*
X0064846Y0270294D01*
X0064736Y0270449D01*
X0064630Y0270607D01*
X0064527Y0270767D01*
X0064429Y0270930D01*
X0064334Y0271095D01*
X0064244Y0271263D01*
X0064158Y0271432D01*
X0064075Y0271604D01*
X0063997Y0271777D01*
X0063923Y0271953D01*
X0063854Y0272130D01*
X0063788Y0272309D01*
X0063727Y0272489D01*
X0063671Y0272670D01*
X0063619Y0272853D01*
X0063571Y0273038D01*
X0063528Y0273223D01*
X0063489Y0273409D01*
X0063454Y0273596D01*
X0063425Y0273784D01*
X0063399Y0273973D01*
X0063379Y0274162D01*
X0063363Y0274352D01*
X0063351Y0274542D01*
X0063344Y0274732D01*
X0063342Y0274922D01*
X0063342Y0301300D01*
X0063348Y0301783D01*
X0063365Y0302266D01*
X0063395Y0302749D01*
X0063435Y0303230D01*
X0063488Y0303711D01*
X0063552Y0304190D01*
X0063627Y0304667D01*
X0063715Y0305143D01*
X0063813Y0305616D01*
X0063923Y0306086D01*
X0064044Y0306554D01*
X0064177Y0307019D01*
X0064321Y0307480D01*
X0064476Y0307938D01*
X0064642Y0308392D01*
X0064819Y0308842D01*
X0065006Y0309287D01*
X0065205Y0309728D01*
X0065413Y0310164D01*
X0065633Y0310594D01*
X0065863Y0311020D01*
X0066103Y0311439D01*
X0066353Y0311853D01*
X0066613Y0312260D01*
X0066882Y0312661D01*
X0067162Y0313056D01*
X0067450Y0313443D01*
X0067749Y0313824D01*
X0068056Y0314197D01*
X0068372Y0314562D01*
X0068697Y0314920D01*
X0069030Y0315270D01*
X0069372Y0315612D01*
X0069722Y0315945D01*
X0070080Y0316270D01*
X0070445Y0316586D01*
X0070818Y0316893D01*
X0071199Y0317192D01*
X0071586Y0317480D01*
X0071981Y0317760D01*
X0072382Y0318029D01*
X0072789Y0318289D01*
X0073203Y0318539D01*
X0073622Y0318779D01*
X0074048Y0319009D01*
X0074478Y0319229D01*
X0074914Y0319437D01*
X0075355Y0319636D01*
X0075800Y0319823D01*
X0076250Y0320000D01*
X0076704Y0320166D01*
X0077162Y0320321D01*
X0077623Y0320465D01*
X0078088Y0320598D01*
X0078556Y0320719D01*
X0079026Y0320829D01*
X0079499Y0320927D01*
X0079975Y0321015D01*
X0080452Y0321090D01*
X0080931Y0321154D01*
X0081412Y0321207D01*
X0081893Y0321247D01*
X0082376Y0321277D01*
X0082859Y0321294D01*
X0083342Y0321300D01*
X0433342Y0321300D01*
X0433825Y0321294D01*
X0434308Y0321277D01*
X0434791Y0321247D01*
X0435272Y0321207D01*
X0435753Y0321154D01*
X0436232Y0321090D01*
X0436709Y0321015D01*
X0437185Y0320927D01*
X0437658Y0320829D01*
X0438128Y0320719D01*
X0438596Y0320598D01*
X0439061Y0320465D01*
X0439522Y0320321D01*
X0439980Y0320166D01*
X0440434Y0320000D01*
X0440884Y0319823D01*
X0441329Y0319636D01*
X0441770Y0319437D01*
X0442206Y0319229D01*
X0442636Y0319009D01*
X0443062Y0318779D01*
X0443481Y0318539D01*
X0443895Y0318289D01*
X0444302Y0318029D01*
X0444703Y0317760D01*
X0445098Y0317480D01*
X0445485Y0317192D01*
X0445866Y0316893D01*
X0446239Y0316586D01*
X0446604Y0316270D01*
X0446962Y0315945D01*
X0447312Y0315612D01*
X0447654Y0315270D01*
X0447987Y0314920D01*
X0448312Y0314562D01*
X0448628Y0314197D01*
X0448935Y0313824D01*
X0449234Y0313443D01*
X0449522Y0313056D01*
X0449802Y0312661D01*
X0450071Y0312260D01*
X0450331Y0311853D01*
X0450581Y0311439D01*
X0450821Y0311020D01*
X0451051Y0310594D01*
X0451271Y0310164D01*
X0451479Y0309728D01*
X0451678Y0309287D01*
X0451865Y0308842D01*
X0452042Y0308392D01*
X0452208Y0307938D01*
X0452363Y0307480D01*
X0452507Y0307019D01*
X0452640Y0306554D01*
X0452761Y0306086D01*
X0452871Y0305616D01*
X0452969Y0305143D01*
X0453057Y0304667D01*
X0453132Y0304190D01*
X0453196Y0303711D01*
X0453249Y0303230D01*
X0453289Y0302749D01*
X0453319Y0302266D01*
X0453336Y0301783D01*
X0453342Y0301300D01*
X0453342Y0021300D01*
X0453336Y0020817D01*
X0453319Y0020334D01*
X0453289Y0019851D01*
X0453249Y0019370D01*
X0453196Y0018889D01*
X0453132Y0018410D01*
X0453057Y0017933D01*
X0452969Y0017457D01*
X0452871Y0016984D01*
X0452761Y0016514D01*
X0452640Y0016046D01*
X0452507Y0015581D01*
X0452363Y0015120D01*
X0452208Y0014662D01*
X0452042Y0014208D01*
X0451865Y0013758D01*
X0451678Y0013313D01*
X0451479Y0012872D01*
X0451271Y0012436D01*
X0451051Y0012006D01*
X0450821Y0011580D01*
X0450581Y0011161D01*
X0450331Y0010747D01*
X0450071Y0010340D01*
X0449802Y0009939D01*
X0449522Y0009544D01*
X0449234Y0009157D01*
X0448935Y0008776D01*
X0448628Y0008403D01*
X0448312Y0008038D01*
X0447987Y0007680D01*
X0447654Y0007330D01*
X0447312Y0006988D01*
X0446962Y0006655D01*
X0446604Y0006330D01*
X0446239Y0006014D01*
X0445866Y0005707D01*
X0445485Y0005408D01*
X0445098Y0005120D01*
X0444703Y0004840D01*
X0444302Y0004571D01*
X0443895Y0004311D01*
X0443481Y0004061D01*
X0443062Y0003821D01*
X0442636Y0003591D01*
X0442206Y0003371D01*
X0441770Y0003163D01*
X0441329Y0002964D01*
X0440884Y0002777D01*
X0440434Y0002600D01*
X0439980Y0002434D01*
X0439522Y0002279D01*
X0439061Y0002135D01*
X0438596Y0002002D01*
X0438128Y0001881D01*
X0437658Y0001771D01*
X0437185Y0001673D01*
X0436709Y0001585D01*
X0436232Y0001510D01*
X0435753Y0001446D01*
X0435272Y0001393D01*
X0434791Y0001353D01*
X0434308Y0001323D01*
X0433825Y0001306D01*
X0433342Y0001300D01*
X0083342Y0001300D01*
X0082859Y0001306D01*
X0082376Y0001323D01*
X0081893Y0001353D01*
X0081412Y0001393D01*
X0080931Y0001446D01*
X0080452Y0001510D01*
X0079975Y0001585D01*
X0079499Y0001673D01*
X0079026Y0001771D01*
X0078556Y0001881D01*
X0078088Y0002002D01*
X0077623Y0002135D01*
X0077162Y0002279D01*
X0076704Y0002434D01*
X0076250Y0002600D01*
X0075800Y0002777D01*
X0075355Y0002964D01*
X0074914Y0003163D01*
X0074478Y0003371D01*
X0074048Y0003591D01*
X0073622Y0003821D01*
X0073203Y0004061D01*
X0072789Y0004311D01*
X0072382Y0004571D01*
X0071981Y0004840D01*
X0071586Y0005120D01*
X0071199Y0005408D01*
X0070818Y0005707D01*
X0070445Y0006014D01*
X0070080Y0006330D01*
X0069722Y0006655D01*
X0069372Y0006988D01*
X0069030Y0007330D01*
X0068697Y0007680D01*
X0068372Y0008038D01*
X0068056Y0008403D01*
X0067749Y0008776D01*
X0067450Y0009157D01*
X0067162Y0009544D01*
X0066882Y0009939D01*
X0066613Y0010340D01*
X0066353Y0010747D01*
X0066103Y0011161D01*
X0065863Y0011580D01*
X0065633Y0012006D01*
X0065413Y0012436D01*
X0065205Y0012872D01*
X0065006Y0013313D01*
X0064819Y0013758D01*
X0064642Y0014208D01*
X0064476Y0014662D01*
X0064321Y0015120D01*
X0064177Y0015581D01*
X0064044Y0016046D01*
X0063923Y0016514D01*
X0063813Y0016984D01*
X0063715Y0017457D01*
X0063627Y0017933D01*
X0063552Y0018410D01*
X0063488Y0018889D01*
X0063435Y0019370D01*
X0063395Y0019851D01*
X0063365Y0020334D01*
X0063348Y0020817D01*
X0063342Y0021300D01*
X0155980Y0244233D02*
X0155985Y0244619D01*
X0155999Y0245006D01*
X0156023Y0245391D01*
X0156056Y0245777D01*
X0156098Y0246161D01*
X0156150Y0246544D01*
X0156212Y0246925D01*
X0156283Y0247305D01*
X0156363Y0247683D01*
X0156452Y0248059D01*
X0156550Y0248433D01*
X0156658Y0248804D01*
X0156775Y0249173D01*
X0156901Y0249538D01*
X0157035Y0249901D01*
X0157179Y0250259D01*
X0157331Y0250615D01*
X0157492Y0250966D01*
X0157662Y0251313D01*
X0157840Y0251657D01*
X0158026Y0251995D01*
X0158220Y0252329D01*
X0158423Y0252658D01*
X0158634Y0252982D01*
X0158853Y0253301D01*
X0159079Y0253614D01*
X0159313Y0253922D01*
X0159555Y0254223D01*
X0159803Y0254519D01*
X0160060Y0254809D01*
X0160323Y0255092D01*
X0160592Y0255369D01*
X0160869Y0255638D01*
X0161152Y0255901D01*
X0161442Y0256158D01*
X0161738Y0256406D01*
X0162039Y0256648D01*
X0162347Y0256882D01*
X0162660Y0257108D01*
X0162979Y0257327D01*
X0163303Y0257538D01*
X0163632Y0257741D01*
X0163966Y0257935D01*
X0164304Y0258121D01*
X0164648Y0258299D01*
X0164995Y0258469D01*
X0165346Y0258630D01*
X0165702Y0258782D01*
X0166060Y0258926D01*
X0166423Y0259060D01*
X0166788Y0259186D01*
X0167157Y0259303D01*
X0167528Y0259411D01*
X0167902Y0259509D01*
X0168278Y0259598D01*
X0168656Y0259678D01*
X0169036Y0259749D01*
X0169417Y0259811D01*
X0169800Y0259863D01*
X0170184Y0259905D01*
X0170570Y0259938D01*
X0170955Y0259962D01*
X0171342Y0259976D01*
X0171728Y0259981D01*
X0172114Y0259976D01*
X0172501Y0259962D01*
X0172886Y0259938D01*
X0173272Y0259905D01*
X0173656Y0259863D01*
X0174039Y0259811D01*
X0174420Y0259749D01*
X0174800Y0259678D01*
X0175178Y0259598D01*
X0175554Y0259509D01*
X0175928Y0259411D01*
X0176299Y0259303D01*
X0176668Y0259186D01*
X0177033Y0259060D01*
X0177396Y0258926D01*
X0177754Y0258782D01*
X0178110Y0258630D01*
X0178461Y0258469D01*
X0178808Y0258299D01*
X0179152Y0258121D01*
X0179490Y0257935D01*
X0179824Y0257741D01*
X0180153Y0257538D01*
X0180477Y0257327D01*
X0180796Y0257108D01*
X0181109Y0256882D01*
X0181417Y0256648D01*
X0181718Y0256406D01*
X0182014Y0256158D01*
X0182304Y0255901D01*
X0182587Y0255638D01*
X0182864Y0255369D01*
X0183133Y0255092D01*
X0183396Y0254809D01*
X0183653Y0254519D01*
X0183901Y0254223D01*
X0184143Y0253922D01*
X0184377Y0253614D01*
X0184603Y0253301D01*
X0184822Y0252982D01*
X0185033Y0252658D01*
X0185236Y0252329D01*
X0185430Y0251995D01*
X0185616Y0251657D01*
X0185794Y0251313D01*
X0185964Y0250966D01*
X0186125Y0250615D01*
X0186277Y0250259D01*
X0186421Y0249901D01*
X0186555Y0249538D01*
X0186681Y0249173D01*
X0186798Y0248804D01*
X0186906Y0248433D01*
X0187004Y0248059D01*
X0187093Y0247683D01*
X0187173Y0247305D01*
X0187244Y0246925D01*
X0187306Y0246544D01*
X0187358Y0246161D01*
X0187400Y0245777D01*
X0187433Y0245391D01*
X0187457Y0245006D01*
X0187471Y0244619D01*
X0187476Y0244233D01*
X0187471Y0243847D01*
X0187457Y0243460D01*
X0187433Y0243075D01*
X0187400Y0242689D01*
X0187358Y0242305D01*
X0187306Y0241922D01*
X0187244Y0241541D01*
X0187173Y0241161D01*
X0187093Y0240783D01*
X0187004Y0240407D01*
X0186906Y0240033D01*
X0186798Y0239662D01*
X0186681Y0239293D01*
X0186555Y0238928D01*
X0186421Y0238565D01*
X0186277Y0238207D01*
X0186125Y0237851D01*
X0185964Y0237500D01*
X0185794Y0237153D01*
X0185616Y0236809D01*
X0185430Y0236471D01*
X0185236Y0236137D01*
X0185033Y0235808D01*
X0184822Y0235484D01*
X0184603Y0235165D01*
X0184377Y0234852D01*
X0184143Y0234544D01*
X0183901Y0234243D01*
X0183653Y0233947D01*
X0183396Y0233657D01*
X0183133Y0233374D01*
X0182864Y0233097D01*
X0182587Y0232828D01*
X0182304Y0232565D01*
X0182014Y0232308D01*
X0181718Y0232060D01*
X0181417Y0231818D01*
X0181109Y0231584D01*
X0180796Y0231358D01*
X0180477Y0231139D01*
X0180153Y0230928D01*
X0179824Y0230725D01*
X0179490Y0230531D01*
X0179152Y0230345D01*
X0178808Y0230167D01*
X0178461Y0229997D01*
X0178110Y0229836D01*
X0177754Y0229684D01*
X0177396Y0229540D01*
X0177033Y0229406D01*
X0176668Y0229280D01*
X0176299Y0229163D01*
X0175928Y0229055D01*
X0175554Y0228957D01*
X0175178Y0228868D01*
X0174800Y0228788D01*
X0174420Y0228717D01*
X0174039Y0228655D01*
X0173656Y0228603D01*
X0173272Y0228561D01*
X0172886Y0228528D01*
X0172501Y0228504D01*
X0172114Y0228490D01*
X0171728Y0228485D01*
X0171342Y0228490D01*
X0170955Y0228504D01*
X0170570Y0228528D01*
X0170184Y0228561D01*
X0169800Y0228603D01*
X0169417Y0228655D01*
X0169036Y0228717D01*
X0168656Y0228788D01*
X0168278Y0228868D01*
X0167902Y0228957D01*
X0167528Y0229055D01*
X0167157Y0229163D01*
X0166788Y0229280D01*
X0166423Y0229406D01*
X0166060Y0229540D01*
X0165702Y0229684D01*
X0165346Y0229836D01*
X0164995Y0229997D01*
X0164648Y0230167D01*
X0164304Y0230345D01*
X0163966Y0230531D01*
X0163632Y0230725D01*
X0163303Y0230928D01*
X0162979Y0231139D01*
X0162660Y0231358D01*
X0162347Y0231584D01*
X0162039Y0231818D01*
X0161738Y0232060D01*
X0161442Y0232308D01*
X0161152Y0232565D01*
X0160869Y0232828D01*
X0160592Y0233097D01*
X0160323Y0233374D01*
X0160060Y0233657D01*
X0159803Y0233947D01*
X0159555Y0234243D01*
X0159313Y0234544D01*
X0159079Y0234852D01*
X0158853Y0235165D01*
X0158634Y0235484D01*
X0158423Y0235808D01*
X0158220Y0236137D01*
X0158026Y0236471D01*
X0157840Y0236809D01*
X0157662Y0237153D01*
X0157492Y0237500D01*
X0157331Y0237851D01*
X0157179Y0238207D01*
X0157035Y0238565D01*
X0156901Y0238928D01*
X0156775Y0239293D01*
X0156658Y0239662D01*
X0156550Y0240033D01*
X0156452Y0240407D01*
X0156363Y0240783D01*
X0156283Y0241161D01*
X0156212Y0241541D01*
X0156150Y0241922D01*
X0156098Y0242305D01*
X0156056Y0242689D01*
X0156023Y0243075D01*
X0155999Y0243460D01*
X0155985Y0243847D01*
X0155980Y0244233D01*
D11*
X0224322Y0150906D03*
X0285322Y0152906D03*
D12*
X0287822Y0150906D03*
X0290822Y0153906D03*
X0284822Y0156906D03*
X0268822Y0150906D03*
X0266822Y0152906D03*
X0231822Y0150906D03*
D13*
X0231652Y0154906D03*
X0231652Y0155906D03*
X0231652Y0156906D03*
X0231652Y0157906D03*
X0231652Y0158906D03*
X0234652Y0155906D03*
X0234322Y0154906D03*
X0236992Y0154906D03*
X0236992Y0153906D03*
X0236992Y0152906D03*
X0236992Y0151906D03*
X0236992Y0150906D03*
X0236992Y0155906D03*
X0241652Y0155906D03*
X0241652Y0154906D03*
X0241992Y0153906D03*
X0241992Y0156906D03*
X0247992Y0156906D03*
X0248322Y0155906D03*
X0248322Y0154906D03*
X0247992Y0153906D03*
X0252992Y0153906D03*
X0252992Y0152906D03*
X0252992Y0151906D03*
X0252992Y0150906D03*
X0252992Y0154906D03*
X0252992Y0155906D03*
X0252992Y0156906D03*
X0252992Y0157906D03*
X0252992Y0158906D03*
X0271322Y0158906D03*
X0271322Y0157906D03*
X0271322Y0156906D03*
X0271322Y0155906D03*
X0271322Y0154906D03*
X0271322Y0153906D03*
X0270992Y0152906D03*
X0279652Y0152906D03*
X0279652Y0153906D03*
X0279652Y0154906D03*
X0279652Y0155906D03*
X0279652Y0156906D03*
X0279652Y0157906D03*
X0279652Y0158906D03*
X0284652Y0153906D03*
X0290992Y0154906D03*
X0290992Y0155906D03*
X0290652Y0156906D03*
X0295652Y0156906D03*
X0300652Y0153906D03*
X0295652Y0152906D03*
X0226992Y0153906D03*
X0226652Y0152906D03*
X0221652Y0152906D03*
X0221652Y0153906D03*
X0226652Y0156906D03*
D14*
X0226487Y0157906D03*
X0222157Y0157906D03*
X0242487Y0152906D03*
X0245157Y0150906D03*
X0247487Y0152906D03*
X0290157Y0152906D03*
X0295487Y0153906D03*
X0296157Y0157906D03*
X0300157Y0157906D03*
X0300487Y0152906D03*
D15*
X0259822Y0152906D03*
X0259822Y0151906D03*
X0259822Y0150906D03*
X0259822Y0153906D03*
X0259822Y0154906D03*
X0259822Y0155906D03*
X0259822Y0156906D03*
X0221822Y0156906D03*
D16*
X0224322Y0151906D03*
X0244992Y0151906D03*
X0261322Y0171906D03*
X0259652Y0173906D03*
X0258652Y0174906D03*
X0257992Y0175906D03*
X0256322Y0184906D03*
X0266322Y0184906D03*
X0277652Y0151906D03*
X0277652Y0150906D03*
X0297992Y0151906D03*
D17*
X0297987Y0150906D03*
X0285657Y0157906D03*
X0242987Y0157906D03*
X0236657Y0158906D03*
X0231987Y0151906D03*
D18*
X0224157Y0151240D03*
X0224487Y0159240D03*
X0229157Y0183240D03*
X0241157Y0183240D03*
X0298157Y0159240D03*
D19*
X0295822Y0154240D03*
X0284822Y0153573D03*
X0247822Y0153240D03*
X0247822Y0157240D03*
X0236822Y0159240D03*
X0231822Y0151240D03*
D20*
X0231652Y0154573D03*
X0231652Y0155240D03*
X0231652Y0155573D03*
X0231652Y0156240D03*
X0231652Y0156573D03*
X0231652Y0157240D03*
X0231652Y0157573D03*
X0231652Y0158240D03*
X0231652Y0158573D03*
X0231652Y0159240D03*
X0231652Y0159573D03*
X0234652Y0155573D03*
X0234322Y0155240D03*
X0233992Y0154573D03*
X0236992Y0154573D03*
X0236992Y0154240D03*
X0236992Y0153573D03*
X0236992Y0153240D03*
X0236992Y0152573D03*
X0236992Y0152240D03*
X0236992Y0151573D03*
X0236992Y0151240D03*
X0236992Y0155240D03*
X0236992Y0155573D03*
X0236992Y0159573D03*
X0242322Y0157240D03*
X0241992Y0156573D03*
X0241652Y0155573D03*
X0241652Y0155240D03*
X0241992Y0153573D03*
X0242322Y0153240D03*
X0247992Y0153573D03*
X0248322Y0154240D03*
X0248322Y0154573D03*
X0248322Y0155240D03*
X0248322Y0155573D03*
X0248322Y0156240D03*
X0247992Y0156573D03*
X0252992Y0156573D03*
X0252992Y0156240D03*
X0252992Y0155573D03*
X0252992Y0155240D03*
X0252992Y0154573D03*
X0252992Y0154240D03*
X0252992Y0153573D03*
X0252992Y0153240D03*
X0252992Y0152573D03*
X0252992Y0152240D03*
X0252992Y0151573D03*
X0252992Y0151240D03*
X0252992Y0157240D03*
X0252992Y0157573D03*
X0252992Y0158240D03*
X0252992Y0158573D03*
X0252992Y0159240D03*
X0252992Y0159573D03*
X0266652Y0153240D03*
X0271322Y0153240D03*
X0271322Y0153573D03*
X0271322Y0154240D03*
X0271322Y0154573D03*
X0271322Y0155240D03*
X0271322Y0155573D03*
X0271322Y0156240D03*
X0271322Y0156573D03*
X0271322Y0157240D03*
X0271322Y0157573D03*
X0271322Y0158240D03*
X0271322Y0158573D03*
X0271322Y0159240D03*
X0271322Y0159573D03*
X0279652Y0159573D03*
X0279652Y0159240D03*
X0279652Y0158573D03*
X0279652Y0158240D03*
X0279652Y0157573D03*
X0279652Y0157240D03*
X0279652Y0156573D03*
X0279652Y0156240D03*
X0279652Y0155573D03*
X0279652Y0155240D03*
X0279652Y0154573D03*
X0279652Y0154240D03*
X0279652Y0153573D03*
X0279652Y0153240D03*
X0284652Y0154240D03*
X0284992Y0153240D03*
X0284652Y0156240D03*
X0284652Y0156573D03*
X0284992Y0157240D03*
X0290992Y0156573D03*
X0290992Y0156240D03*
X0290992Y0155573D03*
X0290992Y0155240D03*
X0290992Y0154573D03*
X0290992Y0154240D03*
X0290652Y0153573D03*
X0295322Y0153573D03*
X0295322Y0153240D03*
X0295652Y0157240D03*
X0295652Y0157573D03*
X0300322Y0157573D03*
X0300652Y0153573D03*
X0300652Y0153240D03*
X0226992Y0153573D03*
X0226652Y0157240D03*
X0226652Y0157573D03*
X0221992Y0157573D03*
X0221652Y0153573D03*
X0221652Y0153240D03*
D21*
X0232652Y0154240D03*
X0235992Y0156240D03*
X0235992Y0156573D03*
X0244992Y0159240D03*
X0244992Y0151240D03*
X0268992Y0151240D03*
X0287652Y0151240D03*
X0287652Y0159240D03*
X0296652Y0154573D03*
D22*
X0259822Y0154573D03*
X0259822Y0154240D03*
X0259822Y0153573D03*
X0259822Y0153240D03*
X0259822Y0152573D03*
X0259822Y0152240D03*
X0259822Y0151573D03*
X0259822Y0151240D03*
X0259822Y0155240D03*
X0259822Y0155573D03*
X0259822Y0156240D03*
X0259822Y0156573D03*
X0259822Y0157240D03*
X0259822Y0157573D03*
X0241822Y0156240D03*
X0241822Y0154573D03*
X0241822Y0154240D03*
X0226822Y0153240D03*
X0221822Y0157240D03*
D23*
X0224322Y0158240D03*
X0224322Y0158573D03*
X0244992Y0158573D03*
X0260652Y0172573D03*
X0260992Y0172240D03*
X0261652Y0171573D03*
X0263322Y0169573D03*
X0263652Y0169240D03*
X0259322Y0174240D03*
X0258992Y0174573D03*
X0261322Y0189573D03*
X0276322Y0178573D03*
X0286992Y0177573D03*
X0287652Y0158573D03*
X0277652Y0152573D03*
X0277652Y0152240D03*
X0277652Y0151573D03*
X0277652Y0151240D03*
X0235322Y0177573D03*
X0224652Y0178573D03*
D24*
X0297822Y0151240D03*
D25*
X0298322Y0155573D03*
X0298322Y0177573D03*
X0256322Y0178240D03*
X0224322Y0178240D03*
X0224322Y0151573D03*
D26*
X0221987Y0152573D03*
X0221987Y0154240D03*
X0231987Y0151573D03*
X0236657Y0158573D03*
X0244987Y0159573D03*
X0270657Y0152573D03*
X0287657Y0159573D03*
X0295987Y0152573D03*
X0299987Y0152573D03*
D27*
X0297822Y0155240D03*
X0298822Y0164573D03*
X0298822Y0165240D03*
X0298822Y0165573D03*
X0298822Y0166240D03*
X0298822Y0166573D03*
X0298822Y0167240D03*
X0298822Y0167573D03*
X0298822Y0168240D03*
X0298822Y0168573D03*
X0298822Y0169240D03*
X0298822Y0169573D03*
X0298822Y0170240D03*
X0298822Y0170573D03*
X0298822Y0171240D03*
X0298822Y0171573D03*
X0298822Y0172240D03*
X0298822Y0172573D03*
X0298822Y0173240D03*
X0298822Y0173573D03*
X0298822Y0174240D03*
X0298822Y0174573D03*
X0298822Y0175240D03*
X0298822Y0175573D03*
X0298822Y0176240D03*
X0298492Y0177240D03*
X0287152Y0176573D03*
X0287152Y0176240D03*
X0275492Y0177240D03*
X0267492Y0182240D03*
X0267492Y0182573D03*
X0267152Y0183240D03*
X0267152Y0183573D03*
X0255822Y0179573D03*
X0255822Y0179240D03*
X0256152Y0178573D03*
X0255492Y0180240D03*
X0255492Y0180573D03*
X0255492Y0183240D03*
X0255492Y0183573D03*
X0246822Y0177240D03*
X0235152Y0176573D03*
X0235152Y0176240D03*
X0223822Y0177240D03*
X0223822Y0177573D03*
X0223492Y0176240D03*
X0223492Y0175573D03*
X0223492Y0175240D03*
X0223492Y0174573D03*
X0223492Y0174240D03*
X0223492Y0173573D03*
X0223492Y0173240D03*
X0223492Y0172573D03*
X0223492Y0172240D03*
X0223492Y0171573D03*
X0223492Y0171240D03*
X0223492Y0170573D03*
X0223492Y0170240D03*
X0223492Y0169573D03*
X0223492Y0169240D03*
X0223492Y0168573D03*
X0223492Y0168240D03*
X0223492Y0167573D03*
X0223492Y0167240D03*
X0223492Y0166573D03*
X0223492Y0166240D03*
X0223492Y0165573D03*
X0223492Y0165240D03*
X0223492Y0164573D03*
X0224492Y0155573D03*
X0245152Y0151573D03*
X0287822Y0151573D03*
D28*
X0286987Y0164573D03*
X0286987Y0165240D03*
X0286987Y0165573D03*
X0286987Y0166240D03*
X0286987Y0166573D03*
X0286987Y0167240D03*
X0286987Y0167573D03*
X0286987Y0168240D03*
X0286987Y0168573D03*
X0286987Y0169240D03*
X0286987Y0169573D03*
X0286987Y0170240D03*
X0286987Y0170573D03*
X0286987Y0171240D03*
X0286987Y0171573D03*
X0286987Y0172240D03*
X0286987Y0172573D03*
X0286987Y0173240D03*
X0286987Y0173573D03*
X0286987Y0174240D03*
X0286987Y0174573D03*
X0286987Y0175240D03*
X0286987Y0175573D03*
X0280987Y0183240D03*
X0292987Y0183240D03*
X0298657Y0176573D03*
X0267657Y0181240D03*
X0267657Y0181573D03*
X0246987Y0176573D03*
X0246987Y0176240D03*
X0246987Y0175573D03*
X0246987Y0175240D03*
X0246987Y0174573D03*
X0246987Y0174240D03*
X0246987Y0173573D03*
X0246987Y0173240D03*
X0246987Y0172573D03*
X0246987Y0172240D03*
X0246987Y0171573D03*
X0246987Y0171240D03*
X0246987Y0170573D03*
X0246987Y0170240D03*
X0246987Y0169573D03*
X0246987Y0169240D03*
X0246987Y0168573D03*
X0246987Y0168240D03*
X0246987Y0167573D03*
X0246987Y0167240D03*
X0246987Y0166573D03*
X0246987Y0166240D03*
X0246987Y0165573D03*
X0246987Y0165240D03*
X0246987Y0164573D03*
X0268987Y0151573D03*
X0223657Y0176573D03*
D29*
X0246657Y0177573D03*
X0256987Y0177240D03*
X0255987Y0184240D03*
X0275657Y0177573D03*
X0297987Y0151573D03*
X0223987Y0155240D03*
D30*
X0244987Y0158906D03*
X0256657Y0177906D03*
X0255987Y0178906D03*
X0266987Y0183906D03*
X0275987Y0177906D03*
X0286987Y0176906D03*
X0268987Y0151906D03*
X0223987Y0177906D03*
D31*
X0287822Y0151906D03*
D32*
X0298157Y0158240D03*
X0297487Y0178573D03*
X0224157Y0152240D03*
D33*
X0232152Y0152240D03*
X0236492Y0158240D03*
X0243152Y0152573D03*
X0247152Y0152573D03*
X0285822Y0152573D03*
X0289822Y0152573D03*
X0298152Y0159573D03*
D34*
X0297987Y0152240D03*
X0256987Y0185240D03*
X0244987Y0158240D03*
X0244987Y0152240D03*
D35*
X0268822Y0152240D03*
X0262822Y0170240D03*
X0261822Y0171240D03*
X0259822Y0173573D03*
X0257822Y0176240D03*
X0256822Y0177573D03*
X0266822Y0184240D03*
X0297822Y0178240D03*
D36*
X0287822Y0158240D03*
X0287822Y0152240D03*
X0259822Y0158240D03*
X0259822Y0158573D03*
X0259822Y0159240D03*
X0259822Y0159573D03*
X0245822Y0178573D03*
D37*
X0224322Y0159573D03*
X0226322Y0152573D03*
X0267322Y0152573D03*
D38*
X0236322Y0157573D03*
X0232322Y0152573D03*
D39*
X0232322Y0152906D03*
D40*
X0232487Y0153240D03*
X0232487Y0153573D03*
X0236157Y0157240D03*
X0225487Y0156240D03*
X0299487Y0156240D03*
D41*
X0300157Y0156573D03*
X0290487Y0157240D03*
X0290157Y0157573D03*
X0290487Y0153240D03*
X0285157Y0157573D03*
X0247487Y0157573D03*
X0242487Y0157573D03*
X0226487Y0156573D03*
D42*
X0266487Y0156573D03*
X0266487Y0156240D03*
X0266487Y0155573D03*
X0266487Y0155240D03*
X0266487Y0154573D03*
X0266487Y0154240D03*
X0266487Y0153573D03*
X0266487Y0157240D03*
X0266487Y0157573D03*
X0266487Y0158240D03*
X0266487Y0158573D03*
X0266487Y0159240D03*
X0266487Y0159573D03*
X0284487Y0155573D03*
X0284487Y0155240D03*
X0284487Y0154573D03*
X0300487Y0157240D03*
D43*
X0232652Y0153906D03*
D44*
X0266487Y0153906D03*
X0266487Y0154906D03*
X0266487Y0155906D03*
X0266487Y0156906D03*
X0266487Y0157906D03*
X0266487Y0158906D03*
X0284487Y0155906D03*
X0284487Y0154906D03*
X0300487Y0156906D03*
D45*
X0222822Y0154573D03*
D46*
X0223492Y0154906D03*
X0223492Y0164906D03*
X0223492Y0165906D03*
X0223492Y0166906D03*
X0223492Y0167906D03*
X0223492Y0168906D03*
X0223492Y0169906D03*
X0223492Y0170906D03*
X0223492Y0171906D03*
X0223492Y0172906D03*
X0223492Y0173906D03*
X0223492Y0174906D03*
X0223492Y0175906D03*
X0246822Y0176906D03*
X0255492Y0182906D03*
X0255822Y0183906D03*
X0267492Y0182906D03*
X0275492Y0176906D03*
X0287822Y0158906D03*
X0298152Y0158906D03*
X0298822Y0164906D03*
X0298822Y0165906D03*
X0298822Y0166906D03*
X0298822Y0167906D03*
X0298822Y0168906D03*
X0298822Y0169906D03*
X0298822Y0170906D03*
X0298822Y0171906D03*
X0298822Y0172906D03*
X0298822Y0173906D03*
X0298822Y0174906D03*
X0298822Y0175906D03*
D47*
X0275322Y0175906D03*
X0275322Y0174906D03*
X0275322Y0173906D03*
X0275322Y0172906D03*
X0275322Y0171906D03*
X0275322Y0170906D03*
X0275322Y0169906D03*
X0275322Y0168906D03*
X0275322Y0167906D03*
X0275322Y0166906D03*
X0275322Y0165906D03*
X0275322Y0164906D03*
X0297322Y0154906D03*
X0255322Y0180906D03*
X0255322Y0181906D03*
X0235322Y0175906D03*
X0235322Y0174906D03*
X0235322Y0173906D03*
X0235322Y0172906D03*
X0235322Y0171906D03*
X0235322Y0170906D03*
X0235322Y0169906D03*
X0235322Y0168906D03*
X0235322Y0167906D03*
X0235322Y0166906D03*
X0235322Y0165906D03*
X0235322Y0164906D03*
D48*
X0246987Y0164906D03*
X0246987Y0165906D03*
X0246987Y0166906D03*
X0246987Y0167906D03*
X0246987Y0168906D03*
X0246987Y0169906D03*
X0246987Y0170906D03*
X0246987Y0171906D03*
X0246987Y0172906D03*
X0246987Y0173906D03*
X0246987Y0174906D03*
X0246987Y0175906D03*
X0255657Y0179906D03*
X0267657Y0181906D03*
X0286987Y0175906D03*
X0286987Y0174906D03*
X0286987Y0173906D03*
X0286987Y0172906D03*
X0286987Y0171906D03*
X0286987Y0170906D03*
X0286987Y0169906D03*
X0286987Y0168906D03*
X0286987Y0167906D03*
X0286987Y0166906D03*
X0286987Y0165906D03*
X0286987Y0164906D03*
X0298657Y0155906D03*
X0298657Y0176906D03*
X0223657Y0176906D03*
X0224987Y0155906D03*
D49*
X0236157Y0156906D03*
X0261487Y0189906D03*
D50*
X0247152Y0157906D03*
X0236492Y0157906D03*
X0289822Y0157906D03*
D51*
X0259822Y0157906D03*
X0259822Y0158906D03*
D52*
X0262487Y0170573D03*
X0260157Y0173240D03*
X0258487Y0175240D03*
X0258157Y0175573D03*
X0257487Y0176573D03*
X0256157Y0184573D03*
X0266487Y0184573D03*
X0276157Y0178240D03*
X0287157Y0177240D03*
X0298157Y0158573D03*
X0246157Y0178240D03*
X0235157Y0177240D03*
D53*
X0235322Y0176906D03*
X0246322Y0177906D03*
X0224322Y0158906D03*
D54*
X0235322Y0164573D03*
X0235322Y0165240D03*
X0235322Y0165573D03*
X0235322Y0166240D03*
X0235322Y0166573D03*
X0235322Y0167240D03*
X0235322Y0167573D03*
X0235322Y0168240D03*
X0235322Y0168573D03*
X0235322Y0169240D03*
X0235322Y0169573D03*
X0235322Y0170240D03*
X0235322Y0170573D03*
X0235322Y0171240D03*
X0235322Y0171573D03*
X0235322Y0172240D03*
X0235322Y0172573D03*
X0235322Y0173240D03*
X0235322Y0173573D03*
X0235322Y0174240D03*
X0235322Y0174573D03*
X0235322Y0175240D03*
X0235322Y0175573D03*
X0255322Y0181240D03*
X0255322Y0181573D03*
X0255322Y0182240D03*
X0255322Y0182573D03*
X0275322Y0176573D03*
X0275322Y0176240D03*
X0275322Y0175573D03*
X0275322Y0175240D03*
X0275322Y0174573D03*
X0275322Y0174240D03*
X0275322Y0173573D03*
X0275322Y0173240D03*
X0275322Y0172573D03*
X0275322Y0172240D03*
X0275322Y0171573D03*
X0275322Y0171240D03*
X0275322Y0170573D03*
X0275322Y0170240D03*
X0275322Y0169573D03*
X0275322Y0169240D03*
X0275322Y0168573D03*
X0275322Y0168240D03*
X0275322Y0167573D03*
X0275322Y0167240D03*
X0275322Y0166573D03*
X0275322Y0166240D03*
X0275322Y0165573D03*
X0275322Y0165240D03*
X0275322Y0164573D03*
D55*
X0261822Y0164573D03*
D56*
X0261657Y0164906D03*
D57*
X0261492Y0165240D03*
D58*
X0261322Y0165573D03*
D59*
X0261157Y0165906D03*
D60*
X0260992Y0166240D03*
X0260992Y0166573D03*
D61*
X0260822Y0166906D03*
D62*
X0260657Y0167240D03*
D63*
X0260492Y0167573D03*
D64*
X0260322Y0167906D03*
D65*
X0260157Y0168240D03*
D66*
X0259992Y0168573D03*
X0261322Y0186573D03*
D67*
X0259822Y0168906D03*
D68*
X0262157Y0170906D03*
X0263157Y0169906D03*
X0260487Y0172906D03*
X0257157Y0176906D03*
X0298157Y0177906D03*
D69*
X0241157Y0182906D03*
X0235157Y0177906D03*
X0229157Y0182906D03*
D70*
X0280987Y0182906D03*
X0286987Y0177906D03*
X0292987Y0182906D03*
D71*
X0261487Y0189240D03*
X0235157Y0178240D03*
D72*
X0286987Y0178240D03*
D73*
X0235157Y0178573D03*
D74*
X0286987Y0178573D03*
D75*
X0287152Y0178906D03*
X0235152Y0178906D03*
D76*
X0235322Y0179240D03*
D77*
X0286987Y0179240D03*
D78*
X0235157Y0179573D03*
D79*
X0286992Y0179573D03*
D80*
X0286992Y0179906D03*
X0235322Y0179906D03*
D81*
X0235157Y0180240D03*
D82*
X0286987Y0180240D03*
D83*
X0235152Y0180573D03*
D84*
X0286987Y0180573D03*
D85*
X0235157Y0180906D03*
D86*
X0286987Y0180906D03*
D87*
X0293157Y0181240D03*
X0229157Y0181240D03*
D88*
X0241322Y0181240D03*
D89*
X0280822Y0181240D03*
D90*
X0280822Y0181573D03*
X0293152Y0181573D03*
X0229152Y0181573D03*
D91*
X0241322Y0181573D03*
X0261322Y0188240D03*
D92*
X0280992Y0181906D03*
X0292992Y0181906D03*
X0241322Y0181906D03*
X0228992Y0181906D03*
D93*
X0229152Y0182240D03*
X0241152Y0182240D03*
X0280822Y0182240D03*
D94*
X0292987Y0182240D03*
D95*
X0292992Y0182573D03*
X0280992Y0182573D03*
X0241322Y0182573D03*
X0228992Y0182573D03*
D96*
X0265822Y0185240D03*
D97*
X0261322Y0185573D03*
D98*
X0261492Y0185906D03*
D99*
X0261322Y0186240D03*
D100*
X0261322Y0186906D03*
D101*
X0261492Y0187240D03*
D102*
X0261487Y0187573D03*
D103*
X0261487Y0187906D03*
D104*
X0261322Y0188573D03*
D105*
X0261492Y0188906D03*
M02*
